<?xml version="1.0" encoding="UTF-8" standalone="no"?>
<!-- Created with Inkscape (http://www.inkscape.org/) -->

<svg
   xmlns:dc="http://purl.org/dc/elements/1.1/"
   xmlns:cc="http://creativecommons.org/ns#"
   xmlns:rdf="http://www.w3.org/1999/02/22-rdf-syntax-ns#"
   xmlns:svg="http://www.w3.org/2000/svg"
   xmlns="http://www.w3.org/2000/svg"
   xmlns:sodipodi="http://sodipodi.sourceforge.net/DTD/sodipodi-0.dtd"
   xmlns:inkscape="http://www.inkscape.org/namespaces/inkscape"
   width="210mm"
   height="297mm"
   viewBox="0 0 744.09448819 1052.3622047"
   id="svg2"
   version="1.1"
   inkscape:version="0.91 r13725"
   sodipodi:docname="android_1.svg">
  <defs
     id="defs4" />
  <sodipodi:namedview
     id="base"
     pagecolor="#ffffff"
     bordercolor="#000000"
     borderopacity="1.0"
     inkscape:pageopacity="0.0"
     inkscape:pageshadow="2"
     inkscape:zoom="0.98994949"
     inkscape:cx="19.530681"
     inkscape:cy="747.91638"
     inkscape:document-units="px"
     inkscape:current-layer="layer1"
     showgrid="false"
     inkscape:window-width="1366"
     inkscape:window-height="706"
     inkscape:window-x="-8"
     inkscape:window-y="-8"
     inkscape:window-maximized="1" />
  <metadata
     id="metadata7">
    <rdf:RDF>
      <cc:Work
         rdf:about="">
        <dc:format>image/svg+xml</dc:format>
        <dc:type
           rdf:resource="http://purl.org/dc/dcmitype/StillImage" />
        <dc:title />
      </cc:Work>
    </rdf:RDF>
  </metadata>
  <g
     inkscape:label="Layer 1"
     inkscape:groupmode="layer"
     id="layer1">
    <path
       style="fill:none;fill-rule:evenodd;stroke:#000000;stroke-width:4.70549726px"
       d="M 116.69737,2.6794416 136.96038,40.42793 C 90.226055,65.771451 71.287657,112.292 74.217149,146.368 l 257.650721,0 C 335.10621,115.10952 308.23443,59.40141 269.12462,40.288818 L 290.34092,2.390366 273.50687,2.3785509 255.6995,33.193683 C 220.35469,21.093721 182.84293,22.373773 150.66369,33.680608 L 132.64762,2.3785514 Z M 321.3643,135.93399 l -236.713111,0 C 103.79693,9.4495347 298.36868,-2.5443931 321.3643,135.93399 Z M 138.69938,72.982067 c -12.34671,3.024974 -15.80512,19.168259 -6.19085,27.754503 9.61425,8.58626 25.27639,3.67653 28.24141,-8.764576 2.96501,-12.441119 -9.70386,-22.014897 -22.05056,-18.989927 z m 9.11238,10.642704 c 3.54756,2.851967 3.89537,6.121301 1.11296,9.321068 -4.93877,5.425679 -13.35555,-0.278282 -10.36446,-6.956015 1.53033,-3.338891 6.53866,-4.590968 9.2515,-2.365053 z m 97.17548,6.816904 c 2.42459,15.297765 22.09473,16.796465 27.82404,10.781805 5.72932,-6.01466 9.44462,-14.615609 0.41739,-24.485164 -9.02723,-9.869554 -30.666,-1.594409 -28.24143,13.703359 z m 19.89421,-7.02559 c 4.03449,2.08681 4.17359,7.860298 0.20868,10.573151 -5.70395,3.825803 -12.45126,-2.851966 -8.69502,-8.55589 1.94768,-2.991096 5.14744,-3.756247 8.48634,-2.017261 z M 2.5501342,174.58341 2.3535367,303.69995 C 16.013203,333.24782 56.14631,333.98843 69.284968,302.85305 L 69.139261,173.84426 C 56.678202,145.77945 17.354887,143.79625 2.5501342,174.58341 Z m 55.7033978,-0.80382 0.236683,129.20079 C 45.133531,320.8802 27.490523,322.3365 12.756872,303.72201 l -0.0846,-129.02361 c 13.237312,-18.35037 35.964058,-14.81847 45.581259,-0.91881 z m 279.989608,-0.26376 0.009,129.51945 c 13.0839,29.76674 50.94811,31.54553 66.31177,-0.024 l -0.22079,-128.91117 c -14.09375,-29.68505 -54.16201,-27.30237 -66.10069,-0.58439 z m 54.92977,0.67463 0.30411,128.46946 c -9.81578,20.00423 -33.25944,19.07691 -44.8808,0.25892 l 0,-128.98707 c 12.26096,-17.51125 34.83748,-15.8678 44.57669,0.2588 z M 73.451988,150.88942 73.869366,347.18808 c 2.668742,9.5302 8.233093,17.91513 25.435364,22.18376 l 25.18576,0.49283 0.15308,70.27312 c 11.8448,30.06874 54.72371,22.61907 61.52937,-0.55446 l 0.27095,-70.14073 32.31917,0.28262 0.23372,70.48395 c 13.75289,27.31474 55.54005,25.17973 64.00214,0.18998 l 0.31598,-70.60447 25.07245,-0.0586 c 12.13091,-0.55112 23.72313,-14.40701 23.75874,-23.52263 L 332.49392,151.23666 73.452005,150.88883 Z M 320.66866,347.88368 c -0.31385,5.7023 -5.57793,11.23382 -12.26214,11.67383 l -34.51361,0.37923 -0.40419,80.25962 c -6.0397,13.07395 -31.92009,18.19919 -44.1466,-0.1573 l 0.0632,-80.17146 -52.59891,-0.35246 0.026,80.18371 c -7.9994,15.79014 -35.37691,16.22763 -43.37632,0.43723 L 133.697,359.93693 99.499786,359.36177 C 92.790024,358.88915 85.289348,352.146 84.347332,346.31521 l -0.682909,-185.76965 238.325707,0.43013 z"
       id="path3333"
       inkscape:connector-curvature="0" />
  </g>
</svg>
