<?xml version="1.0" encoding="UTF-8" standalone="no"?>
<!-- Created with Inkscape (http://www.inkscape.org/) -->

<svg
   xmlns:dc="http://purl.org/dc/elements/1.1/"
   xmlns:cc="http://creativecommons.org/ns#"
   xmlns:rdf="http://www.w3.org/1999/02/22-rdf-syntax-ns#"
   xmlns:svg="http://www.w3.org/2000/svg"
   xmlns="http://www.w3.org/2000/svg"
   xmlns:sodipodi="http://sodipodi.sourceforge.net/DTD/sodipodi-0.dtd"
   xmlns:inkscape="http://www.inkscape.org/namespaces/inkscape"
   width="210mm"
   height="297mm"
   viewBox="0 0 744.09448819 1052.3622047"
   id="svg2"
   version="1.1"
   inkscape:version="0.91 r13725"
   sodipodi:docname="ball_1.svg">
  <defs
     id="defs4" />
  <sodipodi:namedview
     id="base"
     pagecolor="#ffffff"
     bordercolor="#000000"
     borderopacity="1.0"
     inkscape:pageopacity="0.0"
     inkscape:pageshadow="2"
     inkscape:zoom="0.98994949"
     inkscape:cx="318.75604"
     inkscape:cy="871.55041"
     inkscape:document-units="px"
     inkscape:current-layer="layer1"
     showgrid="false"
     inkscape:window-width="1366"
     inkscape:window-height="706"
     inkscape:window-x="-8"
     inkscape:window-y="-8"
     inkscape:window-maximized="1" />
  <metadata
     id="metadata7">
    <rdf:RDF>
      <cc:Work
         rdf:about="">
        <dc:format>image/svg+xml</dc:format>
        <dc:type
           rdf:resource="http://purl.org/dc/dcmitype/StillImage" />
        <dc:title />
      </cc:Work>
    </rdf:RDF>
  </metadata>
  <g
     inkscape:label="Layer 1"
     inkscape:groupmode="layer"
     id="layer1">
    <path
       style="fill:none;fill-rule:evenodd;stroke:#000000;stroke-width:6.15261221px"
       d="M 3.6361013,287.79438 C 2.4179886,239.39673 26.386068,191.84714 66.705088,164.78691 132.4422,114.82399 219.20489,92.057141 300.76198,105.81281 c 40.38579,-6.231639 58.2596,35.69426 44.05218,67.98042 -21.96046,21.47631 -60.15848,1.05073 -88.59966,12.15854 C 164.00673,197.82505 72.987017,237.91444 10.667805,308.35134 10.287647,300.81606 0.64077585,295.79502 3.6361197,287.79438 l -1.84e-5,0 z m 1.1137828,42.94889 C 9.6598163,296.60179 43.708581,278.82559 67.383548,258.07729 147.08456,201.66775 246.99425,179.29831 343.60955,183.09226 c 2.39412,38.89976 -15.91118,76.02828 -37.93541,106.84491 -30.24242,16.86062 -67.8513,-2.33793 -99.91004,13.01041 C 149.53657,316.55836 86.949428,333.70783 50.961312,382.72849 37.884504,422.09361 10.244868,382.02676 8.1066324,358.858 5.067002,349.65283 5.489914,340.19615 4.7499208,330.74329 l -3.67e-5,0 z M 20.187459,213.99889 C 25.000205,171.1626 53.232749,135.74303 79.133038,103.10376 108.32926,68.317984 148.07488,42.816228 192.73947,33.474039 c 35.40196,-9.246509 71.88839,-13.09331 108.18387,-16.977276 27.5255,21.141976 45.03534,57.906491 40.42332,92.682117 -21.37876,5.41505 -59.17903,-12.892549 -88.0067,-8.42802 -81.75785,0.77004 -165.3387,33.53762 -220.590571,94.66873 -4.600358,5.89915 -8.736514,12.15101 -12.56193,18.5793 l 0,0 z m -4.382334,168.98102 c 30.572694,24.51595 31.575013,67.00698 50.363313,98.99065 C 43.647029,452.97774 23.823006,419.10649 15.805125,382.97991 Z m 24.208966,23.35635 c 9.590613,-26.426 39.65631,-63.5658 64.741139,-60.80389 10.0278,25.82933 14.37222,53.8165 30.67101,77.10163 43.76207,80.33253 123.84662,149.82752 219.05459,152.01532 15.56972,3.15584 56.84493,-7.32893 55.16749,-2.99086 -39.79293,19.54367 -85.86399,23.82925 -129.70973,22.25689 C 198.5095,588.50782 117.40124,549.39784 68.448541,483.22773 54.593819,459.46225 46.718174,432.84111 40.014085,406.34002 l 0,-0.004 z m 67.023889,-67.37844 c 21.97201,-10.21847 63.13728,-41.30153 79.64772,-16.24893 40.29315,79.36065 108.41353,146.84044 192.27735,178.57273 43.54176,14.52644 92.52489,14.29746 134.98595,-3.83143 -17.70871,27.49554 -47.01295,45.12915 -74.62863,61.32547 C 368.74088,588.90179 283.42481,572.5666 223.95685,525.59865 166.39936,480.03419 121.21767,414.82094 107.19145,342.07249 l -0.0829,-1.68495 -0.0706,-1.42972 0,0 0,0 z M 136.48225,53.194472 C 189.89835,16.453601 256.09064,-0.77699724 320.65464,3.8000908 287.60521,24.894396 246.13491,16.880654 209.8946,28.301756 184.61163,33.806502 159.51629,41.208943 136.48225,53.194452 l 0,2e-5 z m 46.12246,258.871938 c 35.1678,-16.64666 75.18963,-16.37647 113.19626,-14.09867 22.91356,35.68754 39.25253,77.16914 74.83118,102.8972 41.46293,37.02343 101.79766,47.47451 154.04185,30.07731 17.94127,-12.12098 37.86021,-4.37558 28.06219,19.66755 -11.79463,39.92051 -53.67399,57.45277 -92.05207,59.38913 -78.51635,7.84303 -150.34547,-36.76454 -203.38519,-90.64108 -30.94228,-30.97793 -57.07603,-67.10081 -74.69425,-107.29146 l 3e-5,2e-5 z M 301.86897,15.236246 c 28.61759,-22.7045474 67.59239,-2.160391 96.8742,8.704611 29.12415,24.918216 33.02693,66.378804 40.72354,101.775483 12.8678,83.09265 7.66289,172.3565 -31.20315,248.2047 -9.2877,26.58735 -35.98021,40.98996 -53.0885,12.24485 -19.8814,-21.92665 -35.08328,-47.44081 -49.42961,-73.12754 -8.48471,-24.57973 19.28856,-41.90568 25.10511,-64.38015 11.33296,-22.40698 14.21495,-47.60968 15.48712,-72.13312 5.33999,-36.68646 0.0864,-74.74489 -9.56173,-110.267318 -6.766,-19.655904 -17.75372,-38.69375 -34.90698,-51.021528 l 0,1.8e-5 z m 82.25397,392.435944 c 56.33452,-63.64461 65.26573,-154.01923 61.0253,-235.3838 -2.58184,-47.97213 -9.87698,-97.547032 -35.17342,-139.323983 26.14077,0.809474 54.25552,25.363681 74.73741,43.4461 58.04947,73.808263 75.12008,181.783133 30.98919,266.588833 -17.3597,34.29154 -40.87364,65.24327 -68.47802,91.93569 -23.10874,-1.89882 -46.53261,-10.64246 -63.1005,-27.26284 l 4e-5,0 z m 64.24128,27.63064 C 509.03299,376.8293 552.96884,292.78911 539.85715,206.61744 534.63725,166.25792 519.9007,127.2707 497.83137,93.127369 c 40.41965,25.187291 62.89418,69.798201 83.10955,111.242241 29.06039,72.43333 13.26185,160.71771 -38.67082,218.60959 -26.67002,15.12685 -64.30139,17.44224 -93.90588,12.32361 z m 99.88,-13.52453 c 20.81219,-36.35549 44.42745,-73.21006 46.5965,-116.34277 3.23474,-14.42138 -1.78253,28.29482 -3.52377,37.28236 -5.5351,31.73976 -12.76275,65.61482 -32.43394,91.51171 -4.52571,-2.51051 -2.50674,-14.73659 -10.63875,-12.4513 l -4e-5,0 z"
       id="path3333"
       inkscape:connector-curvature="0" />
  </g>
</svg>
