<?xml version="1.0"?>
<svg width="640" height="480" xmlns="http://www.w3.org/2000/svg" xmlns:svg="http://www.w3.org/2000/svg">
 <!-- Created with SVG-edit - http://svg-edit.googlecode.com/ -->
 <g>
  <title>Layer 1</title>
  <path id="svg_3" d="m10.36617,54.855167c-0.197983,-7.866199 3.697611,-15.594558 10.250766,-19.992725c10.684423,-8.120605 24.786191,-11.82096 38.041874,-9.585216c6.564009,-1.012844 9.469087,5.801481 7.159916,11.049033c-3.56929,3.490601 -9.777714,0.17078 -14.400336,1.97616c-14.986766,1.929796 -29.780436,8.445629 -39.909339,19.893921c-0.061788,-1.224732 -1.629719,-2.040812 -1.142878,-3.341173l-0.000003,0zm0.181026,6.98059c0.798024,-5.549103 6.332058,-8.438314 10.180012,-11.810591c12.954012,-9.168386 29.192593,-12.804151 44.89573,-12.187512c0.389123,6.322481 -2.586086,12.357077 -6.165742,17.36578c-4.915378,2.740401 -11.028049,-0.379989 -16.238636,2.114618c-9.138808,2.212197 -19.311259,4.999546 -25.160501,12.966999c-2.125407,6.398116 -6.617749,-0.114054 -6.965282,-3.879733c-0.494039,-1.496142 -0.425302,-3.03316 -0.545575,-4.569557l-0.000006,-0.000003zm2.509109,-18.974764c0.782228,-6.962296 5.370937,-12.71913 9.580578,-18.024076c4.745338,-5.653822 11.205297,-9.798688 18.464748,-11.317098c5.75397,-1.502859 11.684209,-2.12809 17.583405,-2.759361c4.473792,3.43626 7.31971,9.411692 6.570105,15.063865c-3.474743,0.880121 -9.618518,-2.09546 -14.303956,-1.369829c-13.288313,0.125157 -26.872927,5.450958 -35.853157,15.386756c-0.747708,0.958804 -1.419968,1.974935 -2.041723,3.01974l0,0.000003zm-0.712272,27.46492c4.969059,3.984643 5.131969,10.89082 8.18568,16.089209c-3.660463,-4.712278 -6.882513,-10.217461 -8.18568,-16.089209zm3.934746,3.796169c1.558787,-4.295086 6.445443,-10.331515 10.522545,-9.882614c1.629845,4.198112 2.335954,8.746934 4.98504,12.531526c7.112761,13.056659 20.129114,24.351855 35.603512,24.707447c2.530585,0.512932 9.23915,-1.191188 8.966515,-0.486114c-6.467649,3.176485 -13.955698,3.87303 -21.082061,3.61747c-13.23488,-0.878902 -26.417617,-7.235545 -34.374026,-17.990345c-2.251844,-3.862664 -3.531893,-8.189465 -4.621526,-12.496759l0,-0.000611zm10.893567,-10.951195c3.571168,-1.660833 10.261866,-6.712839 12.94535,-2.640979c6.54895,12.898692 17.620731,23.866359 31.251338,29.023892c7.076954,2.36102 15.038308,2.323803 21.939617,-0.622735c-2.878244,4.468924 -7.64114,7.33496 -12.129587,9.96739c-11.471468,4.896479 -25.338107,2.241478 -35.003591,-5.392347c-9.354969,-7.405708 -16.698465,-18.00499 -18.978184,-29.828985l-0.013475,-0.273857l-0.011468,-0.232377l0,0l0,0zm4.785654,-46.445855c8.681856,-5.971589 19.440259,-8.772123 29.934017,-8.028197c-5.371612,3.428512 -12.111887,2.126018 -18.002116,3.982319c-4.109308,0.894701 -8.18812,2.097839 -11.931901,4.045875l0,0.000003zm7.496402,42.075127c5.715914,-2.705625 12.220766,-2.661708 18.398082,-2.291491c3.7242,5.800386 6.379812,12.542499 12.162507,16.724146c6.739075,6.017513 16.545437,7.716157 25.036818,4.888543c2.916045,-1.970054 6.153521,-0.711173 4.561021,3.196619c-1.91701,6.488384 -8.723768,9.337948 -14.961461,9.652671c-12.761466,1.274748 -24.436036,-5.975436 -33.056721,-14.732131c-5.029131,-5.034923 -9.276716,-10.90607 -12.14025,-17.43836l0.000003,0.000003zm19.384331,-48.244576c4.651289,-3.690229 10.985968,-0.351134 15.745214,1.414783c4.733624,4.050022 5.367953,10.788719 6.618903,16.541833c2.091436,13.505266 1.24547,28.013549 -5.071529,40.341355c-1.509556,4.321313 -5.847955,6.662202 -8.62861,1.990185c-3.231376,-3.563795 -5.70218,-7.710679 -8.033925,-11.885608c-1.379041,-3.995009 3.135019,-6.811038 4.080399,-10.463876c1.841973,-3.641861 2.310393,-7.738121 2.517161,-11.723979c0.867922,-5.962746 0.014031,-12.148482 -1.554094,-17.922034c-1.099695,-3.194725 -2.885556,-6.288995 -5.673519,-8.292661l0,0.000003zm13.368948,63.783633c9.156197,-10.344324 10.607809,-25.033146 9.918602,-38.257541c-0.419629,-7.797035 -1.605329,-15.854572 -5.716828,-22.644688c4.248729,0.131566 8.818293,4.122425 12.147264,7.061407c9.434932,11.996249 12.209466,29.545683 5.036756,43.329376c-2.821518,5.573493 -6.643297,10.604156 -11.129911,14.942545c-3.755924,-0.308617 -7.563067,-1.729748 -10.255886,-4.4311l0.000003,0zm10.441305,4.490878c9.860651,-9.503854 17.001658,-23.163124 14.870579,-37.168829c-0.848402,-6.559739 -3.243571,-12.896432 -6.830555,-18.445836c6.56951,4.093755 10.222355,11.344482 13.508007,18.080492c4.723265,11.772776 2.155483,26.121864 -6.285265,35.531184c-4.334749,2.458602 -10.451073,2.834928 -15.262766,2.002988zm16.233756,-2.198175c3.382656,-5.908951 7.220906,-11.899022 7.573449,-18.909492c0.525748,-2.343947 -0.289718,4.598829 -0.572729,6.059601c-0.899634,5.158742 -2.07436,10.664542 -5.27157,14.87363c-0.735577,-0.408038 -0.407427,-2.395175 -1.729147,-2.023739l-0.000003,0z" stroke-linecap="null" stroke-linejoin="null" stroke-dasharray="null" stroke-width="5" stroke="#000000" fill="#ffffff"/>
 </g>
</svg>