<?xml version="1.0"?>
<svg width="640" height="480" xmlns="http://www.w3.org/2000/svg" xmlns:svg="http://www.w3.org/2000/svg" xmlns:xlink="http://www.w3.org/1999/xlink">
 <!-- Created with SVG-edit - http://svg-edit.googlecode.com/ -->
 <g>
  <title>Layer 1</title>
  <g id="svg_3"/>
  <use id="svg_17" xlink:href="#svg_16" transform="matrix(0.6843491264123002,0,0,0.7603147840683419,-117.76211052796543,16.60476125674793) " y="-13.15245" x="208.95767"/>
  <g id="svg_18"/>
  <g id="svg_24"/>
  <path id="svg_8" d="m126.429955,102.080536c-0.416897,-7.170443 -1.354546,-19.510341 -11.715785,-13.558154c-4.794763,1.78433 -19.190717,6.323645 -12.230132,-3.055399c-3.815202,-9.34534 -19.339153,4.564795 -20.407703,-1.929348c8.349744,-8.963915 -4.02469,-18.814932 -12.770615,-12.460698c-5.381694,1.482889 -16.353308,10.868658 -18.500881,7.891904c4.998291,-6.334352 16.256943,-19.302881 2.677728,-23.191097c-14.756159,-3.346731 -27.721725,6.813109 -40.553385,12.35871c-3.850632,3.005963 -8.751801,2.48202 -3.962005,-2.521877c16.617872,-25.792352 42.699325,-45.209536 71.638239,-55.076765c7.014937,-2.279577 17.815868,-7.32685 18.027528,4.188041c4.33768,10.597773 7.423846,23.847777 18.594207,29.300844c12.865086,7.152421 3.643063,-20.645853 16.971123,-10.145194c5.609288,3.63813 17.611801,-3.297135 19.257174,0.599878c-3.268178,4.676622 -4.80185,12.9789 3.833207,8.711253c14.9951,-5.898861 26.009088,-19.111836 33.392697,-33.016365c7.712829,-1.15893 15.38171,4.68153 22.414274,7.784168c23.354777,13.223607 37.766001,38.211097 43.886892,63.685341c-6.356356,-3.573736 -12.518484,-10.798052 -20.220547,-13.638753c-8.21162,-4.102881 -17.473088,-4.82632 -26.499453,-4.544365c-4.230281,5.041995 -6.728605,11.301069 -3.051611,17.564999c3.201065,11.998455 -10.211987,-4.129455 -15.054797,-5.225153c-9.042072,-6.464311 -17.704857,3.301478 -15.720938,12.476699c-2.044702,1.768118 -8.35094,-2.964498 -12.056166,-2.415218c-7.618115,-2.294679 -12.983824,1.010823 -8.394509,8.933822c-6.719868,-0.820014 -16.536087,-11.180975 -22.479047,-1.425624c-2.590842,2.437003 -3.925759,7.292195 -7.075476,8.708366l-0.000017,-0.000017z" stroke-width="5" stroke="#000000" fill="#ffffff"/>
 </g>
</svg>