<svg xmlns="http://www.w3.org/2000/svg" xmlns:xlink="http://www.w3.org/1999/xlink" version="1.1" xml:space="preserve" width="500" height="500"><rect id="backgroundrect" width="100%" height="100%" x="0" y="0" fill="none" stroke="none"/>
<style type="text/css">
	.st0{fill:#FFFFFF;}
	.st1{fill:none;stroke:#1D1D1B;stroke-miterlimit:10;}
</style>


<g class="currentLayer"><title>Layer 1</title><path class="st1 selected" d="M282.80000762939454,88.19999389648439 c-5.8,0 -11.4,0.7000000000000002 -16.7,2.1 l-23.6,-65.3 l-2.4,-6.6 c-4.1,-11 -14.7,-18.4 -26.4,-18.4 h-19.9 c-3.6,0 -6.5,2.9 -6.5,6.5 s2.9,6.5 6.5,6.5 h19.9 c6.3,0 12,4 14.2,9.9 l2.4,6.6 l9.5,26.4 H122.90000762939454 L111.80000762939454,36.899993896484375 c12.9,-1.9 24.3,-6.1 24.3,-11.5 c0,-6.3 -35.4,-3.9 -35.6,-4 c-12,-1.4 -8.8,-5.2 -19.1,-5.3 c-4.3,0 -8.7,0.6000000000000002 -10.9,5.3 c-6.7,14 7.1,17.6 27,16.7 l13.7,23.4 c-0.3000000000000001,0.4 -0.6000000000000002,0.9 -0.9,1.4 l-16.6,30.5 c-8.1,-3.4 -17,-5.3 -26.3,-5.3 c-37.1,0 -67.4,30.2 -67.4,67.4 c0,37.1 30.2,67.4 67.4,67.4 c35,0 63.8,-26.8 67,-60.9 h39.1 c0,0 0,0 0.1,0 c0.1,0 0.3000000000000001,0 0.4,0 c0.3000000000000001,0 0.7000000000000002,-0.1 1,-0.1 c1.3,-0.3000000000000001 2.5,-1 3.5,-2 c0.1,-0.1 0.2,-0.2 0.2,-0.3000000000000001 l67.8,-84.9 l7.3,20.1 c-22.7,10.8 -38.4,34 -38.4,60.8 c0,37.1 30.2,67.4 67.4,67.4 c37.1,0 67.4,-30.2 67.4,-67.4 C350.2000076293945,118.39999389648438 319.9000076293945,88.19999389648439 282.80000762939454,88.19999389648439 zM67.50000762939453,209.89999389648438 c-30,0 -54.4,-24.4 -54.4,-54.4 s24.4,-54.4 54.4,-54.4 c7.1,0 13.8,1.4 20,3.8 l-19.7,36.3 c-0.1,0 -0.2,0 -0.3000000000000001,0 c-7.9,0 -14.2,6.4 -14.2,14.2 s6.4,14.2 14.2,14.2 c5.5,0 10.3,-3.2 12.7,-7.8 h41.3 C118.30000762939454,188.89999389648438 95.30000762939454,209.89999389648438 67.50000762939453,209.89999389648438 zM80.20000762939452,148.9999938964844 c-0.3000000000000001,-0.5 -0.6000000000000002,-1.1 -0.9,-1.6 l19.7,-36.3 c12.2,8.7 20.7,22.3 22.5,37.8 H80.20000762939452 zM134.60000762939453,148.9999938964844 c-2,-20.5 -13.2,-38.3 -29.4,-49.3 l13.6,-25.1 l43.6,74.4 H134.60000762939453 zM174.50000762939453,144.09999389648436 l-44.1,-75.3 h104.2 L174.50000762939453,144.09999389648436 zM282.80000762939454,209.89999389648438 c-30,0 -54.4,-24.4 -54.4,-54.4 c0,-21.2 12.2,-39.6 29.9,-48.5 l14.1,38.8 c-2.4,2.5 -3.8,5.9 -3.8,9.7 c0,7.9 6.4,14.2 14.2,14.2 c7.9,0 14.2,-6.4 14.2,-14.2 c0,-7.3 -5.4,-13.2 -12.5,-14.1 l-14.1,-38.8 c3.9,-0.9 8,-1.4 12.3,-1.4 c30,0 54.4,24.4 54.4,54.4 S312.80000762939454,209.89999389648438 282.80000762939454,209.89999389648438 z" id="svg_2"/></g></svg>