<?xml version="1.0" encoding="UTF-8" standalone="no"?>
<!-- Created with Inkscape (http://www.inkscape.org/) -->

<svg
   xmlns:dc="http://purl.org/dc/elements/1.1/"
   xmlns:cc="http://creativecommons.org/ns#"
   xmlns:rdf="http://www.w3.org/1999/02/22-rdf-syntax-ns#"
   xmlns:svg="http://www.w3.org/2000/svg"
   xmlns="http://www.w3.org/2000/svg"
   xmlns:sodipodi="http://sodipodi.sourceforge.net/DTD/sodipodi-0.dtd"
   xmlns:inkscape="http://www.inkscape.org/namespaces/inkscape"
   width="210mm"
   height="297mm"
   viewBox="0 0 744.09448819 1052.3622047"
   id="svg2"
   version="1.1"
   inkscape:version="0.91 r13725"
   sodipodi:docname="bicycle_1.svg">
  <defs
     id="defs4" />
  <sodipodi:namedview
     id="base"
     pagecolor="#ffffff"
     bordercolor="#000000"
     borderopacity="1.0"
     inkscape:pageopacity="0.0"
     inkscape:pageshadow="2"
     inkscape:zoom="0.7"
     inkscape:cx="329.53606"
     inkscape:cy="855.04741"
     inkscape:document-units="px"
     inkscape:current-layer="layer1"
     showgrid="false"
     inkscape:window-width="1366"
     inkscape:window-height="706"
     inkscape:window-x="-8"
     inkscape:window-y="-8"
     inkscape:window-maximized="1" />
  <metadata
     id="metadata7">
    <rdf:RDF>
      <cc:Work
         rdf:about="">
        <dc:format>image/svg+xml</dc:format>
        <dc:type
           rdf:resource="http://purl.org/dc/dcmitype/StillImage" />
        <dc:title />
      </cc:Work>
    </rdf:RDF>
  </metadata>
  <g
     inkscape:label="Layer 1"
     inkscape:groupmode="layer"
     id="layer1">
    <path
       style="fill:none;fill-rule:evenodd;stroke:#000000;stroke-width:1.69963443px"
       d="M 453.12511,154.32681 C 438.36749,113.6022 423.73758,72.831256 408.93461,32.123091 401.96611,13.427112 383.94999,0.84981721 364.06427,0.84981721 l -33.82273,0 c -6.11868,0 -11.04762,4.92893989 -11.04762,11.04762379 0,6.118684 4.92894,11.047624 11.04762,11.047624 l 33.82273,0 c 10.70769,0 20.39561,6.798537 24.1348,16.826381 6.80092,18.674607 13.49631,37.387455 20.22565,56.087936 l -198.68726,0 -18.86594,-32.293054 c 21.92528,-3.229306 41.30111,-10.36777 41.30111,-19.545796 0,-10.707697 -60.16705,-6.628575 -60.50698,-6.798538 -20.39561,-2.379488 -14.95678,-8.838099 -32.46302,-9.008062 -7.30843,0 -14.78682,1.01978 -18.52601,9.008062 -11.38756,23.794882 12.0674,29.913566 45.89013,28.383895 l 23.28499,39.771441 C 179.67854,122.9705 169.929,141.55131 160.10813,159.59567 79.933253,126.30883 1.7054711,183.85002 0.85238836,265.14297 0.19071483,328.19594 52.181348,379.69833 115.40775,379.69833 c 59.4872,0 108.43668,-45.5502 113.87551,-103.50774 l 66.4557,0 c 5.20364,-0.55843 6.74225,-1.935 8.8381,-4.07912 l 115.23521,-144.29896 12.40734,34.16265 c -38.58171,18.35605 -65.26597,57.78757 -65.26597,103.33777 0,63.05644 51.32896,114.55536 114.55536,114.55536 63.05644,0 114.6871,-51.32909 114.55537,-114.55536 -0.11558,-55.51004 -43.1842,-128.54392 -142.93926,-110.98612 z m -337.5474,203.27627 c -50.989031,0 -91.968816,-41.47344 -92.460111,-92.46011 -0.6687,-69.39796 72.334677,-110.17808 126.452801,-86.0015 l -33.4828,61.69673 -0.50989,0 c -13.42711,0 -24.134807,10.87766 -24.134807,24.13481 0,13.25715 10.877657,24.13481 24.134807,24.13481 9.34799,0 17.50624,-5.43883 21.58536,-13.25715 l 70.1949,0 c -5.43883,46.06009 -44.53042,81.75241 -91.78026,81.75241 z M 135.6334,251.37593 169.1162,189.6792 c 20.73554,14.78682 35.18243,37.90185 38.24177,64.24618 l -70.1949,0 c 0,0 -1.21002,-1.97407 -1.52967,-2.54945 z m 93.98978,2.71942 c -3.39927,-34.84251 -22.43517,-65.096 -49.96925,-83.79198 l 23.11503,-42.66082 74.10406,126.4528 z m 67.81542,-8.32821 -74.95388,-127.98247 177.10191,0 z M 481.509,357.60308 c -50.98903,0 -92.46011,-41.47108 -92.46011,-92.46011 0,-36.03225 20.73554,-67.30552 50.81907,-82.43227 l 23.96485,65.94582 c -4.07913,4.24908 -6.45861,10.02784 -6.45861,16.48645 0,13.42711 10.87766,24.13481 24.1348,24.13481 13.42712,0 24.13481,-10.87766 24.13481,-24.13481 0,-12.40733 -9.17802,-22.43517 -21.24543,-23.96484 l -23.96484,-65.94582 c 83.11516,-11.79957 112.79863,48.60919 113.36561,90.08062 0.69706,50.98428 -41.30111,92.29015 -92.29015,92.29015 z"
       id="path3333"
       inkscape:connector-curvature="0" />
  </g>
</svg>
