<?xml version="1.0" encoding="UTF-8" standalone="no"?>
<svg
   xmlns:dc="http://purl.org/dc/elements/1.1/"
   xmlns:cc="http://creativecommons.org/ns#"
   xmlns:rdf="http://www.w3.org/1999/02/22-rdf-syntax-ns#"
   xmlns:svg="http://www.w3.org/2000/svg"
   xmlns="http://www.w3.org/2000/svg"
   xml:space="preserve"
   style="enable-background:new 0 0 500 500;"
   viewBox="0 0 500 500"
   y="0px"
   x="0px"
   id="Ñëîé_1"
   version="1.1"><metadata
     id="metadata13"><rdf:RDF><cc:Work
         rdf:about=""><dc:format>image/svg+xml</dc:format><dc:type
           rdf:resource="http://purl.org/dc/dcmitype/StillImage" /><dc:title></dc:title></cc:Work></rdf:RDF></metadata><defs
     id="defs11" /><style
     id="style3"
     type="text/css">
	.st0{fill:#FFFFFF;}
	.st1{fill:none;stroke:#1D1D1B;stroke-miterlimit:10;}
</style><path
     d="m 283.3,210.4 c 31.32079,0.74965 57.95966,-28.78087 54.01865,-59.85479 C 335.02546,119.03933 301.48204,94.994712 270.9,103.1 c 3.75151,10.3233 7.50302,20.64661 11.25453,30.96991 0.90926,11.5866 19.18399,10.56504 15.05934,24.7797 -4.66124,23.41743 -40.69172,4.81176 -24.31387,-12.54961 -4.7,-12.93333 -9.4,-25.86667 -14.1,-38.8 -15.61492,7.73852 -26.96635,23.41741 -29.34121,40.69434 C 223.88415,179.68425 251.33147,211.40376 283.3,210.4 Z M 175,144.6 c 20.03333,-25.1 40.06667,-50.2 60.1,-75.3 -34.73333,0 -69.46667,0 -104.2,0 14.7,25.1 29.4,50.2 44.1,75.3 z m -39.9,4.9 c 9.26667,0 18.53333,0 27.8,0 -14.53333,-24.8 -29.06667,-49.6 -43.6,-74.4 -4.53333,8.366667 -9.06667,16.733333 -13.6,25.1 16.43197,11.03046 27.59881,29.56277 29.4,49.3 z m -54.4,0 c 12.732619,-0.23306 25.90113,-0.0335 38.80067,-0.1 5.53084,-9.98883 -8.91143,-30.37792 -20.00067,-37.8 -4.182385,7.70663 -8.36477,15.41326 -12.547155,23.11988 C 85.247978,139.64371 79.525831,144.59801 80.7,149.5 Z M 68,210.4 c 26.849012,0.53335 51.34823,-21.42706 54,-48.1 -9.87883,0 -19.75765,0 -29.636481,0 -7.853632,-1.08056 -13.455945,0.53171 -18.56098,6.54492 C 53.576624,178.39948 45.442292,141.28605 68,141.7 c 4.731753,-7.41815 8.775084,-15.99317 13.244535,-23.85211 1.210857,-4.88366 11.292973,-13.28918 2.013277,-14.05414 C 53.077131,93.91359 18.116469,116.253 14.227869,147.72565 8.3248665,179.35007 35.860548,211.41411 68,210.4 Z M 283.3,88.7 c 26.56586,-0.267422 51.94528,16.62189 62.08594,41.175 14.82874,32.80147 -2.31386,75.15743 -35.90313,88.325 -32.79514,14.80517 -75.1208,-2.34462 -88.28281,-35.91719 -14.31291,-31.79834 1.22252,-72.74999 33.1,-86.98281 -2.43333,-6.7 -4.86667,-13.4 -7.3,-20.1 -18.44098,23.092023 -36.88196,46.18405 -55.32294,69.27607 -5.5276,5.80006 -9.16205,13.97653 -16.17706,17.92393 -10.46825,0.24081 -20.95914,0.0279 -31.43581,0.1 -14.94723,-4.14102 -8.72116,15.75913 -16.06106,23.90156 -15.21336,32.14597 -57.7226,46.48249 -89.313359,30.33092 C 5.8152348,201.93336 -9.2678396,158.82134 7.1675201,126.78977 21.549416,94.970986 62.437028,79.676258 94.2,93.9 100.06528,83.285595 105.66176,72.511926 111.7,62 108.95734,57.315459 106.21468,52.630918 103.47202,47.946377 100.55978,38.651361 93.655334,37.176848 84.44375,38.339063 67.33315,41.965318 63.87236,14.969591 81.9,16.6 c 14.806015,5.946117 30.52694,5.199666 46.48345,5.600781 C 148.46354,25.793877 120.88298,38.814437 112.3,37.4 c 3.7,6.333333 7.4,12.666667 11.1,19 38.96667,0 77.93333,0 116.9,0 C 236.71006,46.444978 233.14779,36.479944 229.53884,26.5318 227.69272,16.672069 217.65054,12.158976 208.46285,13.5 201.71758,12.577737 192.70278,16.17222 188.30937,9.534375 185.66251,-1.5528772 199.01836,0.5746279 205.86891,0.5 c 12.54516,-1.14387119 26.70973,2.3238623 32.89945,14.451172 8.94733,22.112452 16.3712,44.865155 24.7168,67.23023 0.71505,12.327235 11.06983,6.25564 19.81484,6.518598 z"
     style="fill:none;stroke:#1d1d1b;stroke-miterlimit:10"
     id="path7" /></svg>