<?xml version="1.0" encoding="utf-8"?>
<!-- Generator: Adobe Illustrator 21.0.0, SVG Export Plug-In . SVG Version: 6.00 Build 0)  -->
<svg version="1.1" id="Ñëîé_1" xmlns="http://www.w3.org/2000/svg" xmlns:xlink="http://www.w3.org/1999/xlink" x="0px" y="0px"
	 viewBox="0 0 500 500" style="enable-background:new 0 0 500 500;" xml:space="preserve">
<style type="text/css">
	.st0{fill:#FFFFFF;}
	.st1{fill:none;stroke:#1D1D1B;stroke-miterlimit:10;}
</style>
<rect class="st0" width="500" height="500"/>
<path class="st1" d="M357.8,227.3c-5.8,0-11.4,0.7-16.7,2.1l-23.6-65.3l-2.4-6.6c-4.1-11-14.7-18.4-26.4-18.4h-19.9
	c-3.6,0-6.5,2.9-6.5,6.5s2.9,6.5,6.5,6.5h19.9c6.3,0,12,4,14.2,9.9l2.4,6.6l9.5,26.4H197.9L186.8,176c12.9-1.9,24.3-6.1,24.3-11.5
	c0-6.3-35.4-3.9-35.6-4c-12-1.4-8.8-5.2-19.1-5.3c-4.3,0-8.7,0.6-10.9,5.3c-6.7,14,7.1,17.6,27,16.7l13.7,23.4
	c-0.3,0.4-0.6,0.9-0.9,1.4l-16.6,30.5c-8.1-3.4-17-5.3-26.3-5.3c-37.1,0-67.4,30.2-67.4,67.4c0,37.1,30.2,67.4,67.4,67.4
	c35,0,63.8-26.8,67-60.9h39.1c0,0,0,0,0.1,0c0.1,0,0.3,0,0.4,0c0.3,0,0.7-0.1,1-0.1c1.3-0.3,2.5-1,3.5-2c0.1-0.1,0.2-0.2,0.2-0.3
	l67.8-84.9l7.3,20.1c-22.7,10.8-38.4,34-38.4,60.8c0,37.1,30.2,67.4,67.4,67.4c37.1,0,67.4-30.2,67.4-67.4
	C425.2,257.5,394.9,227.3,357.8,227.3z M142.5,349c-30,0-54.4-24.4-54.4-54.4s24.4-54.4,54.4-54.4c7.1,0,13.8,1.4,20,3.8l-19.7,36.3
	c-0.1,0-0.2,0-0.3,0c-7.9,0-14.2,6.4-14.2,14.2s6.4,14.2,14.2,14.2c5.5,0,10.3-3.2,12.7-7.8h41.3C193.3,328,170.3,349,142.5,349z
	 M155.2,288.1c-0.3-0.5-0.6-1.1-0.9-1.6l19.7-36.3c12.2,8.7,20.7,22.3,22.5,37.8H155.2z M209.6,288.1c-2-20.5-13.2-38.3-29.4-49.3
	l13.6-25.1l43.6,74.4H209.6z M249.5,283.2l-44.1-75.3h104.2L249.5,283.2z M357.8,349c-30,0-54.4-24.4-54.4-54.4
	c0-21.2,12.2-39.6,29.9-48.5l14.1,38.8c-2.4,2.5-3.8,5.9-3.8,9.7c0,7.9,6.4,14.2,14.2,14.2c7.9,0,14.2-6.4,14.2-14.2
	c0-7.3-5.4-13.2-12.5-14.1l-14.1-38.8c3.9-0.9,8-1.4,12.3-1.4c30,0,54.4,24.4,54.4,54.4S387.8,349,357.8,349z"/>
</svg>
