<?xml version="1.0" encoding="UTF-8" standalone="no"?>
<!-- Created with Inkscape (http://www.inkscape.org/) -->

<svg
   xmlns:dc="http://purl.org/dc/elements/1.1/"
   xmlns:cc="http://creativecommons.org/ns#"
   xmlns:rdf="http://www.w3.org/1999/02/22-rdf-syntax-ns#"
   xmlns:svg="http://www.w3.org/2000/svg"
   xmlns="http://www.w3.org/2000/svg"
   xmlns:sodipodi="http://sodipodi.sourceforge.net/DTD/sodipodi-0.dtd"
   xmlns:inkscape="http://www.inkscape.org/namespaces/inkscape"
   width="210mm"
   height="297mm"
   viewBox="0 0 744.09448819 1052.3622047"
   id="svg2"
   version="1.1"
   inkscape:version="0.91 r13725"
   sodipodi:docname="brain_1.svg">
  <defs
     id="defs4" />
  <sodipodi:namedview
     id="base"
     pagecolor="#ffffff"
     bordercolor="#000000"
     borderopacity="1.0"
     inkscape:pageopacity="0.0"
     inkscape:pageshadow="2"
     inkscape:zoom="0.98994949"
     inkscape:cx="316.61668"
     inkscape:cy="783.93686"
     inkscape:document-units="px"
     inkscape:current-layer="layer1"
     showgrid="false"
     inkscape:window-width="1366"
     inkscape:window-height="706"
     inkscape:window-x="-8"
     inkscape:window-y="-8"
     inkscape:window-maximized="1" />
  <metadata
     id="metadata7">
    <rdf:RDF>
      <cc:Work
         rdf:about="">
        <dc:format>image/svg+xml</dc:format>
        <dc:type
           rdf:resource="http://purl.org/dc/dcmitype/StillImage" />
        <dc:title />
      </cc:Work>
    </rdf:RDF>
  </metadata>
  <g
     inkscape:label="Layer 1"
     inkscape:groupmode="layer"
     id="layer1">
    <g
       id="g3383"
       transform="matrix(1.0176558,0,0,1.0176558,0.00408775,-1.1741286e-4)">
      <path
         id="path3381"
         d="m 269.78435,384.67531 c -22.1913,10.36686 -44.90006,29.9314 -71.17458,19.30692 -18.19537,-15.71885 -45.24163,-16.64061 -59.62324,-38.13516 -12.65671,-5.00788 -1.97867,-31.40079 -18.3035,-25.35254 C 95.890418,341.63312 65.188334,352.75268 46.329495,330.3681 39.235306,318.33844 92.606012,323.93328 63.752151,317.04835 37.217867,317.78772 9.8724702,301.71387 4.0528028,274.6081 -7.9168836,231.36222 10.617566,188.29558 30.388824,150.5166 38.244732,127.07604 54.991018,108.45793 75.558418,95.198513 94.69893,80.380308 110.67296,61.390865 133.26665,51.25079 164.79472,37.064843 197.42244,25.094786 227.50603,7.9473158 c 21.24314,-10.0845024 48.75447,-11.5409555 65.54211,5.9132182 25.65319,5.01815 52.76725,-0.910284 77.46329,9.294221 25.06179,-6.885359 44.87011,5.585331 64.15118,20.962698 20.47359,3.294727 38.21243,13.677664 47.64747,30.714102 22.37776,12.192491 36.25084,36.393555 53.09301,55.000775 9.91986,20.55865 33.02837,34.85053 38.35019,61.24623 11.03339,23.49828 11.60552,50.9236 6.93327,76.12189 -2.16662,25.02605 -20.52353,56.25167 -49.7358,44.48802 -25.4251,-1.24262 -50.11951,13.26488 -75.46501,4.1619 -23.872,-9.12199 -46.51471,1.10623 -67.07409,12.67984 -24.03355,16.61193 -54.07098,-0.0515 -76.97038,16.34189 -15.38944,11.55343 -28.46251,25.88102 -41.65692,39.80321 z"
         style="fill:none;fill-rule:evenodd;stroke:#000000;stroke-width:1px"
         inkscape:connector-curvature="0" />
      <path
         id="path3377"
         d="m 191.95335,386.13031 c 18.84045,-1.76621 7.47644,-45.11214 17.39655,-15.24401 14.0161,22.49336 49.57799,23.41691 66.15781,3.19587 14.03082,-14.42655 26.70352,-31.39948 45.76394,-39.49156 -7.29451,-2.94281 -14.30577,-15.89418 -21.81979,-11.08052 -16.26557,10.8882 -33.0034,21.06934 -50.25055,30.28989 -11.78726,8.03907 22.75762,17.08318 -3.38846,9.18633 -6.23123,-19.36483 34.61821,-23.5001 45.90061,-38.68925 19.73273,-15.72475 -24.78561,-20.16124 -36.97008,-21.73591 -15.54646,-1.05549 -6.13743,-1.21194 3.91417,-1.34524 19.25367,-1.96591 36.9898,15.65422 49.36321,-5.1121 10.38011,-8.42874 39.64161,0.96588 12.48955,0.17635 -23.18554,-1.84846 -26.95462,22.64702 -5.56476,29.94195 20.17347,13.30334 48.59538,9.84065 69.55747,-0.22447 24.43731,-12.03792 53.05048,-25.59549 79.92294,-12.46889 27.15441,0.43707 54.52851,-5.20467 81.97499,-2.778 27.76349,-0.54893 28.72782,-34.6548 34.13013,-54.8238 5.15031,-24.24772 -15.08032,-43.49189 -19.37931,-66.255 -12.45827,-21.35969 0.46142,36.10067 -7.32982,6.67438 0.47018,-21.07576 -24.96535,-38.21195 -31.01294,-11.24178 -9.89556,9.83149 -26.18343,32.56115 -32.42596,34.90453 11.78162,-21.04409 53.74077,-43.54418 27.20577,-69.07633 -9.9281,-11.66296 -35.04771,-26.8136 -40.85387,-23.88984 -4.10319,-18.45456 -33.16936,-17.10447 -27.40119,-6.46498 -6.21352,-24.963082 -34.68572,-30.005911 -56.67682,-30.351536 -11.23277,-2.173301 -24.62948,-0.400688 -19.0674,9.815996 -9.36461,-30.54823 -50.30365,-34.817823 -58.68514,-1.560616 -11.3131,21.686196 -33.20246,41.542566 -19.65765,67.218636 1.76435,21.60553 -1.53538,-13.97647 -8.43653,-18.01654 -2.81047,-12.9028 23.71279,-38.89799 4.83503,-34.30496 4.01226,-10.66246 17.25916,3.70058 19.3407,-13.0107 18.29525,-13.512173 -28.07882,-34.777833 0.8815,-20.262997 10.70049,14.100053 17.32901,-15.172387 31.16964,-14.802845 16.20131,-9.990705 7.97126,-13.393355 -6.37934,-14.556565 -6.87748,-7.069555 29.15471,4.191604 29.84135,-14.2259 23.15858,-19.640458 -59.66362,-21.217283 -20.00397,-8.651091 12.36357,11.39688 -22.85956,-7.534913 -29.92466,-8.094059 -9.12903,0.499059 -28.38095,-10.329967 -30.97238,3.109272 -9.7152,26.734733 -25.79021,52.460513 -23.28194,82.015485 2.8842,33.72412 -18.09639,63.67886 -16.9205,97.0277 18.16433,-17.63033 45.4653,-16.83454 68.47945,-23.4891 22.33864,3.02556 49.0783,-16.1102 23.16272,-34.32726 -21.2099,-15.64671 4.69561,3.80514 11.49833,0.80836 3.09206,-10.63079 -7.30188,-45.590135 2.4419,-19.0632 2.91978,19.92785 -10.67196,53.03111 19.346,53.5857 28.55234,-5.67231 -29.68108,10.71267 -15.97506,29.43533 4.89008,37.88859 50.21662,7.11613 61.22265,-11.80565 16.97043,-12.29205 12.45145,-47.99602 36.78485,-47.99382 -23.39303,14.30818 -24.55837,49.06804 -48.68016,65.04243 -13.82911,3.84408 -17.82052,27.97019 -27.64677,15.44951 -18.51849,8.56006 -41.0159,19.643 -56.17469,30.22476 9.16196,16.42014 43.04899,33.0254 39.78611,0.85257 8.65676,-16.53359 -4.4692,17.73322 0.31641,24.14778 10.84357,15.83767 31.65585,14.2181 48.32929,10.32531 11.08684,2.40618 31.46078,-31.3914 17.66433,-6.54251 -15.81174,18.7644 -42.93011,7.71549 -59.46037,16.59355 -4.77948,7.97401 -45.24276,7.63133 -33.40414,5.97564 13.12964,-0.006 49.61096,-7.22696 26.67142,-21.96568 -18.69146,-6.23513 -42.17328,-22.37709 -46.83607,-34.70984 -2.78989,14.5665 -23.43967,40.60234 -29.35011,38.85943 15.12078,-15.39269 35.85706,-38.63746 20.85674,-60.84612 -7.38244,-8.7983 -13.48074,-22.88876 0.0893,-6.27316 3.90768,32.94301 39.03813,24.03849 55.69093,6.20507 -11.38337,-17.69744 -12.4877,-36.89977 3.45739,-51.91459 -22.55508,-7.69583 -49.66627,2.69228 -73.38379,5.80705 -22.36153,2.399 -58.58537,16.47989 -46.54839,44.98916 3.40331,17.37358 35.43924,16.14018 36.25836,22.93333 -15.14272,-1.88876 -34.9824,-8.71024 -33.57166,13.33902 -17.271,6.46079 -55.32106,16.32765 -31.22443,40.6273 -3.41355,15.01963 33.47054,20.18187 13.23978,21.3111 -7.63125,19.14001 -1.60532,6.45682 -7.58621,-3.69282 -6.32461,-19.80419 -23.33812,-41.67884 -41.638,-18.10479 -18.46414,5.35228 -7.962,47.97708 -13.43972,43.95329 -9.59907,-29.62542 13.24129,-51.87513 37.4162,-62.59602 4.19653,-26.16759 46.44589,-6.77311 42.85856,-36.68137 2.75405,-11.70331 -6.0831,-31.56696 -13.75294,-37.14186 -18.49204,9.45411 -30.17519,31.65452 -37.09077,47.5261 4.22322,-14.18611 2.36249,-16.50419 -9.39614,-6.02333 -21.92247,15.80123 -46.2027,33.25905 -49.94026,62.31903 2.14367,8.44181 16.78725,22.47295 0.86797,8.5897 -13.2978,10.10132 2.18516,44.47469 20.32411,51.91091 10.17935,6.09643 23.16946,11.81006 34.89454,6.56279 z"
         style="fill:none;fill-rule:evenodd;stroke:#000000;stroke-width:1px"
         inkscape:connector-curvature="0" />
      <path
         id="path3373"
         d="m 535.83305,296.23341 c 17.90263,-3.45796 3.87067,-35.67672 19.07829,-16.3814 22.54501,-4.99816 21.05758,-61.15776 -6.49648,-53.13558 -18.42689,2.25424 23.53929,-13.4781 21.9271,7.46013 6.81701,26.23614 -4.00401,48.40763 -27.60125,60.3476 -0.78332,3.22702 -16.91411,5.8713 -6.90766,1.70925 z"
         style="fill:none;fill-rule:evenodd;stroke:#000000;stroke-width:1px"
         inkscape:connector-curvature="0" />
      <path
         id="path3371"
         d="m 499.69815,285.00181 c -3.86608,-7.76211 -23.07582,-18.79683 -3.19457,-9.35713 13.49763,3.38866 35.08267,-38.32138 20.06155,-9.35674 -10.13178,3.90711 -15.80106,25.89754 -14.61438,23.38191 l -2.2526,-4.66804 0,0 z"
         style="fill:none;fill-rule:evenodd;stroke:#000000;stroke-width:1px"
         inkscape:connector-curvature="0" />
      <path
         id="path3367"
         d="m 466.68055,254.88521 c 2.53203,-28.5277 -40.47757,-6.52375 -55.1239,-18.84507 14.51205,-0.69215 31.7878,3.84871 47.58759,0.1395 7.17064,-2.2325 4.60646,-15.44876 7.96731,-21.97983 1.06742,-16.98752 19.54951,-45.37768 26.71907,-47.78369 -8.17786,7.09455 -2.49896,24.29592 -12.40777,15.8592 -8.30939,12.35096 -18.36204,50.57976 -12.94041,52.84424 21.27688,-4.33103 60.26827,9.68883 62.13789,-23.55117 3.50895,-11.88536 10.37106,-14.52742 3.22622,-1.0173 0.17571,33.30913 -37.14088,25.64009 -59.27752,26.15071 -9.74599,-1.85562 -4.33319,44.89794 -7.88848,18.18341 z"
         style="fill:none;fill-rule:evenodd;stroke:#000000;stroke-width:1px"
         inkscape:connector-curvature="0" />
      <path
         id="path3359"
         d="m 513.60555,312.87151 c -11.1708,1.50839 -23.88444,3.2745 0,0 z"
         style="fill:none;fill-rule:evenodd;stroke:#000000;stroke-width:1px"
         inkscape:connector-curvature="0" />
      <path
         id="path3353"
         d="M 64.113718,307.23151 C 50.980639,291.77842 16.982697,301.05959 17.016157,271.5673 8.5331632,261.92047 4.1907636,237.8384 13.78838,262.57907 c 13.51956,32.70219 39.113826,-36.09748 11.492657,-30.3451 -15.7643319,7.87158 14.29097,-4.08426 10.989481,-12.80956 -0.09748,-21.39142 18.243088,-34.176 35.599184,-37.27162 -2.541101,-13.58037 11.119733,-25.47378 2.567063,-5.26906 -2.786606,19.09363 15.732546,42.16288 16.678942,54.74841 -14.143518,-12.55017 -11.347158,-54.5707 -37.337389,-40.60273 -18.393549,14.10789 -15.702519,43.33393 -8.163216,60.59128 -15.744888,-13.81775 -6.734689,29.90879 7.271597,31.90872 32.973417,-0.40036 65.946831,-0.80073 98.920251,-1.2011 16.67457,-10.09724 21.63448,-32.78567 -2.69359,-38.06905 -9.3561,-2.17174 -46.14852,-3.09117 -17.0225,-5.44726 14.80753,-0.61532 43.45034,19.53147 36.79572,-9.96891 1.47516,-13.41486 -17.90539,-49.14987 -0.89312,-47.78658 1.04823,22.25778 -3.99751,56.72514 16.82739,68.9945 18.38959,-10.81916 47.33334,-31.4985 39.4119,-56.0471 -15.65455,-11.50201 -0.0457,-45.34989 5.7302,-38.2656 -17.79757,12.55706 -3.62539,42.29218 4.5967,55.8781 16.57352,-8.77642 5.25389,-42.95616 17.70922,-60.05886 12.48021,-31.20899 1.14407,-66.647595 17.21236,-97.011711 6.25495,-16.509655 29.87091,-50.9161332 -3.44594,-51.5284835 -18.87977,-4.5624114 -31.63026,5.4715981 -13.70744,20.2080475 -16.4285,21.276509 -15.56794,47.445083 -23.77313,71.855175 -11.9904,26.827752 -36.70595,44.646722 -52.84142,68.440492 6.52448,7.70707 20.88454,41.73808 19.61802,39.26035 -13.35487,-13.66689 -14.2681,-43.30219 -39.56301,-39.93076 -15.00566,15.02442 -6.68388,47.20293 -31.50346,56.13555 -24.04268,3.05528 -40.335574,45.71516 -5.6924,42.6749 6.70533,0.83648 25.43245,2.60516 8.52452,1.61064 -22.63566,-0.73447 -48.602987,-3.64818 -64.265964,-21.80633 1.251489,-5.68968 29.34675,23.62497 32.372734,11.02964 -1.947365,-16.53294 10.22226,-30.86681 25.68431,-34.97885 -10.10523,-12.0426 -25.054735,-24.21035 -24.817902,-40.7478 3.237544,17.80601 20.753952,23.01075 29.995982,4.46721 1.32328,-6.98438 30.02389,-35.50743 14.86762,-16.81525 -6.48535,15.20511 -25.96562,28.02606 -29.87251,38.73748 21.05784,31.85243 34.35001,-20.6007 37.29496,-37.52758 10.64508,-5.50294 17.76591,-7.02247 12.99565,-21.48236 -1.94784,-25.42876 -6.28001,-51.648491 0.96439,-76.426195 0.54855,-12.765928 6.06744,13.54972 -1.37289,19.643703 -0.25735,24.005972 -0.8221,55.733442 11.75569,74.317832 24.10184,-28.81263 58.19017,-56.37676 59.61571,-97.076537 6.49822,-32.269682 -38.37194,-10.506801 -56.1738,-12.678512 -28.67279,-0.728805 -36.30701,30.564223 -57.37527,43.399176 -20.180565,18.471983 -47.580213,30.465753 -61.120053,55.124413 -0.18319,23.09132 -24.79615,36.55529 -36.380409,48.32152 15.37905,-18.73297 33.558039,-34.66445 39.860137,-59.15851 25.278905,-27.8055 61.644925,-43.789181 83.336565,-75.26734 18.7256,-21.767062 50.66681,-15.355737 76.08668,-19.351584 27.31022,6.337565 38.11988,-41.2423672 4.58496,-31.906163 -24.35895,11.219353 -48.72738,23.03642 -73.83567,32.898884 -23.5954,10.888848 -47.22499,23.5552 -64.418469,43.462516 C 65.568305,106.2355 40.219893,121.81803 34.272948,150.41388 11.035051,188.86487 -6.9871706,236.55491 9.288169,281.1048 c 7.28039,24.9674 33.956935,35.53568 57.959749,33.63651 -1.044733,-2.50327 -2.089467,-5.00653 -3.1342,-7.5098 z"
         style="fill:none;fill-rule:evenodd;stroke:#000000;stroke-width:1px"
         inkscape:connector-curvature="0" />
      <path
         id="path3339"
         d="m 579.42695,214.12321 c -8.10572,-21.8845 -15.87464,-45.40291 -30.22906,-63.85948 -12.13794,-11.40582 -3.18758,16.47539 -11.28783,-3.82096 -3.37538,-25.72079 -26.08734,-43.69998 -51.31936,-44.95821 -19.96046,-10.574358 28.59862,8.96447 17.64626,-3.946355 C 498.60523,74.579824 464.3758,80.290083 455.23448,72.75713 471.10525,76.163563 480.97893,66.470808 463.75561,57.051992 438.68333,51.93533 419.6902,34.53408 397.69405,23.591603 c -25.87911,0.453325 -36.0839,27.271429 -51.18318,43.921042 3.32064,8.07754 22.19157,16.244501 32.64842,19.275276 24.24128,2.608636 52.48267,-0.01784 69.89267,20.493789 29.4599,7.98004 55.71173,26.41479 76.48163,48.49919 9.02577,17.26907 36.1774,19.16495 41.28976,41.99751 0.78777,5.5192 13.3143,41.17483 12.6036,16.3448 z"
         style="fill:none;fill-rule:evenodd;stroke:#000000;stroke-width:1px"
         inkscape:connector-curvature="0" />
    </g>
  </g>
</svg>
