<?xml version="1.0" encoding="UTF-8" standalone="no"?>
<!-- Created with Inkscape (http://www.inkscape.org/) -->

<svg
   xmlns:dc="http://purl.org/dc/elements/1.1/"
   xmlns:cc="http://creativecommons.org/ns#"
   xmlns:rdf="http://www.w3.org/1999/02/22-rdf-syntax-ns#"
   xmlns:svg="http://www.w3.org/2000/svg"
   xmlns="http://www.w3.org/2000/svg"
   xmlns:sodipodi="http://sodipodi.sourceforge.net/DTD/sodipodi-0.dtd"
   xmlns:inkscape="http://www.inkscape.org/namespaces/inkscape"
   width="210mm"
   height="297mm"
   viewBox="0 0 744.09448819 1052.3622047"
   id="svg2"
   version="1.1"
   inkscape:version="0.91 r13725"
   sodipodi:docname="butterfly_1.svg">
  <defs
     id="defs4" />
  <sodipodi:namedview
     id="base"
     pagecolor="#ffffff"
     bordercolor="#000000"
     borderopacity="1.0"
     inkscape:pageopacity="0.0"
     inkscape:pageshadow="2"
     inkscape:zoom="0.98994949"
     inkscape:cx="373.29746"
     inkscape:cy="845.46185"
     inkscape:document-units="px"
     inkscape:current-layer="layer1"
     showgrid="false"
     inkscape:window-width="1366"
     inkscape:window-height="706"
     inkscape:window-x="-8"
     inkscape:window-y="-8"
     inkscape:window-maximized="1" />
  <metadata
     id="metadata7">
    <rdf:RDF>
      <cc:Work
         rdf:about="">
        <dc:format>image/svg+xml</dc:format>
        <dc:type
           rdf:resource="http://purl.org/dc/dcmitype/StillImage" />
        <dc:title />
      </cc:Work>
    </rdf:RDF>
  </metadata>
  <g
     inkscape:label="Layer 1"
     inkscape:groupmode="layer"
     id="layer1">
    <path
       id="path3333"
       style="fill:none;fill-rule:evenodd;stroke:#000000;stroke-width:0.854451px"
       d="m 400.36447,235.3755 c -48.93924,-24.16753 -97.72298,4.10418 -97.72298,4.10418 0,0 29.90439,-7.80111 54.66124,-0.43979 15.9461,4.74148 21.33243,23.08427 21.33243,23.08427 4.32705,-10.75618 11.27818,-20.83487 21.72931,-26.74866 z m -305.354583,0 c 48.939233,-24.16753 97.722983,4.10418 97.722983,4.10418 0,0 -29.90439,-7.80111 -54.66124,-0.43979 -15.94611,4.74148 -21.33244,23.08427 -21.33244,23.08427 -4.32705,-10.75618 -11.27818,-20.83487 -21.729303,-26.74866 z M 409.93849,63.358857 c -94.85754,35.647092 -141.9842,119.629233 -141.9842,119.629233 0,0 12.68794,-27.18846 70.69,-51.35598 55.77122,-23.23801 57.39787,-6.64607 57.39787,-6.64607 -2.61814,-14.50052 1.40977,-37.459666 13.89633,-61.627183 z m -325.053198,0 C 179.74283,99.005949 226.86949,182.98809 226.86949,182.98809 c 0,0 -12.68794,-27.18846 -70.69,-51.35598 C 100.40827,108.3941 98.781622,124.98604 98.781622,124.98604 101.39976,110.48552 97.371846,87.526374 84.885292,63.358857 Z M 233.5432,172.82707 c 21.10882,40.249 -2.75027,72.62834 -2.75026,72.62833 0,0 -3.63191,35.31692 16.60839,106.91319 20.24029,-71.59627 16.63509,-106.91319 16.63509,-106.91319 10e-6,1e-5 -23.88578,-32.37933 -2.77696,-72.62833 l -13.85813,12.20262 z M 1.2660316,0.70478074 c 0,8.55e-6 81.0410314,84.66331126 65.4723094,142.66660926 -12.042821,44.86711 2.456547,67.44823 2.456547,67.44823 0,0 16.045035,-19.28162 60.746132,-12.57646 36.25128,5.4377 49.13093,19.89269 49.13093,19.89269 -10e-6,1e-5 -50.95293,-36.84845 -134.656142,19.86599 85.218082,47.04718 35.746318,96.67753 85.445102,133.69488 6.16695,-0.1454 74.37578,-17.61054 117.54042,-68.32938 43.16446,50.72186 111.37331,68.18398 117.54038,68.32938 49.6988,-37.01735 0.22702,-86.6477 85.4451,-133.69488 -83.70314,-56.71444 -134.65609,-19.86598 -134.6561,-19.86599 0,0 12.87964,-14.45499 49.13093,-19.89269 44.70112,-6.70516 60.74609,12.57646 60.74609,12.57646 0,0 14.49935,-22.58112 2.45654,-67.44823 C 412.49558,85.368092 493.53658,0.70478929 493.53658,0.70478074 c 0,0 -159.91897,33.86286026 -238.73891,165.41636926 0.30033,-10.18192 1.20025,-29.50584 4.05864,-53.18958 3.91999,-32.479841 12.09583,-50.733017 12.09583,-50.733017 0,0 7.08209,4.672301 13.29739,-2.429845 8.43382,-9.637233 -3.93988,-20.849212 -13.29739,-12.683257 -10.72492,9.359237 -23.05844,73.454999 -23.55081,132.306389 -0.49237,-58.85139 -12.82589,-122.947152 -23.55081,-132.306389 -9.35751,-8.165955 -21.73121,3.046024 -13.29739,12.683257 6.2153,7.102146 13.29739,2.429845 13.29739,2.429845 -10e-6,0 8.17584,18.253176 12.09583,50.733017 2.85839,23.68374 3.75831,43.00766 4.05864,53.18958 C 161.18505,34.567641 1.2660316,0.70478074 1.2660316,0.70478074 Z"
       inkscape:connector-curvature="0" />
  </g>
</svg>
