<?xml version="1.0"?>
<svg width="640" height="480" xmlns="http://www.w3.org/2000/svg" xmlns:svg="http://www.w3.org/2000/svg">
 <!-- Created with SVG-edit - http://svg-edit.googlecode.com/ -->
 <g>
  <title>Layer 1</title>
  <path id="svg_9" d="m71.71701,158.877898c6.262288,-4.11982 -7.947428,-7.605086 -10.057443,-11.495689c-6.210645,-7.638758 -8.145507,-17.792196 -9.875803,-27.222185c2.973815,-5.067108 1.76929,-10.302012 2.846785,-15.568365c5.267951,-7.819293 8.182194,-16.992466 13.476375,-24.783673c5.895482,1.244282 12.27039,6.027533 18.176365,7.844934c5.331529,9.584787 -4.419029,17.566162 -3.272616,26.845631c2.23627,8.651427 -3.754612,15.861333 -4.958639,23.924565c0.041961,7.627724 6.978534,15.349335 14.559066,10.105278c-0.384638,-5.562463 -11.197892,-7.286885 -6.357153,-15.109842c1.592821,-8.088206 6.813748,-14.563697 10.761538,-21.358411c-2.230474,-7.967063 0.738007,-18.065956 5.763563,-24.038356c5.102636,4.929339 8.626933,13.596815 9.4077,20.49917c0.09889,7.912434 10.634539,13.207516 10.434171,22.526387c0.787206,8.238804 4.645453,16.084207 9.99622,20.550248c2.797917,5.815357 20.159676,2.781664 10.912798,-4.127069c-7.635893,-6.891038 -16.421437,-14.198868 -17.580932,-25.180469c-3.167708,-6.518773 4.113447,-15.755771 -4.828546,-18.478722c0.554163,-8.833499 -1.785663,-18.860586 3.248332,-26.739702c7.250948,-6.196728 17.870147,-6.656092 24.80472,-13.511404c8.414918,-5.578494 13.191911,-14.71823 15.883683,-24.189549c4.077859,-4.568096 10.41104,-14.442091 17.456563,-9.308888c6.912481,4.274461 1.810794,-6.478278 5.780291,-8.850978c-3.275643,-11.819807 -16.569753,-6.145157 -24.867024,-9.094147c-7.533196,-5.045317 -15.33295,-2.136353 -20.827198,3.626549c-4.114804,1.854166 -1.888697,6.707681 2.148114,4.881907c-2.895521,9.619564 -6.8866,20.205619 -15.663164,25.902217c-10.069924,4.406133 -15.686967,-8.648153 -21.666341,-14.314149c-6.526353,-6.387852 -10.572667,-15.707497 -18.792731,-20.092662c-11.433499,-2.895089 -20.120231,7.144665 -28.755375,12.797518c-8.569794,4.29063 -18.860087,6.411054 -24.706563,14.779868c-9.702584,11.661604 -3.551746,29.256057 -13.754165,40.723745c-4.2023,6.359315 -13.454187,10.939058 -12.182835,19.679157c4.506074,9.359895 0.556962,20.53134 3.017421,30.601937c1.81835,7.278013 4.510705,16.626796 13.324839,17.707631c6.934002,4.395982 10.710616,-4.812287 3.368556,-7.479162c-8.862834,-3.937886 -10.07393,-15.022346 -10.785954,-23.536881c-1.95481,-8.42549 4.721235,-13.999773 7.478363,-20.613015c-2.328294,-6.459814 5.881788,-15.240511 11.08929,-13.93285c-3.891901,5.978839 -9.574245,13.737275 -0.362277,18.661707c-0.120933,0.302152 1.35158,-5.518965 3.723619,-7.268007c-0.354084,-4.560504 -4.979829,-8.443118 -0.073314,-13.057506c8.60809,-5.73976 6.710738,10.90983 4.923429,15.630976c-0.094565,7.249969 -9.811871,13.008121 -4.850115,20.273647c5.43571,8.960985 7.986307,19.248215 10.072129,29.400793c2.992987,8.421874 10.554371,14.581266 20.009635,12.404843l1.554609,-0.016992l0.000012,-0.000036z" stroke-linecap="null" stroke-linejoin="null" stroke-dasharray="null" stroke-width="5" stroke="#000000" fill="#ffffff"/>
 </g>
</svg>