<svg width="640" height="480" xmlns="http://www.w3.org/2000/svg" xmlns:svg="http://www.w3.org/2000/svg">
 <!-- Created with SVG-edit - http://svg-edit.googlecode.com/ -->
 <g>
  <title>Layer 1</title>
  <path id="svg_10" d="m131.10049,6.31637c-18.41552,0 -34.22233,9.5501 -41.95949,23.33701c-3.09018,-1.72519 -6.49864,-2.7698 -10.13628,-2.7698c-11.00033,0 -20.15416,8.84928 -22.98342,20.86188c-4.82918,-1.90878 -10.44419,-3.06446 -16.44199,-3.06446c-17.99342,0 -32.58931,9.84483 -32.58931,21.98159c0,10.95548 11.97057,19.96189 27.52118,21.62799c-0.69696,1.18252 -1.23757,2.35354 -1.23757,3.59485c0,11.62029 31.83619,21.09759 71.07182,21.09759c39.23562,0 71.07186,-9.47731 71.07182,-21.09759c0,-0.78185 -0.48528,-1.4796 -0.76611,-2.23941c1.71853,0.42737 3.42011,0.88398 5.30387,0.88398c10.49612,0.00003 19.03499,-7.13183 19.03499,-15.9116c0,-8.77978 -8.53886,-15.9116 -19.03499,-15.9116c-1.28627,0 -2.38001,0.4443 -3.59485,0.64825c1.06225,-3.5106 1.76795,-7.0927 1.76795,-10.9024c0,-23.24056 -21.03715,-42.13627 -47.02761,-42.13627l-0.00001,-0.00001z" stroke-linecap="null" stroke-linejoin="null" stroke-dasharray="null" stroke-width="5" stroke="#000000" fill="#ffffff"/>
 </g>
</svg>