<svg width="640" height="480" xmlns="http://www.w3.org/2000/svg" xmlns:svg="http://www.w3.org/2000/svg">
 <!-- Created with SVG-edit - http://svg-edit.googlecode.com/ -->
 <g>
  <title>Layer 1</title>
  <path id="svg_29" d="m110.50276,37.45527c-0.39624,-16.9006 -14.21735,-30.48052 -31.21701,-30.48913c-11.36182,0.00431 -21.28511,6.08146 -26.73775,15.14766c-2.56265,-1.40838 -5.51294,-2.22671 -8.65704,-2.22671c-9.81561,0.00861 -17.80076,7.77841 -18.15824,17.51219c-10.30661,3.38529 -17.7663,13.02862 -17.77492,24.48951c0,14.26473 11.57286,25.8419 25.8419,25.8419l0,-0.00861l68.36905,0c14.26473,0 25.8419,-11.57717 25.8419,-25.8419c-0.00861,-11.35751 -7.3391,-20.96209 -17.50789,-24.4249zm-8.33401,41.66145l-68.37335,0c-9.51413,-0.02584 -17.21501,-7.71811 -17.23224,-17.23224c-0.00861,-8.53644 6.24513,-15.58266 14.42839,-16.93075c1.14135,-0.1852 2.16211,-0.82263 2.82969,-1.78309c0.66758,-0.96046 0.91308,-2.14057 0.70204,-3.28623c-0.1206,-0.63743 -0.19381,-1.24041 -0.19381,-1.82616c0.01723,-5.27605 4.28545,-9.54427 9.5615,-9.55289c2.78662,0 5.2416,1.19734 7.0333,3.1484c1.00353,1.10689 2.5282,1.61512 3.99257,1.33086c1.47299,-0.28426 2.69617,-1.32224 3.22162,-2.7134c3.22593,-8.57951 11.46519,-14.69543 21.15159,-14.68681c12.48594,0.01723 22.58582,10.12141 22.61597,22.60735c0,0.69342 -0.03876,1.40408 -0.11629,2.14057c-0.21104,2.22671 1.31363,4.23807 3.51019,4.64723c8.01099,1.4816 14.10106,8.46753 14.08814,16.89629c-0.01723,9.51843 -7.70519,17.21501 -17.21932,17.24085zm-62.0507,41.79066c0,-4.80229 0.09045,-23.36538 0.09045,-23.39553c0.00861,-1.76156 -1.06382,-3.35514 -2.70479,-4.01411c-1.63665,-0.65466 -3.51019,-0.25411 -4.73337,1.03368c-0.02584,0.03446 -4.46634,4.72907 -8.96283,10.08695c-2.25255,2.70048 -4.51372,5.54309 -6.30112,8.16604c-1.71849,2.79092 -3.24316,4.59124 -3.49296,8.11866c0.01292,7.20989 5.84027,13.05016 13.05877,13.06308c7.20128,-0.01723 13.04585,-5.8575 13.04585,-13.05877zm-17.47774,0.19381c0.39194,-1.50314 4.65585,-7.4037 8.58382,-11.9045c0.10767,-0.1249 0.21966,-0.26273 0.32733,-0.38332c-0.02153,4.84105 -0.04307,9.88022 -0.04307,12.09401c0,2.44206 -1.98552,4.42758 -4.43189,4.43619c-2.38607,-0.00861 -4.32421,-1.89077 -4.43619,-4.24238zm49.33218,-0.19381c0,-4.80229 0.09045,-23.36108 0.09045,-23.38692c0.00861,-1.76586 -1.06382,-3.35514 -2.70479,-4.02272c-1.64096,-0.65466 -3.50588,-0.24981 -4.73768,1.04229c-0.02584,0.03446 -4.45773,4.71184 -8.95852,10.08695c-2.24825,2.68325 -4.50941,5.53447 -6.30112,8.15743c-1.71849,2.79523 -3.24316,4.59986 -3.48435,8.13158c0,7.20128 5.83165,13.04154 13.04585,13.04154c7.20558,-0.00431 13.05016,-5.84888 13.05016,-13.05016zm-17.48635,0.20243c0.39624,-1.50314 4.65585,-7.40801 8.58382,-11.90881c0.10767,-0.12921 0.21535,-0.25842 0.32302,-0.38332c-0.02153,4.83674 -0.04738,9.88022 -0.04738,12.0897c-0.00861,2.44637 -1.98552,4.42327 -4.42758,4.43189c-2.38607,-0.00861 -4.3156,-1.88646 -4.43189,-4.22946zm46.97196,-27.61637c-1.63665,-0.65897 -3.5145,-0.25842 -4.73337,1.03368c-0.03876,0.03446 -4.46634,4.72476 -8.95852,10.08695c-2.25255,2.69186 -4.51803,5.53447 -6.29681,8.16604c-1.73141,2.79523 -3.24747,4.59555 -3.49727,8.12297c0,7.20128 5.83165,13.04585 13.05016,13.04585c7.20558,0 13.03724,-5.84458 13.03724,-13.04585c0,-4.80229 0.09475,-23.36538 0.09475,-23.39122c0.01292,-1.76586 -1.05952,-3.35945 -2.69617,-4.01842zm-5.99532,27.40964c-0.01723,2.44637 -1.99413,4.42327 -4.4405,4.43189c-2.38176,-0.00861 -4.3156,-1.88646 -4.42758,-4.22946c0.39624,-1.50314 4.65585,-7.40801 8.58382,-11.90881c0.10767,-0.1206 0.21535,-0.25411 0.31872,-0.37901c-0.01723,4.83674 -0.03446,9.8716 -0.03446,12.08539z" stroke-linecap="null" stroke-linejoin="null" stroke-dasharray="null" stroke-width="5" stroke="#000000" fill="#ffffff"/>
 </g>
</svg>