<?xml version="1.0"?>
<svg width="640" height="480" xmlns="http://www.w3.org/2000/svg" xmlns:svg="http://www.w3.org/2000/svg">
 <!-- Created with SVG-edit - http://svg-edit.googlecode.com/ -->
 <g>
  <title>Layer 1</title>
  <path id="svg_8" d="m26.198283,121.564447c-6.516481,-0.658685 -0.151218,-10.844018 -2.609161,-15.561143c-0.024845,-6.943716 -2.602595,-13.781792 -1.763846,-20.688591c5.12824,-12.176958 0.854794,-25.475978 -0.269682,-38.018953c-0.508365,-2.769336 -0.49342,-9.882619 -1.757129,-3.558558c-3.499638,10.662703 -0.081055,23.842321 -3.07428,34.641287c-5.002672,6.012476 -8.781465,-3.526539 -4.005878,-7.184309c5.579307,-8.78282 4.230832,-20.612735 4.418447,-31.563742c-0.240153,-6.924093 2.537637,-15.619466 10.758476,-15.816877c7.033015,-0.531907 13.692707,2.819547 20.787803,2.404941c20.693142,0.322441 41.59033,0.502314 62.02164,-3.268477c10.198291,-2.350231 20.351385,1.798922 30.565651,0.116131c5.739951,0.619927 8.77659,-2.063977 6.246781,-7.102565c4.275502,-2.949609 7.565241,5.593579 9.464225,-2.015787c6.885451,-4.745271 7.845113,9.263659 15.470501,5.307222c9.197977,1.191947 -3.996707,9.419654 3.704536,13.538009c4.656162,3.592557 11.786351,12.491461 2.523474,15.05627c-7.963872,-0.559328 -15.945902,-0.036923 -23.914627,0.34871c-3.688208,6.15868 -11.36013,10.778087 -10.519539,18.848259c-0.637077,9.627406 -7.381031,19.119145 -16.612729,22.109163c-3.945245,-0.78104 -5.666377,0.494654 -5.173449,4.535573c-2.038357,5.280316 -2.39764,10.849791 -2.155819,16.466692c-0.603344,3.096554 0.678968,5.504899 2.502375,7.890021c-2.144401,3.715415 -14.43064,1.51466 -9.775764,-5.514308c1.190384,-9.219238 -0.210276,-18.476747 -1.253935,-27.643c-4.896338,-3.482888 -10.832311,-2.207703 -15.787979,0.591046c-10.932658,4.009711 -23.587207,7.806279 -34.800802,2.660159c-6.251691,-1.745966 -15.68131,-3.044669 -20.327912,2.228605c-2.09078,7.952709 -1.531851,16.493587 -3.314097,24.564818c-0.029981,4.219808 3.984189,7.84278 -2.816432,6.665099c-2.842042,0.0653 -5.691761,0.154779 -8.530867,-0.035696l0.000017,0zm5.802866,-8.980798c1.118489,-3.779314 -1.613224,-13.381041 -1.847367,-4.425314c-0.930406,2.841434 0.252851,16.488712 1.642851,7.428874c0.087933,-0.999718 0.150355,-2.001515 0.204515,-3.00356z" stroke-linecap="null" stroke-linejoin="null" stroke-dasharray="null" stroke-width="5" stroke="#000000" fill="#ffffff"/>
 </g>
</svg>