<svg width="640" height="480" xmlns="http://www.w3.org/2000/svg" xmlns:svg="http://www.w3.org/2000/svg">
 <!-- Created with SVG-edit - http://svg-edit.googlecode.com/ -->
 <g>
  <title>Layer 1</title>
  <path id="svg_9" d="m38.82587,151.03443c-20.6731,-7.76809 -35.49089,-32.45105 -32.1234,-53.51008c2.12344,-13.27932 46.92261,-93.89405 50.83499,-91.47606c1.27695,0.7892 12.64022,19.58387 25.2517,41.76595c20.20227,35.53336 22.92996,42.15923 22.92996,55.69958c0,27.44573 -21.96528,49.92689 -48.33914,49.47447c-7.69627,-0.13204 -16.04562,-1.01127 -18.55412,-1.95385l0,0zm20.71211,-13.80419c0.68429,-3.55325 -0.91417,-5.28615 -4.8761,-5.28615c-9.02963,0 -21.55518,-11.43627 -24.35358,-22.23566c-2.98513,-11.52001 -10.90005,-12.89008 -12.06913,-2.08916c-2.25239,20.80952 37.5042,49.3147 41.2988,29.61097l0,0z" stroke-linecap="null" stroke-linejoin="null" stroke-dasharray="null" stroke-width="5" stroke="#000000" fill="#ffffff"/>
 </g>
</svg>