<?xml version="1.0" encoding="UTF-8" standalone="no"?>
<!-- Created with Inkscape (http://www.inkscape.org/) -->

<svg
   xmlns:dc="http://purl.org/dc/elements/1.1/"
   xmlns:cc="http://creativecommons.org/ns#"
   xmlns:rdf="http://www.w3.org/1999/02/22-rdf-syntax-ns#"
   xmlns:svg="http://www.w3.org/2000/svg"
   xmlns="http://www.w3.org/2000/svg"
   xmlns:sodipodi="http://sodipodi.sourceforge.net/DTD/sodipodi-0.dtd"
   xmlns:inkscape="http://www.inkscape.org/namespaces/inkscape"
   width="210mm"
   height="297mm"
   viewBox="0 0 744.09448819 1052.3622047"
   id="svg2"
   version="1.1"
   inkscape:version="0.91 r13725"
   sodipodi:docname="eagle_1.svg">
  <defs
     id="defs4" />
  <sodipodi:namedview
     id="base"
     pagecolor="#ffffff"
     bordercolor="#000000"
     borderopacity="1.0"
     inkscape:pageopacity="0.0"
     inkscape:pageshadow="2"
     inkscape:zoom="0.98994949"
     inkscape:cx="103.01086"
     inkscape:cy="782.17761"
     inkscape:document-units="px"
     inkscape:current-layer="layer1"
     showgrid="false"
     inkscape:window-width="1366"
     inkscape:window-height="706"
     inkscape:window-x="-8"
     inkscape:window-y="-8"
     inkscape:window-maximized="1" />
  <metadata
     id="metadata7">
    <rdf:RDF>
      <cc:Work
         rdf:about="">
        <dc:format>image/svg+xml</dc:format>
        <dc:type
           rdf:resource="http://purl.org/dc/dcmitype/StillImage" />
        <dc:title />
      </cc:Work>
    </rdf:RDF>
  </metadata>
  <g
     inkscape:label="Layer 1"
     inkscape:groupmode="layer"
     id="layer1">
    <path
       id="path4148"
       style="fill:none;fill-rule:evenodd;stroke:#000000;stroke-width:0.7497828px"
       d="m 224.86545,97.354201 c 4.06907,0.530846 17.99179,0.368893 27.0994,2.837179 2.51327,2.46903 4.1478,5.79057 4.50919,9.95861 0.95298,11.02481 -7.60954,20.76674 -19.12546,21.76095 -11.51291,0.99571 -21.62074,-7.13193 -22.57371,-18.15599 -0.67181,-7.773 3.52623,-13.40087 10.09058,-16.400749 z M 108.73683,156.54656 c -16.597371,-3.97076 -33.856839,-1.62606 -50.730953,-2.92243 -6.471739,-0.68585 -16.445088,-0.61084 -20.593463,-3.17738 5.435403,-4.59459 12.912824,-8.95671 20.214199,-7.37425 9.26225,1.68361 19.232324,3.85222 28.316823,0.23439 17.544924,-0.69719 35.111314,-0.31667 52.652114,-1.05991 7.70814,-0.44152 14.78588,3.89715 22.47243,3.6312 16.48036,1.35235 32.54219,6.39413 46.959,14.46803 7.56146,4.01981 16.81094,6.48379 25.04609,2.98737 6.60316,8.12437 -6.34529,11.53715 -12.61923,10.24608 -11.17515,-1.04892 -22.75124,-2.32165 -32.40661,-8.59242 -7.2601,-3.56791 -13.61795,-9.58668 -21.72658,-11.09717 -9.93121,-0.081 -20.40137,0.0219 -29.5152,-4.47246 -9.34288,2.4275 -18.69137,4.84061 -28.06862,7.12895 z m -91.105361,-1.13368 c -4.829314,3.18172 -3.042401,16.63901 -6.248398,16.26352 -4.7197089,-16.63407 -3.2891471,-34.93116 5.13514,-50.17106 7.18308,-14.32076 18.24238,-26.469565 31.864826,-34.929546 20.363191,-14.531262 44.491014,-22.456008 68.792603,-27.37429 8.39648,17.579226 20.92401,35.463733 40.51227,41.281536 8.28116,3.62765 16.80692,7.53621 22.40941,15.07242 5.22119,6.16705 10.72336,12.86427 11.63154,21.14501 6.94366,14.06508 22.60766,21.08616 37.47858,23.22386 -5.74737,5.29627 -21.33643,-1.09449 -29.47921,-5.54586 -12.65647,-5.9601 -26.17838,-10.55967 -40.15012,-11.98332 -4.40204,-5.55804 -11.01647,-8.92564 -17.65439,-11.05029 3.71334,2.31513 14.06956,11.5181 4.0267,6.98964 -5.56434,-1.98831 -19.08163,-3.83416 -20.14299,-2.52902 4.63689,1.0755 13.83527,4.10583 4.09632,3.71363 -12.99369,-0.1474 -26.02832,-4.38766 -38.939417,-0.78101 -10.694568,3.99344 -21.276965,-2.22296 -31.494982,-4.9542 -11.536169,-4.33758 -24.865711,-1.57849 -35.333516,4.2985 -5.655241,3.82066 -6.235139,11.1498 -6.504366,17.33048 z M 147.64906,31.38831 c -3.46474,4.86909 -6.04925,11.144023 -5.84605,12.979491 l 0.20919,1.879705 1.60978,-0.989713 c 8.18238,-5.024295 23.83035,-12.834782 33.46955,-17.268248 -11.45518,10.11532 -20.00345,23.156293 -21.18961,30.441932 l -0.58258,3.579464 2.601,-2.526769 c 3.17683,-3.082357 15.44852,-6.762291 25.69805,-8.544525 -21.15062,7.199415 -34.38804,19.648059 -35.37475,33.938168 l -0.19194,2.772697 2.14887,-1.764989 c 4.23253,-3.473744 13.35514,-7.955946 22.2693,-10.085329 -8.47479,3.347031 -18.55562,8.731971 -22.67343,15.471769 -4.9958,-3.676186 -25.61258,-19.756026 -25.21969,-34.407532 1.18765,-2.189366 10.64466,-19.09097 23.07231,-25.476121 z m 395.57042,276.27397 c -0.57042,-32.38308 -10.17391,-64.18643 -29.25396,-90.53348 -7.56093,-14.48893 31.26716,33.86226 17.0182,0.37168 -7.0683,-20.96233 -19.37298,-39.60238 -31.03945,-58.21497 9.34113,5.84393 31.40353,38.33652 21.59965,11.29595 -10.522,-34.06875 -37.47481,-60.00334 -66.53414,-79.141546 11.289,2.665882 35.02945,12.596796 16.01312,-3.849471 -20.98315,-22.500122 -47.1601,-40.608555 -76.56258,-50.106398 14.24225,0.117534 19.05576,-2.125599 1.20177,-8.228591 C 368.42756,16.992016 339.04431,6.8386732 308.78264,8.1015556 322.25141,3.2060588 333.32931,1.4879481 312.27188,0.72489645 282.28085,-1.2570451 252.28808,5.23442 224.43057,16.046254 c 26.09163,-20.7433007 -29.53579,-2.13481 -38.70804,1.910216 -13.9061,4.988856 -37.23297,19.861064 -25.3772,6.036315 -20.55856,-2.151773 -32.28073,17.33913 -46.19906,28.216994 -45.704077,9.142812 -96.492217,32.857333 -109.7595593,81.796041 -8.2819136,20.99117 -3.2581175,53.88943 14.6400903,64.7217 -4.259418,-22.83862 -1.422904,-55.48024 28.192454,-37.52318 22.020582,2.62094 44.356016,2.48487 66.402915,0.2323 31.90701,23.06077 72.21978,41.63665 87.58302,80.49608 5.72967,26.775 -23.95256,46.26193 -39.36556,64.71459 -32.26514,33.19039 -67.812147,71.19503 -71.749656,119.6341 -0.214101,12.35145 3.155279,21.26429 5.600554,4.67438 6.507132,-16.71084 27.299192,-50.45032 40.761022,-46.20536 3.52512,12.30394 -13.69379,37.68528 -9.56591,39.3707 30.18757,-21.17289 47.82108,-54.52934 70.11499,-82.69567 3.91242,4.60777 -10.71808,37.0099 -17.05941,50.71966 -12.89913,17.51121 -3.31607,15.64788 10.44794,4.95502 18.9177,-13.35562 35.746,-29.38384 52.31412,-45.48784 -7.81638,21.85266 -14.62368,44.05257 -21.75945,66.13385 24.93142,-14.32357 45.66862,-35.40928 64.16417,-57.19569 -1.0908,12.81692 -24.61007,47.31787 0.0316,25.68731 8.89158,-7.16227 34.64031,-34.95645 16.80912,-9.63095 -7.76704,13.24145 -27.07295,35.10332 -28.9782,42.33108 31.09311,-16.54092 59.55947,-39.13485 79.96354,-68.06488 -8.38839,26.19329 -18.33519,51.86032 -27.75696,77.69399 28.85689,-23.72763 57.71379,-47.45525 86.57068,-71.18288 -17.29424,30.41719 -34.58849,60.83438 -51.88273,91.25157 35.10268,-25.46627 75.96525,-44.11658 105.30175,-76.79201 -6.3939,22.96907 -17.33112,44.36861 -27.07241,66.04687 37.30221,-12.21802 57.61048,-50.98886 65.15463,-87.27922 8.71909,33.77294 11.14569,68.84881 15.62698,103.37556 26.2262,-52.81717 21.82822,-116.01902 2.36481,-170.27268 7.24012,8.06036 14.6454,15.97431 21.97863,23.94806 z" />
  </g>
</svg>
