<?xml version="1.0" encoding="UTF-8" standalone="no"?>
<!-- Created with Inkscape (http://www.inkscape.org/) -->

<svg
   xmlns:dc="http://purl.org/dc/elements/1.1/"
   xmlns:cc="http://creativecommons.org/ns#"
   xmlns:rdf="http://www.w3.org/1999/02/22-rdf-syntax-ns#"
   xmlns:svg="http://www.w3.org/2000/svg"
   xmlns="http://www.w3.org/2000/svg"
   xmlns:sodipodi="http://sodipodi.sourceforge.net/DTD/sodipodi-0.dtd"
   xmlns:inkscape="http://www.inkscape.org/namespaces/inkscape"
   width="210mm"
   height="297mm"
   viewBox="0 0 744.09448819 1052.3622047"
   id="svg2"
   version="1.1"
   inkscape:version="0.91 r13725"
   sodipodi:docname="flower_1.svg">
  <defs
     id="defs4" />
  <sodipodi:namedview
     id="base"
     pagecolor="#ffffff"
     bordercolor="#000000"
     borderopacity="1.0"
     inkscape:pageopacity="0.0"
     inkscape:pageshadow="2"
     inkscape:zoom="0.98994949"
     inkscape:cx="322.24751"
     inkscape:cy="757.39008"
     inkscape:document-units="px"
     inkscape:current-layer="layer1"
     showgrid="false"
     inkscape:window-width="1366"
     inkscape:window-height="706"
     inkscape:window-x="-8"
     inkscape:window-y="-8"
     inkscape:window-maximized="1" />
  <metadata
     id="metadata7">
    <rdf:RDF>
      <cc:Work
         rdf:about="">
        <dc:format>image/svg+xml</dc:format>
        <dc:type
           rdf:resource="http://purl.org/dc/dcmitype/StillImage" />
        <dc:title />
      </cc:Work>
    </rdf:RDF>
  </metadata>
  <g
     inkscape:label="Layer 1"
     inkscape:groupmode="layer"
     id="layer1">
    <path
       style="fill:none;fill-rule:evenodd;stroke:#000000;stroke-width:0.70252568px"
       d="m 249.5225,234.53752 c 0,0 -48.92587,-142.710714 -40.48503,-170.206759 8.44085,-27.496048 25.60484,-66.6395928 31.60848,-63.83888918 6.00363,2.80070348 46.43505,72.83316918 44.31515,82.07847718 -2.1199,9.245288 -26.24319,81.327631 -23.43877,102.738861 2.80442,21.41122 -11.99983,49.22831 -11.99983,49.22831 z m -4.34934,0.38956 c 0,0 -87.53562,-122.8723 -87.27331,-151.6336 0.26231,-28.761282 5.57021,-71.171727 12.12278,-70.196413 6.55259,0.975316 65.25119,56.596536 65.85152,66.062745 0.60034,9.466203 -1.9999,85.433538 6.78499,105.159948 8.78491,19.72639 2.51402,50.60732 2.51402,50.60732 z m -5.33863,2.43722 c 0,0 -127.60799,-80.47539 -138.27712,-107.18588 C 90.88826,103.46793 79.709075,62.214507 86.141786,60.630909 92.57449,59.04729 167.98684,88.24016 172.13371,96.770873 c 4.14686,8.530707 30.56253,79.804887 46.1747,94.723527 15.61216,14.91864 21.52612,45.8699 21.52612,45.8699 z m -3.79623,3.941 c 0,0 -147.853907,-29.98849 -167.302385,-51.17899 C 49.287437,168.9358 24.20444,134.32855 29.657396,130.56652 c 5.452956,-3.76203 86.316684,-3.21157 93.219404,3.29396 6.90272,6.50553 56.87864,63.77859 76.76689,72.1907 19.88824,8.41208 36.39461,35.25412 36.39461,35.25412 z m -2.26313,5.56703 c 0,0 -147.902276,29.74906 -174.050759,17.76835 -26.148481,-11.98071 -62.697212,-34.13945 -59.1319038,-39.723 3.5653213,-5.58357 78.3033308,-36.46194 87.1899078,-33.14556 8.886577,3.31637 77.174025,36.70231 98.768115,36.7357 21.59407,0.0334 47.22464,18.36451 47.22464,18.36451 z m 0.26728,6.79953 c 0,0 -120.03607,91.38617 -148.791221,92.0356 -28.755147,0.64943 -71.312515,-3.31156 -70.545383,-9.89177 0.767138,-6.58019 54.499911,-67.01227 63.942331,-67.91233 9.442429,-0.90008 85.454003,-0.70899 104.892053,-10.11472 19.43804,-9.40573 50.50222,-4.11678 50.50222,-4.11678 z m 3.00125,5.75307 c 0,0 -70.89496,133.16903 -96.75057,145.76937 -25.85561,12.60028 -66.17753,26.77639 -68.228891,20.47724 -2.051347,-6.29915 21.529286,-83.65032 29.732721,-88.41197 8.20343,-4.76163 77.34718,-36.33598 91.08002,-53.00074 13.73284,-16.66477 44.16672,-24.8339 44.16672,-24.8339 z m 5.06075,3.94063 c 0,0 -9.55371,150.56164 -27.89528,172.71723 -18.34155,22.15552 -49.20655,51.7219 -53.67679,46.83267 -4.47023,-4.88923 -14.94794,-85.07317 -9.44407,-92.79827 5.50384,-7.72509 55.42978,-65.04174 61.05226,-85.89104 5.62247,-20.8493 29.96388,-40.86059 29.96388,-40.86059 z m 6.29376,1.49941 c 0,0 54.02501,140.85946 46.57816,168.64122 -7.44684,27.78171 -23.19245,67.51705 -29.29289,64.93399 -6.10045,-2.58308 -49.02353,-71.11664 -47.2374,-80.4322 1.78613,-9.31551 23.30232,-82.21855 19.72994,-103.51511 -3.5724,-21.29656 10.22219,-49.6279 10.22219,-49.6279 z m 6.24867,-1.21615 c 0,0 107.04257,106.31077 111.64486,134.70265 4.6023,28.39191 6.53837,71.08931 -0.0848,71.23547 -6.62314,0.14611 -73.8777,-44.75455 -76.06925,-53.98316 -2.19153,-9.22856 -12.46763,-84.54255 -24.46004,-102.50049 -11.99241,-17.95793 -11.03078,-49.45447 -11.03078,-49.45447 z m 5.18372,-3.65407 c 0,0 141.14179,53.28307 156.9451,77.31505 15.8033,24.03198 35.01942,62.20998 29.03432,65.05003 -5.98513,2.84007 -85.7167,-10.65521 -91.48832,-18.18236 -5.7716,-7.52716 -45.92889,-72.06544 -64.213,-83.55443 -18.28412,-11.48898 -30.2781,-40.62829 -30.2781,-40.62829 z m 3.27407,-5.56234 c 0,0 150.52006,-10.18827 174.88092,5.1032 24.36086,15.29147 57.70441,42.03144 53.44076,47.10183 -4.26365,5.07039 -82.39287,25.92873 -90.77052,21.48074 -8.37763,-4.448 -71.72281,-46.46211 -93.12778,-49.31397 -21.40495,-2.85187 -44.42338,-24.3718 -44.42338,-24.3718 z m 0.69079,-6.18501 c 0,0 133.77538,-69.74407 162.22536,-65.51572 28.44999,4.22836 69.72236,15.33739 67.85223,21.69271 -1.87013,6.35533 -65.05869,56.81771 -74.51719,56.10613 -9.45849,-0.71159 -84.34038,-13.76911 -105.09026,-7.79015 -20.74987,5.97897 -50.47014,-4.49297 -50.47014,-4.49297 z m -1.76441,-5.78703 c 0,0 95.90087,-116.46076 123.74206,-123.68216 27.8412,-7.22141 70.17383,-13.11784 70.93495,-6.53694 0.76113,6.5809 -37.69384,77.71781 -46.67877,80.75767 -8.98491,3.03985 -83.0177,20.27191 -99.78321,33.88159 -16.76547,13.6097 -48.21503,15.57984 -48.21503,15.57984 z m -3.15495,-4.01758 c 0,0 51.82805,-141.682539 75.69616,-157.732272 23.8681,-16.049739 61.84637,-35.657655 64.74785,-29.702074 2.90149,5.955576 -9.77271,85.821776 -17.24008,91.670536 -7.46736,5.84875 -71.58904,46.66794 -82.8893,65.0693 -11.30025,18.40135 -40.31463,30.69451 -40.31463,30.69451 z m -3.94904,-2.58638 c 0,0 5.78717,-150.753428 23.56917,-173.36052 17.78201,-22.607098 47.89831,-52.9357564 52.48937,-48.159803 4.59104,4.775962 17.06981,84.672938 11.76078,92.533193 -5.30903,7.86026 -53.78663,66.40699 -58.88619,87.39032 -5.09956,20.98332 -28.93313,41.59681 -28.93313,41.59681 z m 0,0 c 0,0 5.78717,-150.753428 23.56917,-173.36052 17.78201,-22.607098 47.89831,-52.9357564 52.48937,-48.159803 4.59104,4.775962 17.06981,84.672938 11.76078,92.533193 -5.30903,7.86026 -53.78663,66.40699 -58.88619,87.39032 -5.09956,20.98332 -28.93313,41.59681 -28.93313,41.59681 z"
       id="path3333"
       inkscape:connector-curvature="0" />
  </g>
</svg>
