<svg width="640" height="480" xmlns="http://www.w3.org/2000/svg" xmlns:svg="http://www.w3.org/2000/svg">
 <!-- Created with SVG-edit - http://svg-edit.googlecode.com/ -->
 <g>
  <title>Layer 1</title>
  <path id="svg_25" d="m214.09998,104.8277c-2.6368,8.39676 -9.93873,10.96492 -16.35424,5.24752c-3.48853,-2.53498 -11.12848,-2.80519 -5.77938,2.87533c3.04896,2.71744 9.05405,12.87532 1.86451,5.3282c-4.69306,-6.90283 -14.98512,-7.66237 -18.71872,-14.67414c-0.4976,-8.44273 -13.28142,-6.87928 -19.70177,-9.28237c-5.57053,0.19461 -14.20526,-5.79494 -16.21735,-5.78725c5.00985,5.96384 4.22634,15.53747 9.14901,20.87813c6.55651,1.82565 9.0577,9.79635 0.57044,11.1702c-10.33071,3.72693 -8.53896,-8.8208 -13.99772,-14.02c-4.02613,-1.85725 -0.11953,16.74081 -3.97895,12.363c0.09827,-7.73919 -3.67571,-14.79925 -5.19095,-22.15026c2.56231,-2.73029 2.26605,-10.53194 -0.87141,-4.39019c-6.5109,10.83798 -15.04012,20.26551 -23.34198,29.73857c-8.60667,2.33433 -17.89018,1.22845 -26.73715,0.69195c-9.3146,0.15041 -11.46588,-16.34367 -17.14988,-16.86317c-1.18679,4.72361 0.03036,7.50058 2.47575,9.89152c-3.79798,4.43662 -11.87679,2.96753 -16.98557,1.17215c-9.07441,2.92003 2.86666,-5.14874 6.56016,-3.75497c0.09046,-6.44692 1.18508,-14.96545 -0.80467,-21.17195c-2.97736,-2.94356 -9.45731,-17.64901 -8.80705,-7.37776c-1.70078,12.5141 -7.48902,24.11275 -8.83212,36.72841c-1.14597,7.0803 -11.06025,3.72605 -16.12097,4.06876c-5.09833,1.59128 -4.54583,0.21276 -9.15499,0.48321c4.90175,-6.59093 16.57461,-2.28491 19.9048,-9.29228c1.48707,-10.46526 0.73717,-21.42305 4.27413,-31.50195c-1.47671,-10.4203 -4.73588,-20.73865 -4.7897,-31.27962c1.65868,-6.89008 5.69469,-13.16764 5.55563,-20.4849c3.04265,-8.17249 5.02028,-17.38949 11.16548,-23.87607c6.51456,-7.01221 16.73068,-1.63401 20.125,5.75057c3.65884,8.07179 -2.02196,16.1734 -2.61239,24.29923c7.6618,2.07723 1.44584,12.7238 11.32594,11.71121c7.76422,0.71549 5.51796,11.2596 0.41018,14.46848c-0.18547,4.92696 5.67884,11.33689 4.33609,17.79544c3.84396,4.23114 8.58953,6.32075 8.92307,-1.13084c2.6288,-9.89724 3.5991,-20.32939 8.25089,-29.64257c1.85157,-7.45696 9.50482,-17.0949 17.65093,-10.96096c7.54903,4.13678 9.45596,16.71838 15.58753,19.79586c7.50689,-6.29146 13.97686,3.16526 20.13275,6.55595c9.27231,5.13608 17.44983,11.96172 26.3903,17.62389c9.34221,4.75988 19.28136,8.57947 27.98305,14.47139c5.92007,3.25038 12.15885,-3.29428 13.51126,4.53226l0.00002,-0.00001zm-104.58412,-34.49046c-1.01439,5.34469 3.0589,2.51657 0,0z" stroke-linecap="null" stroke-linejoin="null" stroke-dasharray="null" stroke-width="5" stroke="#000000" fill="#ffffff"/>
 </g>
</svg>