<svg width="640" height="480" xmlns="http://www.w3.org/2000/svg" xmlns:svg="http://www.w3.org/2000/svg">
 <!-- Created with SVG-edit - http://svg-edit.googlecode.com/ -->
 <g>
  <title>Layer 1</title>
  <path id="svg_26" d="m41.83733,31.85592c6.60869,0 11.97247,-5.36006 11.97247,-11.97247c0,-6.61612 -5.36377,-11.97989 -11.97247,-11.97989c-6.61427,0 -11.97989,5.36377 -11.97989,11.97989c0,6.61241 5.36376,11.97247 11.97989,11.97247zm33.57783,51.63395l-10.74424,-39.84886c-0.10019,-0.36179 -0.24121,-0.70688 -0.41188,-1.026c-1.22082,-3.73293 -4.72554,-6.43615 -8.8648,-6.43615l-27.19363,0c-4.31551,0 -7.939,2.93514 -9.0058,6.91854c-0.07236,0.1744 -0.13173,0.35808 -0.18553,0.54732l-10.55315,39.84701c-0.70318,2.6123 0.84788,5.29697 3.46389,6.00015c2.61232,0.69946 5.297,-0.8516 6.00018,-3.4639l8.28777,-31.30134l3.45278,0l-15.0412,56.63407l14.17293,0l0,39.0993c0,3.0075 2.43419,5.44355 5.4454,5.44355c3.00379,0 5.44355,-2.4342 5.44355,-5.44355l0,-39.0993l4.33035,0l0,39.0993c0,3.0075 2.4379,5.44355 5.44912,5.44355c3.00378,0 5.44355,-2.4342 5.44355,-5.44355l0,-39.0993l14.16548,0l-15.09685,-56.63407l3.54369,0l8.4399,31.30134c0.70317,2.6123 3.38786,4.16336 6.00015,3.4639c2.60675,-0.70317 4.15781,-3.38969 3.45835,-6.002l0,0z" stroke-linecap="null" stroke-linejoin="null" stroke-dasharray="null" stroke-width="5" stroke="#000000" fill="#ffffff"/>
 </g>
</svg>