<?xml version="1.0" encoding="UTF-8" standalone="no"?>
<!-- Created with Inkscape (http://www.inkscape.org/) -->
<svg
   xmlns:svg="http://www.w3.org/2000/svg"
   xmlns="http://www.w3.org/2000/svg"
   version="1.0"
   width="169.64107"
   height="362.92081"
   id="svg3233">
  <defs
     id="defs3235" />
  <g
     transform="translate(-218.03661,-216.61608)"
     id="layer1">
    <g
       transform="translate(218.03661,216.61608)"
       id="g3229">
      <path
         d="M 108.05652,84.498295 C 110.41777,86.858295 111.71777,89.998295 111.71777,93.338295 L 111.71777,155.8383 C 111.71777,162.7308 106.10902,168.3383 99.21777,168.3383 C 93.94152,168.3383 89.43027,165.04705 87.59777,160.4158 C 87.82652,159.12955 87.96777,157.8133 87.96777,156.4633 L 87.96777,93.338295 C 87.96777,91.847045 87.82277,90.377045 87.54027,88.945795 C 89.34777,84.112045 93.96277,80.838295 99.21777,80.838295 C 102.55652,80.838295 105.69527,82.137045 108.05652,84.498295 M 52.96777,93.963295 C 52.96777,90.623295 54.26777,87.483295 56.62777,85.123295 C 58.98902,82.762045 62.12902,81.463295 65.46777,81.463295 C 70.53902,81.463295 75.10777,84.593295 77.01277,89.217045 C 76.83402,90.364545 76.71777,91.529545 76.71777,92.713295 L 76.71777,155.8383 C 76.71777,157.4808 76.90527,159.0783 77.24152,160.6208 C 75.52277,165.47205 70.89902,168.9633 65.46777,168.9633 C 58.57527,168.9633 52.96777,163.3558 52.96777,156.4633 L 52.96777,93.963295 z M 159.48902,24.434545 C 159.48902,24.439545 140.86527,144.2733 140.86527,144.2733 L 140.63652,145.7383 L 141.24527,147.0908 C 142.38402,149.62455 143.40277,152.25455 144.27527,154.9033 L 144.46652,155.48705 L 144.79402,156.00455 C 154.39277,171.2433 153.76152,189.82455 143.01902,208.32579 L 142.83777,208.63829 L 142.71402,208.9458 C 142.01027,210.48705 137.48402,215.65705 134.77902,218.7458 C 131.26402,222.76205 129.05777,225.3108 128.03277,227.05205 L 127.23777,228.40455 L 127.35652,229.96955 L 136.73777,352.92079 L 45.95777,352.92079 L 45.26027,232.3908 L 45.25027,230.6208 L 44.12777,229.2533 C 34.29527,217.24955 28.14402,201.54829 26.80902,185.04705 L 26.78027,184.6933 L 26.70027,184.34705 C 26.59527,183.87955 26.52027,183.4433 26.46902,183.0083 C 26.47027,183.0283 10.08777,39.063295 10.08777,39.063295 C 9.28402,32.200795 14.20277,25.979545 21.04902,25.179545 C 27.89402,24.378295 34.11652,29.295795 34.91652,36.140795 C 34.91277,36.112045 42.43652,104.0758 42.96777,108.8708 L 42.96777,156.4633 C 42.96777,168.86829 53.06152,178.9633 65.46777,178.9633 C 72.34152,178.9633 78.49652,175.8558 82.62652,170.98204 C 86.74402,175.48955 92.64777,178.3383 99.21777,178.3383 C 111.62402,178.3383 121.71777,168.24329 121.71777,155.8383 L 121.71777,104.9133 L 134.79027,20.564545 C 135.85402,13.763295 142.26027,9.087045 149.07027,10.152045 C 155.87902,11.219545 160.55277,17.625795 159.48902,24.434545 M 150.61527,0.272045 C 138.35777,-1.644205 126.82652,6.768295 124.90777,19.027045 C 124.90652,19.032045 119.69152,52.690795 115.83402,77.578295 C 115.59652,77.319545 115.37652,77.052045 115.12777,76.802045 C 111.41902,73.094545 106.64402,70.840795 101.49402,70.328295 C 100.74152,70.252045 99.98277,70.213295 99.21777,70.213295 C 96.30652,70.213295 93.48277,70.772045 90.85777,71.822045 C 88.06527,72.938295 85.49777,74.609545 83.30652,76.802045 C 82.86652,77.242045 82.45902,77.708295 82.05902,78.177045 C 81.83152,77.928295 81.61902,77.667045 81.37777,77.427045 C 77.12777,73.177045 71.47777,70.838295 65.46777,70.838295 C 59.45652,70.838295 53.80777,73.177045 49.55652,77.427045 L 49.54902,77.434545 L 44.85277,35.010795 C 43.40652,22.657045 32.20902,13.804545 19.88652,15.247045 C 7.56402,16.688295 -1.28848,27.887045 0.15402,40.208295 C 0.15152,40.193295 16.53402,184.1583 16.53402,184.1583 C 16.60777,184.7808 16.73027,185.4058 16.85777,186.0308 C 18.33402,203.8358 24.85652,220.8408 35.27027,234.1608 L 35.98777,357.94955 L 36.01652,362.92079 L 147.52902,362.92079 L 147.11902,357.53955 L 137.46402,231.00705 C 138.63527,229.52455 140.69152,227.17329 142.30277,225.3358 C 147.25152,219.6808 150.42777,215.9483 151.71652,213.25955 C 164.25652,191.60704 164.90027,169.5908 153.55777,151.17454 C 152.78902,148.88955 151.91277,146.63205 150.96152,144.41705 C 153.03527,131.06955 169.36902,25.974545 169.36902,25.979545 C 171.28527,13.722045 162.87277,2.190795 150.61527,0.272045"
         id="path379"
         style="fill:#231f20;fill-opacity:1;fill-rule:nonzero;stroke:none" />
      <path
         d="M 74.13402,114.9833 C 79.32402,109.1833 88.26277,108.68705 94.06152,113.8783 L 94.13527,113.9433 L 94.21152,114.00705 L 138.68277,150.74329 L 146.24027,156.98579 L 152.61027,149.2758 L 100.58152,106.29705 L 100.73152,106.42705 C 95.93152,102.12955 89.74652,99.962045 83.31527,100.3183 C 76.88652,100.67455 70.97902,103.51455 66.68277,108.3133 C 57.81652,118.2208 58.66277,133.49455 68.57027,142.36205 C 68.57527,142.36455 86.83027,158.6458 100.17277,170.54705 C 77.33652,175.1883 60.36402,192.04955 60.36402,212.0883 L 69.11402,212.0883 C 69.11402,194.3908 86.53902,179.8083 108.73152,178.18205 C 111.89277,181.00205 113.91027,182.79829 113.91027,182.79829 L 120.56527,175.3358 L 117.11402,172.25955 L 75.23277,134.9033 C 69.44027,129.71955 68.94527,120.78205 74.13402,114.9833"
         id="path383"
         style="fill:#231f20;fill-opacity:1;fill-rule:nonzero;stroke:none" />
    </g>
  </g>
</svg>
