<?xml version="1.0"?>
<svg width="640" height="480" xmlns="http://www.w3.org/2000/svg" xmlns:svg="http://www.w3.org/2000/svg" xmlns:xlink="http://www.w3.org/1999/xlink">
 <!-- Created with SVG-edit - http://svg-edit.googlecode.com/ -->
 <g>
  <title>Layer 1</title>
  <g id="svg_3"/>
  <use id="svg_17" xlink:href="#svg_16" transform="matrix(0.6843491264123002,0,0,0.7603147840683419,-117.76211052796543,16.60476125674793) " y="-13.15245" x="208.95767"/>
  <g id="svg_18"/>
  <g id="svg_24"/>
  <path id="svg_9" d="m16.747289,84.934068c0,-16.004988 0,-32.01 0,-48.014988c-3.901705,1.091281 -7.677098,3.4299 -11.76729,3.293101c4.506507,-4.173749 12.743914,-5.495622 18.865838,-8.232496c26.740637,-9.420222 53.489291,-18.926921 80.739513,-26.778965c7.887312,-0.387518 15.359785,4.177474 22.966756,6.086218c17.212859,6.175229 34.764748,11.665689 51.42789,19.21539c-3.80484,5.10296 -16.693261,2.95709 -15.024691,12.571696c-1.168211,26.641565 -0.489416,53.324862 -0.670247,79.986023c-11.090024,3.288488 -22.129797,6.915686 -33.251071,9.993563c-37.76225,-0.034924 -75.524454,-0.069748 -113.286704,-0.104532c0,-16.004953 0,-32.010163 0,-48.014953l0,-0.000064l0.000006,0.000006zm15.264351,18.24948c0,-9.412987 0,-18.825986 0,-28.239044c9.667426,0 19.334852,0 29.002279,0c0,18.826057 0,37.652101 0,56.478123c22.387716,0 44.775419,0 67.163141,0c0,-31.546328 0,-63.092639 0,-94.638979c-36.634445,0 -73.268879,0 -109.90333,0c0,31.54634 0,63.092651 0,94.638979c4.579303,0 9.158613,0 13.737916,0c0,-9.413022 0,-18.826021 0,-28.239079l-0.000006,0zm58.004534,-16.027556c0,-4.070484 0,-8.140957 0,-12.211488c7.632184,0 15.264357,0 22.896535,0c0,8.140998 0,16.282013 0,24.422964c-7.632184,0 -15.264357,0 -22.896535,0c0,-4.070484 0,-8.140957 0,-12.211476zm19.84366,0.763211c0,-3.307261 0,-6.614516 0,-9.921818c-5.596936,0 -11.193861,0 -16.790785,0c0,6.614563 0,13.229132 0,19.843654c5.596925,0 11.193849,0 16.790785,0c0,-3.307261 0,-6.614516 0,-9.92183l0,-0.000006zm-50.37235,16.790785c0,-8.904174 0,-17.808383 0,-26.712604c-8.649811,0 -17.299605,0 -25.949404,0c0.168061,17.225133 -0.506268,34.490683 0.813223,51.678755c4.276202,2.69203 10.889573,1.369625 16.208171,1.746493c2.976009,0 5.952,0 8.928015,0c0,-8.904203 0,-17.808424 0,-26.712639l-0.000006,-0.000006zm88.151627,19.942177c4.197701,-1.388427 8.395401,-2.776872 12.59309,-4.165305c-0.189473,-26.77347 0.575946,-53.578781 -0.938822,-80.32148c-3.697693,-4.696885 -13.646984,5.91919 -19.836542,0.843563c-5.24819,-3.151754 -9.480219,-3.308844 -7.873584,3.978822c-0.35274,26.65423 -0.820137,53.342339 0.291938,79.980961c-1.356692,10.103338 11.452819,-0.922426 15.763915,-0.316561l0.000006,0zm10.254869,-89.268951c3.395723,-1.601601 16.998435,-3.514654 7.756037,-6.441241c-18.113756,-7.699363 -36.516542,-14.89191 -55.397574,-20.474937c-7.746946,-1.094259 -15.01463,3.058439 -22.354041,4.917335c-4.220911,0.542955 -8.195138,3.86538 -1.627001,4.810287c19.525482,7.343371 39.01333,14.9218 59.014903,20.876428c4.216765,-0.754914 8.415535,-2.557164 12.607676,-3.687865l0,-0.000006zm-61.008845,-9.914461c-7.123371,-2.706167 -14.246724,-5.412339 -21.370083,-8.118511c-14.978112,5.228944 -30.102558,10.07252 -44.902618,15.784685c29.190555,0.97802 58.430169,0.344256 87.642802,0.452349c-7.123371,-2.70619 -14.246736,-5.412351 -21.3701,-8.118523z" stroke-linecap="null" stroke-linejoin="null" stroke-dasharray="null" stroke-width="5" stroke="#000000" fill="#ffffff"/>
 </g>
</svg>