<svg width="640" height="480" xmlns="http://www.w3.org/2000/svg" xmlns:svg="http://www.w3.org/2000/svg">
 <!-- Created with SVG-edit - http://svg-edit.googlecode.com/ -->
 <g>
  <title>Layer 1</title>
  <path id="svg_3" d="m20.93139,100.92461c0,-18.94843 0,-37.8969 0,-56.84533c-4.61926,1.29198 -9.08898,4.06069 -13.93139,3.89873c5.33529,-4.94133 15.08762,-6.50631 22.33542,-9.74652c31.65846,-11.15268 63.3264,-22.40773 95.58816,-31.70383c9.33785,-0.45879 18.18457,4.94575 27.19053,7.20552c20.37844,7.3109 41.15827,13.8111 60.88589,22.74926c-4.50458,6.04144 -19.76329,3.50092 -17.78785,14.88373c-1.38305,31.54116 -0.57942,63.13174 -0.79351,94.6961c-13.12957,3.89327 -26.19965,8.18754 -39.36621,11.83146c-44.70703,-0.04135 -89.41401,-0.08258 -134.12104,-0.12376c0,-18.94839 0,-37.89709 0,-56.84529l0,-0.00008l0.00001,0.00001zm18.07159,21.60571c0,-11.14411 0,-22.28824 0,-33.43243c11.44534,0 22.89069,0 34.33603,0c0,22.28832 0,44.57663 0,66.86491c26.505,0 53.00998,0 79.51499,0c0,-37.34795 0,-74.69589 0,-112.04385c-43.37182,0 -86.74362,0 -130.11544,0c0,37.34797 0,74.6959 0,112.04385c5.42147,0 10.84296,0 16.26443,0c0,-11.14415 0,-22.28828 0,-33.43247l-0.00001,0zm68.67204,-18.97515c0,-4.81908 0,-9.63814 0,-14.45728c9.0358,0 18.0716,0 27.10739,0c0,9.63819 0,19.27641 0,28.91454c-9.0358,0 -18.0716,0 -27.10739,0c0,-4.81908 0,-9.63814 0,-14.45727zm23.49307,0.90357c0,-3.91549 0,-7.83098 0,-11.74652c-6.62626,0 -13.2525,0 -19.87875,0c0,7.83103 0,15.66208 0,23.49306c6.62624,0 13.25249,0 19.87875,0c0,-3.91549 0,-7.83098 0,-11.74653l0,-0.00001zm-59.63623,19.87875c0,-10.54172 0,-21.08349 0,-31.62527c-10.24058,0 -20.48114,0 -30.72171,0c0.19897,20.39297 -0.59937,40.8338 0.96278,61.1829c5.06263,3.18712 12.89225,1.62151 19.18899,2.06769c3.52332,0 7.04662,0 10.56995,0c0,-10.54176 0,-21.08354 0,-31.62531l-0.00001,-0.00001zm104.36342,23.6097c4.96969,-1.64377 9.93938,-3.28756 14.90906,-4.93134c-0.22432,-31.69733 0.68187,-63.43235 -1.11148,-95.09325c-4.37773,-5.56068 -16.15677,7.00778 -23.48464,0.9987c-6.21337,-3.73139 -11.22371,-3.91737 -9.3216,4.71056c-0.41761,31.55616 -0.97097,63.15243 0.34563,94.69011c-1.6062,11.96142 13.55908,-1.09207 18.66303,-0.37478l0.00001,0zm12.14082,-105.68623c4.02022,-1.89615 20.12458,-4.16103 9.18244,-7.62584c-21.44502,-9.11534 -43.23223,-17.63065 -65.58564,-24.24044c-9.17167,-1.2955 -17.77594,3.62091 -26.46513,5.82167c-4.99717,0.64281 -9.70229,4.57625 -1.92622,5.69494c23.11638,8.69388 46.1882,17.66604 69.86822,24.71577c4.99226,-0.89375 9.96322,-3.02745 14.92633,-4.36609l0,-0.00001zm-72.22886,-11.73781c-8.43342,-3.20385 -16.86681,-6.40771 -25.30021,-9.61157c-17.73271,6.19059 -35.63866,11.92494 -53.16057,18.68762c34.55893,1.15789 69.17595,0.40757 103.76102,0.53554c-8.43342,-3.20388 -16.86683,-6.40773 -25.30023,-9.61158z" stroke-linecap="null" stroke-linejoin="null" stroke-dasharray="null" stroke-width="5" stroke="#000000" fill="#ffffff"/>
 </g>
</svg>