<?xml version="1.0"?>
<svg width="640" height="480" xmlns="http://www.w3.org/2000/svg" xmlns:svg="http://www.w3.org/2000/svg">
 <!-- Created with SVG-edit - http://svg-edit.googlecode.com/ -->
 <g>
  <title>Layer 1</title>
  <path id="svg_2" d="m49.762912,8.876248c-9.960651,-0.043995 -20.735833,2.493062 -27.224002,10.651328c-5.05281,6.014232 -10.369336,12.398925 -11.531677,20.452401c-2.617649,14.225098 -2.490667,29.274626 1.839942,43.153288c2.509377,6.892004 8.312912,11.875723 11.811921,18.248713c4.62315,6.673263 6.808744,14.785332 6.196082,22.874173c12.213063,0 24.42611,0 36.639168,0c0.040038,-12.096505 7.552092,-22.043674 14.247315,-31.443202c4.674502,-5.530396 7.698734,-12.229964 8.765047,-19.393541c2.060365,-12.839019 2.528073,-26.578194 -2.24126,-38.889634c-4.528325,-9.419481 -10.076532,-19.756236 -20.681349,-23.326146c-5.686457,-2.076873 -11.822208,-2.426683 -17.821181,-2.327375l-0.000005,-0.000005zm-18.683249,114.551204c12.298809,0 24.597612,0 36.896406,0c-2.207053,4.51691 -5.006264,9.468983 -3.456914,14.597247c-2.051351,4.458854 0.574599,8.898744 -2.801091,12.9789c-1.243014,5.591929 -8.319804,6.027511 -13.060058,6.18055c-5.122559,0.568672 -10.816534,-0.853554 -12.770397,-6.19011c-4.064184,-2.853872 0.834288,-6.330123 -2.314809,-9.538333c3.63125,-3.942235 -2.701,-6.003515 -0.448572,-10.282746c-0.618725,-2.923131 -2.896689,-4.287725 -2.044565,-7.745513l0,0.000005zm-0.080163,0.012581c12.298799,0 24.597607,0 36.896411,0c-0.926724,4.388579 -4.934832,8.537651 -3.410979,12.954475c0.867202,3.666898 -2.740947,6.668509 -0.576125,10.540712c-1.649123,4.645747 -4.950001,9.89265 -10.563672,9.877709c-5.422817,0.009221 -12.784812,1.809514 -16.145,-3.596821c-1.270825,-3.257904 -5.374562,-5.211301 -2.223712,-8.746705c-3.906871,-2.930265 2.62014,-7.269706 -2.400868,-9.200816c2.387357,-4.624914 -2.575326,-7.286123 -1.576054,-11.82856l0,0l0,0.000005zm-0.154378,-0.097054c12.298809,0 24.597612,0 36.896421,0c-0.926724,4.388579 -4.934822,8.537656 -3.410963,12.954485c0.867177,3.666888 -2.740967,6.668499 -0.576135,10.540702c-2.132837,3.382668 -4.416835,8.90599 -8.886415,9.302963c-4.905445,0.057966 -9.810901,0.115911 -14.716351,0.173892c-3.361032,-3.603374 -8.155609,-7.809421 -5.521164,-12.613972c-3.716698,-2.604132 2.915764,-6.818481 -2.209332,-8.529521c2.387362,-4.624914 -2.575331,-7.286108 -1.576059,-11.828545l0,0l0,-0.000005zm10.08308,32.368046c5.211913,0 10.423836,0 15.635749,0c-1.689101,1.221398 -2.711378,4.065928 -5.156206,3.447773c-2.513586,-0.196514 -5.336666,0.294487 -7.66053,-0.323495c-0.939669,-1.041433 -1.879344,-2.08286 -2.819008,-3.124278l-0.000005,0zm5.674679,-32.607746c-1.802475,-26.526569 -3.642695,-37.772172 -10.429353,-53.824898c-6.786658,-16.052726 -1.459036,-10.696849 13.704952,-12.433193c15.163989,-1.736339 6.805652,5.005728 6.811821,17.399247c0.006169,12.393523 0.883684,18.606386 1.869309,29.360943c-0.974079,10.414099 0.909928,10.485071 -1.410115,18.825258" stroke-width="5" stroke="#000000" fill="#ffffff"/>
 </g>
</svg>