<svg width="640" height="480" xmlns="http://www.w3.org/2000/svg" xmlns:svg="http://www.w3.org/2000/svg">
 <!-- Created with SVG-edit - http://svg-edit.googlecode.com/ -->
 <g>
  <title>Layer 1</title>
  <path id="svg_6" d="m76.17494,204.15343c7.31995,-18.73578 27.25477,-29.78138 46.6157,-31.19719c0,-3.98846 0,-7.9769 0,-11.96535c-31.07624,-2.23164 -61.82418,-15.30508 -82.47784,-39.18334c-18.86795,-20.25864 -28.86756,-47.50731 -30.24209,-74.97947c-10.91575,-7.77587 10.19424,-13.43352 12.76596,-4.83206c-5.88107,7.13619 -0.18329,18.32939 0.65253,27.06968c9.31318,41.30568 45.74811,74.31765 87.44529,80.17474c10.66241,4.72526 13.49936,-1.62461 11.67688,-11.35399c2.28187,-7.69239 -6.03665,-5.35718 -11.01251,-6.79335c-32.87446,-5.76344 -61.43554,-31.35646 -69.8645,-63.89182c-2.41486,-9.30867 -3.20017,-19.563 -6.14093,-27.19015c6.24896,-4.88718 21.25271,-1.30169 12.95682,7.42869c0.88888,36.96408 31.57102,69.57797 67.8661,74.22405c7.50434,3.66902 6.64373,-2.60793 6.37427,-7.63363c3.97648,-12.21822 -7.88248,-10.38163 -15.8521,-13.38673c-22.413,-7.6197 -38.84078,-29.491 -40.39415,-53.14991c-10.72136,-9.34349 12.77714,-14.22987 12.94309,-4.50693c-6.15844,7.17899 0.78547,18.83549 4.49578,26.49362c8.3834,13.6679 22.91749,22.89526 38.80738,24.7265c0,-6.10285 0,-12.2057 0,-18.30856c-14.77271,-2.28405 -26.57231,-15.18838 -28.24331,-29.99575c-10.06507,-8.19532 11.83652,-12.14721 13.41149,-4.29677c-5.46481,4.28373 -1.35276,11.15683 1.85567,15.79958c2.29255,2.74544 13.63869,12.30135 12.97615,5.10227c0,-8.13906 0,-16.27811 0,-24.41718c-6.91995,-4.39421 2.61001,-7.32067 -1.55165,-12.50831c2.39367,-5.38335 3.47792,-19.30828 5.27039,-19.47399c6.00422,8.5541 3.76269,20.42772 9.42848,27.86706c-3.12649,3.3643 -3.66967,7.09677 -3.13616,12.08292c0,6.53729 0,13.07459 0,19.61188c8.95444,-2.63154 17.05978,-10.07944 17.62633,-19.86176c-10.232,-12.01381 24.90028,-9.35355 10.31953,1.29764c-1.51868,14.48494 -13.87239,26.424 -27.94585,28.86457c0,6.0788 0,12.15759 0,18.23638c24.08702,-2.41944 45.32884,-23.65558 45.75582,-48.2506c-10.0294,-11.07946 22.64613,-10.34498 11.46193,-0.42915c-2.56709,12.01182 -5.05445,24.77838 -13.22289,34.58967c-10.30418,13.93502 -26.81065,22.20854 -43.80042,24.16113c0.13787,7.41916 -3.77721,23.08981 9.03359,16.83836c31.89419,-5.42833 59.0144,-32.15368 63.88697,-64.44314c4.65662,-7.17769 -7.06496,-20.2852 6.72065,-18.4782c8.51886,-1.98762 9.72075,5.14683 4.76159,9.51467c-1.66099,29.11953 -17.77765,57.15742 -43.07715,71.88091c-12.5988,7.40762 -26.90533,12.07623 -41.52009,12.86329c0.1447,6.11034 -0.38625,12.30001 0.4999,18.34654c28.65291,-2.2871 56.85754,-14.68685 75.54622,-37.05553c16.64667,-18.69419 25.21885,-43.35353 26.64868,-68.1509c-8.46557,-8.14955 9.24435,-9.42259 13.46281,-5.71391c-4.77278,9.46111 -4.23215,21.94257 -7.39878,32.87562c-10.29455,43.06478 -47.39045,77.76097 -90.74693,85.60569c-5.94302,1.27277 -11.98903,1.91745 -18.0119,2.67097c-0.57635,7.38253 -0.41228,14.89071 9.40945,13.47974c16.70629,3.50983 32.74514,15.05265 38.08233,31.79803c-34.95894,0 -69.91791,0 -104.87688,0c0.25279,-0.71886 0.50554,-1.43775 0.75836,-2.15658l0.00001,0.00007zm-67.247,-169.22956c-0.44533,-6.58308 3.51787,-20.62453 4.5928,-22.25459c1.84277,6.0259 10.21046,19.29586 3.83639,23.20584c-2.67019,-0.31119 -6.52934,1.27823 -8.42919,-0.95125zm28.00944,0.4474c-1.39103,-8.12719 4.42693,-15.74953 3.6624,-24.13822c2.61201,6.8394 13.27581,23.91664 1.59536,24.67994c-1.75831,-0.06271 -3.55912,0.02887 -5.25775,-0.54171l0,-0.00001zm28.90221,-0.13978c-1.23662,-7.97276 4.22163,-15.51762 3.74617,-23.74142c3.23515,6.9034 14.11276,26.53743 -0.67289,24.40297l-1.55127,-0.10242l-1.52201,-0.55913l0,0zm28.07707,0.21435c-1.58371,-8.12818 4.38427,-15.80626 3.59935,-24.21281c2.65345,6.88358 13.21928,23.82263 1.6143,24.85108c-1.74698,-0.06651 -3.54776,0.01744 -5.21365,-0.63828zm56.14792,-0.31055c-1.26106,-8.17553 4.31315,-15.90888 3.52887,-24.38232c2.19477,4.12508 5.12883,11.14237 6.42452,16.63904c3.87269,8.95013 -3.20556,10.15629 -9.95338,7.74327l0,0.00001zm28.97238,0.36096c-2.34789,-7.91495 4.30315,-15.86722 3.30773,-24.26322c2.77655,6.75327 10.06607,18.78863 5.30197,24.61192c-2.86877,0.01586 -5.78909,0.33859 -8.6097,-0.34871zm28.28972,-0.16736c-1.81162,-6.59808 3.5278,-20.14407 4.11636,-22.90944c2.83827,6.8073 13.4098,27.24715 -2.26648,23.47501l-1.84987,-0.56557l0,0zm28.47626,-0.12442c-1.5478,-7.24606 4.22208,-17.67463 3.9206,-23.2939c2.8155,6.50883 13.77549,26.20646 -0.76803,24.01679l-1.53423,-0.12134l-1.61833,-0.60154l0,0z" stroke-linecap="null" stroke-linejoin="null" stroke-dasharray="null" stroke-width="5" stroke="#000000" fill="#ffffff"/>
 </g>
</svg>