<?xml version="1.0" encoding="UTF-8" standalone="no"?>
<!-- Created with Inkscape (http://www.inkscape.org/) -->

<svg
   xmlns:dc="http://purl.org/dc/elements/1.1/"
   xmlns:cc="http://creativecommons.org/ns#"
   xmlns:rdf="http://www.w3.org/1999/02/22-rdf-syntax-ns#"
   xmlns:svg="http://www.w3.org/2000/svg"
   xmlns="http://www.w3.org/2000/svg"
   xmlns:sodipodi="http://sodipodi.sourceforge.net/DTD/sodipodi-0.dtd"
   xmlns:inkscape="http://www.inkscape.org/namespaces/inkscape"
   width="210mm"
   height="297mm"
   viewBox="0 0 744.09448819 1052.3622047"
   id="svg2"
   version="1.1"
   inkscape:version="0.91 r13725"
   sodipodi:docname="museum_logo_2.svg">
  <defs
     id="defs4" />
  <sodipodi:namedview
     id="base"
     pagecolor="#ffffff"
     bordercolor="#000000"
     borderopacity="1.0"
     inkscape:pageopacity="0.0"
     inkscape:pageshadow="2"
     inkscape:zoom="0.98994949"
     inkscape:cx="-37.626945"
     inkscape:cy="905.88648"
     inkscape:document-units="px"
     inkscape:current-layer="layer1"
     showgrid="false"
     inkscape:window-width="1366"
     inkscape:window-height="706"
     inkscape:window-x="-8"
     inkscape:window-y="-8"
     inkscape:window-maximized="1" />
  <metadata
     id="metadata7">
    <rdf:RDF>
      <cc:Work
         rdf:about="">
        <dc:format>image/svg+xml</dc:format>
        <dc:type
           rdf:resource="http://purl.org/dc/dcmitype/StillImage" />
        <dc:title />
      </cc:Work>
    </rdf:RDF>
  </metadata>
  <g
     inkscape:label="Layer 1"
     inkscape:groupmode="layer"
     id="layer1">
    <path
       style="fill:none;fill-rule:evenodd;stroke:#000000;stroke-width:2.07181883px;stroke-linecap:butt;stroke-linejoin:miter;stroke-opacity:1"
       d="m 142.54114,1.0359094 c -78.107574,0 -141.5052306,63.3976566 -141.5052306,141.5052306 0,78.10757 63.3976566,141.50522 141.5052306,141.50522 78.10757,0 141.50522,-63.39765 141.50522,-141.50522 0,-78.107574 -63.39765,-141.5052306 -141.50522,-141.5052306 z m 69.61311,149.1709606 -7.04419,-5.38673 -1.86463,-7.25137 -11.39501,35.22092 -13.88118,0 -5.80109,-34.39219 -10.98064,98.20421 -14.29555,0 -11.60219,-119.12958 -8.90882,79.55784 -14.08837,0 -8.70164,-49.30929 -6.629819,27.96956 -13.466822,0 -11.395004,-26.10492 -33.356283,-6.837 38.121467,-7.04419 6.62982,4.55801 4.765183,11.60218 9.530367,-39.9861 14.088371,0 6.21545,34.39219 10.98064,-98.204213 14.29555,0 11.60219,118.715223 9.116,-82.251212 14.08837,0 9.32318,55.110382 10.15192,-30.8701 13.674,0 6.62982,26.93364 28.79828,7.25137 -34.59937,7.25137 z"
       id="path3333"
       inkscape:connector-curvature="0" />
  </g>
</svg>
