<?xml version="1.0" encoding="UTF-8" standalone="no"?>
<!-- Created with Inkscape (http://www.inkscape.org/) -->

<svg
   xmlns:dc="http://purl.org/dc/elements/1.1/"
   xmlns:cc="http://creativecommons.org/ns#"
   xmlns:rdf="http://www.w3.org/1999/02/22-rdf-syntax-ns#"
   xmlns:svg="http://www.w3.org/2000/svg"
   xmlns="http://www.w3.org/2000/svg"
   xmlns:sodipodi="http://sodipodi.sourceforge.net/DTD/sodipodi-0.dtd"
   xmlns:inkscape="http://www.inkscape.org/namespaces/inkscape"
   width="210mm"
   height="297mm"
   viewBox="0 0 744.09448819 1052.3622047"
   id="svg2"
   version="1.1"
   inkscape:version="0.91 r13725"
   sodipodi:docname="museum_logo_1.svg">
  <defs
     id="defs4" />
  <sodipodi:namedview
     id="base"
     pagecolor="#ffffff"
     bordercolor="#000000"
     borderopacity="1.0"
     inkscape:pageopacity="0.0"
     inkscape:pageshadow="2"
     inkscape:zoom="1.4"
     inkscape:cx="-1.4575871"
     inkscape:cy="884.97439"
     inkscape:document-units="px"
     inkscape:current-layer="layer1"
     showgrid="false"
     inkscape:window-width="1366"
     inkscape:window-height="706"
     inkscape:window-x="-8"
     inkscape:window-y="-8"
     inkscape:window-maximized="1" />
  <metadata
     id="metadata7">
    <rdf:RDF>
      <cc:Work
         rdf:about="">
        <dc:format>image/svg+xml</dc:format>
        <dc:type
           rdf:resource="http://purl.org/dc/dcmitype/StillImage" />
        <dc:title />
      </cc:Work>
    </rdf:RDF>
  </metadata>
  <g
     inkscape:label="Layer 1"
     inkscape:groupmode="layer"
     id="layer1">
    <path
       style="fill:none;fill-rule:evenodd;stroke:#000000;stroke-width:2.1264534px;stroke-linecap:butt;stroke-linejoin:miter;stroke-opacity:1"
       d="M 146.3,1.0632267 C 89.187149,0.27901874 34.131215,37.011071 12.482947,89.786176 -10.123761,141.63534 1.5970096,206.04434 41.1839,246.48743 c 38.081464,40.98776 100.82263,55.98563 153.36264,36.83263 54.45513,-18.52015 94.63023,-72.00629 96.80112,-129.55013 C 294.97362,97.81766 262.56633,41.861171 212.39956,16.920834 192.03947,6.4746931 169.17796,1.0287552 146.3,1.0632267 Z M 238.80073,154.59317 c -7.02333,12.75536 -11.66638,27.39402 -23.13618,37.02715 -11.23001,12.95628 -19.45634,28.52671 -32.5769,39.73782 -11.8249,9.95464 -27.94713,4.18036 -41.28809,9.14707 -17.56023,2.29402 -35.45575,-9.85392 -39.87598,-27.02257 -10.520638,-23.84103 -22.250599,-47.20447 -33.54099,-70.61979 -2.01474,-8.09859 -5.880849,-15.96786 -6.582535,-24.23332 6.18265,-11.93161 17.639073,-2.36881 18.291956,7.25742 3.602944,10.20025 9.963292,19.21175 16.050267,27.98854 10.172992,0.74256 2.976762,-9.41003 1.631169,-14.37809 C 93.079348,127.31943 88.138021,115.21458 86.168712,102.2306 84.887131,94.274963 81.871389,86.412114 81.974782,78.359811 87.435988,65.393719 102.1767,74.244 101.19536,85.460189 c 3.10736,13.049051 5.35262,26.371651 11.48209,38.446241 2.91324,6.54105 5.19711,13.45273 8.50382,19.76208 10.42378,2.60073 5.38295,-8.47414 4.94682,-13.9041 -2.74197,-15.60437 -5.44133,-31.213355 -5.52805,-47.104812 -0.0114,-7.789035 -1.74355,-15.734635 -0.482,-23.411288 9.02321,-12.172663 19.77043,1.527222 17.61305,12.106098 1.0605,15.435371 1.99829,30.873942 5.52892,45.989192 1.74527,6.341 1.33271,13.76442 4.52851,19.38736 8.76259,2.36505 5.34801,-8.50751 6.1026,-13.49923 0.0986,-18.9955 0.73595,-38.038837 2.33012,-56.946188 7.62443,-12.447509 21.66199,-0.06405 17.83908,11.099615 -0.32472,25.806853 -0.63973,51.706703 1.71764,77.420653 -0.0112,11.69367 10.87072,29.94998 24.12196,20.29102 13.14538,-5.53921 16.28855,-21.24407 28.53103,-27.95622 4.53136,-3.72615 14.7125,1.98022 10.36978,7.45256 z"
       id="path3333"
       inkscape:connector-curvature="0" />
  </g>
</svg>
