<?xml version="1.0" encoding="UTF-8" standalone="no"?>
<!-- Generator: Adobe Illustrator 21.0.0, SVG Export Plug-In . SVG Version: 6.00 Build 0)  -->

<svg
   xmlns:dc="http://purl.org/dc/elements/1.1/"
   xmlns:cc="http://creativecommons.org/ns#"
   xmlns:rdf="http://www.w3.org/1999/02/22-rdf-syntax-ns#"
   xmlns:svg="http://www.w3.org/2000/svg"
   xmlns="http://www.w3.org/2000/svg"
   xmlns:sodipodi="http://sodipodi.sourceforge.net/DTD/sodipodi-0.dtd"
   xmlns:inkscape="http://www.inkscape.org/namespaces/inkscape"
   version="1.1"
   id="Layer_1"
   x="0px"
   y="0px"
   viewBox="0 0 841.9 595.3"
   style="enable-background:new 0 0 841.9 595.3;"
   xml:space="preserve"
   inkscape:version="0.91 r13725"
   sodipodi:docname="museum_logo_2.svg"><metadata
     id="metadata21"><rdf:RDF><cc:Work
         rdf:about=""><dc:format>image/svg+xml</dc:format><dc:type
           rdf:resource="http://purl.org/dc/dcmitype/StillImage" /><dc:title></dc:title></cc:Work></rdf:RDF></metadata><defs
     id="defs19" /><sodipodi:namedview
     pagecolor="#ffffff"
     bordercolor="#666666"
     borderopacity="1"
     objecttolerance="10"
     gridtolerance="10"
     guidetolerance="10"
     inkscape:pageopacity="0"
     inkscape:pageshadow="2"
     inkscape:window-width="1366"
     inkscape:window-height="706"
     id="namedview17"
     showgrid="false"
     inkscape:zoom="0.34208337"
     inkscape:cx="59.926911"
     inkscape:cy="297.64999"
     inkscape:window-x="-8"
     inkscape:window-y="-8"
     inkscape:window-maximized="1"
     inkscape:current-layer="Layer_1" /><style
     type="text/css"
     id="style3">
	.st0{fill:none;stroke:#000000;stroke-miterlimit:10;}
</style><path
     class="st0"
     d="M 68.8,0.5 C 31.1,0.5 0.5,31.1 0.5,68.8 c 0,37.7 30.6,68.3 68.3,68.3 37.7,0 68.3,-30.6 68.3,-68.3 0,-37.7 -30.6,-68.3 -68.3,-68.3 z m 33.6,72 -3.4,-2.6 -0.9,-3.5 -5.5,17 -6.7,0 -2.8,-16.6 -5.3,47.4 -6.9,0 -5.6,-57.5 -4.3,38.4 -6.8,0 -4.2,-23.8 -3.2,13.5 -6.5,0 -5.5,-12.6 -16.1,-3.3 18.4,-3.4 3.2,2.2 2.3,5.6 4.6,-19.3 6.8,0 3,16.6 5.3,-47.4 6.9,0 5.6,57.3 4.4,-39.7 6.8,0 4.5,26.6 4.9,-14.9 6.6,0 3.2,13 13.9,3.5 -16.7,3.5 z"
     id="path13"
     inkscape:connector-curvature="0"
     style="fill:none;stroke:#000000;stroke-miterlimit:10" /></svg>