<?xml version="1.0" encoding="UTF-8" standalone="no"?>
<!-- Created with Inkscape (http://www.inkscape.org/) -->

<svg
   xmlns:dc="http://purl.org/dc/elements/1.1/"
   xmlns:cc="http://creativecommons.org/ns#"
   xmlns:rdf="http://www.w3.org/1999/02/22-rdf-syntax-ns#"
   xmlns:svg="http://www.w3.org/2000/svg"
   xmlns="http://www.w3.org/2000/svg"
   xmlns:sodipodi="http://sodipodi.sourceforge.net/DTD/sodipodi-0.dtd"
   xmlns:inkscape="http://www.inkscape.org/namespaces/inkscape"
   width="210mm"
   height="297mm"
   viewBox="0 0 744.09448819 1052.3622047"
   id="svg2"
   version="1.1"
   inkscape:version="0.91 r13725"
   sodipodi:docname="museum_logo_3.svg">
  <defs
     id="defs4" />
  <sodipodi:namedview
     id="base"
     pagecolor="#ffffff"
     bordercolor="#000000"
     borderopacity="1.0"
     inkscape:pageopacity="0.0"
     inkscape:pageshadow="2"
     inkscape:zoom="2.8"
     inkscape:cx="153.25978"
     inkscape:cy="976.48952"
     inkscape:document-units="px"
     inkscape:current-layer="layer1"
     showgrid="false"
     inkscape:window-width="1366"
     inkscape:window-height="706"
     inkscape:window-x="-8"
     inkscape:window-y="-8"
     inkscape:window-maximized="1" />
  <metadata
     id="metadata7">
    <rdf:RDF>
      <cc:Work
         rdf:about="">
        <dc:format>image/svg+xml</dc:format>
        <dc:type
           rdf:resource="http://purl.org/dc/dcmitype/StillImage" />
        <dc:title />
      </cc:Work>
    </rdf:RDF>
  </metadata>
  <g
     inkscape:label="Layer 1"
     inkscape:groupmode="layer"
     id="layer1">
    <path
       style="fill:none;fill-rule:evenodd;stroke:#000000;stroke-width:1.91031194px;stroke-linecap:butt;stroke-linejoin:miter;stroke-opacity:1"
       d="M 131.42947,0.95516082 C 59.410709,0.95516082 0.95516455,59.410705 0.95516455,131.42946 c 0,72.01876 58.45554445,130.47431 130.47430545,130.47431 72.01876,0 130.4743,-58.45555 130.4743,-130.47431 0,-72.018755 -58.45554,-130.47429918 -130.4743,-130.47429918 z M 133.33978,174.02942 C 105.918,170.8937 65.321813,157.78317 38.206247,130.47431 63.347507,104.94896 103.26823,87.023381 133.14875,86.728165 c 43.64508,3.25122 65.56807,13.720425 95.13353,43.746145 -25.70714,29.06731 -69.26633,43.25562 -94.9425,43.55511 z"
       id="path3333"
       inkscape:connector-curvature="0"
       sodipodi:nodetypes="sssssccccc" />
    <path
       style="fill:none;fill-rule:evenodd;stroke:#000000;stroke-width:1.91031194px;stroke-linecap:butt;stroke-linejoin:miter;stroke-opacity:1"
       d="m 58.837615,129.51915 c 11.652903,10.12465 24.451992,17.7659 37.633145,22.54168 -4.011655,-6.49506 -6.495061,-14.32734 -6.495061,-22.54168 0,-8.21434 2.292374,-16.04662 6.495061,-22.54168 -13.181153,4.77578 -25.789211,12.41703 -37.633145,22.54168 z"
       id="path8"
       inkscape:connector-curvature="0" />
    <path
       style="fill:none;fill-rule:evenodd;stroke:#000000;stroke-width:1.91031194px;stroke-linecap:butt;stroke-linejoin:miter;stroke-opacity:1"
       d="m 104.30304,130.28328 c 0,15.85559 12.99012,28.84571 28.84571,28.84571 15.85559,0 28.84571,-12.99012 28.84571,-29.80087 0.19103,-7.64125 12.99012,-7.64125 14.13631,0.95516 0,8.21434 -2.29238,15.85559 -6.30403,22.35065 12.99012,-4.77578 25.59818,-12.226 37.82417,-22.35065 -22.92374,-19.10312 -47.7578,-28.46365 -74.50216,-29.03674 -16.04662,-0.19104 -28.84571,12.99012 -28.84571,29.03674 z m 42.59995,-0.38207 c 0,7.64125 -6.30403,13.75425 -13.94527,13.75425 -7.64125,0 -13.75425,-6.30403 -13.75425,-13.94528 0,-7.64124 6.30403,-13.75424 13.94528,-13.75424 7.64125,0 13.75424,6.30403 13.75424,13.94527 z"
       id="path10"
       inkscape:connector-curvature="0" />
  </g>
</svg>
