<?xml version="1.0" encoding="UTF-8" standalone="no"?>
<!-- Generator: Adobe Illustrator 21.0.0, SVG Export Plug-In . SVG Version: 6.00 Build 0)  -->

<svg
   xmlns:dc="http://purl.org/dc/elements/1.1/"
   xmlns:cc="http://creativecommons.org/ns#"
   xmlns:rdf="http://www.w3.org/1999/02/22-rdf-syntax-ns#"
   xmlns:svg="http://www.w3.org/2000/svg"
   xmlns="http://www.w3.org/2000/svg"
   xmlns:sodipodi="http://sodipodi.sourceforge.net/DTD/sodipodi-0.dtd"
   xmlns:inkscape="http://www.inkscape.org/namespaces/inkscape"
   version="1.1"
   id="Layer_1"
   x="0px"
   y="0px"
   viewBox="0 0 841.9 595.3"
   style="enable-background:new 0 0 841.9 595.3;"
   xml:space="preserve"
   inkscape:version="0.91 r13725"
   sodipodi:docname="museum_logo_1.svg"><metadata
     id="metadata21"><rdf:RDF><cc:Work
         rdf:about=""><dc:format>image/svg+xml</dc:format><dc:type
           rdf:resource="http://purl.org/dc/dcmitype/StillImage" /><dc:title></dc:title></cc:Work></rdf:RDF></metadata><defs
     id="defs19" /><sodipodi:namedview
     pagecolor="#ffffff"
     bordercolor="#666666"
     borderopacity="1"
     objecttolerance="10"
     gridtolerance="10"
     guidetolerance="10"
     inkscape:pageopacity="0"
     inkscape:pageshadow="2"
     inkscape:window-width="1366"
     inkscape:window-height="706"
     id="namedview17"
     showgrid="false"
     inkscape:zoom="0.34208337"
     inkscape:cx="59.926911"
     inkscape:cy="297.64999"
     inkscape:window-x="-8"
     inkscape:window-y="-8"
     inkscape:window-maximized="1"
     inkscape:current-layer="Layer_1" /><style
     type="text/css"
     id="style3">
	.st0{fill:none;stroke:#000000;stroke-miterlimit:10;}
</style><path
     class="st0"
     d="M 68.8,0.5 C 31.1,0.5 0.5,31.1 0.5,68.8 c 0,37.7 30.6,68.3 68.3,68.3 37.7,0 68.3,-30.6 68.3,-68.3 C 137.1,31 106.5,0.5 68.8,0.5 Z m 43.5,72.2 c -0.3,0.5 -0.8,1.7 -1.6,3.2 l -2.6,5.1 c -0.9,1.8 -2.5,5 -3.7,6.1 -1.2,1.2 -2.1,2 -2.5,2.4 l -2.9,3.7 -2.9,3.7 -2.7,3.8 -2.9,3.7 c -1.5,1.9 -2.9,3.3 -4.4,4.4 -1.4,1.1 -2.9,1.8 -4.5,2.3 -1.6,0.5 -3.2,0.7 -5,0.8 -1.8,0.1 -3.8,0.1 -6.1,0.1 -1.9,0.9 -4.1,1.3 -6.2,1.2 -2.2,0 -4.3,-0.5 -6.3,-1.4 -2,-0.8 -3.9,-2.1 -5.5,-3.6 -1.6,-1.5 -2.8,-3.3 -3.6,-5.4 C 47.8,99.9 45.9,95.7 43.6,91 41.4,86.4 39.1,81.2 36.7,76.4 35.4,74 32.5,68.3 32.5,68.3 L 29.1,57.2 c -0.3,-1 0,-1.9 0.6,-2.6 0.6,-0.7 1.2,-0.9 2.1,-1.2 0.9,-0.3 1.4,-0.4 2.3,-0.2 0.8,0.2 1.7,0.9 2,1.6 l 1.6,4.5 1.7,4.1 2.7,4.3 2.7,4.3 c 0.2,0.3 0.6,0.5 0.9,0.5 0.4,0 0.8,-0.1 1.1,-0.2 0.4,-0.2 0.7,-0.4 0.9,-0.7 0.2,-0.3 0.3,-0.6 0.2,-0.9 L 45,63 42.1,55.3 40.2,46.6 38.5,38.5 c -0.2,-1.2 0.1,-2.2 0.7,-3 0.6,-0.8 1.6,-1.3 2.6,-1.6 1,-0.3 2.1,-0.2 3,0.2 0.9,0.4 1.6,1.1 1.9,2.3 l 1.9,8.1 1.7,7.3 3.2,7.7 3.2,7.7 c 0.1,0.3 0.4,0.5 0.8,0.5 0.4,0.1 0.8,0.1 1.2,0 0.4,-0.1 0.8,-0.3 1.1,-0.5 0.3,-0.2 0.5,-0.5 0.4,-0.8 l -1.5,-9.1 -1.5,-9.1 -0.5,-9.6 -0.5,-9.2 c 0,-1.2 0.4,-2 1.1,-2.7 0.7,-0.6 1.7,-1 2.7,-1 1,-0.1 2,0.2 2.9,0.7 0.8,0.5 1.4,1.4 1.5,2.5 l 0.7,8.8 0.6,8.4 1.6,8.7 1.6,8.7 c 0.1,0.4 0.3,0.6 0.6,0.8 0.3,0.2 0.7,0.2 1.1,0.2 0.4,0 0.8,-0.1 1.1,-0.3 0.3,-0.2 0.5,-0.4 0.6,-0.8 l 0.1,-7.8 0.1,-7.8 0.4,-8 0.4,-7.8 c 0.1,-1.2 0.7,-2 1.6,-2.6 0.8,-0.5 1.9,-0.7 3,-0.6 1,0.1 2.1,0.5 2.8,1.1 0.7,0.6 1.2,1.5 1.2,2.6 l -0.1,8.6 -0.1,8.4 0.2,8.6 0.2,8.6 c 0.1,0.8 0.1,1.6 0.2,2.5 0.1,0.8 0.1,1.6 0.2,2.4 0.1,0.8 0.2,1.6 0.4,2.4 0.1,0.8 0.3,1.6 0.5,2.4 0.2,0.9 0.7,2 1.2,3 0.5,1 1.2,2 2.1,2.7 0.8,0.8 1.7,1.3 2.8,1.5 1,0.2 2.2,0 3.4,-0.7 1.4,-0.6 3.1,-1.8 5.1,-3.3 2,-1.4 2,-2.8 3.6,-4.8 1.6,-2 3.2,-3.8 4.7,-4.9 1.5,-1.1 3,-1.6 4.4,-1 0.5,0.2 0.9,0.5 1.2,0.8 0.3,0.3 0.6,0.6 0.7,1 0.2,0.4 0.2,0.7 0.3,1.1 -0.4,0.3 -0.4,0.6 -0.6,0.9 z"
     id="path15"
     inkscape:connector-curvature="0"
     style="fill:none;stroke:#000000;stroke-miterlimit:10" /></svg>