<?xml version="1.0" encoding="UTF-8" standalone="no"?>
<!-- Generator: Adobe Illustrator 21.0.0, SVG Export Plug-In . SVG Version: 6.00 Build 0)  -->

<svg
   xmlns:dc="http://purl.org/dc/elements/1.1/"
   xmlns:cc="http://creativecommons.org/ns#"
   xmlns:rdf="http://www.w3.org/1999/02/22-rdf-syntax-ns#"
   xmlns:svg="http://www.w3.org/2000/svg"
   xmlns="http://www.w3.org/2000/svg"
   xmlns:sodipodi="http://sodipodi.sourceforge.net/DTD/sodipodi-0.dtd"
   xmlns:inkscape="http://www.inkscape.org/namespaces/inkscape"
   version="1.1"
   id="Layer_1"
   x="0px"
   y="0px"
   viewBox="0 0 841.9 595.3"
   style="enable-background:new 0 0 841.9 595.3;"
   xml:space="preserve"
   inkscape:version="0.91 r13725"
   sodipodi:docname="museum_logo_3.svg"><metadata
     id="metadata21"><rdf:RDF><cc:Work
         rdf:about=""><dc:format>image/svg+xml</dc:format><dc:type
           rdf:resource="http://purl.org/dc/dcmitype/StillImage" /><dc:title></dc:title></cc:Work></rdf:RDF></metadata><defs
     id="defs19" /><sodipodi:namedview
     pagecolor="#ffffff"
     bordercolor="#666666"
     borderopacity="1"
     objecttolerance="10"
     gridtolerance="10"
     guidetolerance="10"
     inkscape:pageopacity="0"
     inkscape:pageshadow="2"
     inkscape:window-width="1366"
     inkscape:window-height="706"
     id="namedview17"
     showgrid="false"
     inkscape:zoom="0.34208337"
     inkscape:cx="59.926911"
     inkscape:cy="297.64999"
     inkscape:window-x="-8"
     inkscape:window-y="-8"
     inkscape:window-maximized="1"
     inkscape:current-layer="Layer_1" /><style
     type="text/css"
     id="style3">
	.st0{fill:none;stroke:#000000;stroke-miterlimit:10;}
</style><g
     id="g5"
     transform="translate(-494,-227.3)"><path
       class="st0"
       d="m 562.8,227.8 c -37.7,0 -68.3,30.6 -68.3,68.3 0,37.7 30.6,68.3 68.3,68.3 37.7,0 68.3,-30.6 68.3,-68.3 0,-37.7 -30.6,-68.3 -68.3,-68.3 z m 1,90.6 c -16.9,0.1 -33.5,-6.8 -47.3,-20.1 -1.2,-1.2 -2.5,-2.7 -2.5,-2.7 0,0 1.3,-1.5 2.2,-2.5 14.1,-13.6 30.6,-20.5 47.5,-20.4 16.9,-0.1 33.5,6.8 47.3,20.1 1.2,1.2 2.5,2.8 2.5,2.8 0,0 -1.4,1.5 -2.3,2.4 -13.9,13.6 -30.5,20.5 -47.4,20.4 z"
       id="path7"
       inkscape:connector-curvature="0"
       style="fill:none;stroke:#000000;stroke-miterlimit:10" /><path
       class="st0"
       d="m 524.8,295.1 c 6.1,5.3 12.8,9.3 19.7,11.8 -2.1,-3.4 -3.4,-7.5 -3.4,-11.8 0,-4.3 1.2,-8.4 3.4,-11.8 -6.9,2.5 -13.5,6.5 -19.7,11.8 z"
       id="path9"
       inkscape:connector-curvature="0"
       style="fill:none;stroke:#000000;stroke-miterlimit:10" /><path
       class="st0"
       d="m 548.6,295.5 c 0,8.3 6.8,15.1 15.1,15.1 8.3,0 15.1,-6.8 15.1,-15.6 0.1,-4 6.8,-4 7.4,0.5 0,4.3 -1.2,8.3 -3.3,11.7 6.8,-2.5 13.4,-6.4 19.8,-11.7 -12,-10 -25,-14.9 -39,-15.2 -8.4,-0.1 -15.1,6.8 -15.1,15.2 z m 22.3,-0.2 c 0,4 -3.3,7.2 -7.3,7.2 -4,0 -7.2,-3.3 -7.2,-7.3 0,-4 3.3,-7.2 7.3,-7.2 4,0 7.2,3.3 7.2,7.3 z"
       id="path11"
       inkscape:connector-curvature="0"
       style="fill:none;stroke:#000000;stroke-miterlimit:10" /></g></svg>