<?xml version="1.0" encoding="UTF-8" standalone="no"?>
<!-- Created with Inkscape (http://www.inkscape.org/) -->
<svg xmlns:svg="http://www.w3.org/2000/svg" xmlns="http://www.w3.org/2000/svg" version="1.0" width="724.06122" height="1022.8502" id="svg2">
  <defs id="defs4"/>
  <g transform="translate(-12.2857, -11.5765)" id="layer1">
    <path d="M 444.98659,1033.8554 C 442.78967,1033.5247 427.20943,1017.4212 372.56847,959.00532 C 334.27803,918.06946 302.46142,884.57648 301.8649,884.57648 C 301.26839,884.57648 269.50775,915.85148 231.28572,954.07648 C 165.72578,1019.6414 161.59264,1023.5764 158.28579,1023.5764 C 154.97811,1023.5764 150.7633,1019.5589 83.53309,952.32388 C 16.345377,885.13124 12.285707,880.87184 12.285707,877.57118 C 12.285707,874.27124 16.260167,870.09694 81.78571,804.57648 C 120.01071,766.35445 151.28571,734.40445 151.28571,733.57648 C 151.28571,732.74851 120.01071,700.79851 81.78571,662.57648 C 16.220117,597.01598 12.285707,592.88343 12.285707,589.57648 C 12.285707,586.26953 16.220117,582.13698 81.78571,516.57648 C 120.01071,478.35445 151.28571,446.40445 151.28571,445.57648 C 151.28571,444.74851 120.01071,412.79851 81.78571,374.57648 C 16.230617,309.02648 12.285707,304.88298 12.285707,301.57787 C 12.285707,298.25549 19.71101,290.64871 155.53701,154.82517 C 291.32141,19.043251 298.97083,11.576475 302.28972,11.576475 C 305.59138,11.576475 309.75542,15.541084 375.28571,81.076475 C 413.50774,119.30148 445.45774,150.57648 446.28571,150.57648 C 447.11368,150.57648 479.06368,119.30148 517.28571,81.076475 C 582.84564,15.511454 586.97878,11.576475 590.28563,11.576475 C 593.59331,11.576475 597.80812,15.593931 665.03833,82.829079 C 732.22604,150.02172 736.28571,154.28112 736.28571,157.58178 C 736.28571,160.88172 732.31126,165.05602 666.78571,230.57648 C 628.56071,268.79851 597.28571,300.74851 597.28571,301.57648 C 597.28571,302.40445 628.56071,334.35445 666.78571,372.57648 C 732.3513,438.13698 736.28571,442.26953 736.28571,445.57648 C 736.28571,448.88343 732.3513,453.01598 666.78571,518.57648 C 628.56071,556.79851 597.28571,588.74851 597.28571,589.57648 C 597.28571,590.40445 628.57448,622.35566 666.81632,660.57918 L 736.34692,730.07648 L 736.06632,734.13901 C 735.79477,738.07032 731.1743,742.98787 593.01393,886.38901 C 514.48945,967.89212 449.68945,1034.509 449.01393,1034.4266 C 448.33841,1034.3442 446.5261,1034.0871 444.98659,1033.8554 z M 517.16533,952.10718 C 555.18154,912.79907 586.28571,880.2884 586.28571,879.86126 C 586.28571,878.38027 495.7865,788.57648 494.29404,788.57648 C 492.33669,788.57648 405.28571,875.6062 405.28571,877.56307 C 405.28571,879.52023 444.31232,918.57648 446.268,918.57648 C 447.09357,918.57648 457.56123,908.79188 469.52946,896.83291 C 487.80811,878.56843 491.55887,875.25902 492.97097,876.14974 C 498.00246,879.32353 497.95603,879.3894 473.28747,904.07472 C 451.5828,925.79414 449.53622,927.57648 446.3015,927.57648 C 443.0688,927.57648 441.02411,925.80046 419.54353,904.33446 C 398.04166,882.8472 396.28571,880.82774 396.28571,877.58641 C 396.28571,874.26961 401.42637,868.93951 491.53375,778.82843 C 581.5195,688.83898 586.97483,683.57648 590.27593,683.57648 C 593.50078,683.57648 595.56257,685.36775 617.02789,706.8185 C 638.55474,728.33073 640.28571,730.3222 640.28571,733.57648 C 640.28571,736.83181 638.54358,738.83339 616.78395,760.57824 C 592.09863,785.2468 592.03276,785.29323 588.85897,780.26174 C 587.96825,778.84964 591.27766,775.09888 609.54214,756.82023 C 621.50111,744.852 631.28571,734.39268 631.28571,733.57729 C 631.28571,731.62606 592.24985,692.57648 590.2993,692.57648 C 588.33523,692.57648 501.28571,779.60451 501.28571,781.5681 C 501.28571,783.60005 590.3544,872.57648 592.38846,872.57648 C 594.26148,872.57648 726.6502,736.00982 727.06064,733.65431 C 727.22827,732.69222 681.4717,686.22297 609.81064,614.57808 C 498.57333,503.36587 492.28571,496.89254 492.28571,493.58198 C 492.28571,490.3012 495.21558,487.15394 539.53176,442.83039 C 583.84303,398.51175 586.99498,395.57648 590.27395,395.57648 C 593.50139,395.57648 595.55753,397.36272 617.02789,418.8185 C 638.55474,440.33073 640.28571,442.3222 640.28571,445.57648 C 640.28571,448.83181 638.54358,450.83339 616.78395,472.57824 C 592.09863,497.2468 592.03276,497.29323 588.85897,492.26174 C 587.96825,490.84964 591.27766,487.09888 609.54214,468.82023 C 621.50111,456.852 631.28571,446.39268 631.28571,445.57729 C 631.28571,443.62606 592.24985,404.57648 590.2993,404.57648 C 588.33529,404.57648 501.28571,491.60448 501.28571,493.568 C 501.28571,495.52957 588.31749,582.57648 590.27871,582.57648 C 592.2434,582.57648 727.28571,447.54221 727.28571,445.57764 C 727.28571,444.75025 674.41071,391.19972 609.78571,326.57648 C 498.57658,215.37037 492.28571,208.89241 492.28571,205.58198 C 492.28571,202.3012 495.21558,199.15394 539.53176,154.83039 C 583.84303,110.51175 586.99498,107.57648 590.27395,107.57648 C 593.50139,107.57648 595.55753,109.36272 617.02789,130.8185 C 638.55474,152.33073 640.28571,154.3222 640.28571,157.57648 C 640.28571,160.83181 638.54358,162.83339 616.78395,184.57824 C 592.09863,209.2468 592.03276,209.29323 588.85897,204.26174 C 587.96825,202.84964 591.27766,199.09888 609.54214,180.82023 C 621.50111,168.852 631.28571,158.39268 631.28571,157.57729 C 631.28571,155.62606 592.24985,116.57648 590.2993,116.57648 C 588.33529,116.57648 501.28571,203.60448 501.28571,205.568 C 501.28571,207.52957 588.31749,294.57648 590.27871,294.57648 C 592.2406,294.57648 727.28571,159.54368 727.28571,157.58197 C 727.28571,155.61828 592.25047,20.576475 590.28687,20.576475 C 589.45948,20.576475 535.90895,73.451475 471.28571,138.07648 C 360.0796,249.28561 353.60165,255.57648 350.29122,255.57648 C 347.01044,255.57648 343.86318,252.64661 299.53963,208.33043 C 255.22099,164.01916 252.28572,160.86721 252.28572,157.58824 C 252.28572,154.3608 254.07196,152.30466 275.52774,130.8343 C 297.03997,109.30745 299.03144,107.57648 302.28572,107.57648 C 305.54105,107.57648 307.54263,109.31861 329.28748,131.07824 C 353.95604,155.76356 354.00247,155.82943 348.97098,159.00322 C 347.55888,159.89394 343.80812,156.58453 325.52947,138.32005 C 313.56124,126.36108 303.10192,116.57648 302.28653,116.57648 C 300.3353,116.57648 261.28572,155.61234 261.28572,157.56289 C 261.28572,159.5269 348.31372,246.57648 350.27724,246.57648 C 352.23881,246.57648 439.28571,159.5447 439.28571,157.58348 C 439.28571,155.62069 304.25245,20.576475 302.28981,20.576475 C 300.32858,20.576475 21.28571,299.61123 21.28571,301.5724 C 21.28571,303.53236 156.3204,438.57648 158.28022,438.57648 C 160.24015,438.57648 295.28572,303.54321 295.28572,301.58345 C 295.28572,299.62384 208.25346,212.57648 206.29419,212.57648 C 204.33674,212.57648 117.28571,299.60611 117.28571,301.56307 C 117.28571,303.52023 156.31232,342.57648 158.268,342.57648 C 159.09357,342.57648 169.56123,332.79188 181.52946,320.83291 C 199.80811,302.56843 203.55887,299.25902 204.97097,300.14974 C 210.00246,303.32353 209.95603,303.3894 185.28747,328.07472 C 163.5828,349.79414 161.53622,351.57648 158.3015,351.57648 C 155.0688,351.57648 153.02411,349.80046 131.54353,328.33446 C 110.04659,306.85212 108.28571,304.82714 108.28571,301.58837 C 108.28571,298.29916 111.18276,295.18676 155.53176,250.83039 C 199.8914,206.46337 202.99198,203.57648 206.28336,203.57648 C 209.60421,203.57648 215.97925,209.767 327.28572,321.07648 C 391.90895,385.70148 445.45634,438.57648 446.2799,438.57648 C 448.23874,438.57648 535.28571,351.54348 535.28571,349.58496 C 535.28571,347.62751 448.25608,260.57648 446.29912,260.57648 C 444.34196,260.57648 405.28571,299.60309 405.28571,301.55877 C 405.28571,302.38434 415.07031,312.852 427.02928,324.82023 C 445.29376,343.09888 448.60317,346.84964 447.71245,348.26174 C 444.53866,353.29323 444.47279,353.2468 419.78747,328.57824 C 398.06805,306.87357 396.28571,304.82699 396.28571,301.59227 C 396.28571,298.35957 398.06173,296.31488 419.52773,274.8343 C 441.01007,253.33736 443.03505,251.57648 446.27382,251.57648 C 449.56303,251.57648 452.67543,254.47353 497.0318,298.82253 C 541.3806,343.16396 544.28571,346.28388 544.28571,349.57058 C 544.28571,352.88203 539.10334,358.25516 449.03767,448.32453 C 359.01132,538.35459 353.59788,543.57648 350.29159,543.57648 C 347.01032,543.57648 343.86507,540.64851 299.53963,496.33043 C 255.22099,452.01916 252.28572,448.86721 252.28572,445.58824 C 252.28572,442.3608 254.07196,440.30466 275.52774,418.8343 C 297.03997,397.30745 299.03144,395.57648 302.28572,395.57648 C 305.54105,395.57648 307.54263,397.31861 329.28748,419.07824 C 353.95604,443.76356 354.00247,443.82943 348.97098,447.00322 C 347.55888,447.89394 343.80812,444.58453 325.52947,426.32005 C 313.56124,414.36108 303.10192,404.57648 302.28653,404.57648 C 300.3353,404.57648 261.28572,443.61234 261.28572,445.56289 C 261.28572,447.5269 348.31372,534.57648 350.27724,534.57648 C 352.23881,534.57648 439.28571,447.5447 439.28571,445.58348 C 439.28571,443.62069 304.25245,308.57648 302.28981,308.57648 C 300.32858,308.57648 21.28571,587.61123 21.28571,589.5724 C 21.28571,591.53152 156.31996,726.57648 158.27892,726.57648 C 159.10322,726.57648 180.36667,705.9911 205.53104,680.83119 C 244.16779,642.20131 251.54635,635.25111 252.96825,636.14802 C 258.25248,639.48123 263.43209,633.92676 139.03196,758.33022 C 74.27153,823.09241 21.28571,876.7527 21.28571,877.57532 C 21.28571,879.53335 156.32228,1014.5764 158.28022,1014.5764 C 160.24015,1014.5764 295.28572,879.54321 295.28572,877.58345 C 295.28572,875.62384 208.25346,788.57648 206.29419,788.57648 C 204.33674,788.57648 117.28571,875.60611 117.28571,877.56307 C 117.28571,879.52023 156.31232,918.57648 158.268,918.57648 C 159.09357,918.57648 169.56123,908.79188 181.52946,896.83291 C 199.80811,878.56843 203.55887,875.25902 204.97097,876.14974 C 210.00246,879.32353 209.95603,879.3894 185.28747,904.07472 C 163.5828,925.79414 161.53622,927.57648 158.3015,927.57648 C 155.0688,927.57648 153.02411,925.80046 131.54353,904.33446 C 110.04659,882.85212 108.28571,880.82714 108.28571,877.58837 C 108.28571,874.29916 111.18276,871.18676 155.53176,826.83039 C 200.0659,782.28885 202.98101,779.57648 206.31774,779.57648 C 209.66594,779.57648 212.94479,782.67696 266.86115,836.82648 C 303.86611,873.99148 345.0535,916.7927 384.26108,958.82648 C 418.22033,995.23364 445.39893,1023.5764 446.35125,1023.5764 C 447.28279,1023.5764 479.14912,991.41534 517.16533,952.10718 z M 299.53177,784.32257 C 255.18277,739.9662 252.28572,736.8538 252.28572,733.56459 C 252.28572,730.32582 254.0466,728.30084 275.54354,706.8185 C 297.02412,685.3525 299.06881,683.57648 302.30151,683.57648 C 305.53623,683.57648 307.58281,685.35882 329.28748,707.07824 C 353.95604,731.76356 354.00247,731.82943 348.97098,735.00322 C 347.55888,735.89394 343.80812,732.58453 325.52947,714.32005 C 313.56124,702.36108 303.09358,692.57648 302.26801,692.57648 C 300.31233,692.57648 261.28572,731.63273 261.28572,733.58989 C 261.28572,735.54685 348.33675,822.57648 350.2942,822.57648 C 352.25274,822.57648 439.28571,735.52951 439.28571,733.57065 C 439.28571,731.60956 208.24103,500.57648 206.27984,500.57648 C 204.31459,500.57648 117.28571,587.62439 117.28571,589.59007 C 117.28571,591.54062 156.33529,630.57648 158.28652,630.57648 C 159.10191,630.57648 169.56123,620.79188 181.52946,608.83291 C 199.80811,590.56843 203.55887,587.25902 204.97097,588.14974 C 210.00246,591.32353 209.95603,591.3894 185.28747,616.07472 C 163.54262,637.83435 161.54104,639.57648 158.28571,639.57648 C 155.03143,639.57648 153.03996,637.84551 131.52773,616.31866 C 110.07195,594.8483 108.28571,592.79216 108.28571,589.56472 C 108.28571,586.28575 111.22098,583.1338 155.53962,538.82253 C 199.86317,494.50635 203.01043,491.57648 206.29121,491.57648 C 209.60164,491.57648 216.0796,497.86735 327.28572,609.07648 C 391.90895,673.70148 445.46015,726.57648 446.28838,726.57648 C 448.25247,726.57648 535.28571,639.53235 535.28571,637.568 C 535.28571,635.60448 448.23613,548.57648 446.27212,548.57648 C 444.32157,548.57648 405.28571,587.62606 405.28571,589.57729 C 405.28571,590.39268 415.07031,600.852 427.02928,612.82023 C 445.29376,631.09888 448.60317,634.84964 447.71245,636.26174 C 444.53866,641.29323 444.47279,641.2468 419.78747,616.57824 C 398.02784,594.83339 396.28571,592.83181 396.28571,589.57648 C 396.28571,586.3222 398.01668,584.33073 419.54353,562.8185 C 441.01389,541.36272 443.07003,539.57648 446.29747,539.57648 C 449.57644,539.57648 452.72839,542.51175 497.03966,586.83039 C 541.35774,631.15583 544.28571,634.30108 544.28571,637.58235 C 544.28571,640.88864 539.06382,646.30208 449.03376,736.32844 C 358.9644,826.39411 353.59127,831.57648 350.27982,831.57648 C 346.99312,831.57648 343.8732,828.67137 299.53177,784.32257 z" id="path2402" style="fill: rgb(29, 29, 29);"/>
  </g>
</svg>