<?xml version="1.0" encoding="UTF-8" standalone="no"?>
<svg
   xmlns:svg="http://www.w3.org/2000/svg"
   xmlns="http://www.w3.org/2000/svg"
   version="1.0"
   width="620"
   height="640"
   viewBox="80 200 620 640"
   id="svg2165">
  <path
     d="M 283.35006,767.18574 C 283.52561,668.05029 225.30064,633.0201 142.06567,686.86997 C 64.122715,737.29611 180.83435,827.69818 261.31184,781.4243 C 347.25344,732.0086 348.47798,664.0692 260.22514,618.91054 C 177.58335,576.62303 157.64867,722.89931 237.96178,769.45792 C 323.72783,819.17767 383.17734,786.26846 378.15947,687.25993 C 373.46063,594.54628 236.81432,650.42048 236.64994,743.25298 C 236.47439,842.38843 294.69936,877.41862 377.93433,823.56875 C 455.87729,773.14261 339.16565,682.74054 258.68816,729.01442 C 172.74656,778.43012 171.52202,846.36952 259.77486,891.52818 C 342.41665,933.81569 362.35133,787.53941 282.03822,740.9808 C 196.27217,691.26105 136.82266,724.17026 141.84053,823.17879 C 146.53937,915.89244 283.18568,860.01824 283.35006,767.18574 z "
     transform="matrix(1.7946274,-1.0278463,0.8991205,1.8686949,-755.90762,-625.39174)"
     style="fill:none;stroke:#000000;stroke-width:2.45000005;stroke-miterlimit:4;stroke-dasharray:none;stroke-opacity:1" />
</svg>
