<?xml version="1.0"?>
<svg width="640" height="480" xmlns="http://www.w3.org/2000/svg" xmlns:svg="http://www.w3.org/2000/svg">
 <!-- Created with SVG-edit - http://svg-edit.googlecode.com/ -->
 <g>
  <title>Layer 1</title>
  <path id="svg_7" d="m89.391838,35.468391c2.740694,-4.963194 7.755073,-11.42856 -0.860206,-12.988312c-2.399881,-1.231989 -4.800543,-3.411983 -7.197332,-0.983507c-5.332767,2.106641 -9.955635,5.052695 -4.346574,10.566284c2.487333,3.560684 4.749647,11.329738 7.567178,12.185374c1.681597,-2.887624 3.256887,-5.835904 4.836933,-8.779845l0,0.000005zm-11.780926,13.704011c-4.895545,-8.737596 -8.835112,-18.111427 -14.827032,-26.172004c-7.287673,-7.780981 -21.647022,-4.312474 -24.910223,5.723914c-4.33477,9.922696 5.018237,21.770072 15.606319,20.528104c8.034711,0.13457 16.115139,0.496379 24.130936,-0.080014zm40.680712,0.294968c10.412275,-1.395736 16.400048,-14.503925 10.471694,-23.207442c-5.253512,-9.288194 -20.367621,-9.611991 -25.644045,-0.173138c-4.568837,7.630867 -8.534339,15.6048 -12.726908,23.444869c9.268942,0.529966 18.625057,0.406348 27.899259,-0.064294l0,0.000005zm17.243768,11.17597c3.549603,-3.123334 17.295167,-6.805478 6.884958,-9.771731c-2.578841,-0.7318 -5.585417,-4.088959 -7.903127,-3.170248c-5.032839,6.257433 -12.771292,9.928341 -20.850939,9.54384c-1.581673,0.519912 -9.649008,-0.790732 -7.469292,0.697935c5.6999,3.250097 11.256257,6.779715 17.151966,9.664493c4.12948,-2.199294 8.137247,-4.621964 12.186434,-6.964293l0,0.000005zm-81.096479,1.768306c3.035502,-1.768306 6.070998,-3.536616 9.106489,-5.304922c-9.278525,-0.461038 -19.896973,0.876354 -26.909154,-6.586458c-1.97702,-2.213719 -3.872833,-4.748192 -6.612891,-1.961204c-3.282019,2.261111 -13.37711,4.578222 -5.604433,7.338419c6.768254,3.998189 13.488902,8.093928 20.42444,11.796319c3.304861,-1.54982 6.420158,-3.486785 9.595554,-5.282149l-0.000005,-0.000005zm44.485961,19.730604c3.933665,-3.160628 13.461608,-6.171827 13.779921,-9.563466c-8.893622,-5.117845 -17.528195,-10.816017 -26.832682,-15.141814c-3.202026,-1.214824 -5.798118,0.654423 -8.375519,2.277981c-7.621461,4.53341 -15.426295,8.785463 -22.799756,13.714504c9.643138,5.96301 19.402188,11.749699 29.25617,17.357455c5.026065,-2.819055 9.987151,-5.753338 14.971865,-8.644654l0,-0.000005zm39.464102,9.865294c4.080949,-2.574903 8.161903,-5.1498 12.242873,-7.724718c-0.03341,-8.624182 0.104328,-17.251965 -0.131611,-25.873135c-8.236518,4.595874 -16.355899,9.421223 -24.338243,14.445747c-0.873031,8.894965 -0.430271,17.937032 -0.240525,26.876825c4.212036,-2.481549 8.321739,-5.135706 12.467506,-7.724718zm-95.709917,-5.433371c0.414476,-7.3514 1.307931,-15.73159 -7.557568,-17.909283c-5.598606,-2.61118 -13.358762,-9.301538 -17.671915,-9.23443c-0.134383,8.283369 -0.063261,16.568263 -0.077805,24.85236c8.270073,5.160983 16.393392,10.570431 24.841953,15.435493c0.819203,-4.269973 0.283678,-8.796384 0.465335,-13.14414zm59.221876,28.46371c4.891602,-3.08819 9.783198,-6.17638 14.6748,-9.26457c-0.02265,-8.903457 0.345506,-17.819718 -0.056851,-26.713613c-5.375899,1.541623 -11.524611,6.306825 -17.188415,9.266662c-4.240962,2.484203 -8.481944,4.968422 -12.722911,7.452635c0.083631,9.506716 -0.228625,19.030796 0.309281,28.523434c5.069914,-2.962326 10.00507,-6.152762 14.984092,-9.264549l0.000005,0zm-20.505225,-4.997176c0,-4.753907 0,-9.507819 0,-14.261709c-9.819786,-5.738655 -19.608142,-11.531706 -29.466212,-17.204382c-0.545151,9.090806 -0.233617,18.215798 -0.315825,27.322309c9.817598,6.146711 19.533462,12.461283 29.47525,18.405507c0.386861,-4.737063 0.245603,-9.511923 0.306788,-14.261725zm57.237349,19.110564c4.001956,-2.664891 8.003913,-5.329787 12.005885,-7.994677c-0.166979,-8.448957 0.412245,-17.012249 -0.430191,-25.367975c-8.322558,4.748342 -16.354658,10.154221 -24.528884,15.22323c0.196371,8.741876 -0.403208,17.583837 0.499814,26.251018c4.222122,-2.5915 8.315623,-5.388634 12.453375,-8.111596zm-96.042362,-4.736624c-0.032575,-4.4299 -0.065188,-8.859806 -0.097768,-13.289701c-8.267906,-5.172685 -16.431649,-10.518406 -24.823766,-15.48771c-0.525193,8.487017 -0.225842,17.007112 -0.30483,25.509282c8.340739,5.521096 16.587649,11.188501 25.040223,16.537261c0.323857,-4.409862 0.163132,-8.849543 0.18614,-13.269132zm59.521633,29.111429c4.858031,-3.226393 9.716063,-6.452781 14.574094,-9.679164c-0.011285,-8.996393 0.171495,-17.99666 -0.070239,-26.989977c-9.889019,6.097479 -19.711881,12.307189 -29.462306,18.623816c-1.10194,8.686898 -0.387455,17.643364 -0.389066,26.42521c3.02624,1.84329 10.763784,-6.325954 15.347517,-8.379891l0,0.000005zm-20.716626,-3.85119c-0.587448,-6.203316 2.526522,-14.934828 -5.357642,-17.339663c-7.950887,-5.035921 -15.869815,-10.126804 -23.925324,-14.994156c-1.174121,8.516521 0.053855,17.388761 -0.848081,26.009471c9.660084,6.983255 19.572603,13.659108 29.665702,19.999139c0.809502,-4.44294 0.306023,-9.149182 0.465345,-13.674796l0,0.000005zm-33.78416,-1.639878c-11.75765,-7.848812 -23.515295,-15.697618 -35.272934,-23.546414c0.013329,-24.222513 -0.321336,-48.450848 0.108571,-72.668812c5.887667,-3.632811 12.153088,-6.610836 18.212347,-9.943858c-3.913664,-11.203413 1.73298,-24.817934 13.081189,-29.011488c9.512998,-3.903295 20.980148,-0.380858 27.045137,7.836254c4.405255,-2.259297 8.81052,-4.518593 13.215781,-6.77789c4.42891,2.279736 8.857847,4.559473 13.286752,6.839204c6.346228,-7.527877 17.219,-11.823854 26.641218,-7.605018c11.309876,3.97531 17.474555,17.559401 13.418631,28.745226c6.103846,3.446131 12.740151,6.139059 18.336687,10.344219c0.248101,24.07905 0.002221,48.161647 -0.020279,72.242174c-23.394866,15.482402 -46.410619,31.555806 -70.185305,46.449546c-6.913279,-0.001862 -12.880436,-7.508197 -19.295474,-10.551586c-6.201978,-4.100324 -12.3883,-8.224287 -18.572348,-12.351551l0.000027,-0.000005z" stroke-linecap="null" stroke-linejoin="null" stroke-dasharray="null" stroke-width="5" stroke="#000000" fill="#ffffff"/>
 </g>
</svg>