<?xml version="1.0" encoding="UTF-8" standalone="no"?>
<!-- Created with Inkscape (http://www.inkscape.org/) -->

<svg
   xmlns:dc="http://purl.org/dc/elements/1.1/"
   xmlns:cc="http://creativecommons.org/ns#"
   xmlns:rdf="http://www.w3.org/1999/02/22-rdf-syntax-ns#"
   xmlns:svg="http://www.w3.org/2000/svg"
   xmlns="http://www.w3.org/2000/svg"
   xmlns:sodipodi="http://sodipodi.sourceforge.net/DTD/sodipodi-0.dtd"
   xmlns:inkscape="http://www.inkscape.org/namespaces/inkscape"
   width="210mm"
   height="297mm"
   viewBox="0 0 744.09448819 1052.3622047"
   id="svg2"
   version="1.1"
   inkscape:version="0.91 r13725"
   sodipodi:docname="recycle_1.svg">
  <defs
     id="defs4" />
  <sodipodi:namedview
     id="base"
     pagecolor="#ffffff"
     bordercolor="#000000"
     borderopacity="1.0"
     inkscape:pageopacity="0.0"
     inkscape:pageshadow="2"
     inkscape:zoom="0.7"
     inkscape:cx="180.1028"
     inkscape:cy="775.11374"
     inkscape:document-units="px"
     inkscape:current-layer="layer1"
     showgrid="false"
     inkscape:window-width="1366"
     inkscape:window-height="706"
     inkscape:window-x="-8"
     inkscape:window-y="-8"
     inkscape:window-maximized="1" />
  <metadata
     id="metadata7">
    <rdf:RDF>
      <cc:Work
         rdf:about="">
        <dc:format>image/svg+xml</dc:format>
        <dc:type
           rdf:resource="http://purl.org/dc/dcmitype/StillImage" />
        <dc:title />
      </cc:Work>
    </rdf:RDF>
  </metadata>
  <g
     inkscape:label="Layer 1"
     inkscape:groupmode="layer"
     id="layer1">
    <path
       id="path3340-1-5"
       style="fill:none;fill-rule:evenodd;stroke:#000000;stroke-width:4.80677462px"
       d="M 356.52843,179.72115 289.3715,167.82734 341.53219,139.6215 293.93643,66.072364 212.64352,183.87621 116.17725,135.53898 190.25581,2.4033873 l 201.97784,0 52.72203,83.3835777 51.16204,-18.687283 -64.60919,125.342868 c -4.30276,-0.4552 -38.04371,-6.1799 -74.98006,-12.72138 -1e-5,-1e-5 -3e-5,-1e-5 -4e-5,-2e-5 z m -24.26123,188.85416 44.34687,-51.81574 -2.1867,59.25812 87.52976,-3.65709 -60.20865,-129.85069 90.62503,-58.56052 77.08007,131.42066 -102.55884,174.0021 -98.60502,3.07965 -9.87975,53.56454 -75.17499,-119.30592 c 2.57698,-3.47566 24.64149,-29.63634 49.03218,-58.13509 1e-5,-1e-5 3e-5,-2e-5 4e-5,-2e-5 z m -155.47843,-111.20489 26.54405,62.8246 -52.03826,-28.43108 -35.83386,79.94228 143.07021,4.14778 11.90257,107.24066 -152.0124,10.2448 L 8.570495,323.84641 49.869041,234.25364 6.361559,201.48372 146.68438,187.53078 c 1.95818,3.85832 15.50504,35.28611 30.10439,69.8396 0,10e-6 0,4e-5 0,4e-5 z" />
  </g>
</svg>
