<svg width="640" height="480" xmlns="http://www.w3.org/2000/svg" xmlns:svg="http://www.w3.org/2000/svg">
 <!-- Created with SVG-edit - http://svg-edit.googlecode.com/ -->
 <g>
  <title>Layer 1</title>
  <path id="svg_3" d="m29.87156,68.64767c-2.27955,12.90738 -8.10233,25.24309 -8.49442,38.55308c0.5217,7.70646 -4.6484,11.84597 -11.72613,11.70022c-7.61231,7.89072 0.93959,20.36114 9.55273,23.54639c8.7902,5.90035 19.69507,-0.69267 28.40256,4.60018c11.5621,9.03824 16.38902,25.06323 12.4001,39.11208c-3.96605,11.59736 16.33593,7.37951 8.69967,-1.89116c-5.89778,-9.06136 11.11773,-6.0655 6.76166,2.53743c-0.82313,6.90576 5.09387,9.14098 2.46061,15.8314c6.86008,3.93359 -0.57506,6.13607 -4.75349,6.87879c-9.78493,4.87776 1.7699,-8.73773 -5.98171,-12.76492c-7.09853,1.54274 -2.28855,13.42975 -4.72509,12.05681c-5.01603,-3.9278 -5.01233,-18.61273 -13.43092,-9.03099c-2.79405,-11.8064 2.30393,-24.10229 -1.62325,-35.84015c1.60873,-8.76599 -12.23162,-11.78962 -10.48106,-1.62254c0.69786,15.51711 -4.01408,31.00331 -1.30977,46.44397c3.72461,9.52367 14.14175,13.81396 20.67984,21.16311c5.36955,5.66661 12.33071,11.72513 20.68812,9.94108c9.47905,-0.41089 18.97558,-1.28633 28.41185,0.21863c11.86892,0.37435 20.92937,-9.00733 31.05829,-13.82648c11.90734,-9.45495 10.03256,-26.34345 8.84555,-39.79597c-1.4555,-8.30545 1.73842,-16.61468 1.1432,-24.8424c-8.58454,-10.50368 -15.62777,7.95864 -13.18234,15.89067c-0.0006,9.97789 1.91554,22.83112 -7.60256,29.33081c-7.855,-0.19807 -15.33069,2.6551 -23.24628,1.16329c-6.42305,3.81427 -16.82681,3.71633 -18.94693,-5.36367c-0.84644,-8.06363 2.80729,-16.51754 -2.15712,-24.04315c4.36183,3.75671 11.97188,-3.24455 7.73073,5.17776c-5.17298,6.85574 4.38028,17.41999 7.97664,7.3008c1.19317,-6.78939 -5.16113,-15.80036 5.284,-14.34578c2.13013,2.39482 -7.2742,19.14652 5.58092,14.91318c9.165,-2.00756 -1.63053,-16.3843 10.78067,-16.43426c6.00657,-7.07144 4.38931,-20.32593 13.5772,-25.69053c10.24444,-6.93294 26.23949,-1.92763 33.55135,-13.66852c6.23235,-6.00824 3.29943,-22.66111 -7.44911,-17.14321c-13.43221,1.30943 -2.77188,-18.19277 -3.14666,-25.50047c3.16486,-6.36474 -3.84348,-19.76251 -1.43019,-21.18395c4.55997,6.9767 6.19317,15.13672 5.21249,23.29013c-0.08427,6.91436 -3.01656,25.65322 6.5961,14.10159c3.25414,-8.05047 2.3077,-17.16908 4.62611,-25.54467c4.47161,-18.08267 -3.5349,-36.17539 -12.46065,-51.49131c-7.60191,-8.24528 -17.25276,-14.81812 -26.31564,-21.28963c-15.24408,-5.73329 -32.07592,-6.76038 -48.176,-5.32348c-14.24117,2.46847 -29.30116,5.07093 -40.64606,14.7808c-11.05658,6.51478 -21.64558,15.1674 -26.0167,27.68548c-3.80925,10.08457 -10.47972,20.35446 -7.44805,31.55696c2.89939,9.33854 1.36161,19.03694 1.83106,28.58188c4.94259,10.90892 9.609,-5.58216 9.14645,-11.03686c0.27362,-10.34387 5.73095,-19.4997 9.75222,-28.68243l-0.00001,-0.00002zm90.78195,22.19141c10.16409,0.72833 23.03338,6.3884 23.31076,18.18851c1.5455,11.84173 -8.02285,23.32016 -20.28495,22.1589c-11.13792,-0.91488 -18.26125,-10.53569 -17.52166,-21.35221c-3.72894,-7.75556 2.07395,-16.06187 9.86196,-17.84474c1.51025,-0.50784 3.06262,-0.88796 4.63389,-1.15047l0,0.00001zm-68.59053,1.00861c11.7911,-2.09697 25.20637,5.21766 25.24574,18.26936c1.10742,12.61754 -12.28853,15.08957 -21.42666,18.25045c-6.32317,4.08278 -12.89145,0.28141 -18.14551,-3.83213c-6.81688,-7.13519 -4.81324,-21.51366 2.38469,-28.02686c3.49041,-2.5832 7.81126,-3.59866 11.94174,-4.66082zm40.3474,33.28616c5.70821,7.84562 12.56096,19.80967 5.17901,28.71416c-6.55315,5.25554 -7.37933,-7.47545 -14.2575,-1.47968c-6.45252,-5.65109 -0.5013,-17.15049 4.02616,-22.8913c1.49222,-1.65314 3.19984,-3.10853 5.05232,-4.34317z" stroke-linecap="null" stroke-linejoin="null" stroke-dasharray="null" stroke-width="5" stroke="#000000" fill="#ffffff"/>
 </g>
</svg>