<?xml version="1.0" encoding="UTF-8" standalone="no"?>
<!-- Generator: Adobe Illustrator 21.0.0, SVG Export Plug-In . SVG Version: 6.00 Build 0)  -->

<svg
   xmlns:dc="http://purl.org/dc/elements/1.1/"
   xmlns:cc="http://creativecommons.org/ns#"
   xmlns:rdf="http://www.w3.org/1999/02/22-rdf-syntax-ns#"
   xmlns:svg="http://www.w3.org/2000/svg"
   xmlns="http://www.w3.org/2000/svg"
   xmlns:sodipodi="http://sodipodi.sourceforge.net/DTD/sodipodi-0.dtd"
   xmlns:inkscape="http://www.inkscape.org/namespaces/inkscape"
   version="1.1"
   x="0px"
   y="0px"
   viewBox="0 0 841.9 595.3"
   style="enable-background:new 0 0 841.9 595.3;"
   xml:space="preserve"
   id="svg2"
   inkscape:version="0.91 r13725"
   sodipodi:docname="text_1.svg"><metadata
     id="metadata38"><rdf:RDF><cc:Work
         rdf:about=""><dc:format>image/svg+xml</dc:format><dc:type
           rdf:resource="http://purl.org/dc/dcmitype/StillImage" /></cc:Work></rdf:RDF></metadata><defs
     id="defs36" /><sodipodi:namedview
     pagecolor="#ffffff"
     bordercolor="#666666"
     borderopacity="1"
     objecttolerance="10"
     gridtolerance="10"
     guidetolerance="10"
     inkscape:pageopacity="0"
     inkscape:pageshadow="2"
     inkscape:window-width="1366"
     inkscape:window-height="706"
     id="namedview34"
     showgrid="false"
     inkscape:zoom="0.34208337"
     inkscape:cx="59.926911"
     inkscape:cy="297.64999"
     inkscape:window-x="-8"
     inkscape:window-y="-8"
     inkscape:window-maximized="1"
     inkscape:current-layer="svg2" /><style
     type="text/css"
     id="style4">
	.st0{fill:none;stroke:#000000;stroke-linecap:round;stroke-linejoin:round;stroke-miterlimit:10;}
</style><g
     id="Layer_1" /><g
     id="Layer_2"
     transform="translate(-264.4974,-144.39326)"><path
       class="st0"
       d="m 345.9,145 c 2.8,15.4 -0.6,31.8 -9.3,44.8 -1.8,2.7 -3.9,5.3 -6.8,6.9 -2.9,1.5 -6.7,1.6 -9.2,-0.5 -2,-1.7 -2.8,-4.6 -2.5,-7.3 0.5,-3.8 2.9,-7.2 6.1,-9.4 3.2,-2.2 6.9,-3.4 10.6,-4.1 9.1,-1.8 18.4,-1.2 27.6,-0.6"
       id="path8"
       inkscape:connector-curvature="0"
       style="fill:none;stroke:#000000;stroke-linecap:round;stroke-linejoin:round;stroke-miterlimit:10" /><path
       class="st0"
       d="m 367.8,144.9 c -4.4,12.9 -6.7,26.6 -6.8,40.3 0,3.3 0.1,6.7 1.8,9.5 1.7,2.8 5.4,4.7 8.3,3.2 2.2,-1 3.3,-3.5 3.6,-5.9 0.3,-2.4 0.1,-4.8 0.3,-7.2 0.5,-5.1 3.4,-9.9 7.7,-12.6 4.3,-2.8 9.9,-3.5 14.7,-1.9 -5.9,-2.1 -12.9,-0.7 -17.5,3.6 -4.6,4.3 -6.5,11.1 -4.8,17.1 0.5,1.9 1.4,3.8 2.9,5.1 1.5,1.3 3.5,2.1 5.5,1.8 2.8,-0.5 4.6,-3.2 5.9,-5.7 3.7,-6.9 6.2,-14.6 7.3,-22.4 -0.6,5.8 -1.3,11.7 -1.9,17.5 -0.3,2.4 -0.5,5 0.9,7 1.6,2.4 5.2,3 7.8,1.7 2.6,-1.2 4.4,-3.9 5.2,-6.7 0.9,-2.8 1,-5.7 1.1,-8.6 0.2,-2.9 0.4,-5.9 1.5,-8.5 -0.1,16.1 -1.4,32.2 -4,48 1.9,-10.8 3.7,-21.6 5.6,-32.4 1,-5.8 2.2,-12 6.1,-16.4 2.3,-2.6 6.2,-4.5 9.4,-2.9 2.9,1.4 4,4.9 4.5,8 0.7,4.6 0.8,9.5 -0.8,13.8 -1.6,4.4 -5.2,8.2 -9.8,9.2 -4.6,1 -9.9,-1.4 -11.4,-5.8"
       id="path10"
       inkscape:connector-curvature="0"
       style="fill:none;stroke:#000000;stroke-linecap:round;stroke-linejoin:round;stroke-miterlimit:10" /><path
       class="st0"
       d="m 442.8,169 c 0.6,18.4 -1.6,37 -6.6,54.8 2,-7.6 4,-15.2 6.1,-22.8 2,-7.5 4,-15 6,-22.6 0.7,-2.5 1.3,-5 2.9,-7 1.5,-2.1 4.1,-3.5 6.6,-3.1 1.8,0.4 3.3,1.7 4.2,3.3 0.9,1.6 1.3,3.4 1.6,5.3 0.6,4 0.5,8.2 -0.7,12 -1.3,3.8 -3.8,7.3 -7.3,9.3 -3.5,2 -8.1,2.2 -11.6,0.1"
       id="path12"
       inkscape:connector-curvature="0"
       style="fill:none;stroke:#000000;stroke-linecap:round;stroke-linejoin:round;stroke-miterlimit:10" /><path
       class="st0"
       d="m 474.2,168.8 c -0.1,6.4 -0.3,12.8 -0.4,19.2 -0.1,2.6 0.1,5.7 2.3,7.2 1.4,1 3.3,0.9 4.9,0.3 1.6,-0.7 2.9,-1.8 4.1,-3.1 5.7,-6 9.5,-13.8 10.6,-22 -3.4,4 -4.6,9.5 -4.9,14.8 -0.2,5.3 0.4,10.6 0.1,15.9 -0.3,5.3 -1.5,10.7 -4.9,14.8 -3.4,4 -9.4,6.2 -14.2,3.9 -2.7,-1.3 -4.7,-3.8 -5.3,-6.7 -0.6,-2.9 0.1,-6 2,-8.3"
       id="path14"
       inkscape:connector-curvature="0"
       style="fill:none;stroke:#000000;stroke-linecap:round;stroke-linejoin:round;stroke-miterlimit:10" /><path
       class="st0"
       d="m 265,286.2 c 1.2,3.1 4.6,5 7.9,4.9 3.3,-0.1 6.4,-1.8 8.7,-4.2 2.3,-2.4 3.9,-5.3 5.4,-8.2 6.4,-13 10.3,-27.2 11.3,-41.6 1.3,8.3 2.6,16.7 4,25 0.8,5.2 1.6,10.4 3.5,15.3 1.8,4.9 4.8,9.5 9.1,12.5 -0.5,-13.7 0.9,-27.5 4.3,-40.7 0.9,-3.6 2,-7.2 3.9,-10.4 1.9,-3.2 4.9,-5.9 8.5,-6.9 3.6,-1 7.9,0.1 10,3.1"
       id="path16"
       inkscape:connector-curvature="0"
       style="fill:none;stroke:#000000;stroke-linecap:round;stroke-linejoin:round;stroke-miterlimit:10" /><path
       class="st0"
       d="m 329.4,277.4 c 4.8,-1.5 9.1,-4.6 11.9,-8.8 1.2,-1.8 2,-4.3 0.5,-5.8 -1.3,-1.4 -3.6,-0.9 -5.3,-0.2 -7.7,3.4 -12.9,11.6 -12.6,20 0.1,2.5 0.7,5.1 2.5,6.9 1.6,1.5 3.9,2.2 6.1,2.3 6.9,0.3 13.4,-4 17.2,-9.8 3.8,-5.8 5.2,-12.8 5.8,-19.7 -2.9,5.5 -4,11.8 -3.3,17.9 0.3,2.3 0.9,4.7 2.2,6.6 2.4,3.3 6.9,4.7 10.9,3.7 3.9,-1 7.2,-4.1 8.8,-7.8 1.7,-3.7 1.8,-8 1,-12 -0.5,-2.4 -1.7,-5.1 -4.1,-5.4 -1.5,-0.2 -2.9,0.7 -3.8,1.9 -0.9,1.2 -1.2,2.7 -1.4,4.1 -0.7,4.8 0.1,9.8 2.3,14.1 1.4,2.8 3.7,5.5 6.8,6.3 2.4,0.6 4.9,-0.1 7,-1.5 2,-1.4 3.6,-3.3 4.9,-5.4 2.8,-4.5 4.5,-9.7 4.8,-15 0.1,-1.8 0.1,-3.8 -0.7,-5.5 -0.7,-1.7 -2.3,-3.2 -4.1,-3.3 -3,-0.3 -5.4,2.8 -5.8,5.8 -0.7,5.1 2.7,10.4 7.6,12 4.9,1.5 10.7,-0.9 13.1,-5.4"
       id="path18"
       inkscape:connector-curvature="0"
       style="fill:none;stroke:#000000;stroke-linecap:round;stroke-linejoin:round;stroke-miterlimit:10" /><path
       class="st0"
       d="m 440.5,236.8 c -6.1,10.8 -8.4,23.7 -6.5,36 0.7,4.4 2.6,9.4 6.9,10.5 4.2,1 8.1,-2.3 10.9,-5.6 10.4,-12.3 16.6,-28.1 17.5,-44.1 -2.7,1.7 -4.4,4.7 -5.2,7.7 -0.8,3.1 -0.9,6.3 -1,9.5 -0.2,10.5 -0.4,20.9 -0.6,31.4 -0.1,4.8 -0.2,9.7 -1.3,14.4 -1.1,4.7 -3.3,9.3 -7,12.4 -3.7,3.1 -9,4.6 -13.5,2.9 -4.5,-1.7 -7.8,-6.8 -6.5,-11.5 1,-3.7 4.3,-6.3 7.5,-8.2 12.3,-7.3 27,-9.7 39.7,-16.2 2.9,-1.5 5.8,-3.3 7.3,-6.2 1.5,-2.9 1,-7 -1.8,-8.6 -1.9,-1.1 -4.4,-0.7 -6.3,0.4 -1.9,1.1 -3.2,3 -4.2,5 -2.8,5.3 -3.8,11.9 -1,17.2 2.8,5.3 10,8.3 15.1,5.3 5.4,-3.1 6.2,-10.5 9,-16.1 3.8,-7.6 12.2,-12.6 20.7,-12.3 -6,0 -11.9,2.4 -16.2,6.5 -4.3,4.1 -7,9.9 -7.4,15.8 -0.2,3.4 0.8,7.5 4.1,8.7 1.9,0.7 4.1,0.1 5.8,-1.1 1.7,-1.2 2.8,-3 3.9,-4.7 4.4,-7.5 7,-16.2 7.3,-24.9 -2.9,7.1 -3.5,15.1 -1.9,22.6 0.9,4 3.3,8.6 7.4,8.7 4,0.1 6.6,-4.1 7.9,-7.8 2.8,-8 3.3,-16.7 1.5,-25 0.3,10.2 0.6,20.5 0.9,30.7 0.6,-7.6 1.2,-15.4 4.7,-22.2 1,-2 2.4,-4 4.3,-5.2 1.9,-1.2 4.5,-1.6 6.5,-0.5 2,1.1 2.9,4 1.5,5.9"
       id="path20"
       inkscape:connector-curvature="0"
       style="fill:none;stroke:#000000;stroke-linecap:round;stroke-linejoin:round;stroke-miterlimit:10" /><path
       class="st0"
       d="m 340.8,355.3 c -3.4,-2.5 -3.9,-7.8 -1.7,-11.4 2.2,-3.6 6.4,-5.6 10.6,-6.1 3.2,-0.4 6.7,0 8.8,2.4 2.7,3.1 1.9,7.8 0.4,11.6 -5.3,13.6 -17.3,24.4 -31.3,28.3 1.5,-2.8 4.3,-4.8 7.4,-5.2 4.8,-0.7 9.3,2.1 13.5,4.6 12.3,7.2 25.8,12.4 39.8,15.2"
       id="path22"
       inkscape:connector-curvature="0"
       style="fill:none;stroke:#000000;stroke-linecap:round;stroke-linejoin:round;stroke-miterlimit:10" /><path
       class="st0"
       d="m 377.2,355.1 c -2.5,4.9 -3.7,10.7 -2.1,16 1.6,5.3 6.5,9.7 12,9.7 4.8,0 9,-3.1 12.3,-6.6 4.2,-4.4 7.7,-9.7 8.8,-15.7 1.1,-6 -0.6,-12.7 -5.3,-16.6 -10.9,-9.2 -21.1,4.1 -25.7,13.2 z"
       id="path24"
       inkscape:connector-curvature="0"
       style="fill:none;stroke:#000000;stroke-linecap:round;stroke-linejoin:round;stroke-miterlimit:10" /><path
       class="st0"
       d="m 420.5,353.4 c 6.1,-3.9 11.5,-8.8 15.8,-14.5 -3.5,13.7 -5.8,32.6 -5.8,46.8"
       id="path26"
       inkscape:connector-curvature="0"
       style="fill:none;stroke:#000000;stroke-linecap:round;stroke-linejoin:round;stroke-miterlimit:10" /><path
       class="st0"
       d="m 414.5,387.7 c 9.1,-2.1 18.4,-3.5 27.7,-4.1"
       id="path28"
       inkscape:connector-curvature="0"
       style="fill:none;stroke:#000000;stroke-linecap:round;stroke-linejoin:round;stroke-miterlimit:10" /><path
       class="st0"
       d="m 450.4,341.1 c 4.7,5.3 11.6,8.6 18.6,8.9 7.1,0.3 14.2,-2.4 19.3,-7.3 -3.3,-0.6 -6.6,1 -8.9,3.4 -2.3,2.4 -3.7,5.5 -5,8.5 -7.2,16.9 -11.6,34.9 -13.1,53.2"
       id="path30"
       inkscape:connector-curvature="0"
       style="fill:none;stroke:#000000;stroke-linecap:round;stroke-linejoin:round;stroke-miterlimit:10" /><path
       class="st0"
       d="m 451.3,369.7 c 12.7,0.5 25.5,1 38.2,1.5"
       id="path32"
       inkscape:connector-curvature="0"
       style="fill:none;stroke:#000000;stroke-linecap:round;stroke-linejoin:round;stroke-miterlimit:10" /></g></svg>