<?xml version="1.0" encoding="UTF-8" standalone="no"?>
<!-- Generator: Adobe Illustrator 21.0.0, SVG Export Plug-In . SVG Version: 6.00 Build 0)  -->

<svg
   xmlns:dc="http://purl.org/dc/elements/1.1/"
   xmlns:cc="http://creativecommons.org/ns#"
   xmlns:rdf="http://www.w3.org/1999/02/22-rdf-syntax-ns#"
   xmlns:svg="http://www.w3.org/2000/svg"
   xmlns="http://www.w3.org/2000/svg"
   xmlns:sodipodi="http://sodipodi.sourceforge.net/DTD/sodipodi-0.dtd"
   xmlns:inkscape="http://www.inkscape.org/namespaces/inkscape"
   version="1.1"
   x="0px"
   y="0px"
   viewBox="0 0 841.9 595.3"
   style="enable-background:new 0 0 841.89999999999998000 595.29999999999995000"
   xml:space="preserve"
   id="svg2"
   inkscape:version="0.91 r13725"
   sodipodi:docname="text_1.svg"><metadata
     id="metadata38"><rdf:RDF><cc:Work
         rdf:about=""><dc:format>image/svg+xml</dc:format><dc:type
           rdf:resource="http://purl.org/dc/dcmitype/StillImage" /></cc:Work></rdf:RDF></metadata><defs
     id="defs36" /><sodipodi:namedview
     pagecolor="#ffffff"
     bordercolor="#666666"
     borderopacity="1"
     objecttolerance="10"
     gridtolerance="10"
     guidetolerance="10"
     inkscape:pageopacity="0"
     inkscape:pageshadow="2"
     inkscape:window-width="1366"
     inkscape:window-height="706"
     id="namedview34"
     showgrid="false"
     inkscape:zoom="0.96755788"
     inkscape:cx="520.04474"
     inkscape:cy="297.13875"
     inkscape:window-x="-8"
     inkscape:window-y="-8"
     inkscape:window-maximized="1"
     inkscape:current-layer="svg2" /><style
     type="text/css"
     id="style4">
	.st0{fill:none;stroke:#000000;stroke-linecap:round;stroke-linejoin:round;stroke-miterlimit:10;}
</style><path
     style="fill:none;stroke:#000000;stroke-width:1.98295724;stroke-linecap:round;stroke-linejoin:round;stroke-miterlimit:10"
     inkscape:connector-curvature="0"
     id="path8"
     d="m 161.41789,1.203144 c 5.55228,30.537541 -1.18978,63.058039 -18.44151,88.836483 -3.56932,5.353984 -7.73353,10.509673 -13.48411,13.682403 -5.75057,2.97444 -13.28581,3.17273 -18.2432,-0.99148 -3.96592,-3.371025 -5.55228,-9.1216 -4.95739,-14.475585 0.99147,-7.535237 5.75057,-14.277292 12.09603,-18.639798 6.34547,-4.362505 13.68241,-6.742054 21.01935,-8.130124 18.04491,-3.569323 36.48641,-2.379549 54.72962,-1.189774"
     class="st0" /><path
     style="fill:none;stroke:#000000;stroke-width:1.98295724;stroke-linecap:round;stroke-linejoin:round;stroke-miterlimit:10"
     inkscape:connector-curvature="0"
     id="path10"
     d="M 204.84465,1.0048483 C 196.11964,26.584996 191.55883,53.75151 191.36054,80.918023 c 0,6.543759 0.19829,13.285814 3.56932,18.838094 3.37103,5.552283 10.70797,9.319903 16.45855,6.345463 4.3625,-1.98296 6.54376,-6.94035 7.13864,-11.699448 0.59489,-4.759097 0.1983,-9.518194 0.59489,-14.277291 0.99148,-10.113082 6.74205,-19.631277 15.26877,-24.985261 8.52672,-5.55228 19.63128,-6.94035 29.14947,-3.767619 -11.69945,-4.16421 -25.58015,-1.38807 -34.70175,7.138646 -9.1216,8.526716 -12.88922,22.010825 -9.51819,33.908568 0.99147,3.767619 2.77614,7.535238 5.75057,10.113085 2.97444,2.57784 6.94035,4.16421 10.90627,3.56932 5.55228,-0.99148 9.1216,-6.345463 11.69944,-11.302856 7.33695,-13.682405 12.29434,-28.951175 14.47559,-44.418241 -1.18977,11.501151 -2.57784,23.200599 -3.76762,34.701751 -0.59488,4.759097 -0.99148,9.914786 1.78466,13.8807 3.17274,4.759096 10.31138,5.948876 15.46707,3.371026 5.15569,-2.379547 8.72501,-7.733532 10.31138,-13.285812 1.78466,-5.55228 1.98295,-11.302856 2.18125,-17.053432 0.39659,-5.750576 0.79318,-11.699447 2.97444,-16.855136 -0.1983,31.925611 -2.77614,63.85122 -7.93183,95.18195 3.76762,-21.41594 7.33694,-42.83188 11.10456,-64.247818 1.98296,-11.501152 4.3625,-23.795486 12.09604,-32.520498 4.5608,-5.155689 12.29433,-8.923307 18.63979,-5.750576 5.75058,2.77614 7.93183,9.71649 8.92331,15.863658 1.38807,9.121603 1.58637,18.838093 -1.58636,27.364809 -3.17274,8.725012 -10.31138,16.260245 -19.43298,18.243205 -9.12161,1.98296 -19.63128,-2.77614 -22.60572,-11.50115"
     class="st0" /><path
     style="fill:none;stroke:#000000;stroke-width:1.98295724;stroke-linecap:round;stroke-linejoin:round;stroke-miterlimit:10"
     inkscape:connector-curvature="0"
     id="path12"
     d="m 353.56644,48.794117 c 1.18977,36.486412 -3.17273,73.369413 -13.08752,108.666053 3.96592,-15.07047 7.93183,-30.14095 12.09604,-45.21142 3.96591,-14.872182 7.93183,-29.744361 11.89774,-44.814836 1.38807,-4.957393 2.57785,-9.914786 5.75058,-13.8807 2.97443,-4.16421 8.13012,-6.94035 13.08752,-6.147167 3.56932,0.793183 6.54375,3.371027 8.32842,6.543759 1.78466,3.172731 2.57784,6.742054 3.17273,10.509673 1.18977,7.931828 0.99148,16.260249 -1.38807,23.795486 -2.57785,7.535237 -7.53524,14.475585 -14.47559,18.441505 -6.94035,3.96591 -16.06195,4.3625 -23.0023,0.19829"
     class="st0" /><path
     style="fill:none;stroke:#000000;stroke-width:1.98295724;stroke-linecap:round;stroke-linejoin:round;stroke-miterlimit:10"
     inkscape:connector-curvature="0"
     id="path14"
     d="m 415.83129,48.397525 c -0.19829,12.690926 -0.59488,25.381853 -0.79318,38.072779 -0.19829,5.155688 0.1983,11.302856 4.5608,14.277296 2.77614,1.98295 6.54376,1.78466 9.71649,0.59488 3.17273,-1.388067 5.75058,-3.56932 8.13013,-6.147165 11.30285,-11.897743 18.83809,-27.364809 21.01934,-43.625058 -6.74205,7.931829 -9.1216,18.838093 -9.71649,29.347766 -0.39659,10.509674 0.79319,21.019347 0.1983,31.529017 -0.59489,10.50968 -2.97444,21.21764 -9.71649,29.34777 -6.74206,7.93183 -18.6398,12.29433 -28.15799,7.73353 -5.35399,-2.57784 -9.3199,-7.53523 -10.50968,-13.28581 -1.18977,-5.75058 0.1983,-11.89774 3.96592,-16.45855"
     class="st0" /><path
     style="fill:none;stroke:#000000;stroke-width:1.98295724;stroke-linecap:round;stroke-linejoin:round;stroke-miterlimit:10"
     inkscape:connector-curvature="0"
     id="path16"
     d="m 0.996648,281.1967 c 2.3795486,6.14717 9.121603,9.91479 15.665362,9.71649 6.543759,-0.19829 12.690926,-3.56932 17.251728,-8.32842 4.560801,-4.7591 7.733533,-10.50967 10.707968,-16.26025 12.690926,-25.77844 20.42446,-53.93643 22.407417,-82.49102 2.577844,16.45855 5.155688,33.11539 7.931829,49.57393 1.586365,10.31138 3.172731,20.62276 6.94035,30.33925 3.569323,9.71649 9.518194,18.83809 18.04491,24.78696 -0.991478,-27.16651 1.784658,-54.53132 8.526718,-80.70636 1.78466,-7.13864 3.96591,-14.27729 7.73353,-20.62275 3.76762,-6.34546 9.71649,-11.69945 16.85514,-13.68241 7.13864,-1.98295 15.66536,0.1983 19.82957,6.14717"
     class="st0" /><path
     style="fill:none;stroke:#000000;stroke-width:1.98295724;stroke-linecap:round;stroke-linejoin:round;stroke-miterlimit:10"
     inkscape:connector-curvature="0"
     id="path18"
     d="m 128.69909,263.74668 c 9.5182,-2.97444 18.04491,-9.12161 23.59719,-17.45003 2.37955,-3.56932 3.96592,-8.52671 0.99148,-11.50115 -2.57784,-2.77614 -7.13864,-1.78466 -10.50967,-0.39659 -15.26877,6.74206 -25.58015,23.0023 -24.98526,39.65914 0.19829,4.9574 1.38807,10.11309 4.95739,13.68241 3.17273,2.97444 7.73353,4.36251 12.09604,4.5608 13.6824,0.59489 26.57163,-7.93183 34.10686,-19.43298 7.53524,-11.50115 10.31138,-25.38185 11.50115,-39.06426 -5.75057,10.90627 -7.93182,23.3989 -6.54375,35.49494 0.59488,4.5608 1.78466,9.3199 4.3625,13.08751 4.7591,6.54376 13.68241,9.3199 21.61424,7.33695 7.73353,-1.98296 14.27729,-8.13013 17.45002,-15.46707 3.37103,-7.33694 3.56932,-15.86366 1.98296,-23.79549 -0.99148,-4.75909 -3.37103,-10.11308 -8.13013,-10.70796 -2.97443,-0.3966 -5.75057,1.38807 -7.53524,3.76761 -1.78466,2.37955 -2.37954,5.35399 -2.77614,8.13013 -1.38807,9.51819 0.1983,19.43298 4.56081,27.95969 2.77614,5.55229 7.33694,10.90627 13.4841,12.49264 4.7591,1.18977 9.71649,-0.1983 13.8807,-2.97444 3.96592,-2.77614 7.13865,-6.54376 9.71649,-10.70797 5.55229,-8.92331 8.92331,-19.23468 9.5182,-29.74436 0.1983,-3.56932 0.1983,-7.53523 -1.38807,-10.90626 -1.38807,-3.37103 -4.5608,-6.34547 -8.13013,-6.54376 -5.94887,-0.59489 -10.70796,5.55228 -11.50115,11.50115 -1.38807,10.11308 5.35399,20.62276 15.07048,23.79549 9.71649,2.97443 21.21764,-1.78466 25.97674,-10.70797"
     class="st0" /><path
     style="fill:none;stroke:#000000;stroke-width:1.98295724;stroke-linecap:round;stroke-linejoin:round;stroke-miterlimit:10"
     inkscape:connector-curvature="0"
     id="path20"
     d="m 349.00564,183.23861 c -12.09604,21.41594 -16.65684,46.99609 -12.88923,71.38646 1.38807,8.72502 5.15569,18.6398 13.68241,20.82105 8.32842,1.98296 16.06195,-4.5608 21.61423,-11.10456 20.62276,-24.39037 32.91709,-55.72109 34.70175,-87.44841 -5.35398,3.37103 -8.72501,9.3199 -10.31137,15.26877 -1.58637,6.14717 -1.78466,12.49263 -1.98296,18.8381 -0.39659,20.82105 -0.79318,41.4438 -1.18978,62.26485 -0.19829,9.5182 -0.39659,19.23469 -2.57784,28.55459 -2.18125,9.31989 -6.54376,18.4415 -13.8807,24.58866 -7.33694,6.14717 -17.84661,9.12161 -26.76992,5.75058 -8.92331,-3.37103 -15.46707,-13.48411 -12.88922,-22.80401 1.98295,-7.33694 8.52671,-12.49263 14.87218,-16.26025 24.39037,-14.47558 53.53984,-19.23468 78.7234,-32.1239 5.75057,-2.97444 11.50115,-6.54376 14.47558,-12.29434 2.97444,-5.75057 1.98296,-13.8807 -3.56932,-17.05343 -3.76762,-2.18125 -8.72501,-1.38807 -12.49263,0.79318 -3.76762,2.18126 -6.34546,5.94888 -8.32842,9.91479 -5.55228,10.50967 -7.53524,23.59719 -1.98296,34.10686 5.55228,10.50968 19.82957,16.45855 29.94266,10.50968 10.70797,-6.14717 12.29433,-20.82105 17.84661,-31.92561 7.53524,-15.07048 24.19208,-24.98527 41.04722,-24.39038 -11.89775,0 -23.5972,4.7591 -32.12391,12.88922 -8.52672,8.13013 -13.8807,19.63128 -14.67388,31.33073 -0.3966,6.74205 1.58636,14.87218 8.13012,17.25173 3.76762,1.38807 8.13012,0.19829 11.50115,-2.18126 3.37103,-2.37955 5.55228,-5.94887 7.73353,-9.3199 8.72502,-14.87218 13.88071,-32.1239 14.47559,-49.37563 -5.75057,14.079 -6.94035,29.94265 -3.76762,44.81483 1.78467,7.93183 6.54376,17.05343 14.67389,17.25173 7.93183,0.1983 13.08751,-8.13012 15.66536,-15.46707 5.55228,-15.86365 6.54376,-33.11538 2.97443,-49.57393 0.59489,20.22617 1.18978,40.65063 1.78467,60.87679 1.18977,-15.07048 2.37954,-30.53754 9.3199,-44.02165 1.98295,-3.96591 4.75909,-7.93183 8.52671,-10.31138 3.76762,-2.37955 8.92331,-3.17273 12.88922,-0.99148 3.96592,2.18126 5.75058,7.93183 2.97444,11.69945"
     class="st0" /><path
     style="fill:none;stroke:#000000;stroke-width:1.98295724;stroke-linecap:round;stroke-linejoin:round;stroke-miterlimit:10"
     inkscape:connector-curvature="0"
     id="path22"
     d="m 151.3048,418.21904 c -6.74205,-4.95739 -7.73353,-15.46706 -3.37102,-22.60571 4.3625,-7.13864 12.69092,-11.10456 21.01934,-12.09604 6.34547,-0.79318 13.28582,0 17.45003,4.7591 5.35398,6.14717 3.76761,15.46707 0.79318,23.0023 -10.50967,26.96822 -34.30516,48.38416 -62.06656,56.11769 2.97443,-5.55228 8.52671,-9.51819 14.67388,-10.31138 9.5182,-1.38807 18.4415,4.16421 26.76992,9.12161 24.39038,14.27729 51.1603,24.58867 78.9217,30.14095"
     class="st0" /><path
     style="fill:none;stroke:#000000;stroke-width:1.98295724;stroke-linecap:round;stroke-linejoin:round;stroke-miterlimit:10"
     inkscape:connector-curvature="0"
     id="path24"
     d="m 223.48445,417.82245 c -4.9574,9.71649 -7.33695,21.21764 -4.16421,31.72732 3.17273,10.50967 12.88922,19.23468 23.79548,19.23468 9.5182,0 17.84662,-6.14717 24.39038,-13.08752 8.32842,-8.72501 15.26877,-19.23468 17.45002,-31.13242 2.18125,-11.89775 -1.18978,-25.18356 -10.50967,-32.91709 -21.61424,-18.24321 -41.8404,8.13012 -50.962,26.17503 z"
     class="st0" /><path
     style="fill:none;stroke:#000000;stroke-width:1.98295724;stroke-linecap:round;stroke-linejoin:round;stroke-miterlimit:10"
     inkscape:connector-curvature="0"
     id="path26"
     d="m 309.34649,414.45142 c 12.09604,-7.73353 22.80401,-17.45002 31.33073,-28.75287 -6.94035,27.16651 -11.50116,64.6444 -11.50116,92.80239"
     class="st0" /><path
     style="fill:none;stroke:#000000;stroke-width:1.98295724;stroke-linecap:round;stroke-linejoin:round;stroke-miterlimit:10"
     inkscape:connector-curvature="0"
     id="path28"
     d="m 297.44875,482.46686 c 18.04491,-4.16421 36.48641,-6.94035 54.92791,-8.13013"
     class="st0" /><path
     style="fill:none;stroke:#000000;stroke-width:1.98295724;stroke-linecap:round;stroke-linejoin:round;stroke-miterlimit:10"
     inkscape:connector-curvature="0"
     id="path30"
     d="m 368.63691,390.06105 c 9.3199,10.50967 23.00231,17.05343 36.88301,17.64832 14.07899,0.59489 28.15799,-4.7591 38.27107,-14.47559 -6.54376,-1.18977 -13.08752,1.98296 -17.64832,6.74206 -4.5608,4.75909 -7.33694,10.90626 -9.91478,16.85513 -14.2773,33.51198 -23.00231,69.20521 -25.97674,105.49333"
     class="st0" /><path
     style="fill:none;stroke:#000000;stroke-width:1.98295724;stroke-linecap:round;stroke-linejoin:round;stroke-miterlimit:10"
     inkscape:connector-curvature="0"
     id="path32"
     d="m 370.42157,446.77363 c 25.18356,0.99148 50.56541,1.98295 75.74897,2.97443"
     class="st0" /></svg>