<?xml version="1.0" standalone="no"?>
<svg xmlns="http://www.w3.org/2000/svg" width="600" height="600" viewBox="0 0 600 600">
<title>One version of a "wheeled" form of a triple spiral or spiral triskelion with spokes, within an interrupted circle</title>
<g transform="translate(33,588) scale(0.11,-0.11)" style="fill:#000000;stroke:none">
<circle cx="2415.67" cy="2622.645" r="2685" style="fill:#ffffff"/>
<path d="M3657,2042
c-3,-24,-24,-50,-45,-61
c-27,-13,-67,-11,-94,1
c-36,15,-70,51,-86,86
c-22,45,-27,106,-18,155
c12,59,50,124,93,166
c52,51,131,90,203,104
c82,16,185,4,263,-26
c90,-36,182,-108,239,-185
c65,-87,111,-211,121,-319
c11,-120,-17,-264,-70,-373
c-58,-119,-165,-239,-277,-312
c-121,-79,-290,-131,-435,-137
c-157,-7,-343,38,-481,112
c-150,81,-298,224,-385,370
l-549,910
l-523,113
c-70,15,-153,22,-224,18
c-133,-7,-286,-57,-396,-132
c-100,-67,-196,-178,-247,-288
c-45,-98,-67,-228,-55,-336
c12,-95,55,-204,115,-280
c53,-66,136,-127,215,-154
c69,-24,157,-29,227,-12
c59,15,124,52,164,98
c32,37,59,93,62,142
c3,39,-8,87,-32,118
c-18,24,-51,46,-80,48
c-24,2,-70,-30,-70,-30
c-19,14,-32,45,-30,69
c2,30,24,63,48,81
c31,24,79,35,118,32
c49,-4,105,-30,142,-62
c46,-40,83,-105,98,-164
c18,-70,12,-159,-12,-227
c-27,-80,-88,-163,-154,-215
c-75,-60,-184,-104,-280,-115
c-108,-13,-238,10,-336,55
c-110,50,-221,147,-288,246
c-75,110,-125,264,-132,397
c-8,145,31,316,98,445
c73,139,205,278,339,361
c144,89,342,145,512,149
l1063,20
l359,396
c48,53,96,121,128,185
c60,119,94,276,84,409
c-9,120,-56,259,-126,357
c-63,89,-164,173,-264,216
c-88,38,-204,55,-300,41
c-83,-13,-177,-54,-241,-110
c-54,-47,-104,-121,-123,-190
c-17,-59,-17,-134,2,-191
c16,-47,52,-97,93,-125
c32,-22,79,-36,118,-31
c29,3,64,21,81,46
c14,20,9,75,9,75
c22,9,55,5,75,-9
c25,-17,43,-52,46,-81
c5,-39,-9,-86,-31,-118
c-28,-41,-79,-77,-125,-93
c-58,-19,-133,-19,-191,-2
c-70,19,-143,69,-191,123
c-55,64,-96,158,-109,241
c-14,96,3,212,41,300
c42,100,127,201,215,264
c99,70,237,117,358,126
c132,10,290,-24,409,-84
c129,-65,258,-185,336,-308
c84,-133,139,-316,143,-473
c5,-170,-45,-370,-127,-518
l-514,-931
l163,-509
c22,-68,58,-143,97,-203
c73,-112,193,-220,312,-278
c109,-52,253,-80,373,-69
c108,10,232,56,318,120
c78,58,150,150,185,240
c31,78,43,181,27,263
c-14,71,-53,151,-104,203
c-42,43,-107,81,-166,93
c-49,9,-110,4,-155,-18
c-35,-17,-71,-50,-86,-86
c-12,-28,-14,-67,-1,-94
c11,-22,61,-45,61,-45Z"/>
<path d="M1291,569
c344,-189,731,-288,1125,-288
c836,0,1609,446,2029,1172
c75,140,120,326,113,484
c-6,145,-58,313,-137,434
c-73,112,-193,220,-313,278
c-108,52,-252,80,-372,69
c-108,-10,-232,-56,-319,-120
c-77,-58,-150,-150,-185,-240
c-31,-78,-42,-181,-26,-263
c14,-71,53,-151,104,-203
c42,-43,107,-81,166,-93
c49,-9,110,-4,154,18
c35,17,72,50,87,86
c11,28,13,67,1,94
c-11,21,-61,45,-61,45
c3,24,23,50,45,61
c27,13,66,11,94,-1
c36,-15,69,-51,86,-86
c22,-45,27,-106,17,-155
c-11,-59,-49,-124,-92,-166
c-52,-51,-132,-90,-203,-104
c-83,-16,-185,-4,-263,26
c-90,36,-182,108,-240,185
c-65,87,-110,211,-120,319
c-11,120,17,264,69,373
c58,119,166,239,277,312
c122,79,290,131,435,137
c158,7,343,-38,482,-112
c149,-81,297,-224,385,-370
c94,-156,153,-369,155,-551
c2,-194,-60,-422,-151,-581
c-453,-784,-1300,-1274,-2217,-1274
c-573,0,-1129,192,-1581,545
c72,-18,155,-31,229,-36
c72,-5,155,-3,226,5Z"/>
<path d="M1200,4624
c-699,-425,-1126,-1183,-1126,-2001
c0,-411,108,-815,315,-1173
c83,-135,222,-267,361,-340
c129,-67,301,-106,446,-98
c132,7,286,57,396,132
c100,67,196,178,246,288
c45,98,68,228,55,336
c-11,95,-55,204,-115,280
c-52,65,-135,126,-215,154
c-68,24,-157,29,-227,12
c-59,-15,-124,-53,-164,-98
c-32,-37,-58,-93,-62,-143
c-3,-38,9,-86,32,-117
c18,-24,51,-46,81,-48
c24,-2,69,30,69,30
c19,-14,32,-45,30,-69
c-2,-30,-24,-63,-47,-81
c-31,-24,-80,-35,-118,-32
c-50,4,-105,30,-143,62
c-45,40,-82,105,-97,164
c-18,70,-12,159,11,227
c28,80,89,163,155,215
c75,60,184,104,279,115
c108,13,238,-10,337,-55
c109,-50,220,-147,288,-247
c74,-110,124,-263,131,-396
c8,-145,-31,-316,-98,-445
c-73,-140,-204,-278,-338,-361
c-145,-89,-343,-145,-513,-149
c-182,-3,-396,53,-554,142
c-170,96,-336,263,-428,421
c-220,380,-338,823,-338,1274
c0,1046,635,1988,1605,2380
c-51,-53,-104,-119,-145,-180
c-40,-60,-80,-133,-109,-199Z"/>
<path d="M4757,2675
c-29,1273,-1068,2289,-2343,2289
c-159,-4,-343,-59,-476,-143
c-122,-78,-242,-207,-307,-336
c-60,-119,-94,-277,-84,-409
c8,-121,56,-259,126,-358
c63,-88,164,-173,264,-215
c88,-38,204,-55,299,-41
c84,13,178,54,242,109
c54,48,103,121,123,191
c17,58,17,133,-3,191
c-16,46,-51,97,-92,125
c-32,22,-79,36,-118,31
c-29,-3,-65,-21,-81,-46
c-14,-20,-9,-75,-9,-75
c-22,-10,-55,-5,-75,9
c-25,16,-43,52,-46,81
c-5,39,9,86,31,118
c28,41,78,76,125,92
c57,20,132,20,191,3
c69,-20,143,-69,190,-123
c56,-64,97,-158,110,-242
c14,-95,-3,-211,-41,-299
c-43,-100,-127,-201,-216,-264
c-98,-70,-237,-118,-357,-126
c-133,-10,-290,24,-409,84
c-130,65,-259,185,-336,307
c-85,133,-139,317,-144,474
c-5,170,46,369,128,518
c88,160,243,317,400,409
c167,99,395,160,578,161
c1406,0,2556,-1150,2556,-2567
c0,-120,-9,-239,-25,-358
c-21,71,-51,150,-83,216
c-32,65,-75,136,-118,194Z"/>
<circle cx="2415.67" cy="2622.645" r="113.4375" style="fill:#ffffff"/>
</g>
</svg>
