<?xml version="1.0" encoding="UTF-8" standalone="no"?>
<!-- Created with Inkscape (http://www.inkscape.org/) -->

<svg
   xmlns:dc="http://purl.org/dc/elements/1.1/"
   xmlns:cc="http://creativecommons.org/ns#"
   xmlns:rdf="http://www.w3.org/1999/02/22-rdf-syntax-ns#"
   xmlns:svg="http://www.w3.org/2000/svg"
   xmlns="http://www.w3.org/2000/svg"
   xmlns:sodipodi="http://sodipodi.sourceforge.net/DTD/sodipodi-0.dtd"
   xmlns:inkscape="http://www.inkscape.org/namespaces/inkscape"
   width="210mm"
   height="297mm"
   viewBox="0 0 744.09448819 1052.3622047"
   id="svg2"
   version="1.1"
   inkscape:version="0.91 r13725"
   sodipodi:docname="triskeliton_1.svg">
  <defs
     id="defs4" />
  <sodipodi:namedview
     id="base"
     pagecolor="#ffffff"
     bordercolor="#000000"
     borderopacity="1.0"
     inkscape:pageopacity="0.0"
     inkscape:pageshadow="2"
     inkscape:zoom="0.70000001"
     inkscape:cx="208.91306"
     inkscape:cy="802.30269"
     inkscape:document-units="px"
     inkscape:current-layer="layer1"
     showgrid="false"
     inkscape:window-width="1366"
     inkscape:window-height="706"
     inkscape:window-x="-8"
     inkscape:window-y="-8"
     inkscape:window-maximized="1" />
  <metadata
     id="metadata7">
    <rdf:RDF>
      <cc:Work
         rdf:about="">
        <dc:format>image/svg+xml</dc:format>
        <dc:type
           rdf:resource="http://purl.org/dc/dcmitype/StillImage" />
        <dc:title />
      </cc:Work>
    </rdf:RDF>
  </metadata>
  <g
     inkscape:label="Layer 1"
     inkscape:groupmode="layer"
     id="layer1">
    <path
       style="fill:#ffffff;stroke:#000000;stroke-width:1.90962839"
       d="m 428.88571,223.90085 c -28.90843,-27.57353 -47.39946,27.50617 -6.28904,46.36755 41.11043,18.86138 82.82582,-22.22303 83.57067,-63.42372 0.74485,-41.2007 -42.46233,-90.02208 -93.33706,-87.75695 -50.87474,2.26513 -81.6087,23.73293 -102.40237,73.16989 l -52.35682,86.78455 c -37.19943,6.08679 -75.64052,23.82153 -112.80185,8.07231 -42.60844,-14.69649 -66.111906,-72.78246 -36.56268,-109.70758 16.43812,-23.34814 58.80225,-28.83377 72.75905,-0.16845 10.19346,17.81937 -10.6975,23.72012 -22.11221,21.74962 4.14423,37.63472 54.49486,10.90724 45.59152,-24.53847 -8.90333,-35.44572 -65.04111,-57.55274 -104.15815,-28.34157 -39.117045,29.21117 -43.610738,95.27356 -12.049088,130.25738 31.561648,34.9838 62.409918,43.45285 111.266878,43.20028 l 96.47454,1.81514 c 22.64527,27.77499 48.53025,55.23117 58.26483,95.80943 9.73458,40.57827 -34.05977,95.03222 -70.90135,86.80108 -36.8416,-8.23117 -47.67582,-35.7395 -38.23548,-58.61506 9.44034,-22.87555 26.76982,-12.8559 30.86082,-2.1273 30.47429,-22.38465 -9.26663,-47.08865 -39.61034,-28.85611 -30.34369,18.23256 -26.6815,80.82819 14.811,105.15762 41.49249,24.32941 100.29659,-1.79327 124.35758,-49.35415 24.061,-47.56088 4.87991,-86.76311 -15.488,-118.78317 l -46.65192,-84.49985 c 13.25157,-35.30802 21.36233,-78.40283 54.89625,-105.84884 33.53391,-27.446 91.95057,-14.14546 107.5597,29.39063 15.60913,43.53608 -18.63289,64.87286 -40.45853,60.21447 -21.82564,-4.65839 -22.97352,-21.12255 -6.99795,-26.76873 z"
       id="path7"
       inkscape:connector-curvature="0"
       sodipodi:nodetypes="czzzcccccczzzcczzzczzzcczzzc" />
    <path
       style="fill:#ffffff;stroke:#000000;stroke-width:1.90962839"
       d="m 163.17407,58.476819 c 93.74206,-53.0784189 219.23459,-39.361073 299.36718,32.621233 35.43774,32.567458 71.56325,77.100458 67.03983,127.223108 -4.52341,50.12265 -57.62706,88.75437 -101.1639,79.92855 -43.53683,-8.82583 -61.68781,-55.0539 -45.24918,-86.28996 16.43864,-31.23607 72.49719,-13.36984 45.71769,11.9411 28.8774,27.59346 35.05526,-37.09461 -0.57319,-49.09561 -35.62846,-12.00099 -74.06292,19.08354 -75.34441,57.96765 -5.63514,54.45513 49.45006,98.84847 101.45802,91.84902 61.94638,-4.75927 107.55018,-67.93226 100.42058,-128.12686 C 548.65762,139.71343 507.1897,94.241745 464.51332,59.865711 372.19157,-12.436239 235.16533,-18.984005 136.57599,44.712989 c -12.74243,8.171539 -35.17964,21.77279 -8.55224,14.19528 11.6389,-1.623606 23.47302,-1.679694 35.15032,-0.43145 z"
       id="path9"
       inkscape:connector-curvature="0"
       sodipodi:nodetypes="cczzzczccccccc" />
    <path
       style="fill:#ffffff;stroke:#000000;stroke-width:1.90962839"
       d="M 152.95439,513.87019 C 59.979355,459.10525 9.0079448,343.33455 31.563469,237.78555 42.149561,191.01714 51.602365,139.03143 108.06124,116.56329 c 56.45888,-22.468136 105.76783,5.517 119.84565,47.66544 14.07782,42.14843 -18.21879,78.53031 -53.45327,79.96232 -35.23446,1.43201 -49.22621,-53.68113 -13.89528,-43.20026 1.19511,-31.99039 -39.73236,-27.29745 -43.22307,10.95204 -3.49071,38.2495 39.34589,67.57566 90.29488,51.73006 50.94898,-15.8456 70.95123,-82.07189 33.46412,-136.6794 C 203.60717,72.385977 114.33738,72.626908 69.729501,110.96322 25.121626,149.29953 10.546585,203.24854 3.1150391,256.10467 -12.099078,373.84071 54.401527,496.23431 161.50344,547.46748 c 10.82104,5.34326 26.99175,13.88407 11.41302,-0.80449 -8.10823,-9.95903 -14.75077,-21.06385 -19.96207,-32.7928 z"
       id="path11"
       inkscape:connector-curvature="0"
       sodipodi:nodetypes="cczzzczzzzcccc" />
    <path
       style="fill:#ffffff;stroke:#000000;stroke-width:1.90962839"
       d="m 552.42028,294.98938 c -0.73611,112.87401 -82.94693,218.63404 -192.08761,247.38501 -44.77239,12.08569 -100.06087,18.26609 -137.09515,-16.09572 -39.37093,-31.84707 -43.67715,-101.1547 0.0344,-131.1947 28.39925,-23.45297 80.8441,-6.60323 88.08923,27.16356 7.24513,33.7668 -27.9403,50.53309 -35.30036,23.78389 -30.48536,22.38957 13.60399,48.45927 39.8943,23.07152 26.29031,-25.38775 27.6624,-75.35155 -13.81078,-99.67653 -41.47317,-24.32498 -111.33043,-18.11418 -135.24596,53.3842 -23.91552,71.49837 31.43452,133.41128 86.49395,148.47786 55.05944,15.06659 102.3033,2.0169 148.82468,-16.52029 104.53222,-43.16673 177.10205,-152.41594 175.58403,-265.61861 -0.41907,-17.26385 -0.46437,-56.23165 -9.48794,-21.74315 -4.175,9.779 -9.62987,19.0017 -15.8928,27.58296 z"
       id="path13"
       inkscape:connector-curvature="0"
       sodipodi:nodetypes="cccczczzzzccccc" />
  </g>
</svg>
