<?xml version="1.0"?>
<svg width="640" height="480" xmlns="http://www.w3.org/2000/svg" xmlns:svg="http://www.w3.org/2000/svg">
 <!-- Created with SVG-edit - http://svg-edit.googlecode.com/ -->
 <g>
  <title>Layer 1</title>
  <path id="svg_11" d="m73.185949,6.970003c17.111492,0 30.993313,13.895188 30.993313,31.00668c0,17.1115 -13.881822,30.993318 -30.993313,30.993318c-17.1115,0 -30.993322,13.8952 -30.993322,31.006688c0,17.111496 13.881822,30.993318 30.993322,30.993318c34.222983,0 61.999989,-27.777026 61.999989,-62.00001c0,-34.222988 -27.777005,-61.999997 -61.999989,-61.999997l0,0.000004zm0,21.317093c-5.350093,0 -9.689595,4.339485 -9.689595,9.689586c0,5.35011 4.339489,9.689586 9.689595,9.689586c5.350102,0 9.689582,-4.339485 9.689582,-9.689586c0,-5.350102 -4.339481,-9.689586 -9.689582,-9.689586zm0,62.00001c5.347332,0 9.689582,4.342242 9.689582,9.689586c0,5.347332 -4.342246,9.689595 -9.689582,9.689595c-5.347341,0 -9.689595,-4.342258 -9.689595,-9.689595c0,-5.347332 4.342254,-9.689586 9.689595,-9.689586zm60.609371,-21.2776c0,34.197558 -27.722588,61.920159 -61.920168,61.920159c-34.197563,0 -61.920168,-27.722601 -61.920168,-61.920159c0,-34.197571 27.722605,-61.92018 61.920168,-61.92018c34.197579,0 61.920168,27.722609 61.920168,61.92018z" stroke-linecap="null" stroke-linejoin="null" stroke-dasharray="null" stroke-width="5" stroke="#000000" fill="#ffffff"/>
 </g>
</svg>