<svg width="640" height="480" xmlns="http://www.w3.org/2000/svg" xmlns:svg="http://www.w3.org/2000/svg">
 <!-- Created with SVG-edit - http://svg-edit.googlecode.com/ -->
 <g>
  <title>Layer 1</title>
  <path id="svg_34" d="m88.89805,43.05108c-16.84174,0 -30.57721,12.75854 -30.57721,28.39521s13.73547,28.39521 30.57721,28.39521c16.84174,0 30.57721,-12.75854 30.57721,-28.39521s-13.73547,-28.39521 -30.57721,-28.39521zm77.55742,28.26066c-2.1586,-10.64089 -6.24765,-17.85377 -10.1027,-23.37018c0.29249,0.75463 0.52649,1.51511 0.80728,2.26974c-13.68867,-37.17585 -68.46674,-57.32861 -110.77876,-31.76473c-0.32759,1.57946 -0.42704,3.14722 -0.42704,4.70329c0,-0.29834 -0.0351,-0.57329 -0.0234,-0.87748c-10.1963,-0.78388 -22.54535,12.05656 -33.52554,35.58469c-5.57491,13.32013 -7.59312,27.90382 -2.42184,45.00296c3.01853,9.97986 7.76861,20.21711 14.6188,28.16122c20.30486,23.55738 51.40855,33.1687 69.51971,28.28406c0.0234,0.00585 0.05265,0.01755 0.0819,0.0234c34.9178,-0.73123 61.38841,-24.7332 70.92953,-55.97729c3.43387,-11.27853 3.65616,-20.5096 1.32207,-32.03967zm-137.42487,55.88954c-5.61586,-6.50504 -10.2665,-15.50797 -13.44882,-26.04357c-4.28795,-14.15666 -3.58011,-27.20184 2.2171,-41.03675c5.88496,-12.59474 11.62952,-20.87229 16.57265,-25.85052c0.87748,4.34059 3.04778,9.52357 6.51089,15.49627c1.27527,2.2171 2.68508,4.10075 4.0481,5.92006c1.04712,1.38642 2.08255,2.77283 3.00098,4.26455c0.72538,1.18167 1.39812,2.60319 2.07085,4.31135c-1.39812,16.11051 5.21807,30.05657 18.41535,39.0712l-14.89374,13.16218l-1.18167,1.00033c-1.21677,1.00033 -2.61489,2.182 -3.80826,3.44557c-7.95581,8.4472 -1.46246,16.56095 1.67306,20.4628l0.39779,0.50894c1.38642,1.73741 3.00098,3.62691 4.76763,5.48717c-9.26033,-4.49269 -18.5499,-11.16153 -26.34191,-20.19956zm130.51618,-25.56388c-9.35977,30.60646 -34.73061,50.89377 -64.75793,51.82389c-14.5369,-3.41047 -25.51708,-10.41275 -32.67731,-20.80795c0.0234,-0.0234 0.0585,-0.0468 0.08775,-0.07605l28.9217,-22.44006c13.02178,-0.72538 22.54535,-5.19467 28.35426,-13.32598c7.14853,-8.26 10.48295,-17.69582 9.90381,-28.43616c10.62919,2.2054 19.82517,5.28242 28.40106,11.01528l0.67858,0.45629l0.78388,0.25154c0.91258,0.28664 1.81931,0.44459 2.68508,0.47384c0.63763,7.25382 -0.12285,13.64772 -2.38089,21.06534zm1.49171,-27.10239c-11.41307,-7.63991 -23.76212,-10.92169 -38.57396,-13.36693c3.10627,13.79397 -0.49139,23.82062 -7.75691,32.24442c-5.15957,7.22457 -13.93436,10.65844 -25.70428,10.96848l-30.53626,23.70363c-2.90738,2.39259 -3.45727,4.79103 -1.64966,7.18948c4.96653,7.47027 11.28438,12.88139 18.26326,16.83589c-0.07605,0 -0.1521,0.0117 -0.22814,0.01755c-0.00585,-0.00585 -0.0234,-0.0117 -0.0351,-0.0234c-0.117,0.01755 -0.23984,0.0234 -0.36269,0.02925c-0.46799,0.00585 -0.93598,-0.00585 -1.39812,-0.0585c-0.91258,-0.12285 -1.83686,-0.37439 -2.68508,-0.69028c-5.25317,-1.948 -11.05623,-7.90901 -15.19208,-13.09783c-3.39877,-4.2704 -7.05493,-8.38285 -2.40429,-13.30843c1.50926,-1.59701 3.40462,-3.00683 4.61554,-4.0832l14.74749,-13.03933c1.00618,-0.80143 2.04745,-1.62041 3.12967,-2.47449c0.31004,-0.24569 0.62593,-0.49139 0.94768,-0.74293c3.29932,-2.58564 2.82548,-1.87195 -0.63178,-3.75561c-14.15081,-7.72181 -21.50993,-21.14139 -19.62042,-37.37474c-0.87163,-2.39844 -1.85441,-4.63309 -3.03023,-6.57524c-2.1235,-3.50991 -4.87878,-6.44654 -6.98473,-10.07931c-5.26487,-9.10238 -10.80469,-22.82615 0.07605,-21.53918c-0.02925,-0.31004 -0.0117,-0.64348 -0.02925,-0.95938c0.54989,11.70557 8.92688,22.36401 10.19045,28.59411c0.45629,2.23465 1.71986,4.12415 3.58011,1.63796c14.84694,-19.86027 35.50279,-17.85962 48.71762,-7.67501c2.59149,1.98895 4.0013,4.41664 6.34125,6.49334c0.90088,0.80728 1.91875,1.51511 3.12967,2.0533c4.34644,1.94215 10.57069,1.82516 15.25058,2.53884c8.02016,1.21677 15.83557,2.71433 23.22979,4.75008c1.46246,0.1755 2.48034,-0.0234 3.04778,-0.59084c1.23432,-1.21677 -0.0117,-5.18882 -0.70783,-7.38837c1.62041,4.70914 3.13552,9.41242 4.52194,14.12741c1.05882,3.67371 0.80728,6.63959 -2.25805,5.63926z" stroke-linecap="null" stroke-linejoin="null" stroke-dasharray="null" stroke-width="5" stroke="#000000" fill="#ffffff"/>
 </g>
</svg>