<svg width="640" height="480" xmlns="http://www.w3.org/2000/svg" xmlns:svg="http://www.w3.org/2000/svg">
 <!-- Created with SVG-edit - http://svg-edit.googlecode.com/ -->
 <g>
  <title>Layer 1</title>
  <path id="svg_28" d="m104.87275,36.04781c-0.38243,-16.13998 -13.57815,-29.10543 -29.80448,-29.11365c-10.84771,0.00822 -20.32199,5.80628 -25.5279,14.46636c-2.4467,-1.34466 -5.26349,-2.13007 -8.26532,-2.13007c-9.37147,0.00822 -16.9953,7.43056 -17.3366,16.71979c-9.84025,3.23211 -16.9624,12.4391 -16.97063,23.38139c0,13.61927 11.04921,24.67259 24.67259,24.67259l0,-0.00822l65.27955,0c13.61927,0 24.67259,-11.05332 24.67259,-24.67259c-0.01645,-10.84771 -7.01524,-20.01358 -16.71979,-23.31559zm-7.96102,39.77221l-65.27544,0c-9.08362,-0.02467 -16.43605,-7.37299 -16.4525,-16.44839c-0.00822,-8.15429 5.96254,-14.88168 13.77553,-16.17288c1.08971,-0.17682 2.06427,-0.7813 2.70165,-1.70241c0.63738,-0.91289 0.87176,-2.04371 0.67027,-3.13342c-0.11514,-0.6127 -0.18504,-1.18428 -0.18504,-1.74353c0.01645,-5.03732 4.09154,-9.11652 9.12886,-9.12475c2.66053,0 5.00442,1.14316 6.71506,3.00594c0.95812,1.05681 2.4138,1.54204 3.81191,1.27475c1.40634,-0.2714 2.57417,-1.26653 3.07585,-2.59473c3.07996,-8.1913 10.9464,-14.03048 20.19451,-14.02225c11.91686,0.01645 21.56384,9.66754 21.59263,21.58851c0,0.65794 -0.03701,1.33643 -0.10691,2.0396c-0.2056,2.13007 1.25419,4.0463 3.34725,4.43695c7.64439,1.41867 13.4589,8.08438 13.45067,16.13176c-0.02056,9.09185 -7.36066,16.44017 -16.44428,16.46484zm-49.06966,29.2987c-3.22388,-0.00822 -5.83095,-2.61529 -5.83095,-5.82273c0,-3.228 2.60707,-5.82273 5.83095,-5.83095c3.20744,0.00822 5.81039,2.60296 5.82273,5.83095c-0.00822,3.20744 -2.61118,5.81451 -5.82273,5.82273zm30.83662,0c-3.21977,-0.00822 -5.83095,-2.61529 -5.83095,-5.82273c0,-3.228 2.61118,-5.82273 5.83095,-5.83095c3.20332,0.00822 5.81451,2.60296 5.81451,5.83095c0.00411,3.20744 -2.59885,5.81451 -5.81451,5.82273zm-47.28501,20.81544c-3.21977,-0.00822 -5.82684,-2.61941 -5.82684,-5.83095s2.60707,-5.81451 5.82684,-5.82273c3.20744,0.00822 5.81862,2.61118 5.81862,5.82273c-0.00411,3.21566 -2.60707,5.82684 -5.81862,5.83095zm30.83251,0c-3.21566,-0.00822 -5.82684,-2.61941 -5.82684,-5.83095s2.60707,-5.81451 5.82684,-5.82273c3.20744,0.00822 5.81039,2.61118 5.81862,5.82273c-0.00411,3.21566 -2.59885,5.82684 -5.81862,5.83095zm30.83662,0c-3.21566,-0.00822 -5.82273,-2.60707 -5.82273,-5.82273c0,-3.228 2.60707,-5.83095 5.82273,-5.83918c3.21155,0.00822 5.81451,2.61118 5.83095,5.83918c-0.01234,3.21977 -2.61529,5.81862 -5.83095,5.82273z" stroke-linecap="null" stroke-linejoin="null" stroke-dasharray="null" stroke-width="5" stroke="#000000" fill="#ffffff"/>
 </g>
</svg>