<svg width="640" height="480" xmlns="http://www.w3.org/2000/svg" xmlns:svg="http://www.w3.org/2000/svg">
 <!-- Created with SVG-edit - http://svg-edit.googlecode.com/ -->
 <g>
  <title>Layer 1</title>
  <path id="svg_4" d="m35.92357,99.98499q35.50142,24.38172 70.91996,0m-63.22571,-48.15433c0,-3.7682 3.05472,-6.82292 6.82292,-6.82292c3.76819,0 6.82292,3.05472 6.82292,6.82292c0,3.76819 -3.05472,6.82291 -6.82292,6.82291c-3.76819,0 -6.82292,-3.05472 -6.82292,-6.82291m41.96852,0c0,-3.7682 3.05472,-6.82292 6.82292,-6.82292c3.76819,0 6.82291,3.05472 6.82291,6.82292c0,3.76819 -3.05472,6.82291 -6.82291,6.82291c-3.76819,0 -6.82292,-3.05472 -6.82292,-6.82291m-79.66134,19.58934l0,0c0,-36.17465 29.32535,-65.5 65.5,-65.5c36.17465,0 65.5,29.32535 65.5,65.5c0,36.17465 -29.32534,65.5 -65.5,65.5c-36.17465,0 -65.5,-29.32534 -65.5,-65.5zm0,0l0,0c0,-36.17465 29.32535,-65.5 65.5,-65.5c36.17465,0 65.5,29.32535 65.5,65.5c0,36.17465 -29.32534,65.5 -65.5,65.5c-36.17465,0 -65.5,-29.32534 -65.5,-65.5z" stroke-linecap="null" stroke-linejoin="null" stroke-dasharray="null" stroke-width="5" stroke="#000000" fill="#ffffff"/>
 </g>
</svg>