<?xml version="1.0"?>
<svg width="640" height="480" xmlns="http://www.w3.org/2000/svg" xmlns:svg="http://www.w3.org/2000/svg">
 <!-- Created with SVG-edit - http://svg-edit.googlecode.com/ -->
 <g>
  <title>Layer 1</title>
  <path id="svg_10" d="m92.676312,10.950006c-19.517379,3.593534 -25.994373,19.935205 -26.246714,29.271578c10.739519,0.776066 17.443319,-5.284748 20.185968,-8.831709c4.467007,-5.029333 5.556087,-12.112837 6.06075,-20.439868l-0.000005,0zm2.395608,32.279866c-14.107907,-0.006429 -21.982841,5.760549 -25.865858,5.823403c-4.455558,-0.347227 -17.440227,-5.568169 -25.010267,-5.652288c-26.513591,0.79047 -34.11015,29.600452 -33.781267,41.989224c2.159648,47.426218 31.099645,59.666739 35.829112,60.811777c3.793608,0.748028 16.583851,-5.847565 25.992808,-5.547409c10.273172,1.070282 17.45211,5.332223 21.576949,5.034076c5.218621,-0.36213 22.241951,-14.119681 27.372759,-35.315779c-10.34571,-8.747596 -16.727536,-16.675038 -17.299108,-24.198855c-0.264782,-3.401721 4.85139,-22.630828 13.010208,-28.035136c1.177569,-6.644795 -10.940541,-15.07618 -20.439873,-14.886933c-0.468138,-0.012591 -0.930378,-0.021854 -1.385468,-0.022085l0.000005,0.000005z" stroke-linecap="null" stroke-linejoin="null" stroke-dasharray="null" stroke-width="5" stroke="#000000" fill="#ffffff"/>
 </g>
</svg>