<?xml version="1.0"?>
<svg width="640" height="480" xmlns="http://www.w3.org/2000/svg" xmlns:svg="http://www.w3.org/2000/svg" xmlns:xlink="http://www.w3.org/1999/xlink">
 <!-- Created with SVG-edit - http://svg-edit.googlecode.com/ -->
 <g>
  <title>Layer 1</title>
  <g id="svg_3"/>
  <use id="svg_17" xlink:href="#svg_16" transform="matrix(0.6843491264123002,0,0,0.7603147840683419,-117.76211052796543,16.60476125674793) " y="-13.15245" x="208.95767"/>
  <g id="svg_18"/>
  <g id="svg_24"/>
  <path id="svg_5" d="m4.297513,151.054098c-4.047685,-4.72516 6.34003,-4.851639 4.708074,-10.089569c2.98378,-6.940956 10.741918,-11.14229 11.884426,-19.029628c-3.14654,-2.192118 -4.956219,-7.493664 1.04685,-6.864261c4.402284,-3.313708 3.85209,-10.094804 5.175998,-15.071149c1.240191,-8.03193 1.52104,-16.161368 2.053732,-24.259288c-5.093713,-0.39125 -10.313426,-0.11872 -15.276612,-1.423924c0.142764,-5.385453 10.24168,-3.319043 10.70132,-8.40085c7.34286,-0.132691 0.406718,-11.100103 -2.583568,-13.716747c-3.827536,-4.41412 -6.376872,-11.38227 -3.467132,-16.833638c4.161877,-2.765233 13.572224,-1.082014 13.146877,-8.348996c-2.830426,-1.613403 -6.424078,-0.588829 -9.59644,-0.874156c0.195094,-3.388599 0.390183,-6.777193 0.585277,-10.165793c4.195403,-0.322706 8.390817,-0.645436 12.58622,-0.968172c-2.129529,-2.213246 -5.316608,-3.842072 -6.114135,-6.972823c2.712713,-4.459322 9.250542,-4.065678 13.934166,-4.023516c4.5543,-0.314135 12.857928,2.723688 6.650138,7.616782c-0.503148,1.201616 -5.399919,4.189362 -2.373783,3.863641c3.874606,0 7.749202,0 11.623799,0c-0.011135,3.312661 -0.100187,6.658243 0.67779,9.900081c-2.957607,2.202612 -12.548331,-1.881474 -9.817546,4.914664c3.074845,2.841401 7.784086,2.766415 11.684108,4.017781c2.274818,0.227267 4.084437,0.820053 3.264674,3.479098c0.427571,4.936939 -0.818019,9.903216 -4.211523,13.650857c-2.402194,3.910561 -7.797485,8.806135 -6.200302,13.33265c3.021809,-0.491888 5.449244,1.492233 3.035669,3.723537c2.47689,1.833933 11.198963,1.413956 9.312494,6.005273c-4.419044,1.4628 -9.166214,0.853379 -13.750914,1.002649c1.22073,12.532678 2.908608,25.066543 5.728941,37.339284c1.647885,2.723302 8.193909,4.816355 2.821665,8.366663c-2.004918,6.611593 4.398898,11.562097 8.420766,15.805577c4.42201,3.31189 2.276541,9.975698 8.532384,11.038496c4.92675,4.772531 -6.764075,4.64547 -9.765561,4.655879c-19.870193,0.214254 -39.76182,0.514008 -59.624239,-0.126284c-1.625976,-0.205207 -3.634821,-0.158262 -4.793609,-1.544122l-0.000005,0.000005z" stroke-width="5" stroke="#000000" fill="#ffffff"/>
 </g>
</svg>