<svg width="640" height="480" xmlns="http://www.w3.org/2000/svg" xmlns:svg="http://www.w3.org/2000/svg">
 <!-- Created with SVG-edit - http://svg-edit.googlecode.com/ -->
 <g>
  <title>Layer 1</title>
  <path id="svg_27" d="m24.33771,19.337c0,-6.84054 5.54085,-12.38139 12.38139,-12.38139c6.84055,0 12.38138,5.54085 12.38138,12.38139c0,6.84054 -5.54083,12.38139 -12.38138,12.38139c-6.84055,0 -12.38139,-5.54085 -12.38139,-12.38139zm41.62835,35.04724l0,-6.25296c0,-6.57903 -5.33038,-11.91322 -11.91322,-11.91322l-34.70582,0c-6.57903,0 -11.91322,5.3342 -11.91322,11.91322l0,6.25296c-0.0115,0.14193 -0.01919,0.28771 -0.01919,0.4354l0,36.01589c0,2.79849 2.26719,5.06566 5.06567,5.06566c2.79465,0 5.06758,-2.26718 5.06758,-5.06566l0,-35.48265l3.39692,0l0,40.55214l0.02493,0l0,57.29896c0,3.72491 3.02483,6.75164 6.75358,6.75164c3.73067,0 6.75358,-3.0229 6.75358,-6.75164l0,-57.29896l4.45571,0l0,57.29896c0,3.72491 3.0267,6.75164 6.75357,6.75164c3.73066,0 6.75356,-3.0229 6.75356,-6.75164l0,-57.29896l0.0211,0l0,-40.55214l3.39693,0l0,35.48072c0,2.79849 2.27292,5.06758 5.06758,5.06758c2.79852,0 5.06567,-2.26909 5.06567,-5.06758l0,-36.01588c-0.0019,-0.14961 -0.01343,-0.29155 -0.02494,-0.43349l0,0.00001z" stroke-linecap="null" stroke-linejoin="null" stroke-dasharray="null" stroke-width="5" stroke="#000000" fill="#ffffff"/>
 </g>
</svg>