<?xml version="1.0"?>
<svg width="640" height="480" xmlns="http://www.w3.org/2000/svg" xmlns:svg="http://www.w3.org/2000/svg">
 <!-- Created with SVG-edit - http://svg-edit.googlecode.com/ -->
 <g>
  <title>Layer 1</title>
  <path id="svg_5" d="m86.291252,45.886469l-13.971312,-2.474385l5.147328,-2.687753c2.831018,-1.478289 5.397901,-2.90937 5.704168,-3.180181c0.760779,-0.672679 -8.71358,-15.313262 -9.901808,-15.301142c-0.522329,0.005922 -4.162007,5.675038 -8.088159,12.599387c-3.954565,6.974351 -7.890238,12.285853 -8.823993,11.908493c-11.051572,-4.46576 -20.068819,-8.984127 -20.068819,-10.056066c0,-0.732189 3.467518,-7.263653 7.705641,-14.514378l7.705645,-13.183112l21.009705,0l21.009705,0l5.484115,8.673548l5.484161,8.673548l5.721182,-2.935137c3.966045,-2.034733 5.476209,-2.326908 4.922558,-0.95256c-4.874627,12.102016 -12.148341,26.21318 -13.441279,26.076295c-0.895146,-0.094698 -7.914605,-1.285666 -15.598833,-2.646553l-0.000004,-0.000004zm-65.160254,53.992266c-5.316887,-9.156108 -10.082052,-17.728855 -10.589207,-19.050604c-0.520485,-1.356306 0.995956,-6.202839 3.481384,-11.126388l4.40351,-8.723364l-4.501489,-2.659118c-5.990553,-3.538699 -3.763819,-4.628593 12.127419,-5.935887l12.559264,-1.033166l4.92633,13.016512c2.709521,7.159076 5.273038,13.941064 5.696765,15.071172c0.441901,1.178576 -1.672988,0.394407 -4.959814,-1.839048l-5.730199,-3.893804l-4.000119,7.72171c-2.200026,4.247011 -4.031312,8.195023 -4.069459,8.773359c-0.038237,0.578336 6.714035,1.240158 15.004928,1.470667l15.074313,0.419093l0.983749,11.026664c0.541085,6.0647 0.87195,11.107723 0.73533,11.206734c-0.136612,0.098911 -7.27451,0.635151 -15.861976,1.191509l-15.613602,1.011521l-9.667126,-16.647573l0,0.000012zm59.50398,16.177846c-9.127655,-13.776626 -9.286308,-12.751891 4.280264,-27.643365l8.708818,-9.559322l-0.924953,6.985658l-0.924994,6.985662l9.759216,0c5.367558,0 9.759266,-0.429249 9.759266,-0.953819c0,-0.524657 -2.978128,-6.417193 -6.618033,-13.094695c-3.639905,-6.677502 -6.604212,-12.70082 -6.58738,-13.385161c0.037792,-1.534486 19.117691,-14.205511 20.024751,-13.298464c0.359405,0.359409 3.900246,6.760624 7.868544,14.225072l7.215182,13.571519l-9.708228,15.659462c-5.339604,8.612597 -10.469782,16.499464 -11.400339,17.526262c-0.930664,1.026798 -6.134399,2.281766 -11.563902,2.788728c-10.363587,0.967812 -10.081466,0.734706 -11.601005,9.584457c-0.265916,1.54876 -3.366758,-1.965431 -8.287208,-9.392004l0,0.000008z" stroke-linecap="null" stroke-linejoin="null" stroke-dasharray="null" stroke-width="5" stroke="#000000" fill="#ffffff"/>
 </g>
</svg>