<?xml version="1.0" standalone="no"?>
<!DOCTYPE svg PUBLIC "-//W3C//DTD SVG 1.0//EN" "http://www.w3.org/TR/2001/REC-SVG-20010904/DTD/svg10.dtd">
<svg width="606" height="617" viewBox="0 0 606 617" xmlns="http://www.w3.org/2000/svg">
<title>Ornate double-spiral triskelion with spokes, within an overall spiral</title>
<g transform="translate(2,616.7) scale(0.1,-0.1)" fill="rgb(0,0,0)" stroke="none">
<circle cx="2926.23" cy="3008.23" r="3185" fill="rgb(255,255,255)"/>
<path d="M4108,2462
c4,16,20,32,36,37
c19,6,46,1,63,-10
c23,-13,42,-41,50,-66
c10,-32,8,-74,-3,-106
c-14,-39,-46,-79,-79,-103
c-40,-29,-98,-48,-147,-51
c-57,-2,-125,15,-175,44
c-57,32,-112,90,-144,148
c-35,65,-54,153,-50,227
c4,82,37,176,83,244
c51,75,136,146,218,184
c90,42,208,60,307,50
c107,-11,228,-59,314,-123
c93,-69,179,-180,224,-286
c48,-115,67,-264,50,-387
c-18,-132,-81,-280,-163,-384
c-87,-111,-225,-212,-356,-264
c-139,-55,-319,-73,-467,-50
c-156,24,-330,103,-453,202
c-129,106,-246,270,-304,426
l-223,593
l-576,253
c-68,30,-151,54,-225,65
c-139,21,-309,2,-440,-51
c-123,-49,-252,-145,-333,-250
c-76,-99,-134,-237,-150,-360
c-14,-115,5,-255,51,-361
c42,-98,123,-201,210,-263
c80,-58,192,-102,291,-110
c90,-8,199,10,280,50
c74,36,150,101,195,170
c40,62,68,148,69,222
c2,65,-16,143,-50,200
c-29,49,-79,99,-130,125
c-44,23,-103,35,-152,30
c-41,-4,-88,-23,-120,-50
c-25,-22,-48,-57,-56,-90
c-5,-26,-3,-59,10,-83
c10,-17,30,-35,50,-40
c16,-3,50,14,50,14
c11,-12,17,-34,13,-50
c-4,-20,-22,-40,-40,-50
c-23,-13,-56,-15,-82,-10
c-33,8,-68,31,-90,56
c-27,32,-46,79,-50,120
c-5,49,7,108,30,152
c26,51,75,101,125,130
c56,34,134,52,200,51
c74,-2,159,-30,221,-70
c69,-45,135,-121,171,-195
c39,-81,58,-190,50,-280
c-9,-99,-52,-211,-110,-291
c-63,-87,-165,-168,-264,-210
c-106,-46,-245,-65,-360,-51
c-123,16,-262,74,-360,150
c-105,81,-201,210,-251,333
c-52,131,-71,301,-50,440
c22,148,96,314,189,430
c99,123,255,235,403,291
c155,59,356,78,520,50
l625,-104
l508,374
c60,44,122,103,168,162
c88,110,156,266,176,406
c19,131,0,291,-50,414
c-47,115,-138,235,-237,310
c-93,69,-223,123,-338,136
c-106,12,-235,-6,-333,-50
c-90,-41,-184,-116,-241,-197
c-52,-75,-90,-178,-96,-268
c-6,-82,13,-180,50,-254
c34,-65,94,-132,157,-171
c56,-34,133,-57,198,-57
c58,1,125,19,174,51
c41,26,82,71,102,116
c17,38,24,89,16,129
c-6,33,-25,71,-50,94
c-19,17,-50,32,-76,32
c-20,1,-46,-8,-60,-23
c-11,-12,-13,-50,-13,-50
c-16,-4,-38,2,-50,14
c-15,13,-23,39,-23,59
c1,27,15,57,33,77
c23,24,60,43,93,50
c41,7,91,0,129,-17
c45,-20,90,-61,117,-102
c31,-48,50,-116,50,-174
c0,-65,-22,-142,-57,-198
c-38,-63,-105,-123,-171,-157
c-73,-37,-171,-56,-253,-50
c-91,6,-194,44,-268,96
c-81,57,-157,151,-197,241
c-44,98,-63,227,-51,334
c14,115,67,244,137,337
c75,99,195,190,310,237
c122,50,282,69,413,51
c140,-20,296,-89,407,-177
c117,-93,223,-240,277,-379
c57,-147,76,-338,51,-494
c-27,-164,-111,-347,-216,-476
l-403,-489
l69,-626
c9,-74,29,-158,56,-227
c52,-131,153,-269,264,-356
c105,-82,252,-145,384,-163
c123,-17,272,2,387,51
c106,44,218,130,286,223
c64,87,113,208,124,314
c10,99,-9,217,-51,307
c-38,82,-108,167,-183,218
c-68,46,-163,79,-245,83
c-74,4,-162,-15,-227,-50
c-57,-32,-116,-87,-148,-144
c-28,-50,-46,-118,-43,-175
c2,-49,21,-107,50,-147
c24,-33,64,-65,103,-79
c32,-11,74,-13,106,-3
c25,8,53,27,67,50
c10,17,15,44,9,63
c-5,16,-36,36,-36,36Z"/>
<path d="M2775,6033
c156,16,147,-139,-1,-154
c-466,-49,-995,-251,-1373,-526
c-368,-268,-715,-696,-899,-1112
c-178,-405,-262,-933,-214,-1373
c47,-427,234,-912,489,-1258
c247,-335,640,-651,1022,-818
c371,-161,854,-235,1255,-189
c389,45,830,218,1143,451
c304,227,589,585,738,933
c32,72,57,159,70,237
c23,148,4,328,-51,467
c-52,131,-153,269,-264,356
c-104,82,-252,145,-383,163
c-124,16,-273,-2,-387,-51
c-107,-45,-218,-130,-287,-223
c-64,-87,-112,-208,-123,-314
c-10,-99,8,-218,50,-307
c38,-82,109,-167,184,-218
c68,-46,162,-79,244,-83
c74,-4,162,15,227,50
c58,32,116,87,148,144
c29,50,46,118,44,175
c-3,49,-21,107,-50,147
c-25,33,-65,65,-104,79
c-32,11,-73,13,-106,3
c-25,-8,-52,-27,-66,-50
c-11,-17,-16,-44,-10,-63
c5,-16,37,-37,37,-37
c-5,-15,-21,-31,-37,-36
c-19,-6,-46,-1,-63,10
c-23,13,-42,41,-50,66
c-10,32,-8,74,4,106
c13,39,45,79,78,103
c40,29,98,48,147,50
c58,3,125,-14,175,-43
c58,-32,113,-90,144,-148
c35,-65,54,-153,50,-227
c-4,-82,-37,-176,-83,-245
c-51,-75,-135,-145,-218,-183
c-89,-42,-208,-61,-306,-50
c-107,10,-228,59,-315,123
c-93,69,-178,180,-223,286
c-49,115,-67,264,-51,387
c18,132,81,279,163,384
c87,111,225,212,356,264
c139,55,320,73,467,50
c156,-24,331,-103,453,-203
c129,-105,246,-269,304,-425
c62,-164,81,-375,51,-547
c-15,-90,-47,-191,-85,-274
c-162,-370,-468,-750,-794,-989
c-336,-247,-806,-428,-1220,-472
c-427,-47,-940,35,-1333,209
c-404,179,-819,517,-1079,875
c-267,368,-462,883,-509,1335
c-48,465,43,1024,235,1451
c197,438,566,887,956,1168
c400,288,959,497,1450,546Z"/>
<path d="M5622,1627
c-65,-143,-194,-58,-133,78
c190,428,280,987,230,1452
c-48,452,-245,967,-513,1334
c-261,357,-678,694,-1082,872
c-394,173,-907,253,-1334,205
c-414,-46,-884,-228,-1219,-476
c-325,-240,-631,-621,-792,-992
c-155,-359,-226,-827,-180,-1216
c44,-375,212,-801,439,-1104
c46,-64,108,-130,170,-180
c116,-93,282,-167,429,-189
c140,-21,310,-2,441,50
c123,50,252,146,333,251
c76,98,134,237,149,360
c15,115,-4,254,-50,361
c-43,98,-123,200,-210,263
c-81,58,-193,101,-291,110
c-91,8,-199,-11,-280,-50
c-74,-36,-150,-101,-195,-171
c-40,-62,-68,-147,-70,-221
c-1,-66,17,-143,50,-200
c29,-50,79,-99,130,-125
c44,-23,103,-35,153,-30
c41,4,88,23,120,50
c25,22,48,57,55,90
c6,26,3,59,-9,82
c-10,18,-31,36,-50,40
c-16,4,-50,-13,-50,-13
c-12,11,-17,34,-14,50
c5,20,23,40,40,50
c24,12,57,15,83,9
c33,-7,68,-30,90,-55
c27,-32,46,-79,50,-120
c5,-49,-7,-109,-30,-152
c-26,-52,-76,-102,-125,-131
c-57,-33,-135,-51,-200,-50
c-74,2,-160,30,-222,70
c-69,45,-134,121,-170,195
c-40,81,-58,189,-50,280
c8,98,52,210,110,291
c62,87,165,167,263,210
c106,46,246,65,360,51
c124,-16,262,-74,361,-150
c105,-81,201,-210,250,-333
c53,-131,72,-301,51,-441
c-22,-147,-96,-313,-190,-429
c-99,-123,-254,-235,-402,-291
c-155,-59,-356,-78,-520,-51
c-173,29,-365,118,-499,230
c-71,58,-143,136,-195,211
c-239,325,-416,780,-460,1182
c-45,414,33,912,201,1293
c174,393,501,796,848,1049
c357,260,857,451,1297,497
c453,47,996,-41,1411,-227
c427,-190,865,-549,1139,-928
c281,-390,486,-934,534,-1412
c49,-491,-49,-1080,-252,-1529Z"/>
<path d="M382,1364
c-91,128,47,197,135,77
c275,-379,714,-736,1141,-926
c416,-184,960,-271,1413,-222
c439,47,939,239,1296,501
c346,254,672,659,845,1052
c167,382,244,880,197,1294
c-46,402,-223,857,-464,1182
c-233,314,-603,609,-962,764
c-348,150,-801,217,-1177,172
c-78,-8,-166,-29,-240,-58
c-139,-54,-286,-160,-379,-277
c-88,-110,-156,-267,-176,-407
c-19,-131,0,-291,50,-413
c48,-115,139,-235,238,-310
c92,-70,222,-123,337,-137
c106,-12,235,7,333,51
c91,40,184,116,241,197
c52,74,90,177,96,268
c6,82,-12,180,-50,253
c-34,66,-94,133,-157,171
c-56,35,-132,57,-198,57
c-58,0,-125,-19,-173,-50
c-42,-27,-82,-72,-103,-117
c-16,-38,-24,-88,-16,-129
c6,-33,25,-70,50,-93
c19,-18,50,-32,76,-33
c21,0,46,8,60,23
c11,12,13,50,13,50
c16,5,38,-2,50,-13
c15,-14,24,-39,23,-60
c0,-26,-15,-57,-33,-76
c-22,-25,-60,-44,-93,-50
c-41,-8,-91,0,-129,17
c-45,20,-90,60,-117,102
c-31,48,-49,116,-50,173
c0,66,23,142,57,198
c38,63,105,124,171,157
c73,38,172,56,254,51
c90,-7,193,-45,267,-97
c81,-57,157,-150,197,-241
c44,-98,63,-226,51,-333
c-13,-115,-67,-245,-137,-337
c-75,-99,-195,-190,-309,-237
c-123,-51,-283,-70,-414,-51
c-140,20,-296,89,-407,176
c-117,93,-223,240,-277,379
c-57,148,-76,338,-51,494
c27,164,111,348,217,476
c111,135,284,257,448,318
c86,31,189,55,280,63
c401,45,884,-31,1254,-193
c381,-168,773,-485,1019,-821
c253,-346,439,-832,484,-1259
c47,-439,-38,-967,-218,-1371
c-185,-416,-533,-842,-901,-1109
c-379,-274,-909,-474,-1374,-522
c-478,-48,-1051,46,-1490,244
c-449,202,-910,582,-1198,982Z"/>
<circle cx="2926.23" cy="3008.23" r="77.34375" fill="rgb(255,255,255)"/>
</g>
</svg>
