<?xml version="1.0"?>
<svg width="640" height="480" xmlns="http://www.w3.org/2000/svg" xmlns:svg="http://www.w3.org/2000/svg">
 <!-- Created with SVG-edit - http://svg-edit.googlecode.com/ -->
 <g>
  <title>Layer 1</title>
  <path fill="#ffffff" stroke="#000000" stroke-width="5" d="m275.53985,130.52362c-0.32174,0.01018 -0.63266,0.03729 -0.95573,0.06947c-5.1691,0.51487 -9.73138,3.79533 -12.04907,8.68343l-1.22881,3.69914c0.2651,-1.28193 0.67217,-2.52518 1.22881,-3.69914c-4.1333,-4.28244 -9.9348,-6.25904 -15.66722,-5.33163c-5.73242,0.92741 -10.71077,4.64675 -13.43147,10.03805c-7.68061,-4.73047 -17.25463,-4.44397 -24.66135,0.74678c-7.40672,5.19074 -11.35449,14.38136 -10.15468,23.65367l0.78507,3.76861c-0.35476,-1.23464 -0.6197,-2.49065 -0.78507,-3.76861l-0.11947,0.34734c-6.43837,0.70165 -11.71863,5.69712 -13.09014,12.38258c-1.37151,6.68546 1.48037,13.5452 7.0656,17.00216l8.72107,2.11876c-3.04517,0.25066 -6.08538,-0.48741 -8.72107,-2.11876c-4.30809,4.82579 -5.29944,11.97025 -2.4576,17.87052c2.84184,5.90025 8.91098,9.29764 15.17228,8.52713l3.80587,-1.00728c-1.22455,0.51256 -2.49633,0.84613 -3.80587,1.00728c3.55449,6.5435 9.4483,11.31677 16.36694,13.21618c6.91865,1.89942 14.26742,0.77684 20.39468,-3.10866c4.99863,7.88291 13.87048,12.02331 22.76695,10.62851c8.89647,-1.39479 16.23518,-8.08323 18.84161,-17.15846l0.90453,-5.07113c-0.13544,1.72282 -0.42934,3.41658 -0.90453,5.07113c6.11911,4.01283 13.81624,4.23897 20.13868,0.59047c6.32244,-3.64849 10.26747,-10.60572 10.32534,-18.18311l-2.26664,-11.3217l-8.92911,-7.66029c6.90444,4.32505 11.25735,10.91469 11.19574,18.98199c8.20974,0.08604 15.18332,-6.94872 18.31255,-15.02234c3.12922,-8.07363 1.9455,-17.27802 -3.10615,-24.19205c2.09533,-5.14779 1.97102,-11.00336 -0.34132,-16.04699c-2.31236,-5.04362 -6.57766,-8.79229 -11.70775,-10.26382c-1.14805,-6.6847 -5.88031,-12.06182 -12.13441,-13.82403c-6.2541,-1.76221 -12.91357,0.41075 -17.10081,5.59213l-2.54294,4.28962c0.64978,-1.55122 1.49841,-2.99712 2.54294,-4.28962c-2.95169,-4.07218 -7.5813,-6.36998 -12.40748,-6.21734l0.00001,-0.00002l0.00002,0.00003z" id="svg_1"/>
 </g>
</svg>