<?xml version="1.0"?>
<svg width="640" height="480" xmlns="http://www.w3.org/2000/svg" xmlns:svg="http://www.w3.org/2000/svg" xmlns:xlink="http://www.w3.org/1999/xlink">
 <!-- Created with SVG-edit - http://svg-edit.googlecode.com/ -->
 <defs>
  <symbol id="svg_1" preserveAspectRatio="xMidYMid meet" viewBox="0 0 555.000000 660.000000" height="660.000000pt" width="555.000000pt" xmlns="http://www.w3.org/2000/svg">
   <metadata>Created by potrace 1.13, written by Peter Selinger 2001-2015</metadata>
   <g fill="#000000" transform="translate(0.000000,660.000000) scale(0.100000,-0.100000)">
    <path d="m1534,6576c-6,-27 5,-52 100,-216c36,-62 66,-114 66,-116c0,-3 10,-21 23,-42c13,-20 38,-62 55,-93l32,-56l-87,-54c-192,-117 -385,-297 -518,-484c-60,-84 -164,-277 -198,-371c-21,-57 -65,-221 -72,-269c-3,-23 -8,-52 -11,-65c-3,-14 -8,-82 -11,-152l-5,-128l1852,0l1852,0l-6,123c-6,122 -8,140 -21,219c-11,64 -12,69 -25,118c-108,416 -391,784 -787,1024c-35,20 -63,39 -63,41c0,2 23,43 51,92c122,208 211,367 220,391c5,13 7,33 4,43c-6,17 -18,19 -109,19l-103,0l-32,-51c-17,-28 -31,-52 -31,-53c0,-2 -43,-76 -95,-166c-52,-90 -96,-168 -98,-173c-2,-7 -48,4 -118,26c-63,21 -123,39 -134,42c-228,50 -269,55 -470,60c-245,5 -469,-30 -692,-107c-51,-18 -94,-30 -96,-28c-2,3 -61,105 -131,228l-128,222l-104,0c-101,0 -104,-1 -110,-24zm1406,-446c431,-45 797,-215 1085,-505c247,-248 381,-527 430,-897l6,-48l-1701,0l-1702,0l7,53c14,113 37,223 66,310c110,330 342,620 656,820c323,207 760,308 1153,267z"/>
    <path d="m1835,5585c-167,-62 -214,-273 -89,-399c44,-44 100,-66 170,-66c119,0 212,76 236,192c30,142 -74,274 -221,284c-34,2 -72,-2 -96,-11zm131,-153c51,-41 56,-88 16,-134c-71,-78 -192,4 -149,100c22,48 94,66 133,34z"/>
    <path d="m3540,5591c-116,-36 -189,-142 -177,-257c12,-119 102,-205 222,-212c78,-5 126,10 178,57c105,94 108,250 6,352c-56,56 -155,82 -229,60zm109,-156c58,-30 60,-113 3,-152c-82,-55 -179,41 -125,123c28,43 74,54 122,29z"/>
    <path d="m272,4514c-29,-8 -63,-19 -75,-25c-51,-27 -122,-86 -158,-132l-39,-49l0,-1074l0,-1073l43,-53c184,-227 511,-219 693,17c34,43 53,82 81,160c17,47 18,110 18,950l0,900l-28,77c-50,136 -150,241 -275,289c-70,27 -186,33 -260,13zm195,-149c71,-21 144,-89 185,-173l33,-67l0,-890l0,-890l-33,-67c-76,-155 -222,-222 -365,-168c-110,41 -188,146 -207,281c-12,84 -12,1604 0,1688c19,133 96,239 204,280c62,24 116,26 183,6z"/>
    <path d="m5035,4516c-114,-27 -234,-123 -292,-232c-65,-122 -64,-115 -61,-1084c3,-855 4,-876 24,-931c48,-132 133,-228 249,-284c120,-58 251,-57 372,2c71,34 171,132 201,196l22,47l0,1007l-1,1008l-22,43c-24,45 -124,162 -139,162c-6,0 -22,8 -36,18c-76,52 -212,73 -317,48zm229,-170c68,-33 125,-99 155,-181c21,-55 21,-70 21,-930c0,-860 0,-875 -21,-930c-60,-160 -212,-245 -362,-201c-76,22 -154,94 -193,178l-29,63l0,890l0,890l29,63c34,74 114,152 178,176c64,23 152,16 222,-18z"/>
    <path d="m897,4465c-5,-18 1,-2799 6,-2822c26,-103 140,-239 242,-288c59,-28 63,-28 258,-30c108,-1 200,-5 203,-8c4,-3 8,-215 9,-469c2,-446 2,-465 23,-530c42,-126 133,-232 248,-289c62,-31 64,-31 196,-27c126,3 136,5 188,33c66,37 157,125 189,185c65,125 64,110 67,623c1,258 5,471 8,475c8,8 447,9 452,1c2,-3 4,-207 4,-453c1,-411 3,-452 21,-517c11,-39 31,-93 44,-119c37,-73 129,-161 207,-199l66,-33l134,4c130,3 134,4 193,37c120,69 210,194 239,332c10,47 14,177 14,503c1,241 3,441 6,444c3,3 95,6 203,7c196,2 199,2 258,31c111,53 223,194 241,301c5,28 9,2715 5,2803c-1,13 -215,15 -1861,15c-1231,0 -1861,-3 -1863,-10zm3573,-1467c0,-1276 -1,-1324 -19,-1365c-22,-47 -85,-114 -133,-140c-29,-16 -65,-18 -295,-21l-263,-3l0,-498c0,-525 -4,-580 -46,-662c-73,-144 -244,-211 -380,-148c-67,32 -135,104 -165,175l-24,59l-3,538l-3,537l-379,0l-380,0l0,-498c0,-527 -4,-580 -46,-664c-115,-227 -413,-226 -528,1c-41,81 -46,146 -46,668l0,492l-262,3l-263,3l-47,27c-47,28 -93,79 -122,135c-15,29 -16,150 -16,1358l0,1325l1710,0l1710,0l0,-1322z"/>
   </g>
  </symbol>
 </defs>
 <g>
  <title>Layer 1</title>
  <use x="-107.249997" y="16.5" transform="matrix(0.24242424964904785,0,0,0.24242424964904785,0,0) " xlink:href="#svg_1" id="svg_2"/>
  <g id="svg_3"/>
 </g>
</svg>