<?xml version="1.0" encoding="UTF-8"?>
<svg width="1052.3622" height="580" xmlns="http://www.w3.org/2000/svg" xmlns:svg="http://www.w3.org/2000/svg">
 <title>world map continents</title>

 <metadata id="metadata7">image/svg+xmlWorld map27 11 2005Lumen Design StudioworldmapcontinentcontinentscountriescountrygeographyplanetearthafricaasiaeuropeaustraliaamericaamericasWorld map</metadata>
 <g>
  <title>Layer 1</title>
  <path fill="#ffffff" stroke="#000000" id="path3726" d="m279.412537,1.02947c-0.662506,0.04124 -1.114166,0.1753 -1.229279,0.36154c-0.306915,0.49665 -1.557556,0.61939 -2.820068,0.28924c-1.262512,-0.330171 -3.215485,-0.20102 -4.338593,0.28924c-1.123047,0.49026 -2.639374,0.79858 -3.362396,0.68694c-1.241608,-0.1917 -2.990723,2.52229 -3.253906,5.06169c-0.065979,0.636379 -2.317108,0.999109 -5.025543,0.79541c-3.608109,-0.27137 -4.859558,0.03784 -4.627808,1.15695c0.208023,1.004559 -0.943558,1.545549 -3.39856,1.590809c-2.052887,0.037861 -4.079956,0.42832 -4.519348,0.86772c-0.439392,0.439402 -2.67305,0.85626 -4.953217,0.940022l-4.157806,0.144619l4.049332,0.723101c2.227142,0.393469 3.789032,1.08967 3.470871,1.554659c-0.318161,0.464991 0.601761,1.68964 2.060822,2.711611c2.040817,1.42944 3.026337,1.571369 4.266266,0.54232c1.079315,-0.89575 2.318634,-0.991621 3.723953,-0.25308c5.397995,2.836769 11.239365,2.716782 17.028915,-0.361549c3.97702,-2.114601 6.044495,-2.632671 6.905579,-1.771591c1.8591,1.85907 -1.146851,4.029652 -9.111023,6.652481c-5.0896,1.67617 -7.612488,1.98695 -9.472565,1.156971c-2.701935,-1.20565 -6.146317,-0.452511 -6.146317,1.337719c0,1.832119 8.239609,6.052071 10.448746,5.35091c2.712128,-0.86079 3.885559,1.0718 1.735443,2.856239c-2.38031,1.975471 -13.919617,0.089241 -13.919617,-2.27776c0,-0.948509 -0.901596,-2.404961 -1.98851,-3.21777c-1.086899,-0.812832 -1.671143,-2.2547 -1.301575,-3.217781c0.369583,-0.9631 0.229919,-1.64555 -0.325394,-1.518509c-1.190231,0.272289 -4.921844,-1.002621 -7.375595,-2.53083c-3.442764,-2.14418 -4.656876,-2.48735 -6.616318,-1.735441c-1.706635,0.654911 -1.748123,0.921301 -0.289246,1.843901c1.691376,1.06963 1.379654,1.269291 -2.639297,1.590801c-0.79541,0.063648 -2.055359,0.874538 -2.78392,1.807739c-1.674591,2.145031 1.139557,4.547779 5.38707,4.627831c1.590805,0.029968 3.673325,0.58556 4.627823,1.1931c1.357285,0.86393 0.90921,1.267128 -2.133148,1.880058c-3.126373,0.629852 -3.54335,0.993992 -2.024673,1.843891c1.039276,0.581619 1.598358,1.535919 1.229263,2.133141c-0.374313,0.605659 1.313019,1.084648 3.832428,1.084648c3.0448,0.000011 5.207199,-0.756828 6.616318,-2.313908c1.60405,-1.772461 2.444839,-2.013901 3.651642,-1.012341c0.864975,0.717869 3.141541,2.15184 5.061676,3.181629c1.920151,1.029789 3.592209,2.400681 3.68779,3.036991c0.293396,1.953068 -3.603622,2.000389 -5.531677,0.072319c-1.000946,-1.00095 -1.295013,-1.807739 -0.650787,-1.807739c0.644226,0 1.486771,0.52063 1.880051,1.15696c0.393265,0.63633 1.580765,1.15694 2.639297,1.15694c1.485809,0.000019 1.306091,-0.43343 -0.759247,-1.880039c-2.209503,-1.547611 -3.19136,-1.618721 -5.712463,-0.470013c-2.736603,1.246861 -2.862839,1.51548 -1.048492,2.530842c2.120712,1.18679 1.678757,3.320499 -0.686935,3.290089c-0.827942,-0.010651 -0.681213,-0.483078 0.361542,-1.15696c0.954483,-0.616829 1.214798,-1.1208 0.578476,-1.1208c-1.898209,0 -4.621368,2.103439 -3.796249,2.928539c0.421051,0.421032 5.297607,0.947002 10.84642,1.193111c5.548828,0.246109 10.379913,0.726551 10.701843,1.048489c0.825409,0.82542 1.282501,0.767281 5.604004,-0.795399c3.981628,-1.439781 5.400848,-3.44376 1.771576,-2.49469c-2.871307,0.75087 -8.651215,-1.644112 -7.700958,-3.181622c0.426422,-0.689968 2.027618,-0.931778 3.579315,-0.542328c1.669861,0.419109 4.346191,-0.082661 6.544037,-1.229259c2.039703,-1.064121 4.434296,-2.279301 5.350922,-2.711613c0.916626,-0.432308 1.889343,-1.474159 2.169281,-2.313908c0.368958,-1.106922 -0.26828,-1.317902 -2.350067,-0.79541c-1.579315,0.396389 -3.208374,0.37096 -3.615479,-0.036152c-1.313477,-1.313469 1.760254,-3.832409 4.663971,-3.832409c1.550446,0 2.499207,-0.49231 2.133118,-1.08466c-1.181061,-1.91098 1.270874,-2.33474 5.061676,-0.903862c3.039795,1.147392 3.860901,1.10482 4.700134,-0.253078c0.560699,-0.907219 5.108673,-3.64349 10.087189,-6.037861c4.978546,-2.39439 8.444336,-4.344389 7.700989,-4.374729c-0.743378,-0.03035 -2.305267,-0.381071 -3.470856,-0.759251c-1.573639,-0.510571 -1.735107,-0.39337 -0.578491,0.433851c1.189545,0.85075 0.727692,1.403198 -1.988495,2.350069c-3.722565,1.297701 -5.789459,0.153101 -3.326263,-1.843901c0.788391,-0.639179 3.789032,-1.9289 6.652496,-2.89238c6.913055,-2.32608 11.56955,-4.499659 11.56955,-5.38707c0,-0.39699 -1.431732,-1.56414 -3.181641,-2.566999c-2.303986,-1.320421 -4.139038,-1.54841 -6.652466,-0.83156c-3.826721,1.091379 -6.88916,0.476789 -5.857086,-1.19311c0.984039,-1.592219 -4.898651,-2.5371 -11.714172,-1.88006c-3.299652,0.31811 -8.363922,0.11098 -11.280304,-0.43386c-1.458221,-0.272409 -2.878662,-0.41797 -3.940887,-0.433849c-0.265564,-0.00397 -0.502258,-0.01375 -0.723083,0z"/>
  <path fill="#ffffff" stroke="#000000" id="path3724" d="m389.431671,1.02947c-3.093811,0.032189 -5.304657,0.62122 -4.77243,1.48234c1.331604,2.1546 -2.630157,2.491489 -6.399414,0.54233c-2.81427,-1.45531 -4.375854,-1.6483 -6.327087,-0.75925c-1.781891,0.811879 -2.99234,0.80392 -3.832428,-0.03616c-1.607635,-1.60766 -4.844727,-0.2994 -4.844727,1.95237c0,2.329531 1.88028,2.28257 2.783905,-0.072309c0.610077,-1.58986 1.097839,-1.48722 3.507019,0.83156c1.891907,1.820879 2.444763,3.151079 1.69928,4.049339c-0.951935,1.147051 -6.798279,1.313511 -12.618042,0.361551c-4.364563,-0.713921 -8.016724,0.122728 -7.411713,1.69928c0.901154,2.34844 -1.321655,3.288719 -3.000854,1.265419c-1.7276,-2.08165 -3.581329,-2.27709 -3.181641,-0.325399c0.20813,1.01631 -1.657501,1.3304 -6.652496,1.08465c-6.605591,-0.32501 -14.294312,1.90303 -12.545715,3.65164c1.154968,1.154961 -2.124542,4.437761 -3.796265,3.796251c-0.832153,-0.319332 -1.810364,-0.110741 -2.169281,0.470009c-0.358917,0.580761 -1.304626,0.81023 -2.096985,0.506161c-1.894562,-0.72699 -10.71283,3.560249 -9.219482,4.4832c0.633118,0.391319 2.781464,0.245609 4.772461,-0.325382c4.76767,-1.367359 5.580841,0.1856 2.350037,4.555511c-1.787079,2.417149 -3.582397,3.507019 -5.78476,3.507019c-1.75174,0.000011 -3.505035,0.546402 -3.904724,1.1931c-0.399689,0.646709 -1.239105,0.843811 -1.843903,0.47002c-1.446075,-0.893749 -9.147156,1.662109 -9.147156,3.036991c0,1.073978 1.401581,1.3274 9.725647,1.554668c2.495789,0.068111 4.759399,0.758251 5.025513,1.554661c0.5336,1.596779 -0.422516,2.01833 -7.230957,3.253929c-4.157349,0.75449 -4.333771,0.918282 -1.735443,1.590801c1.59082,0.41177 2.63208,1.19194 2.313904,1.735451c-0.863495,1.475079 3.706696,2.774788 6.363251,1.807739c1.272644,-0.46328 6.44574,-0.92453 11.497253,-1.0485c5.051483,-0.123951 9.597931,-0.493031 10.087189,-0.795399c0.489258,-0.302361 1.61441,0.903259 2.530823,2.675449c0.916473,1.772217 2.783875,4.212532 4.121674,5.423225c1.337799,1.210701 2.422363,2.82209 2.422363,3.57933c0,0.75724 0.994995,2.266953 2.205444,3.362396c1.531952,1.386383 2.035431,3.024704 1.663116,5.38707c-0.615112,3.903015 1.330475,4.664597 2.313904,0.90387c0.531281,-2.031525 0.959961,-2.244484 2.313934,-1.120796c3.949829,3.278061 2.941498,7.321327 -2.133148,8.568687c-1.587402,0.390182 -1.191101,0.594879 1.265411,0.686943c1.969452,0.073822 4.437286,1.108391 5.495544,2.277756c1.800903,1.990021 1.802917,2.271301 -0.361542,4.230125c-2.179169,1.972115 -2.223175,2.14904 -0.325409,3.543175c1.846619,1.356537 1.760376,1.597755 -1.156952,2.711609c-1.749878,0.668106 -3.18161,1.800858 -3.18161,2.530838c0,0.965874 0.473206,0.945213 1.699249,-0.072311c2.687897,-2.230759 4.587341,-0.205788 2.241608,2.386223c-1.094574,1.209473 -1.515869,2.221359 -0.940002,2.2416c0.575867,0.020248 0.103149,0.753807 -1.048492,1.626961c-1.348785,1.022621 -1.633575,1.854408 -0.831573,2.350067c0.684814,0.423218 0.884552,1.381691 0.433838,2.133133c-0.524292,0.874199 -0.174255,0.816689 1.01236,-0.144623c2.100403,-1.701546 3.569702,-0.335899 2.133118,1.988518c-0.599579,0.970161 0.227661,3.289391 2.277771,6.327095c4.489105,6.651596 7.669647,9.302277 11.316467,9.364105c1.71521,0.029083 3.174377,0.686935 3.253906,1.482346c0.079559,0.79541 0.209717,1.742844 0.289246,2.096985c0.307281,1.368057 7.109863,-3.563721 7.230988,-5.242462c0.070404,-0.976349 0.035675,-2.895309 -0.072327,-4.266266c-0.108002,-1.370949 0.33844,-2.837433 1.012329,-3.253929c0.67392,-0.416489 1.229279,-1.711372 1.229279,-2.892387c0,-2.490295 10.171997,-11.880409 11.786469,-10.882607c0.597015,0.368996 2.58606,0.032776 4.410889,-0.723099c3.27298,-1.355705 4.879181,-3.548347 5.097839,-6.941727c0.061493,-0.954468 0.759247,-1.60527 1.554657,-1.44619c0.79541,0.159088 2.474304,-0.738861 3.723938,-1.988518c1.811798,-1.81176 3.761444,-2.2323 9.581024,-2.133141c4.48645,0.076454 8.619965,-0.579765 10.738007,-1.663116c1.895081,-0.969254 5.256897,-2.171333 7.484039,-2.675453l4.049347,-0.90387l-4.049347,-0.903877c-2.227142,-0.489098 -5.145569,-0.5849 -6.507874,-0.25309c-2.923859,0.712112 -4.868286,-1.617447 -2.205444,-2.639297c1.006104,-0.386063 1.688812,-1.561996 1.518494,-2.603142c-0.214966,-1.313354 0.697784,-1.98185 2.964691,-2.2416c2.509125,-0.287468 3.38681,0.182571 3.868591,2.024666c0.766815,2.932693 3.832397,3.191071 3.832397,0.325394c0,-2.696548 -6.280975,-6.403503 -9.255615,-5.459373c-3.152496,1.000526 -5.100983,-0.342354 -3.434723,-2.35006c0.988281,-1.190857 0.700989,-1.825737 -1.156952,-2.820091c-3.304138,-1.768326 -1.717896,-3.806129 2.27774,-2.928535c2.639374,0.579697 3.212921,0.339867 3.073181,-1.33773c-0.244598,-2.935493 3.760315,-2.69783 7.737122,0.470016c1.798706,1.432816 4.122864,2.603134 5.170135,2.603134c1.475708,0.000015 1.320831,-0.401443 -0.686951,-1.807724c-3.288147,-2.303177 -2.310242,-3.977036 2.350067,-3.977036c3.434662,0.000015 3.502441,-0.089264 1.373901,-1.69928c-1.235199,-0.934235 -1.720978,-1.784531 -1.084656,-1.880051c0.636322,-0.095528 -0.368713,-0.501907 -2.241608,-0.903866c-4.428467,-0.950401 -4.467804,-2.820202 -0.072296,-3.760101l3.470856,-0.723099l-3.687805,-0.14463c-2.030548,-0.075291 -4.001251,-0.624851 -4.374725,-1.229252c-1.134155,-1.835098 3.573669,-3.58046 7.556366,-2.783928c2.793457,0.558701 3.544434,0.404221 2.892395,-0.65078c-0.480835,-0.777981 -1.144165,-1.13353 -1.482361,-0.79541c-1.130341,1.13044 -5.141266,-1.79977 -4.555511,-3.326241c0.317719,-0.828152 0.003296,-2.05756 -0.68692,-2.74778c-0.901978,-0.901951 -0.3703,-1.580509 1.843872,-2.422359c1.694489,-0.644222 3.073181,-1.95377 3.073181,-2.892391c-0.000031,-0.93861 0.911102,-2.25658 2.024658,-2.964691c1.712616,-1.089088 1.569916,-1.220238 -0.976196,-0.686939c-3.60495,0.755081 -4.987427,-0.25386 -3.217773,-2.386219c0.718811,-0.866192 3.53775,-1.554661 6.363251,-1.554661c3.385376,0.000011 4.96579,-0.46172 4.772461,-1.410049c-0.159088,-0.780281 0.90155,-1.62324 2.350037,-1.84388c1.448517,-0.220652 3.978394,-1.072842 5.604004,-1.91621l2.928558,-1.518501l-4.627808,-0.79541c-2.549255,-0.430698 -5.563599,-0.294039 -6.724823,0.325392c-2.935181,1.565779 -7.619507,2.06209 -9.364105,0.976179c-0.806824,-0.502239 -3.013977,-0.153959 -4.917053,0.79541c-3.381409,1.68688 -5.521851,0.85029 -4.013184,-1.590811c0.501648,-0.811789 -2.036926,-1.104189 -7.737122,-0.83156c-6.19574,0.296341 -10.443146,1.310921 -15.691193,3.68779c-4.129822,1.870401 -8.015625,2.928902 -9.147186,2.494682c-2.852814,-1.094721 -1.079742,-2.371832 9.002563,-6.399401c5.726288,-2.287491 10.931671,-3.543171 14.6427,-3.543171c3.161713,0.00001 7.476013,-0.79221 9.617188,-1.771589l3.904724,-1.771591l-6.544037,0.686941c-6.8479,0.72562 -9.574829,-0.62887 -5.929382,-2.928541c2.311371,-1.458039 -8.703979,-0.88155 -21.005951,1.08465c-3.781525,0.60438 -7.348785,0.785591 -7.917908,0.433861c-1.722626,-1.06465 1.072571,-2.95339 5.748627,-3.90474c4.01767,-0.81741 3.811462,-0.90085 -2.530853,-0.94002c-3.817963,-0.023601 -7.983002,-0.150021 -9.255646,-0.28924c-1.157593,-0.126631 -2.294983,-0.19151 -3.326233,-0.18077z"/>
  <path fill="#ffffff" stroke="#000000" id="path3712" d="m331.222412,14.26214c1.57666,0.010201 3.189636,1.06712 2.530823,2.133141c-0.904266,1.46312 -3.708618,1.501089 -4.591675,0.072309c-0.366089,-0.59236 -0.098694,-1.425381 0.578491,-1.843901c0.42807,-0.264559 0.956787,-0.36495 1.482361,-0.361549z"/>
  <path stroke="#000000" fill="#ffffff" id="path3644" d="m793.46875,38.96875c-6.036133,15.433609 -27.023682,9.163792 -42.995911,13.652412c-13.906006,0.738121 2.082275,14.552559 -15.254089,8.410088c-19.468018,-4.727928 10.977539,20.726929 -3.25,13.03125c-1.967407,-8.120567 -24.526306,-8.869713 -10.837891,0.448402c-8.208984,-2.126183 -14.012207,-15.148041 -12.708679,1.441505c-0.393677,5.484093 22.614685,14.656502 11.283386,16.86972c-5.448059,-22.040161 -18.990173,17.83667 -24.964355,0.21653c15.404907,9.2062 13.267517,-39.603737 0.415039,-25.819908c-13.945557,5.380814 10.188538,26.154877 -9.514404,15.772377c-9.455627,-5.35318 -19.248535,6.216042 -20.923096,1.165123c-12.056335,5.264153 -22.663818,1.265053 -34.936279,10.529358c2.748718,-5.145119 -9.316223,-13.409836 -4.38092,-0.192085c-6.020935,3.125626 -14.119019,12.339195 -21.156128,8.986275c7.854919,16.216599 -25.122864,-17.888901 -2.647827,-6.946777c29.634155,2.680283 -4.422302,-19.959732 -16.62616,-15.675301c-2.993408,-3.214333 2.472778,-4.831818 -7.232971,-6.187248c-3.054749,4.408035 -7.620483,-5.409462 -11.750916,2.891228c-6.629822,-0.442558 -9.965576,4.304932 -17.831299,6.250801c-2.323853,8.61322 -13.279236,12.83567 -19.134399,18.680389c8.430237,12.233177 -21.864716,7.897469 -12.178101,26.694611c4.389771,9.755539 17.850525,-11.481522 17.65625,9.28125c5.55011,14.736862 22.578003,-9.077545 14.46814,-16.75647c2.192505,-8.961189 12.503296,-23.806313 21.37561,-21.43103c-4.05957,6.495354 -18.849426,31.118729 2.483154,22.929703c18.473755,-1.468719 5.773926,7.384613 -5.25592,5.993515c2.640259,9.588409 -0.056946,9.537003 -7.042664,10.416458c-1.394592,13.161453 -27.612732,17.165497 -33.49707,6.410324c-1.539551,-16.264465 1.356995,14.531326 -10.875,9.59375c-7.336487,6.755814 -17.659149,17.148254 -28.296936,18.468552c8.627228,4.976074 12.67099,27.879501 -6.265869,19.992233c-18.661682,0.1091 -5.561798,37.443039 11.89325,22.211258c7.44928,-11.293396 23.244873,-35.224304 37.720703,-18.736877c10.017761,1.727966 16.384766,26.100159 16.540833,7.952301c5.509949,5.203415 -26.806702,-25.963531 -7.436829,-18.046082c10.588684,6.1147 21.561279,31.319168 23.782349,24.533615c-1.002991,4.605286 -5.228821,9.766754 3.786621,2.023544c-12.562866,-13.438828 18.362244,-5.499344 12.497681,-22.605408c5.972656,-13.999817 12.25592,-7.863663 18.863403,-3.16449c-7.52832,-7.799194 15.796082,-12.262482 7.12616,-0.40419c14.348022,5.636047 11.336121,21.885605 -5.023865,13.306793c-11.181885,-5.908539 -37.970459,8.796463 -19.0625,18.25c14.031372,-3.213867 24.73053,0.240433 14.991699,16.303055c-8.29248,9.994217 -46.530029,8.704422 -40.563232,26.845932c18.072693,5.963013 33.616211,-22.078751 42.665283,-13.617737c7.958252,17.56543 18.9375,32.423431 23.302917,51.910339c16.499146,-2.532501 37.711731,-13.329773 45.248047,-30.015686c-7.946777,-5.653046 -8.553162,-18.323334 -17.129883,-6.249695c-12.528931,4.847534 -22.146606,-37.623627 -4.524109,-14.547333c14.11145,11.400757 42.084106,5.473236 50.790527,20.464874c-1.339844,10.001312 10.276855,-7.932587 7.4375,6.5625c0.395813,11.544373 7.673828,37.357208 15.271667,39.200623c1.927551,-20.413727 15.032593,-39.351868 34.665833,-46.013123c12.55365,1.725891 7.898254,27.653748 20.501648,19.97403c0.517822,21.429352 5.884644,14.488586 16.404602,16.24472c1.147217,15.525879 17.356384,5.994385 15.933899,-4.200104c-2.948486,-11.123932 -16.408081,-31.5242 2.972351,-28.424896c13.057983,-2.814575 36.675537,-17.254883 29.741943,-30.977936c7.057617,-4.350235 -11.792419,-20.401779 6.111938,-25.81279c0.263306,0.543182 -25.121277,-1.523758 -8.70282,-10.242447c13.594788,-10.541504 -0.421265,12.229645 10.419922,0.60228c10.707275,-1.746231 8.569885,30.782608 16.502319,12.397034c-9.85437,-9.843109 2.138062,-25.671753 12.508423,-24.578354c13.275391,-4.863434 34.060974,-45.196106 10.652893,-43.117401c-12.190918,-10.874496 19.358154,-28.748886 31.968994,-23.92627c14.173828,3.837891 18.572876,-3.575516 30.015137,-10.906616c8.872131,-0.166336 -2.242065,11.796967 10.376648,1.625595c12.671082,-12.248573 -8.114136,14.608719 -15.157898,16.655655c-9.187988,6.320602 -5.867554,38.732422 5.746765,19.311615c2.998901,-9.328079 12.531616,-12.118774 7.410095,-23.14537c9.295837,-14.827896 28.420776,-4.702377 41.507141,-16.824211c18.015808,2.68174 -14.267883,-18.258385 7.749084,-11.444382c2.506531,-17.918861 20.870483,13.167183 24.893188,-3.076309c13.000122,-7.520676 -10.30127,-4.499283 -9.274963,-6.477592c-10.846436,-15.760422 -39.554749,-16.625992 -46.500061,-10.1875c-18.915771,-0.357681 -29.592407,-10.932152 -47.875,-9.875c-5.460999,-5.808357 -11.218384,-6.573357 -18.420959,-3.608063c5.462646,-7.576981 -17.929382,-5.426399 -16.391541,2.264313c-11.985107,-2.068771 -32.710754,7.747276 -31.5625,-7.5c-1.750732,-8.939217 -23.241089,2.680733 -32.188843,-4.664238c-8.875427,7.027817 -13.507324,-11.080383 -17.623657,-3.523262c15.652771,6.863762 -6.065308,-2.768791 -0.59375,5.28125c-23.114929,7.844803 -2.498413,-8.313919 7.832031,-10.464111c3.522278,-12.745468 -27.474182,-0.844997 -24.269531,-12.504639l-1.65625,-0.15625zm-146.71875,142.25c5.966309,4.759567 -11.576294,9.074005 0.28125,17.28125c0.742249,5.847397 9.489014,1.029465 1.57605,7.554276c13.823181,18.32309 -20.299377,14.003738 -8.32605,-2.991776c-7.243408,-8.300797 -8.784607,-22.162857 6.46875,-21.84375zm23.28125,2.9375c4.882996,11.734268 -11.86731,7.683121 0,0z"/>
  <path fill="#ffffff" stroke="#000000" id="path3562" d="m252.73027,61.516487c-3.474396,0.000015 -8.641006,4.255226 -8.641006,7.122505c0,3.289696 3.62532,9.061577 5.748611,9.147186c0.976379,0.039368 6.97789,0.242668 13.341141,0.433838c8.041107,0.2416 12.980927,0.973427 16.197357,2.422386c2.545319,1.146614 5.55249,2.1688 6.68866,2.277756c3.526733,0.338234 4.885895,2.526588 3.036987,4.880905c-1.469788,1.871529 -1.429047,1.914948 0.325409,0.54232c1.657867,-1.297066 2.126129,-1.176796 3.18161,0.795403c0.680695,1.271927 1.229279,3.032806 1.229279,3.940887c0,1.115593 0.88501,1.513023 2.747742,1.156944c3.376343,-0.645432 4.796051,1.211662 2.422394,3.181633c-1.415161,1.174492 -2.118408,1.084579 -3.796265,-0.433861c-1.883698,-1.70472 -2.302246,-1.690392 -4.663971,-0.036163c-2.055969,1.440071 -2.302643,2.141365 -1.229279,3.434715c0.744598,0.897148 0.880585,1.650475 0.325409,1.69928c-0.555145,0.048798 -3.330261,0.178955 -6.182465,0.289238c-3.918365,0.151497 -5.305939,0.711777 -5.604004,2.2416c-0.285278,1.463997 0.3703,2.037483 2.313904,2.024673c1.478394,-0.009743 3.376801,-0.471481 4.230103,-1.012344c1.674286,-1.061172 10.593384,2.619743 10.593384,4.374741c0,0.55249 1.392578,1.376877 3.109314,1.807739c2.373749,0.595764 2.75766,1.005753 1.518494,1.771584c-1.130554,0.698708 -0.550293,0.974007 1.916199,0.903877c1.955139,-0.05558 5.588562,0.957642 8.062531,2.241585c5.842712,3.032242 5.783325,3.04425 3.2901,0.289246c-2.085785,-2.304741 -2.099731,-2.40448 0.180756,-3.000847c3.703125,-0.968384 2.54895,-4.919815 -3.109314,-10.521049c-4.921265,-4.871727 -5.052277,-5.148621 -2.892365,-6.760963c3.030609,-2.262291 3.336884,-2.165192 7.628662,1.843903c2.906128,2.714737 4.088348,3.187126 5.314758,2.169289c0.867645,-0.7201 1.279053,-1.815315 0.90387,-2.422371c-0.375183,-0.607063 0.409485,-1.379242 1.771576,-1.735428c2.309998,-0.60408 2.341705,-0.799416 0.578491,-2.747772c-1.039703,-1.148872 -2.514343,-1.852348 -3.2901,-1.554657c-0.775787,0.297668 -2.371124,-0.512665 -3.543182,-1.807747c-1.180115,-1.304024 -3.586761,-2.35006 -5.387054,-2.35006c-3.890289,0.000015 -6.740601,-3.912804 -3.97702,-5.459373c0.92984,-0.520386 1.352234,-1.456856 0.90387,-2.096985c-1.037537,-1.481239 -7.447784,-4.500465 -8.821777,-4.157822c-0.572205,0.142715 -1.873779,-0.074738 -2.892395,-0.469994c-1.624481,-0.630341 -1.572144,-0.900375 0.397705,-2.350067c1.878601,-1.382584 1.941101,-1.663139 0.361542,-1.663139c-1.038574,0.000015 -2.208801,0.518936 -2.603149,1.15696c-0.445435,0.720741 -1.461212,0.758316 -2.675446,0.108467c-1.074951,-0.575287 -2.472992,-1.0942 -3.109314,-1.156944c-0.636322,-0.062767 -1.156952,-0.686256 -1.156952,-1.373886c0,-2.260086 -3.879852,-4.13916 -7.447906,-3.615486c-1.926697,0.282776 -3.244385,0.9851 -2.892395,1.554649c1.040192,1.683037 -2.846191,2.557106 -4.663971,1.0485c-0.918488,-0.762314 -2.163696,-1.070259 -2.783905,-0.686943c-1.568024,0.969093 -3.042786,-1.722115 -2.639313,-4.844757c0.265747,-2.056664 -0.227966,-2.596054 -2.350067,-2.566978c-1.477295,0.020248 -3.452759,0.671028 -4.410889,1.44619c-2.007263,1.62397 -2.614563,7.708694 -0.976166,9.689491c0.727631,0.879738 0.62027,1.643333 -0.289246,2.205444c-2.116486,1.30806 -4.524124,-2.867096 -4.338577,-7.52021l0.144623,-4.121651l0.723083,4.627831c0.6194,3.977104 0.818344,4.253395 1.482346,1.916206c1.095032,-3.854202 -1.200226,-8.279472 -4.302414,-8.279472z"/>
  <path fill="#ffffff" stroke="#000000" id="path3554" d="m231.438004,71.625c-0.436996,-0.011597 -0.820007,0.115303 -1.188004,0.3125c-4.227997,2.262901 -4.343994,8.093697 -0.156006,8.093697c3.145004,0.000107 3.492004,0.976006 1.656006,4.656303c-2.190002,4.390503 -3.281998,4.986504 -6.061996,3.25c-1.731003,-1.080704 -2.947998,-1.108101 -4.969009,-0.125c-4.801987,2.335503 -12.225998,2.767502 -16.530991,0.968498c-2.225998,-0.929596 -4.063004,-2.237198 -4.063004,-2.905998c0,-1.337097 -5.639008,-1.669701 -8.686996,-0.5c-1.53801,0.589897 -1.60701,0.969704 -0.376007,1.75c0.848999,0.538002 2.327011,0.941002 3.281998,0.905998c1.144012,-0.041695 0.932007,-0.406601 -0.593994,-1.062195c-1.886002,-0.8106 -1.938995,-1.027504 -0.343994,-1.093803c2.987991,-0.124199 3.813995,2.304001 1.031998,3.030998c-1.804001,0.472 -2.354004,1.445999 -2.126007,3.594002c0.421005,3.943001 -2.317993,4.653 -3.718002,0.969002c-1.307999,-3.441002 -5.194,-4.742004 -11.655991,-3.875c-5.210999,0.698997 -8.518005,-1.629501 -5.063004,-3.562805c1.804001,-1.009499 1.776001,-1.217094 -0.563004,-2.468697c-1.919998,-1.027802 -2.977997,-1.040298 -4.155991,-0.0625c-1.195999,0.992798 -2.525009,0.830803 -5.437012,-0.6875c-5.087997,-2.652298 -12.71199,-4.022797 -14.437988,-2.593697c-0.909012,0.7528 -2.506012,0.521294 -4.843002,-0.687607c-3.262009,-1.6866 -3.798996,-1.660995 -7.344009,0.468803c-9.339996,5.610199 -12.789993,7.116699 -13.843994,6.0625c-0.682999,-0.683296 0.750999,-2.210403 3.875,-4.093697c2.744003,-1.6539 4.373993,-3.037704 3.593994,-3.062607c-0.779991,-0.024796 -3.075996,1.003502 -5.124992,2.25c-2.991005,1.818604 -4.090004,1.997307 -5.532005,0.875c-1.504997,-1.1717 -1.574997,-1.141296 -0.5,0.312607c1.584007,2.140793 2.898003,8.728195 1.938004,9.687195c-1.269997,1.271004 -3.844002,-1.812996 -3.844002,-4.624802c0,-1.512894 -0.365997,-2.763794 -0.844002,-2.812393c-1.940994,-0.198105 -4.598999,-0.975906 -9.405998,-2.718803c-2.783997,-1.009499 -6.276497,-1.843803 -7.749802,-1.843803c-1.473198,0.000107 -2.961494,-0.494598 -3.312393,-1.062393c-0.351006,-0.567902 -3.756302,-1.071007 -7.593803,-1.125c-3.837601,-0.0541 -8.054703,-0.6082 -9.3125,-1.281303c-1.560303,-0.835098 -2.9729,-0.863098 -4.468697,-0.0625c-1.627907,0.871201 -2.539406,0.708 -3.593803,-0.5625c-0.781097,-0.941101 -2.893997,-1.6875 -4.6875,-1.6875c-1.793499,0 -3.587601,-0.582802 -4,-1.25c-0.5186,-0.839104 -1.2234,-0.784203 -2.2813,0.093803c-1.0452,0.867393 -1.7742,0.882698 -2.2812,0.062393c-0.482399,-0.780495 -1.752102,-0.5504 -3.5938,0.656303c-1.557602,1.020599 -2.8027,1.4254 -2.812401,0.875c-0.0098,-0.5504 -0.514198,-0.291 -1.0938,0.625c-0.579601,0.916 -2.455101,1.892998 -4.1875,2.125c-1.732399,0.232002 -4.155701,1.691399 -5.4063,3.281303c-1.250599,1.589798 -2.579899,2.638695 -2.9062,2.312393c-0.326302,-0.326294 -2.075699,0.178505 -3.9062,1.125l-3.312599,1.718803l3.75,3.219002c3.570198,3.075996 7.092701,5.059998 9.437599,5.280998c2.0784,0.195999 1.932102,2.879997 -0.2188,4.030998c-1.57,0.840004 -3.046799,0.707001 -5.3125,-0.467995c-2.065102,-1.072006 -3.8456,-1.274002 -5.125,-0.594002c-1.0758,0.570999 -3.0086,1.383995 -4.2813,1.811996c-2.239799,0.754005 -2.2199,0.817001 0.2813,1.782005c1.548201,0.597 2.3417,1.620995 1.9687,2.592995c-0.959501,2.500999 9.944599,3.520004 11.7188,1.094002c1.717899,-2.348999 3.6189,-1.124001 3.375,2.186996c-0.1856,2.520004 -5.9669,7.009003 -7.75,6c-0.453999,-0.255997 -1.890301,0.610001 -3.2188,1.938004c-1.6863,1.686005 -2.197001,3.192993 -1.6562,4.968994c1.190102,3.909012 4.2327,6.78801 6.5312,6.187012c1.140099,-0.298004 2.5145,0.23999 3.062599,1.218994c1.3606,2.431 8.734501,4.875 10.9687,3.625c2.412701,-1.350006 3.361401,0.533005 2.0313,4.031006c-1.245899,3.276993 -5.655899,6.633987 -12.1563,9.343994c-2.483898,1.035995 -4.250099,2.156006 -3.9375,2.468994c0.546001,0.546005 6.576199,-1.926987 10.1875,-4.155991c0.954498,-0.589996 3.583,-2.053009 5.8437,-3.281998c4.722301,-2.565002 11.683399,-9.305008 10.9063,-10.562012c-0.288399,-0.466995 0.239998,-1.494995 1.1875,-2.281998c0.947502,-0.785995 1.718803,-2.106995 1.718803,-2.905991c0,-2.300003 3.265396,-4.366013 5.5,-3.5c1.940895,0.752991 1.926895,0.862 0,2.281998c-1.764404,1.298996 -2.890305,5.280991 -1.5,5.280991c2.564194,0 6.548393,-2.620987 6.031197,-3.968994c-1.120399,-2.919998 4.0709,-5.026001 5.9375,-2.406006c1.452698,2.039001 6.447502,3.859009 12.531303,4.562012c3.253197,0.375992 8.426193,1.944 11.500198,3.5c3.793999,1.92099 6.009995,2.487991 6.936996,1.718994c0.953003,-0.791 1.937004,-0.285995 3.25,1.718994c1.035004,1.57901 1.875,3.227005 1.875,3.625c0,1.179001 5.090004,5.052002 6.688004,5.093002c2.450005,0.064011 5.172005,7.738007 3.530998,9.969009c-0.574005,0.780991 0.223999,1.804993 2.093994,2.656998c2.981003,1.358002 3.011002,1.412003 0.906006,3.936996c-1.175003,1.410004 -1.438995,1.953003 -0.561996,1.186996c2.203995,-1.927002 6.559998,0.294006 4.780991,2.438004c-1.445999,1.742004 -0.472,3 2.312012,3c2.90799,0 12.656998,9.600006 12.656998,12.468994c-0.001007,2.746002 -1.781998,4.363007 -2.876007,2.593002c-1.610001,-2.604996 -2.317001,-0.847992 -2.436996,6.031998c-0.070007,3.977005 -0.315994,10.369003 -0.531006,14.187012c-0.409988,7.25 2.429001,15.79599 5.062012,15.280991c0.707001,-0.138 1.342987,0.880005 1.437988,2.25c0.264008,3.806 5.093002,10.832001 8.25,12.031998c1.552002,0.590012 2.484009,1.630005 2.062012,2.312012c-0.459,0.743988 0.087997,1.095993 1.375,0.875c1.679993,-0.287003 2.567993,1.007996 4.218994,6c1.156998,3.5 3.119003,7.440979 4.343994,8.75c1.612,1.723999 1.886002,2.738983 0.968002,3.656982c-0.916992,0.917023 -0.285995,2.121002 2.313004,4.437012c1.973999,1.759003 3.621002,4.266998 3.656006,5.593994c0.069,2.593994 6.455994,8.419006 7.780991,7.093018c0.44101,-0.440002 -0.110001,-1.286011 -1.218002,-1.906006c-1.108994,-0.619995 -2,-1.671997 -2,-2.343994c0,-0.671021 -1.559998,-3.546021 -3.468994,-6.374023c-1.908997,-2.828979 -3.470993,-5.523987 -3.468994,-5.968994c0.001999,-0.445984 -1.172012,-2.971985 -2.594009,-5.656982c-1.996994,-3.771011 -2.280991,-5.218018 -1.218002,-6.281006c1.583008,-1.583008 4.968002,0.501999 4.968002,3.062988c0.001007,0.806 2.324997,4.673004 5.188004,8.562012c2.863007,3.889984 5.218994,7.449005 5.218994,7.968994c0,0.519989 1.746002,2.998993 3.875,5.5c5.128006,6.024994 6.552002,8.890991 5.812012,11.718994c-0.795013,3.039001 2.926987,5.988007 15.5,12.218018c8,3.963989 10.07399,4.574982 11.843994,3.468994c1.75,-1.093018 2.875,-0.800995 6.311996,1.531006c5.449005,3.697998 12.869003,7.437988 14.688004,7.437988c2.863998,0 7.906006,6.14801 7.906006,9.625c0,2.862 0.25,3.194 1.687988,2c1.402008,-1.164001 1.934021,-0.958008 2.968018,1.312988c0.792999,1.739014 2.399994,2.844025 4.281982,3c1.64502,0.136017 3.584991,0.740021 4.312012,1.343018c0.885986,0.734985 1.757996,0.36499 2.687988,-1.125c3.101013,-4.966003 8.363007,2.483002 8.187012,11.593994c-0.078003,4.065002 -0.907013,6.18399 -3.906006,9.843994c-2.102997,2.56601 -4.471008,7.186005 -5.25,10.281006c-1.279999,5.080994 -1.223999,5.76001 0.656006,6.812988c1.967987,1.101013 1.924988,1.263 -0.375,3.031006l-2.406006,1.875l3.812012,8.687012c2.112976,4.77298 5.108978,12.550995 6.625977,17.281006c2.332001,7.277985 3.436005,9.052002 7.156006,11.562988c2.417999,1.631989 6.27002,4.643005 8.562012,6.718994l4.156006,3.781006l-1.437012,19.937012c-0.785004,10.970001 -1.548004,22.812988 -1.718994,26.312988c-0.203003,4.15799 -1.393005,8.540009 -3.468018,12.625c-2.291992,4.510986 -3.002991,7.208008 -2.5,9.718994c0.382019,1.912994 0.072021,5.209015 -0.687988,7.312012c-1.080994,2.988007 -1.080994,4.389984 0.031006,6.468994c1.699982,3.177002 1.199982,15.393982 -0.718994,17.312012c-0.997009,0.997986 -1.509003,0.835999 -2.093018,-0.687012c-0.61499,-1.60199 -1.007996,-1.719971 -1.781006,-0.5c-1.25,1.969971 -1.278992,3.594971 -0.062988,2.843994c1.328003,-0.820984 7.43399,5.953003 6.593994,7.312012c-0.382996,0.619019 -1.355988,0.862976 -2.218994,0.531006c-1.214996,-0.466003 -1.47699,0.644958 -1.187988,4.937988c0.205994,3.047974 -0.249023,6.257996 -0.968018,7.125c-1.007996,1.215027 -0.914001,1.492981 0.375,1.218994c2.472992,-0.526978 8.263,3.705994 7.562012,5.531006c-1.084015,2.825012 1.212982,1.617981 2.562988,-1.343994c0.725006,-1.591003 1.850006,-2.875 2.5,-2.875c0.649994,0 1.187012,-1.226013 1.187012,-2.718018c0,-1.492981 1.03598,-3.657959 2.312988,-4.812988c1.276001,-1.155029 2.08902,-2.380005 1.781006,-2.687012c-0.308014,-0.307983 1.054993,-2.375 3.031006,-4.625977c3.493988,-3.979004 3.516998,-4.095032 1.156006,-4.968018c-4.667023,-1.72699 -4.226013,-10.281982 0.531982,-10.281982c1.01001,0 1.593994,-1.29303 1.593994,-3.562012c0,-2.619995 0.630005,-3.770996 2.343018,-4.218994c1.983002,-0.518005 2.080994,-0.800995 0.656982,-1.906006c-0.925995,-0.71701 -1.859985,-2.35199 -2.062988,-3.625c-0.298004,-1.86499 0.278015,-2.312012 2.968994,-2.312012c3.209991,0 4.472015,-1.177002 5.781006,-5.437988c0.421997,-1.375 2.450012,-2.20401 6.562988,-2.75c9.456024,-1.253998 11.687012,-5.429993 6.343018,-11.781006c-3.476013,-4.131989 -2.725006,-5.363007 1.718994,-2.812988c3.046997,1.748993 3.569,1.738983 7.281006,-0.031006c4.023987,-1.919006 6.915985,-5.880005 13.031006,-18.062988c2.474976,-4.929016 2.850983,-6.708008 1.906982,-8.781006c-0.652008,-1.429993 -0.837982,-3.175995 -0.406982,-3.875c0.858002,-1.388 9.108002,-7.187012 10.218994,-7.187012c0.378998,0 1.263,-0.786987 1.968994,-1.718994c0.705994,-0.932007 3.360992,-1.878998 5.875,-2.125c4.395996,-0.429993 4.647003,-0.725006 7.718994,-7.843994c2.605011,-6.036011 3.21402,-9.138 3.25,-16.875c0.031006,-6.666992 0.502014,-9.787018 1.593994,-10.437012c0.852997,-0.509003 3.453003,-3.743988 5.781006,-7.156982c5.583008,-8.183014 5.89502,-14.262024 0.843018,-16.874023c-1.870026,-0.967987 -4.072021,-2.717987 -4.906006,-3.906982c-1.115021,-1.589996 -3.406006,-2.311005 -8.625,-2.687012c-6.085999,-0.440002 -7.641998,-1.048004 -10.812012,-4.218994c-4.468994,-4.468994 -6.473999,-4.605011 -9.531006,-0.718994c-1.645996,2.09198 -3.218994,2.843994 -5.375977,2.593994c-3.675018,-0.425995 -3.636017,-2.40799 0.062988,-3.281006c1.466003,-0.346008 2.821991,-1.507996 3.031006,-2.593994c0.562988,-2.924011 -1.522003,-2.438995 -5.937012,1.437012c-2.15799,1.894989 -4.240997,3.134979 -4.625,2.75c-1.217987,-1.21701 6.201019,-10.928009 7.687012,-10.062012c0.755981,0.44101 0.334991,-0.394989 -0.937012,-1.843994c-1.27298,-1.449005 -2.194,-2.933014 -2.062988,-3.343994c1.360992,-4.253998 -6.184021,-10.593018 -12.593018,-10.593018c-3.186981,0 -5.000977,-0.953003 -8.312988,-4.343994c-2.329987,-2.385986 -5.516998,-5.576996 -7.093994,-7.093994c-1.576996,-1.515991 -2.524017,-3.291016 -2.125,-3.937012c0.479004,-0.773987 -1.319,-0.919983 -5.187012,-0.406006c-3.691986,0.489014 -6.122009,0.326019 -6.593994,-0.437988c-0.412994,-0.669006 -1.346008,-1.118988 -2.093994,-1c-2.308014,0.367004 -7.735016,-2.317993 -7.812012,-3.875c-0.040985,-0.811005 -0.549988,-0.307007 -1.125,1.125c-0.575989,1.432007 -1.527985,2.593994 -2.125,2.593994c-0.597992,0 -0.846008,0.985992 -0.531006,2.187012c0.822998,3.148987 -1.59198,4.115997 -3.125977,1.25c-1.016022,-1.899994 -0.883026,-3.011993 0.562988,-5.218994c2.378998,-3.631012 0.627991,-3.628021 -2.781006,0c-1.451996,1.544983 -3.341003,2.493988 -4.218994,2.156982c-1.467987,-0.563995 -2.011993,0.343018 -4.593994,7.625c-0.442017,1.246002 -1.242004,0.966003 -3.468994,-1.125c-2.612,-2.454987 -3.324005,-2.583008 -7.5,-1.468994c-4.404999,1.175995 -4.765015,1.084991 -7.624023,-2.312012c-2.751984,-3.269989 -2.953003,-4.17099 -2.281982,-10.718994c0.722992,-7.05899 0.725983,-7.165985 -2.437012,-8.062988c-1.760986,-0.498993 -5.054001,-0.919006 -7.280991,-0.968018c-3.792999,-0.084991 -4.009003,-0.356995 -3.656998,-3.593994c0.207001,-1.902008 0.779999,-3.980988 1.280991,-4.625c0.501999,-0.643982 1.244003,-3.358002 1.656998,-6.062988c0.665009,-4.358002 0.496002,-4.906006 -1.5,-4.906006c-5.084991,0 -8.029999,2.105011 -8.406998,6c-0.338989,3.506989 -0.737,3.848999 -5.5,4.656006c-6.429001,1.089996 -9.507996,-0.696014 -12.75,-7.406006c-2.276993,-4.714996 -3.222992,-14.713989 -1.530991,-16.406006c0.459,-0.458984 0.681992,-2.604004 0.5,-4.718994c-0.289001,-3.356995 0.225998,-4.160004 4.062988,-6.531006c5.20401,-3.216003 6.49501,-3.5 10.594009,-2.218994c1.703003,0.532013 4.854004,1.252991 7,1.625c3.485992,0.605011 3.722992,0.506012 2.343002,-1.156006c-1.313004,-1.582001 -1.181,-2.117981 0.75,-3.531998c1.457001,-1.065994 3.299988,-1.375 5.156998,-0.843002c1.589996,0.455002 4.271988,0.766006 5.968002,0.687012c3.516998,-0.164001 6.570984,3.524994 7.156006,8.687988c0.449982,3.96402 3.138977,8.406006 5.093994,8.406006c1.967987,0 1.830994,-1.509003 -0.875,-10.968994c-1.272003,-4.450012 -2.312012,-8.803009 -2.312012,-9.656006c0,-0.852997 2.782013,-4.348999 6.187012,-7.781006c3.406006,-3.432999 5.971008,-6.528992 5.656006,-6.843994c-0.314026,-0.315002 0.23999,-0.880997 1.281982,-1.281006c1.041992,-0.399994 1.636993,-1.130997 1.312012,-1.656998c-0.325012,-0.524994 -0.02301,-1.317001 0.625,-1.718002c0.79599,-0.491989 0.737,-1.478989 -0.093018,-3.031998c-1.431976,-2.675003 -0.992981,-8.530991 0.624023,-8.530991c0.608002,0 1.432983,1.283997 1.875977,2.875c0.65802,2.365997 0.843018,2.472992 0.937012,0.562988c0.175995,-3.556992 5.71701,-10.968994 8.187012,-10.968994c4.332977,0 5.829987,-1.190002 4.406982,-3.468994c-1.024994,-1.641006 -0.884979,-2.742004 0.656006,-5.093002c1.083008,-1.654007 2.757996,-3 3.718994,-3c0.960999,-0.001007 4.186005,-1.242996 7.187012,-2.75c3.733002,-1.875 6.199005,-2.445007 7.781006,-1.813004c1.334991,0.533005 1.636993,0.983994 0.687988,1.031006c-2.300995,0.113998 -5.906006,3.549988 -5.906006,5.655991c0,1.404007 0.515015,1.296997 2.593994,-0.561996c1.431,-1.281006 4.290009,-3.014999 6.312012,-3.811996c2.022003,-0.798004 3.984009,-2.189011 4.343994,-3.126007c0.359009,-0.935989 1.140015,-1.395996 1.781006,-1c0.640991,0.397003 1.187012,0.255997 1.187012,-0.311996c0,-2.352997 -1.483002,-2.173004 -4.187012,0.531006c-2.309998,2.310989 -3.18399,2.617996 -4.531006,1.5c-0.92099,-0.764008 -1.30899,-1.99501 -0.875,-2.719009c0.587006,-0.981003 0.338013,-0.981003 -0.906982,0c-1.315002,1.03801 -2.319,0.654007 -4.781006,-1.873993c-3.263,-3.350998 -3.162018,-4.626007 0.406982,-4.626007c1.189026,0 2.124023,-0.815994 2.124023,-1.873993c0,-2.928009 -7.755005,-1.202011 -11.75,2.623993c-2.312012,2.216003 -3.644012,2.824997 -4.5,1.969009c-1.690002,-1.690002 8.207977,-10.304001 12.937988,-11.25c1.98999,-0.39801 6.169006,-0.719009 9.312012,-0.719009c3.143982,0 6.860992,-0.627991 8.25,-1.373993c1.389984,-0.747009 4.09198,-1.669998 6,-2.063004c3.009979,-0.619003 3.468994,-1.227005 3.468994,-4.531006c0,-5.085999 -1.455017,-6.011993 -6.656006,-4.218994c-2.946014,1.014999 -4.591003,1.125 -5.093994,0.313004c-0.940002,-1.520996 2.769989,-4.318008 5.906982,-4.438004c1.684021,-0.065002 1.883026,-0.257996 0.656006,-0.718994c-0.954987,-0.358002 -3.087982,-1.618011 -4.75,-2.781006c-1.662994,-1.162994 -3.306,-1.850006 -3.625,-1.531006c-0.319,0.319 -1.414001,-0.733002 -2.468994,-2.343994c-1.054993,-1.610992 -1.569,-2.936996 -1.125,-2.936996c0.444,-0.001007 -0.372009,-1.219009 -1.781006,-2.719009c-1.408997,-1.5 -2.830994,-4.203995 -3.156006,-6c-0.944977,-5.210999 -1.589996,-5.435989 -5.062988,-1.718994c-1.958008,2.095993 -3.96701,3.240005 -5,2.843994c-0.950012,-0.36499 -2.082001,-0.071991 -2.531006,0.656006c-0.554993,0.897995 -1.621002,0.470001 -3.281982,-1.311996c-2.727997,-2.930008 -3.431,-5.300003 -1.843018,-6.281998c1.627991,-1.006012 1.257019,-3.968002 -0.5,-3.968002c-0.862,0 -3.063995,-1.417999 -4.906982,-3.156998c-2.605011,-2.458008 -4.591003,-3.243004 -8.906006,-3.375008c-5.186005,-0.157997 -5.673004,0.116005 -7.093994,3.500008c-1.007019,2.398987 -1.118011,4.297989 -0.406006,5.687988c0.713989,1.393005 0.571991,2.678009 -0.343994,3.781006c-0.758026,0.914001 -0.973022,1.656006 -0.5,1.656006c0.473999,0 0.279999,0.697998 -0.437012,1.562988c-0.996002,1.200012 -0.73999,2.279007 1.031006,4.531006c2.854004,3.628006 2.936005,7.514008 0.281982,11.281006c-1.303986,1.849991 -2.083984,5.315994 -2.187988,9.75c-0.118988,5.067001 -0.65799,7.216995 -2.156006,8.312988c-1.752991,1.281006 -2.673981,0.927002 -6.625,-2.780991c-4.173004,-3.917007 -4.505005,-4.725998 -4.031006,-9.094009l0.5,-4.812988l-5.125977,-0.562012c-3.356018,-0.378998 -7.309006,-2.043991 -11.374008,-4.843994c-3.421997,-2.356003 -6.721008,-3.979004 -7.344009,-3.593994c-1.403,0.866989 -2.942993,-1.473999 -3,-4.562012c-0.031998,-1.727997 -0.681992,-2.207993 -2.625,-1.937988c-1.905991,0.264999 -2.896988,-0.431 -3.718994,-2.593002c-1.613998,-4.247009 -0.289001,-7.033005 7.188004,-14.876007c1.753998,-1.839996 2.901993,-3.792 2.561996,-4.342995c-0.845001,-1.368004 3.544006,-3.556 5.561996,-2.780998c0.895996,0.342995 2.87001,-0.404007 4.406998,-1.657005c3.036011,-2.475998 3.199005,-2.288002 -3.468994,-4.342995c-3.056,-0.943001 0.613998,-2.921005 4.688004,-2.532005c3.60199,0.345001 3.917999,0.709999 4.25,4.719002c0.259995,3.153999 -0.125,4.546997 -1.469009,5.063004c-1.475998,0.565994 -1.196991,1.061996 1.375,2.405998c3.041016,1.588997 3.343994,1.516998 5.406006,-1.219002c2.045013,-2.712997 2.345001,-2.793999 4.843994,-1.155998c1.472015,0.963997 3.221008,1.416 3.843994,1.030998c1.834015,-1.134003 -3.865997,-6.373001 -7.781982,-7.155998c-1.972015,-0.395004 -4.381012,-1.953003 -5.375,-3.469002c-1.88501,-2.876999 -1.652008,-3.141998 2.5,-2.813004c2.742004,0.218002 9.593994,-2.908997 9.593994,-4.373993c0,-0.499001 -0.722992,-1.923004 -1.625,-3.157005c-1.181,-1.614998 -1.263,-2.648697 -0.375,-3.718498c1.653015,-1.992203 -2.065002,-4.794197 -6.406006,-4.843697c-2.751007,-0.031403 -3.046997,0.281998 -2.093994,2.062393c0.851013,1.590202 0.355988,3.006401 -1.936996,5.937805c-2.820007,3.601997 -3.059998,3.687996 -4.5,1.719002c-0.846008,-1.157005 -1.563004,-3.234207 -1.563004,-4.625504c0,-1.391296 -0.744003,-3.149399 -1.656006,-3.906303c-1.335999,-1.108795 -2.030991,-0.791397 -3.593994,1.593803c-2.089005,3.188004 -4,2.972198 -4,-0.4375c0,-1.191101 -1.087006,-2.411697 -2.5,-2.781303c-1.953003,-0.510796 -2.201996,-0.965096 -1.186996,-2.187393c1.793991,-2.162102 -2.447006,-6.887901 -5.5,-6.968803zm16.123993,96.343994c0.637009,0 1.156998,0.520004 1.156998,1.156006c0,0.636002 -0.519989,1.156006 -1.156998,1.156006c-0.636002,0 -1.155991,-0.520004 -1.155991,-1.156006c0,-0.636002 0.519989,-1.156006 1.155991,-1.156006zm2.344009,6.312012c0.123993,-0.009003 0.244995,-0.009003 0.375,0c0.625992,0.043991 1.322998,0.281998 2.280991,0.718994c1.650009,0.751999 3.76799,3.054993 4.750015,5.125c1.494995,3.149002 2.694977,3.949005 7.218994,4.781006c2.973999,0.546997 5.604004,1.653992 5.875,2.468994c0.270996,0.815002 -0.149017,1.335007 -0.968018,1.156006c-0.852997,-0.186005 -1.792999,1.17099 -2.187988,3.156998c-0.690002,3.466003 -0.701996,3.444 -2.156006,0.811996c-0.800995,-1.449997 -1.860992,-2.367996 -2.406006,-2.031006c-0.54599,0.337006 -0.756989,-0.375 -0.437988,-1.593994c0.376007,-1.436005 -0.256989,-2.669998 -1.75,-3.468994c-1.933014,-1.034012 -2.614014,-0.680008 -4.375,1.968994c-1.154999,1.737 -2.406006,5.479996 -2.75,8.343994c-0.397003,3.300003 -0.962006,4.652008 -1.563004,3.719009c-0.519989,-0.809998 -0.774994,-2.889999 -0.593002,-4.626007c0.182007,-1.735001 -0.008987,-3.638 -0.406998,-4.280991c-1.007996,-1.631012 1.570999,-4.878006 4.313004,-5.406006c6.579987,-1.266998 -3.651993,-5.649994 -11.375,-4.875c-4.292007,0.431 -4.520996,0.356003 -1.968994,-0.75c1.590988,-0.688995 4.000992,-2.300995 5.343994,-3.561996c1.138,-1.070007 1.912003,-1.589996 2.781006,-1.656998zm22.343994,8.030991c0.496002,-0.074997 1.002014,0.111008 1.281006,0.563004c0.372986,0.602997 0.196991,1.408997 -0.406006,1.781006c-0.602997,0.373001 -1.408997,0.196991 -1.781006,-0.406006c-0.372986,-0.602997 -0.196991,-1.378006 0.406006,-1.75c0.151001,-0.093002 0.334991,-0.162003 0.5,-0.188004zm9.875,8.969009c0.135986,-0.014999 0.222992,-0.014999 0.312988,0c0.239014,0.041992 0.317017,0.210999 0.218018,0.468994c-0.343018,0.893997 -2.343994,2.070007 -4.468018,2.656006c-2.125,0.58699 -5.645996,2.440994 -7.812988,4.093994c-2.166992,1.653 -4.615997,3 -5.437012,3c-2.238983,0 3.112,-3.684998 11.187012,-7.75c8.075012,-4.065002 5.050995,-2.362 6,-2.468994z"/>
  <path fill="#9acbff" id="path3530" d="m125.501427,83.534782c-0.63633,0 -1.937897,0.503967 -2.892387,1.120804c-0.954491,0.616867 -1.214798,1.120796 -0.578468,1.120796c0.636322,0 1.937889,-0.50396 2.89238,-1.120796c0.954491,-0.616829 1.214798,-1.120804 0.578476,-1.120804z"/>
  <path fill="#ffffff" stroke="#000000" id="path3066" d="m872.894043,383.439087c-0.330383,0.054718 -0.363281,0.274689 -0.108459,0.686951c0.418091,0.676544 -0.563721,2.093414 -2.169312,3.145477c-1.605652,1.052063 -2.655762,2.325439 -2.350037,2.820068c0.305725,0.494629 -0.237854,1.55722 -1.193115,2.350067c-1.256714,1.042969 -1.394287,1.822388 -0.506165,2.892365c0.675049,0.813416 0.833496,1.747192 0.325378,2.060822c-1.835999,1.13327 -8.912476,-0.1008 -9.544861,-1.663116c-0.905518,-2.237427 -3.543213,-2.528198 -3.543213,-0.397705c0,0.96817 -1.243408,2.335144 -2.783875,3.037018c-1.587402,0.723236 -2.575623,1.913391 -2.241638,2.783905c0.324158,0.844818 0.218628,2.165375 -0.253052,2.928558c-0.61969,1.002655 -1.295959,0.817261 -2.422424,-0.723083c-1.5047,-2.057861 -1.566895,-2.059418 -1.69928,0.108459c-0.075378,1.235168 -0.05658,2.865723 0.036194,3.615479c0.177124,1.430328 -6.829895,7.303284 -8.713318,7.303284c-1.137878,-0.000031 -6.44043,2.66925 -12.871155,6.47171c-4.230591,2.501526 -4.977905,6.447113 -1.880005,9.87027c1.139099,1.258667 1.57135,2.9021 1.084656,4.157806c-0.756714,1.952362 -0.897949,1.939697 -2.458557,-0.180786c-0.955139,-1.297882 -1.663147,-1.619629 -1.663147,-0.759247c0,0.818787 1.084351,3.037994 2.422424,4.917053c2.701172,3.793488 6.161682,18.391754 5.350891,22.632904c-0.401611,2.100983 0.25061,3.118317 2.820068,4.447052c3.116516,1.611603 3.596558,1.546753 7.628662,-1.193085c2.401733,-1.63205 5.951599,-2.928558 8.026367,-2.928558c2.365662,0.000031 4.849121,-1.053589 6.833313,-2.892395c1.716431,-1.59079 4.462219,-2.892365 6.073975,-2.892365c1.611755,0.000031 4.517517,-0.560577 6.471741,-1.229279c5.342529,-1.828217 14.341003,1.785278 16.775818,6.724792c1.006531,2.042053 2.09906,3.709503 2.458557,3.723938c0.359314,0.014496 1.568909,-1.873657 2.675415,-4.193939c1.484009,-3.112122 2.334839,-3.88382 3.2901,-2.928558c0.9552,0.955261 0.964966,2.105408 -0.036133,4.302429c-1.777649,3.90155 -1.734497,4.578125 0.253052,2.928558c1.190857,-0.988312 1.840698,-0.977295 2.422363,-0.036163c0.438477,0.709534 0.508728,1.588226 0.144653,1.952362c-0.364197,0.364166 0.632446,2.17984 2.205444,4.049347c1.57312,1.869507 2.856201,4.138062 2.856201,5.025513c0,2.521881 7.122009,4.01355 9.472595,1.988525c1.698181,-1.462921 2.185608,-1.382629 4.049316,0.650787c2.728027,2.976257 2.534485,2.989197 5.170166,-0.361572c1.324646,-1.684021 3.245789,-2.758301 4.66394,-2.603149c1.654968,0.181091 2.509277,-0.474945 2.711609,-2.060791c0.372375,-2.918793 2.511475,-9.059052 5.242493,-15.040436c2.72644,-5.971436 5.621948,-29.776611 3.543152,-29.176941c-1.09436,0.315735 -7.086365,-3.934784 -7.086365,-5.025513c0,-0.530365 -1.277283,-2.345703 -2.856201,-4.049347c-1.578857,-1.703674 -2.629395,-3.538879 -2.313904,-4.049347c0.315491,-0.510437 -0.479065,-1.252869 -1.771606,-1.663116c-3.178955,-1.008972 -6.941711,-8.732208 -6.941711,-14.244995c0,-2.981567 -0.750061,-5.158112 -2.241577,-6.507874c-1.236572,-1.11911 -2.60791,-3.674225 -3.037048,-5.6763c-0.428955,-2.002075 -1.052551,-4.135132 -1.410034,-4.736298c-0.872437,-1.467194 -3.509583,5.991119 -3.651611,10.340302c-0.114441,3.499664 -4.008972,13.304962 -5.278625,13.304962c-0.376465,0 -3.537903,-2.105408 -7.050171,-4.700134c-5.968384,-4.409058 -6.362244,-4.957733 -5.640198,-8.387909c0.424988,-2.018677 1.238525,-4.167938 1.807739,-4.77243c1.370422,-1.4552 1.34137,-4.430664 -0.036133,-3.579346c-0.592346,0.366119 -1.360779,0.172363 -1.735413,-0.433838c-0.374695,-0.606232 -1.610657,-1.044769 -2.711609,-0.976196c-1.101074,0.068573 -3.224854,-0.299988 -4.736267,-0.79541c-0.921021,-0.30188 -1.549683,-0.41629 -1.880066,-0.361542z"/>
  <path stroke="#000000" fill="#ffffff" id="path3784" d="m589.34375,240.3125c-10.409851,0.005157 -24.928528,-10.725876 -30.751526,-4.87262c-8.596924,8.641571 -15.819885,0.203491 -24.310974,-1.53363c-11.015503,-2.253555 0.930969,-18.893845 -15.53125,-14.9375c-10.116272,2.431213 -20.820618,7.750107 -30.426208,6.618668c-8.401917,-0.98967 -11.323029,2.752258 -14.784485,8.461884c-4.180206,6.895218 -5.951965,15.443344 -12.543243,22.033554c-7.173645,7.172455 -9.438019,15.882416 -8.773407,26.715698c0.607147,9.896301 -2.91806,17.428345 4.576721,25.985413c6.630035,7.569702 9.298645,22.062958 22.419739,21.620026c10.747131,-0.362793 23.7453,-8.641907 31.60083,-4.001099c5.637146,3.330231 10.906494,1.574738 13.832947,5.721954c5.255737,7.448242 -1.348877,20.174927 6.15094,29.246735c5.966858,7.21756 10.155212,19.21106 4.745483,28.82135c-6.152588,10.929901 1.461243,20.98407 2.793152,31.75885c1.524353,12.331512 12.689575,23.453583 12.052307,34.206787c-0.603149,10.177826 10.266968,7.816986 17.129517,6.702148c11.947876,-1.940948 20.143555,-12.667755 22.882935,-23.251862c2.43811,-9.41983 5.508911,-16.239075 6.378113,-26.54007c0.757507,-8.977203 21.267029,-14.714264 15.942444,-28.767822c-3.94281,-10.406555 -6.05072,-22.072144 2.250183,-31.699768c7.717834,-8.951385 17.588196,-15.965515 22.330505,-27.443878c2.16626,-5.243225 8.722961,-17.963623 7.417725,-17.941498c-6.395264,0.108429 -20.762512,6.873016 -25.363953,-3.966431c-4.476807,-10.545959 -15.190063,-17.509583 -15.914917,-29.707214c-0.580566,-9.769592 -13.455994,-20.123108 -11.885071,-26.813202c0.610535,-2.600342 2.889832,1.210724 0.707764,-3.31517c-0.514648,-1.067566 -0.747925,-0.633606 -1.479492,-1.408936c-0.731567,-0.77533 6.639343,-1.696381 -1.446777,-1.692368z"/>
  <path fill="#ffffff" fill-rule="evenodd" stroke="#000000" stroke-width="1px" id="path4757" d="m569.9375,74.09375c-1.316406,0.042297 -2.646729,0.874786 -3.9375,3.46875c-6.629822,-0.442558 -9.978027,4.304131 -17.84375,6.25c-2.323853,8.61322 -13.269836,12.842781 -19.125,18.6875c8.430237,12.233177 -21.874115,7.890358 -12.1875,26.6875c4.389771,9.755539 17.850525,-11.481522 17.65625,9.28125c5.55011,14.736862 22.578613,-9.071075 14.46875,-16.75c2.192505,-8.961189 12.502686,-23.812782 21.375,-21.4375c-4.05957,6.495354 -18.86377,31.126526 2.46875,22.9375c18.473755,-1.468704 5.779846,7.391098 -5.25,6c2.640259,9.588409 -0.045471,9.526794 -7.03125,10.40625c-1.394592,13.161453 -27.615662,17.161423 -33.5,6.40625c-1.539551,-16.264465 1.356995,14.531326 -10.875,9.59375c-7.336487,6.755814 -17.674713,17.148453 -28.3125,18.46875c8.627228,4.976074 12.686829,27.887268 -6.25,20c-18.661682,0.109116 -5.548798,37.450531 11.90625,22.21875c7.44928,-11.293396 23.24292,-35.237427 37.71875,-18.75c10.017761,1.727966 16.375122,26.085342 16.53125,7.9375c5.509949,5.203415 -26.807373,-25.948715 -7.4375,-18.03125c10.588684,6.1147 21.560181,31.316803 23.78125,24.53125c-1.002991,4.605286 -5.234192,9.77446 3.78125,2.03125c-12.562866,-13.438828 18.364563,-5.518936 12.5,-22.625c5.972656,-13.999817 12.267517,-7.855423 18.875,-3.15625c-4.437927,-4.597595 1.838074,-8.037323 5.96875,-7.65625l3.78125,-27.84375l4.1875,-30.875l2.84375,-21c-3.9104,2.564613 -7.99646,4.397072 -11.78125,2.59375c7.854919,16.216583 -25.131287,-17.879623 -2.65625,-6.9375c29.634155,2.680283 -4.421143,-19.971939 -16.625,-15.6875c-2.993469,-3.214333 2.487,-4.832069 -7.21875,-6.1875c-2.100159,3.030533 -4.916443,-0.655579 -7.8125,-0.5625z"/>
  <path fill="#ffffff" fill-rule="evenodd" stroke="#000000" stroke-width="1px" id="path5731" d="m295.15625,304.59375c-0.566559,0.000275 -1.85788,0.904266 -3.5625,2.71875c-1.451294,1.54483 -3.340851,2.493134 -4.21875,2.15625c-1.467926,-0.563324 -2.011505,0.343689 -4.59375,7.625c-0.441956,1.246277 -1.242371,0.966583 -3.46875,-1.125c-2.612885,-2.454681 -3.324585,-2.583221 -7.5,-1.46875c-3.263123,0.870972 -4.297791,1.035065 -5.78125,-0.3125l-2.0625,2.65625c0.206329,0.04187 0.410706,0.076019 0.625,0.09375c1.645142,0.136139 3.585632,0.740479 4.3125,1.34375c0.885498,0.734924 1.757416,0.364319 2.6875,-1.125c3.101532,-4.96637 8.363098,2.483185 8.1875,11.59375c-0.078339,4.06488 -0.907349,6.18399 -3.90625,9.84375c-2.102875,2.566315 -4.470703,7.186401 -5.25,10.28125c-1.27951,5.081329 -1.223907,5.760315 0.65625,6.8125c1.967987,1.101318 1.924286,1.263184 -0.375,3.03125l-2.40625,1.875l3.8125,8.6875c2.11264,4.77243 5.108398,12.550354 6.625,17.28125c2.332855,7.27713 3.436584,9.051605 7.15625,11.5625c2.418182,1.632385 6.270508,4.643341 8.5625,6.71875l4.15625,3.78125l-1.4375,19.9375c-0.784637,10.969269 -1.547882,22.812714 -1.71875,26.3125c-0.203033,4.158142 -1.393555,8.540192 -3.46875,12.625c-2.291779,4.511169 -3.002075,7.208313 -2.5,9.71875c0.382629,1.9133 0.072906,5.209656 -0.6875,7.3125c-1.080566,2.98819 -1.08139,4.389801 0.03125,6.46875c1.700012,3.176575 1.200012,15.393738 -0.71875,17.3125c-0.997528,0.997559 -1.509186,0.835876 -2.09375,-0.6875c-0.614685,-1.601807 -1.007782,-1.720154 -1.78125,-0.5c-1.249084,1.970398 -1.278168,3.595093 -0.0625,2.84375c1.328369,-0.821045 7.434052,5.952881 6.59375,7.3125c-0.382568,0.619019 -1.355865,0.862366 -2.21875,0.53125c-1.215302,-0.46637 -1.476929,0.644592 -1.1875,4.9375c0.205475,3.048035 -0.249023,6.257751 -0.96875,7.125c-1.00824,1.214844 -0.914154,1.493469 0.375,1.21875c2.47348,-0.527161 8.262848,3.706177 7.5625,5.53125c-1.084137,2.825195 1.213226,1.617554 2.5625,-1.34375c0.724792,-1.59082 1.850037,-2.875 2.5,-2.875c0.649994,0 1.1875,-1.226563 1.1875,-2.71875c0,-1.492188 1.03595,-3.657227 2.3125,-4.8125c1.27655,-1.155212 2.088837,-2.379944 1.78125,-2.6875c-0.307587,-0.307556 1.055298,-2.374512 3.03125,-4.625c3.493988,-3.979431 3.516998,-4.095459 1.15625,-4.96875c-4.667023,-1.72644 -4.226227,-10.28125 0.53125,-10.28125c1.010284,0 1.59375,-1.293701 1.59375,-3.5625c0,-2.619873 0.630249,-3.77066 2.34375,-4.21875c1.982513,-0.518463 2.081085,-0.801697 0.65625,-1.90625c-0.925293,-0.717346 -1.859406,-2.352356 -2.0625,-3.625c-0.297577,-1.864685 0.278107,-2.3125 2.96875,-2.3125c3.209991,0.000031 4.47229,-1.176971 5.78125,-5.4375c0.422363,-1.374725 2.450317,-2.204498 6.5625,-2.75c9.456146,-1.254425 11.687592,-5.43045 6.34375,-11.78125c-3.476349,-4.131409 -2.724792,-5.362732 1.71875,-2.8125c3.047302,1.748932 3.569061,1.738983 7.28125,-0.03125c4.023804,-1.918762 6.91568,-5.880371 13.03125,-18.0625c2.474548,-4.929352 2.850677,-6.708435 1.90625,-8.78125c-0.651611,-1.430115 -0.837982,-3.176453 -0.40625,-3.875c0.857941,-1.388153 9.10791,-7.1875 10.21875,-7.1875c0.378815,-0.000031 1.262268,-0.786499 1.96875,-1.71875c0.706451,-0.932281 3.36084,-1.878998 5.875,-2.125c4.39624,-0.430115 4.64682,-0.724548 7.71875,-7.84375c2.604767,-6.036591 3.214111,-9.138336 3.25,-16.875c0.030945,-6.66745 0.502625,-9.787292 1.59375,-10.4375c0.853943,-0.508881 3.453583,-3.744141 5.78125,-7.15625c5.582855,-8.183929 5.895416,-14.262665 0.84375,-16.875c-1.870361,-0.967194 -4.072205,-2.717346 -4.90625,-3.90625c-1.115326,-1.589905 -3.406738,-2.310852 -8.625,-2.6875c-6.086151,-0.439301 -7.641815,-1.048065 -10.8125,-4.21875c-4.469025,-4.469025 -6.474091,-4.605316 -9.53125,-0.71875c-1.645264,2.091614 -3.218933,2.843597 -5.375,2.59375c-3.675873,-0.425964 -3.636963,-2.407898 0.0625,-3.28125c1.465973,-0.346069 2.822174,-1.508057 3.03125,-2.59375c0.56311,-2.92392 -1.522217,-2.439148 -5.9375,1.4375c-2.157715,1.894501 -4.240387,3.134613 -4.625,2.75c-1.217926,-1.217926 6.201599,-10.928772 7.6875,-10.0625c0.755829,0.440643 0.335144,-0.394928 -0.9375,-1.84375c-1.272675,-1.448822 -2.193787,-2.933289 -2.0625,-3.34375c1.360718,-4.25415 -6.183777,-10.59375 -12.59375,-10.59375c-3.186798,0 -5.00058,-0.952606 -8.3125,-4.34375c-2.330475,-2.38623 -5.516632,-5.577362 -7.09375,-7.09375c-1.577087,-1.516388 -2.524506,-3.291107 -2.125,-3.9375c0.478394,-0.774109 -1.318848,-0.919464 -5.1875,-0.40625c-3.691772,0.489716 -6.121368,0.326843 -6.59375,-0.4375c-0.413361,-0.668884 -1.346344,-1.118927 -2.09375,-1c-2.308228,0.367218 -7.735107,-2.318451 -7.8125,-3.875c-0.040344,-0.811188 -0.54953,-0.306732 -1.125,1.125c-0.5755,1.431702 -1.52774,2.59375 -2.125,2.59375c-0.59726,-0.000031 -0.845276,0.986664 -0.53125,2.1875c0.823334,3.148438 -1.591125,4.116028 -3.125,1.25c-1.016876,-1.900024 -0.88324,-3.012268 0.5625,-5.21875c1.189636,-1.815613 1.347809,-2.719025 0.78125,-2.71875z"/>
  <path d="m202.637817,579c-0.057159,-1.700012 -0.490326,-2.531006 -1.199997,-3.198669c-0.576385,-0.542236 -1.522461,-0.648254 -2.189331,-1.237305c-0.695511,-0.614319 -0.7285,-1.777954 -1.31517,-2.206848c-0.759476,-0.555176 -1.665131,-0.786316 -2.173996,-1.578674c-0.479187,-0.746094 -0.454605,-1.519409 -1.073334,-2.135681c-0.630814,-0.628296 -1.498123,-0.826233 -1.876175,-1.841492c-0.25296,-0.679321 1.028,-0.801331 1.928009,-0.801331c0.899994,0 1.70018,-0.018005 2.599991,0c0.900543,0.018005 1.629028,0.560852 2.400665,0.878662c0.782333,0.322205 1.885025,0.341614 2.614502,0.473999c0.805862,0.14624 1.628342,0.31427 2.784836,0.480652c0.641205,0.092224 1.631958,0.161316 2.61467,0.166687c0.885315,0.004822 1.699661,0 2.653336,0c0.731995,0 1.463989,0 2.559998,0c0.972,0 1.871994,0 2.772003,0c0.899994,0 1.699997,0 2.599991,0c0.900009,0 2.10881,0.125122 2.253342,-0.646667c0.160034,-0.854553 -0.508606,-1.546509 -1.24884,-2.243469c-0.645309,-0.607605 -1.011734,-1.298401 -1.576492,-1.945862c-0.514053,-0.589294 -1.32785,-1.363831 -1.917343,-1.953308c-0.553513,-0.553528 -1.324585,-1.326111 -1.800003,-1.800049c-0.714035,-0.711792 -1.294952,-1.212219 -2.063324,-1.715149c-0.693741,-0.454102 -1.474533,-1.171082 -1.936676,-1.870178c-0.52507,-0.794312 -1.14772,-1.182251 -1.889832,-1.84613c-0.618073,-0.552917 -0.721481,-1.308655 -1.354156,-2.145874c-0.488846,-0.646912 -1.023483,-1.267822 -1.613342,-1.829285c-0.636597,-0.605957 -1.271194,-1.02301 -1.655991,-1.764038c-0.543396,-1.046448 -0.182877,-1.655151 0.581833,-2.23999c0.62973,-0.481628 1.225311,-0.997742 2.120834,-1c0.899994,-0.002258 1.844528,0.095459 2.599991,-0.283997c0.867203,-0.435547 1.600006,-0.715332 2.436005,-0.716003c1.025665,-0.000793 1.825668,0 2.785172,0c0.793488,0 1.569,0 2.609497,0c0.85199,0 1.819412,-0.022583 2.431,0.05719c1.236893,0.161316 1.793915,0.385132 2.757156,0.647339c1.112518,0.302856 1.951385,0.497498 2.395508,0.595459c0.926407,0.204285 1.894562,0.400574 2.388336,0.5c1.496674,0.301453 1.993729,0.403564 2.975998,0.589355c0.948441,0.179382 1.403473,0.27887 2.688004,0.44397c0.76088,0.097778 1.793365,0.14917 2.424332,0.21936c1.213379,0.13501 1.811356,0.309143 2.744995,0.521973c0.647919,0.147705 2.052734,0.350403 2.832001,0.389343c0.415085,0.020752 1.307999,0.033752 2.832001,0.036011c0.563828,0.000854 1.150665,0 2.365326,0c0.613846,0 1.222672,0 2.397339,0c1.070663,0 1.99733,0 2.804001,0c1.072495,0 2.100021,-0.003784 2.818665,0.001343c0.750717,0.005371 1.52684,0.014648 2.31601,0.083984c1.201218,0.10553 1.986496,0.260681 2.73616,0.414673c1.008362,0.207092 2.005066,0.455811 2.943848,0.498657c0.77948,0.035583 1.580322,0.001343 2.801331,0.001343c0.796478,0 1.547974,0 2.516479,0c0.854187,0 1.855499,0 2.498169,0c0.698669,0 2.136017,0 2.817352,0c0.964478,0 1.580811,0 2.785309,0c0.600006,0 1.5,0 2.700012,0c0.597321,0 1.458344,0 2.666656,0c0.682678,0 1.666687,0 2.370178,0c0.964508,0 1.792511,-0.000183 2.796509,0c0.573334,0.000122 1.830017,0.002625 2.493317,0.010681c0.67337,0.008179 1.347595,0.005249 2.653351,0.074646c1.187744,0.06311 2.194763,0.190063 2.634155,0.267334c1.136627,0.199829 1.772095,0.412476 2.98584,0.562012c0.597504,0.073608 1.5,0.083069 2.699829,0.085327c0.595673,0.001099 1.464172,0 2.533508,0c0.718475,0 1.676483,0 2.809662,0c0.671326,0 1.398651,0 2.165985,0c1.19101,0 1.987,0 2.759003,0c1.060516,0 1.932007,0 2.911163,0c0.854187,0 1.814178,0 2.414185,0c0.679993,0 1.849152,0 2.707489,0c0.878326,0 1.736664,0 2.89917,0c0.924011,0 1.632599,0.033569 2.619995,-0.001343c0.805603,-0.028503 1.866669,-0.213074 2.590668,-0.355835c0.790894,-0.155945 1.598907,-0.283508 2.622681,-0.642822c0.944946,-0.331665 1.654053,-0.914856 2.466644,-0.998657c0.779236,-0.080383 1.866699,0.002075 2.536011,-0.002686c0.76535,-0.005432 1.567169,0.01239 2.328003,-0.083984c1.421112,-0.180054 2.100006,-0.752686 2.919342,-0.89386c1.06778,-0.184021 1.752655,-0.020813 2.517975,-0.020813c0.797363,0 1.56369,0.046326 2.764008,-0.002686c0.874023,-0.035645 1.969269,-0.326538 2.754669,-0.565308c0.444031,-0.13501 1.378387,-0.437195 2.316681,-0.726685c1.227905,-0.378845 1.826355,-0.610474 2.740814,-0.69635c0.860413,-0.080811 1.865753,-0.032166 2.5625,0.001709c0.908661,0.044189 1.894623,0.425964 2.407349,1.041992c0.50528,0.607117 0.352661,1.599976 0.352661,2.463318c0,1.004822 0,1.817322 0,2.73468c0,0.744019 0,1.778687 0,2.749329c0,0.757141 0.121246,1.673828 -0.085327,2.515991c-0.220978,0.900818 -0.881378,1.673218 -1.335999,2.309326c-0.513123,0.718018 -1.336609,1.313904 -2.099518,1.65387c-0.523682,0.233398 -1.564362,0.606018 -2.458313,1.020813c-0.624359,0.289734 -1.598785,0.83606 -2.363678,1.142822c-0.877899,0.352112 -1.828583,0.814575 -1.371826,1.555847c0.501373,0.813721 1.341766,0.812744 2.026672,0.970642c1.119781,0.258118 2.108459,0.536133 2.650665,0.681335c0.558136,0.149475 1.676971,0.450134 2.218658,0.58136c1.407257,0.340942 2.426056,0.524414 3.139008,0.559021c1.04248,0.050598 1.879669,0.008972 2.779816,0.008972c0.785187,0 1.73584,0 2.50116,0c0.998688,0 1.798676,0 2.798676,0c0.800018,0 1.801453,0.026611 2.641663,-0.020813c0.730682,-0.04126 1.926788,-0.261047 2.609009,-0.404541c0.699127,-0.147095 1.373932,-0.342285 2.578674,-0.489319c0.945251,-0.115356 1.971008,-0.085327 2.812317,-0.085327c0.729004,0 1.601166,0 2.61969,0c0.723999,0 1.455994,0 2.516998,0c0.974976,0 1.859985,0 2.900146,0c0.685516,0 1.520172,0 2.516998,0c0.919189,0 1.789856,0 2.737854,0c0.917328,0 1.661316,0 2.698669,0c0.773315,0 1.735992,0 2.467987,0c1.166656,0 1.958344,0 2.910675,0c0.910645,0 1.589325,0 2.56781,0c1.021515,0 1.799591,-0.127258 2.563171,-0.5c0.771912,-0.376831 1.714081,-0.385864 2.395844,-0.552673c1.005005,-0.24585 1.633606,-0.912231 2.605164,-1.168823c0.715271,-0.188904 1.484863,-0.41803 2.314514,-0.878479c0.79361,-0.44043 1.436768,-1.054199 2.317474,-1.46405c0.782562,-0.364136 1.639893,-0.309814 2.58252,-0.493164c0.927032,-0.180298 1.608978,-0.619263 2.357483,-1.141479c0.702667,-0.490295 1.596558,-0.809692 2.385345,-0.968018c0.857391,-0.172119 1.515747,-0.257813 2.362671,-0.634644c1.063049,-0.472961 1.65799,-1.188171 2.548004,-1.198669c0.910431,-0.010742 1.80835,0.097778 2.527985,-0.425354c0.604828,-0.439697 1.394989,-0.559082 2.343994,-0.585327c0.575012,-0.01593 1.885864,-0.145142 2.598694,-0.273315c0.724731,-0.13031 1.746704,-0.388123 2.618652,-0.549316c0.932953,-0.172485 1.799988,-0.166687 2.700012,-0.166687c0.899994,0 1.801605,0.026855 2.615997,-0.036011c1.187653,-0.091675 1.612183,-0.184021 2.599976,-0.31665c0.536102,-0.07196 1.631866,-0.223083 2.16803,-0.294678c1.415588,-0.188965 2.37619,-0.319885 3.146149,-0.348145c0.921906,-0.033813 1.785828,-0.001892 2.748993,-0.004517c0.834351,-0.002258 1.57962,-0.071838 2.572845,-0.283997c0.950836,-0.203125 1.584473,-0.391235 2.68399,-0.594666c0.760681,-0.140747 1.76474,-0.284668 2.626495,-0.473999c0.658936,-0.144775 1.329376,-0.338684 2.59436,-0.525818c0.75705,-0.112 1.876495,-0.121521 2.668488,-0.121521c0.862671,0 1.657318,0 2.708008,0c0.634644,0 1.666656,0 2.361328,0c1.262177,0 2.022736,0.008545 2.817322,0c0.967346,-0.010437 1.775757,-0.426025 2.416687,-0.647339c1.022705,-0.353088 1.790588,-0.305908 2.612976,-0.331848c0.861725,-0.027222 2.125,-0.020813 2.886353,-0.020813c0.689331,0 1.605835,0 2.650665,0c0.921326,0 1.605316,0 2.606659,0c0.83551,0 1.716003,0 2.61499,0c0.921021,0 1.571686,0 3.03302,0c0.409668,0 1.280975,0 2.208313,0c0.967346,0 1.460999,0 2.957855,0c0.49649,0 1.468475,0 2.392487,0c0.85199,0 1.943665,0 2.810669,0c0.740997,0 1.718506,0 2.511993,0c1.015991,0 1.971008,0 2.885834,0c0.770996,0 1.664185,0 2.618164,0c0.749329,0 1.570679,0 2.902496,0c0.461517,0 1.393494,0 2.317505,0c0.892029,0 2.118164,0 2.842529,0c0.656311,0 1.530823,0 2.532166,0c0.839966,0 1.956482,0 2.725159,0c0.961487,0 1.865479,0 2.377502,0c1.083984,0 1.631958,0 2.679993,0c1.274963,0 2.088013,0 3.003967,0c0.900024,0 1.785339,0 2.570679,0c0.905334,0 1.829346,0 2.583984,0c0.842712,0 1.741333,0 2.664001,0c0.914673,0 1.792053,0 2.613342,0c0.749329,0 1.968018,0 2.947205,0c0.854126,0 1.548645,0 2.450134,0c0.72937,0 2.034668,0 2.522705,0c1.023987,0 1.547974,0 2.589966,0c1.458008,0 2.299316,0 3.028687,0c0.901489,0 1.786499,0 2.67749,0c0.913513,0 1.713501,0 2.673523,0c0.824951,0 1.73999,0 2.744995,0c0.718628,0 1.469299,0 2.243958,0c0.79071,0 1.98938,0 2.789368,0c0.799988,0 1.599976,0 2.799988,0c0.796021,0 1.567993,0 2.628479,0c1.106995,0 1.939514,0 2.771545,0c0.90448,0 1.921448,0 2.620789,0c0.979187,0 1.789856,0 2.664551,0c0.998657,0 1.814636,0 2.630615,0c0.997375,0 1.837341,0 2.800049,0c0.767944,0 1.741333,0 2.402832,0c1.123779,0 1.786499,0 2.830444,0c0.682678,0 1.878723,0 2.588196,0c1.041016,0 1.861145,0 2.762512,0c0.899963,0 1.841675,0 2.842834,0c0.718506,0 1.508972,0 2.535461,0c0.880005,0 1.900208,0 2.617188,0c0.940491,0 1.79248,0 2.587158,0c1.050659,0 2.018188,0 2.696533,0c0.658325,0 1.966125,0 2.764465,0c0.913513,0 1.660828,0 2.656372,0c0.799988,0 1.799805,0 2.579163,0c0.998962,0 1.376099,0.020691 0.920837,0.885498c-0.263733,0.500977 -0.473206,1.458557 -0.700012,2.063843c-0.447937,1.195496 -1.976746,1.184753 -1.829346,2.050659c0.139648,0.82019 1.603699,-0.07135 2.63916,-0.352661c0.778442,-0.211487 1.819336,-0.511902 2.528503,-0.590149c0.796875,-0.087952 1.882019,0.065613 2.663025,-0.342529c0.616943,-0.322449 1.432312,-1.065918 2.203125,-1.357483c0.776062,-0.293579 1.610046,-0.285828 2.59552,-0.523865c0.827148,-0.199829 1.677002,-0.596985 2.684021,-0.749329c0.811035,-0.122681 1.645325,-0.110107 2.630615,-0.367981c0.676025,-0.176941 1.679321,-0.595642 2.506714,-0.679993c0.690125,-0.070374 1.821289,-0.036011 2.484009,-0.036011c1.043945,0 1.726624,0 2.922668,0c0.709473,0 1.75061,0 2.524658,0c0.90448,0 1.651794,0 2.648621,0c0.834717,0 1.765381,0 2.56488,0c0.916504,0 1.605835,0 2.776978,0c0.875671,0 1.819336,0 2.314148,0c1.030701,0 2.109375,0 3.223999,0c0.562378,0 1.122681,0 2.221375,0c0.530334,0 1.997314,0 2.838623,0c1.054504,0 1.630859,0 2.84436,0c0.914673,0 1.628662,0 2.582336,0c0.731995,0 1.898682,0 2.731995,0c0.833313,0 1.761353,0 2.551819,0c1.026855,0 1.722839,0 2.632202,0c0.998657,0 1.795166,0 2.546631,0c1.161377,0 1.803345,0 2.769348,0c0.903992,0 1.952026,0 2.5,0c1.083984,0 1.596008,-0.007935 2.871338,0.000183c0.834045,0.00531 1.962952,0.162964 2.638489,0.352478c0.776672,0.217896 1.819214,0.513184 2.53302,0.590149c0.849365,0.091553 1.863831,0.05719 2.56134,0.05719c0.922485,0 2.202332,0 2.714478,0c1.097351,0 1.660522,0 2.760864,0c0.515137,0 1.791809,0 2.625793,0c1.127991,0 1.804504,0 2.580017,0c1.047974,0 1.987976,0.059692 2.813354,-0.085327c1.029297,-0.180847 1.660706,-0.547791 2.734619,-0.747986c0.629211,-0.11731 1.667908,-0.152405 2.361328,-0.21936c0.974182,-0.094055 1.794617,-0.319397 2.55603,-0.521973c1.075684,-0.286255 2.050415,-0.369568 2.728516,-0.425354c0.967834,-0.07959 1.988586,-0.243347 2.624817,-0.610657c0.917603,-0.529724 1.586792,-1.020935 2.395996,-1.222656c0.796753,-0.198608 1.685364,-0.166016 2.684021,-0.166687c0.815979,-0.000549 1.631958,0 2.631958,0c0.909363,0 1.850708,0 2.641174,0c0.853516,0 2.042847,0 2.641541,0c0.880493,0 1.715942,0 2.719971,0c0.723022,0 1.536011,0 2.545654,0c0.802673,0 1.677368,0 2.592041,0c1.376953,0 1.82196,0 2.681946,0c0.820007,0 1.600037,0 3.040222,0c0.664307,0 1.610779,-0.000366 2.220154,0c1.198669,0.000671 2.069092,-0.051208 2.830627,0.085327c0.981689,0.176025 1.63269,0.733337 2.617371,0.878662c0.831665,0.122742 1.835999,0.036011 2.632507,0.036011c0.751465,0 1.848816,0 2.722168,0c0.965332,0 1.798645,0 2.631958,0c0.919373,0 1.819336,0 2.682678,0c0.858704,0 1.805359,0 2.658691,0c0.940002,0 1.825317,0 2.639648,0c0.957642,0 1.748169,0 2.351807,0c1.355225,0 2.086548,0 2.833862,0c0.747314,0 1.833313,0 2.856323,0c0.685364,0 1.410706,0.000854 2.643677,0c0.949341,-0.000671 1.449219,0.006287 2.458313,-0.020813c0.969666,-0.026001 2.222351,-0.088562 2.815002,-0.263184c0.934692,-0.275452 1.726501,-0.705566 2.637329,-0.716003c0.910645,-0.010376 1.589355,0 2.706665,0c0.692505,0 1.650696,0 2.38269,0c1.166687,0 1.979187,0 2.822021,0c0.761292,0 1.535339,0 2.541992,0c0.794006,0 1.635986,0 2.477966,0c1.15802,0 2.091003,0 2.862,0c0.962708,0 2.015198,0.038513 2.786194,-0.05719c0.875977,-0.108704 1.676453,-0.592041 2.509827,-0.776123c0.844543,-0.186584 1.823914,-0.160339 2.447998,-0.165344c1.211914,-0.009766 1.872009,-0.001343 3.218689,-0.001343c0.482666,0 1.60199,0 2.210632,0c0.622681,0 1.245361,0.000061 2.434692,0c1.4375,-0.000122 2.12616,0.185486 2.978638,-0.085327c0.930908,-0.295715 1.7005,-0.79248 2.384033,-0.940002c0.954285,-0.205933 1.688599,-0.791626 2.661316,-0.93866c0.757507,-0.114502 1.823181,0.219543 2.593323,-0.121338c0.764404,-0.338379 1.289368,-0.90564 2.335022,-0.914856c0.602661,-0.00531 1.633423,-0.014282 2.354309,-0.085144c1.063293,-0.104492 2.040466,-0.331909 2.634705,-0.52533c1.091614,-0.355286 1.773682,-0.743286 2.69928,-1.032166c0.95166,-0.296997 1.772278,-0.335083 2.594727,-0.352661c1.030884,-0.021973 1.716614,-0.002625 2.551331,-0.004517c1.005798,-0.002258 1.865173,-0.021667 2.822998,-0.221313c0.831909,-0.173401 1.41571,-0.406433 2.744995,-0.612c0.710815,-0.109924 1.437012,-0.143738 2.466309,-0.16217c0.866882,-0.015503 1.712341,-0.004456 2.589661,-0.004517c0.984497,-0.000122 1.854248,-0.001648 2.335999,-0.010681c1.022827,-0.019226 1.552856,-0.006348 3.108032,-0.156006c0.961304,-0.092529 1.830627,-0.251953 2.604004,-0.407959c0.671875,-0.135559 2.114868,-0.768677 2.643982,-0.140015c0.527527,0.626831 0.054138,1.62207 -0.361328,2.56134c-0.27948,0.631897 -0.864929,1.580627 -1.205994,2.096985c-0.50769,0.768616 -1.155457,1.593506 -1.847351,2.035522c-0.7948,0.507813 -1.503784,1.03772 -2.015991,1.538147c-0.736816,0.71991 -1.339966,1.327942 -2.150146,1.782654c-0.5979,0.335571 -1.666138,0.70343 -2.643677,1.004517c-0.710266,0.21875 -1.457825,0.413086 -2.523499,0.862183c-0.68988,0.290771 -1.303162,0.658936 -2.147827,1.123474c-0.869873,0.478394 -1.647766,0.682251 -2.502869,0.993835c-0.880066,0.320679 -1.780884,0.599548 -2.682678,0.88269c-0.67511,0.211975 -1.662048,0.687561 -2.375,0.833313c-0.953003,0.194824 -1.816162,0.353149 -2.458313,0.5c-0.947815,0.216736 -1.941895,0.439148 -2.796021,0.498657c-0.910522,0.063477 -1.968506,0.220215 -2.561951,0.354004c-0.966919,0.218018 -1.578979,0.43158 -2.775024,0.590149c-0.743896,0.098633 -1.711731,0.00531 -2.468323,0.142517c-1.017212,0.184448 -1.782227,0.629456 -2.598511,0.793152c-0.951599,0.190796 -1.930542,0.036865 -2.684143,0.206848c-0.793884,0.179016 -1.651794,0.57074 -2.595215,0.914673c-0.837097,0.305176 -1.177917,1.099609 -1.690125,1.799988c-0.536621,0.733704 -1.455078,0.679016 -2.289001,1.200012c-0.706726,0.441528 -0.959656,1.456665 -1.513672,1.799988c-0.979187,0.606873 -1.816223,0.792419 -2.345337,1c-1.218933,0.47821 -2.094177,0.975647 -1.797668,1.195496c0.706238,0.523621 1.802734,0.014709 2.474976,-0.031494c1.31012,-0.090088 1.870483,-0.244202 2.818665,-0.538635c0.822388,-0.255371 1.800781,-0.396362 2.654663,-0.425354c0.828308,-0.028076 1.709229,-0.222351 2.42804,-0.425354c0.790161,-0.223145 1.813232,-0.494385 2.69696,-0.553833c1.018433,-0.068481 1.851501,-0.020813 2.809692,-0.020813c0.731995,0 1.463989,0 2.559998,0c0.976501,0 1.838684,-0.000061 2.671997,0c0.978821,0.000122 1.81842,0.023621 2.769348,0.285339c0.759277,0.208923 1.294556,0.389099 2.30896,0.814636c0.891418,0.373901 1.716553,0.958618 2.421692,1.379211c0.784302,0.467834 1.674622,0.515442 2.614685,0.520813c0.885315,0.005005 1.645386,-0.067993 2.533508,0.004517c1.027893,0.083923 1.16095,0.791077 0.351807,1.66217c-0.311279,0.335144 -1.121887,1.043152 -1.573303,1.42395c-0.46521,0.392395 -1.4151,1.155457 -1.893372,1.488037c-1.2229,0.850403 -1.908691,1.134033 -2.690674,1.440002c-1.049194,0.410522 -1.698914,0.875732 -2.258667,1.238647c-0.686768,0.445251 -1.576416,0.925903 -2.686646,1.424011c-0.604858,0.271362 -1.237244,0.526123 -1.876526,0.776978c-0.63147,0.247803 -1.826111,0.702881 -2.854126,1.041687c-1.074646,0.354187 -1.800049,0.539978 -2.666687,0.833313" id="svg_2" stroke-linecap="null" stroke-linejoin="null" stroke-dasharray="null" stroke-width="null" stroke="#000000" fill="none"/>
  <line id="svg_5" y2="579.307556" x2="831.621628" y1="579.307556" x1="202.598144" stroke-linecap="null" stroke-linejoin="null" stroke-dasharray="null" stroke-width="null" stroke="#000000" fill="none"/>
 </g>
</svg>