<?xml version="1.0" standalone="no"?>
<!DOCTYPE svg PUBLIC "-//W3C//DTD SVG 20010904//EN"
 "http://www.w3.org/TR/2001/REC-SVG-20010904/DTD/svg10.dtd">
<svg version="1.0" xmlns="http://www.w3.org/2000/svg"
 width="2315.000000pt" height="1172.000000pt" viewBox="0 0 2315.000000 1172.000000"
 preserveAspectRatio="xMidYMid meet">
<metadata>
Created by potrace 1.13, written by Peter Selinger 2001-2015
</metadata>
<g transform="translate(0.000000,1172.000000) scale(0.100000,-0.100000)"
fill="#000000" stroke="none">
<path d="M8306 11690 c-60 -5 -184 -20 -275 -34 -91 -14 -218 -29 -281 -34
-119 -10 -250 -50 -250 -76 0 -7 -60 -33 -132 -58 -73 -25 -344 -120 -603
-211 -1341 -469 -1805 -601 -2244 -638 -274 -23 -525 1 -996 96 -309 62 -359
64 -523 19 -105 -28 -132 -27 -189 9 -54 34 -110 50 -150 44 -20 -4 -66 -25
-104 -48 -43 -25 -86 -43 -112 -46 -38 -4 -48 0 -102 41 -141 108 -414 133
-576 53 l-65 -32 -60 24 c-47 20 -77 25 -144 25 -133 0 -186 -26 -506 -249
l-85 -59 -95 -6 c-90 -5 -97 -7 -116 -32 -24 -34 -46 -35 -148 -8 -99 26 -141
25 -199 -5 -64 -32 -91 -67 -91 -118 0 -43 30 -101 60 -117 28 -15 85 -12 125
7 19 9 37 14 41 11 13 -14 -10 -51 -49 -80 -41 -30 -43 -30 -131 -24 -67 5
-99 3 -135 -9 -92 -30 -161 -113 -161 -192 0 -45 23 -83 51 -83 10 0 19 -4 19
-10 0 -16 52 -37 102 -42 29 -3 65 -17 97 -38 75 -47 123 -50 206 -11 37 17
102 56 145 86 110 77 148 92 265 99 72 5 147 20 270 54 145 40 184 47 263 47
91 0 94 -1 118 -28 30 -35 28 -46 -35 -152 -67 -112 -75 -136 -68 -205 6 -75
32 -111 97 -139 53 -23 54 -26 18 -74 -13 -18 -16 -17 -51 18 -31 31 -42 36
-65 30 -37 -9 -52 -23 -73 -70 -21 -46 -25 -135 -7 -153 17 -17 63 -15 100 4
78 41 118 33 118 -22 0 -21 -4 -24 -38 -24 -48 0 -62 -14 -62 -62 0 -26 8 -47
28 -70 57 -67 65 -87 58 -144 -7 -63 -48 -182 -84 -244 -14 -25 -60 -93 -103
-151 -42 -58 -92 -135 -110 -170 -29 -55 -33 -74 -34 -139 0 -70 4 -82 53
-187 45 -96 55 -129 68 -220 8 -60 23 -139 33 -178 l18 -70 64 -3 c89 -4 109
-26 150 -156 44 -142 151 -361 243 -494 43 -62 88 -137 102 -165 27 -61 44
-164 37 -229 -3 -26 0 -68 6 -96 26 -107 114 -166 320 -212 69 -16 155 -40
190 -54 36 -14 99 -33 140 -41 89 -18 112 -38 135 -119 25 -86 55 -106 197
-125 81 -11 124 -32 264 -131 139 -97 297 -189 354 -207 30 -9 56 -26 79 -54
34 -40 37 -41 83 -36 26 3 81 19 122 35 l74 29 -41 -76 -41 -76 0 -190 c0
-223 7 -206 -120 -321 -66 -60 -93 -93 -118 -143 -30 -62 -32 -72 -31 -171 0
-120 28 -247 75 -345 16 -35 63 -98 110 -150 69 -76 93 -113 156 -240 141
-281 203 -346 397 -419 154 -58 220 -135 240 -281 3 -22 21 -143 40 -270 22
-149 36 -288 40 -395 3 -91 15 -266 26 -390 11 -124 20 -268 20 -320 0 -136
17 -309 40 -428 13 -69 20 -143 20 -226 0 -160 11 -216 59 -292 46 -74 48 -77
66 -188 16 -99 40 -154 93 -208 26 -28 44 -38 67 -38 26 0 37 -8 63 -45 39
-56 74 -78 181 -113 79 -25 88 -31 145 -96 85 -95 129 -116 248 -116 74 0 99
4 122 19 37 25 66 69 66 103 0 25 -10 33 -97 77 -120 60 -151 83 -203 149 -75
94 -104 201 -81 299 21 87 -23 160 -110 183 -21 6 -51 21 -66 34 l-28 24 53
56 c94 99 101 157 36 273 -55 99 -49 112 69 143 42 10 88 27 102 36 32 21 55
64 55 102 0 41 18 45 121 31 165 -24 249 18 249 122 0 27 -7 67 -16 89 -14 35
-27 46 -85 76 -38 19 -69 37 -69 40 0 4 29 3 64 -1 171 -18 222 43 280 332 19
98 33 139 69 205 54 102 69 145 76 227 8 84 24 96 163 120 58 11 126 28 151
39 53 24 120 90 149 147 45 87 51 129 53 365 2 284 -2 271 158 494 44 61 95
143 113 181 93 194 54 408 -99 551 -109 103 -214 144 -366 144 -36 0 -92 7
-125 14 -52 12 -67 22 -135 88 -97 96 -121 111 -217 143 -159 53 -180 79 -214
249 -31 161 -101 276 -207 344 -68 43 -131 61 -255 74 -101 10 -110 13 -147
45 -22 18 -57 62 -77 96 -67 112 -115 175 -153 201 -33 23 -46 26 -132 26 -86
0 -103 -3 -179 -35 -47 -19 -95 -35 -108 -35 -26 0 -73 22 -118 56 -29 21 -38
22 -122 17 -77 -5 -91 -9 -95 -24 -3 -12 -14 -19 -27 -19 -81 0 -179 -73 -242
-179 l-36 -62 -170 -1 c-159 0 -173 1 -211 23 -48 26 -85 77 -101 136 -9 35
-7 66 10 165 11 68 20 144 20 170 0 45 -2 49 -43 75 -87 55 -157 62 -223 22
-17 -10 -40 -19 -51 -19 -24 0 -63 35 -63 57 0 9 26 62 57 117 58 100 58 102
58 182 0 97 -16 124 -73 124 -46 0 -79 -26 -163 -126 -38 -46 -82 -90 -97 -98
-17 -8 -75 -15 -154 -18 -142 -5 -150 -2 -168 63 -20 73 -52 385 -46 444 9 86
48 158 130 241 103 102 115 106 338 115 211 9 255 20 301 81 14 18 40 44 56
56 l31 22 131 -50 132 -50 121 0 121 0 0 82 c0 77 2 86 33 130 23 33 60 65
123 105 129 82 183 127 256 213 164 191 157 185 242 219 87 36 148 82 182 139
36 59 60 81 131 119 68 35 153 102 132 103 -19 0 382 387 628 606 448 398 722
571 1620 1020 l388 194 69 0 c96 0 211 42 537 195 299 141 442 195 515 195 92
0 121 26 211 194 l64 119 67 24 c85 32 113 58 122 114 14 86 72 168 150 214
25 14 91 41 147 59 99 32 103 34 103 62 0 26 -6 32 -80 63 -105 45 -174 51
-256 22 l-60 -22 -41 36 c-22 20 -55 43 -74 51 -78 33 -664 62 -888 44z m698
-94 c123 -12 153 -18 175 -35 102 -82 125 -87 225 -52 50 18 65 19 103 9 l44
-11 -87 -43 c-142 -70 -206 -149 -238 -296 -5 -24 -15 -30 -79 -49 -39 -12
-77 -27 -84 -33 -7 -6 -40 -65 -73 -131 -79 -154 -89 -165 -153 -165 -30 0
-90 -14 -152 -34 -101 -34 -173 -65 -510 -223 -250 -117 -310 -137 -391 -130
l-66 6 -372 -186 c-1151 -576 -1345 -712 -2202 -1541 -116 -112 -233 -216
-260 -232 -50 -28 -92 -71 -151 -153 -27 -38 -45 -51 -114 -78 -98 -41 -137
-73 -239 -199 -96 -118 -148 -165 -250 -225 -150 -88 -217 -172 -227 -283 l-5
-57 -72 6 c-43 4 -101 18 -146 36 -41 17 -105 40 -142 52 -81 27 -90 23 -192
-68 -36 -34 -67 -61 -69 -62 -1 0 -88 -4 -192 -7 -179 -7 -193 -9 -245 -34
-109 -53 -237 -194 -276 -303 -23 -67 -22 -205 4 -404 23 -172 46 -232 100
-268 31 -20 41 -21 165 -16 177 6 212 23 317 147 41 49 81 91 88 94 8 2 12
-11 12 -45 0 -40 -9 -64 -49 -135 -73 -126 -82 -176 -44 -235 19 -28 90 -63
129 -63 16 0 47 12 69 25 49 30 64 31 115 5 48 -24 48 -28 19 -171 -26 -126
-22 -194 15 -268 l27 -52 -60 33 c-34 18 -109 68 -168 111 -135 99 -209 134
-309 148 -43 6 -86 15 -96 20 -9 5 -24 34 -33 64 -11 38 -29 69 -58 99 -38 39
-49 44 -114 54 -39 7 -107 26 -150 42 -43 17 -136 44 -207 60 -127 29 -192 57
-231 100 -17 19 -21 41 -26 159 -4 92 -12 154 -25 191 -10 30 -61 118 -113
195 -108 161 -201 348 -237 479 -34 126 -42 142 -80 176 -35 30 -104 55 -134
47 -22 -6 -35 35 -55 175 -16 117 -36 182 -89 285 -64 127 -46 193 105 398
113 153 165 262 189 395 15 80 8 113 -34 177 -19 28 -31 54 -28 57 3 3 17 6
32 6 38 0 50 18 50 72 0 59 -21 112 -50 128 -21 11 -21 11 9 46 40 45 72 109
65 128 -3 8 -36 26 -72 41 -37 15 -73 31 -79 37 -7 6 -13 33 -13 61 0 44 8 63
57 145 48 79 58 103 61 151 4 50 1 61 -22 88 -63 75 -196 86 -396 34 -63 -16
-151 -39 -194 -50 -48 -13 -110 -21 -157 -21 -103 0 -146 -17 -294 -117 -66
-44 -134 -85 -151 -91 -33 -11 -72 1 -122 37 -33 23 -124 51 -169 51 -39 0
-56 29 -41 70 27 73 87 99 211 92 103 -5 127 2 192 60 40 34 75 95 75 128 0
29 -53 80 -83 80 -13 0 -46 -10 -72 -21 -47 -21 -49 -21 -62 -3 -23 31 -16 63
20 84 40 25 82 25 177 0 41 -11 88 -20 103 -20 31 0 77 21 96 44 10 12 32 16
80 16 85 0 136 24 278 128 272 199 385 231 544 152 l67 -33 41 35 c73 62 197
82 351 57 81 -13 133 -36 202 -88 90 -67 163 -65 290 10 36 21 76 39 88 39 12
0 49 -15 83 -34 90 -49 114 -51 250 -17 152 38 197 36 514 -28 453 -91 672
-112 955 -94 425 29 861 147 2003 542 898 310 1058 368 1074 390 24 31 93 50
205 57 55 3 170 17 255 30 84 14 194 29 245 34 122 12 545 4 730 -14z m-3958
-5742 c46 -32 48 -34 119 -151 57 -92 118 -159 171 -186 16 -8 71 -17 122 -21
249 -18 361 -120 402 -366 34 -197 62 -226 300 -311 55 -20 77 -35 146 -105
101 -102 143 -120 322 -135 145 -12 179 -20 242 -60 156 -98 228 -264 186
-429 -20 -78 -44 -120 -152 -270 -145 -202 -165 -268 -157 -515 9 -232 -15
-331 -98 -414 -42 -41 -40 -41 -218 -76 -155 -31 -200 -74 -206 -198 -2 -66
-8 -83 -59 -183 -50 -97 -60 -128 -87 -258 -31 -153 -55 -218 -88 -235 -10 -6
-67 -9 -127 -8 -92 2 -114 -1 -138 -16 -23 -15 -27 -23 -21 -45 12 -49 34 -71
117 -114 l83 -43 3 -48 c3 -43 1 -48 -23 -57 -34 -13 -88 -13 -158 1 -109 22
-187 -19 -187 -100 0 -48 -19 -61 -112 -80 -147 -31 -183 -119 -104 -249 53
-87 49 -109 -35 -199 -50 -53 -58 -78 -40 -126 15 -39 69 -86 114 -98 23 -6
47 -15 53 -20 6 -5 11 -54 11 -126 1 -146 19 -205 97 -308 56 -74 114 -120
219 -171 31 -15 57 -32 57 -36 0 -4 -13 -14 -30 -23 -75 -39 -183 0 -251 90
-44 59 -102 99 -166 117 -88 24 -132 50 -168 100 -34 47 -76 74 -101 64 -16
-6 -60 41 -77 84 -8 19 -20 71 -27 114 -15 98 -20 113 -73 200 l-42 70 -6 180
c-5 122 -14 216 -29 286 -15 75 -24 169 -30 330 -5 124 -16 304 -25 400 -8 96
-20 267 -25 380 -5 114 -18 261 -30 330 -11 69 -30 186 -41 260 -36 245 -84
307 -323 412 -164 72 -206 120 -335 382 -58 118 -83 157 -156 241 -105 122
-118 146 -151 282 -32 130 -30 233 4 298 11 22 64 83 117 135 143 141 158 181
132 355 -21 140 -15 168 68 305 29 47 69 116 90 154 61 112 129 176 187 176
13 0 60 11 105 25 l82 24 78 -41 c93 -48 121 -47 258 12 110 48 157 51 211 14z"/>
<path d="M15177 11321 c-88 -6 -106 -15 -107 -49 0 -8 -8 -27 -17 -43 -17 -29
-18 -29 -113 -29 -112 0 -170 -13 -306 -68 -55 -22 -117 -44 -138 -47 -53 -10
-60 -32 -30 -89 14 -26 24 -49 22 -51 -2 -1 -48 10 -103 26 -55 16 -113 29
-128 29 -30 0 -77 -39 -77 -63 0 -12 -19 -27 -34 -27 -1 0 -10 16 -20 35 -36
67 -142 83 -236 35 -22 -11 -46 -33 -55 -50 -17 -33 -20 -99 -5 -149 l9 -34
-127 6 c-89 4 -147 12 -192 26 -85 28 -194 38 -215 21 -23 -19 -18 -65 11 -99
30 -37 27 -37 -83 -14 -62 13 -83 21 -86 35 -8 31 -46 21 -153 -42 -56 -33
-105 -60 -108 -60 -4 0 -49 -30 -119 -80 -19 -14 -20 -13 -14 3 6 15 -2 17
-90 17 -84 0 -94 -2 -83 -15 10 -12 9 -15 -8 -15 -11 0 -33 -3 -50 -6 -29 -6
-30 -5 -30 29 0 60 -47 123 -121 162 -52 26 -149 45 -289 55 -89 6 -191 21
-279 41 -115 27 -159 32 -263 32 -110 1 -144 -4 -280 -36 -260 -62 -430 -128
-438 -170 -4 -22 34 -67 57 -67 9 0 -4 -13 -29 -29 -65 -41 -107 -93 -125
-156 -25 -86 -70 -116 -207 -141 -132 -23 -168 -47 -209 -139 -27 -61 -29
-138 -5 -183 23 -44 88 -73 166 -75 l59 -2 -17 -25 c-54 -83 -68 -187 -37
-275 8 -21 13 -40 12 -40 -1 -1 -33 -14 -72 -30 -49 -21 -82 -42 -110 -74 -22
-24 -64 -68 -92 -98 -29 -29 -53 -58 -53 -63 0 -6 -11 -10 -25 -10 -30 0 -85
-26 -85 -40 0 -6 -7 -10 -15 -10 -8 0 -27 -18 -41 -40 l-26 -39 -33 34 c-23
25 -41 35 -62 35 -38 0 -50 -14 -59 -67 -6 -40 -7 -41 -57 -46 -102 -13 -130
-87 -59 -158 21 -21 50 -40 65 -43 15 -3 38 -8 51 -11 35 -7 49 -52 44 -139
-2 -41 -6 -77 -9 -80 -3 -4 -48 2 -100 13 -210 43 -349 48 -376 13 -7 -9 -13
-33 -13 -53 0 -20 -14 -108 -31 -196 -16 -87 -33 -208 -36 -269 l-6 -111 33
-12 c52 -17 75 -14 181 29 55 22 105 40 112 40 7 0 34 -16 61 -35 85 -61 162
-44 274 60 71 66 100 110 135 208 29 80 56 112 106 128 69 22 133 60 149 88
15 26 22 29 87 33 86 6 127 26 162 81 15 23 29 44 31 47 2 3 42 5 90 6 56 0
87 5 90 12 2 7 12 12 23 12 12 0 16 5 13 15 -4 9 3 19 20 26 22 11 29 8 61
-19 19 -18 49 -47 66 -67 17 -19 38 -35 48 -35 9 0 65 -41 124 -91 l108 -91
-7 -124 c-6 -107 -5 -124 9 -130 8 -3 34 -23 56 -44 96 -92 256 -153 387 -148
l79 3 -27 27 c-26 27 -26 29 -12 63 18 45 12 58 -72 148 -35 37 -64 71 -64 76
0 16 25 28 84 40 96 18 97 18 75 -26 -25 -49 -24 -128 2 -197 24 -64 96 -149
150 -176 56 -29 158 -27 243 5 37 14 77 25 90 25 13 0 48 -17 77 -37 45 -32
62 -38 102 -37 l49 0 -7 -45 c-5 -39 -19 -103 -60 -278 l-5 -22 -35 20 c-48
29 -128 26 -240 -7 -200 -59 -208 -58 -343 34 -146 100 -217 120 -299 82 -48
-21 -78 -63 -87 -120 -11 -70 -50 -63 -209 38 -105 68 -129 77 -247 92 -173
23 -210 45 -210 127 0 26 5 68 11 92 27 120 -58 184 -246 183 -145 0 -241 -18
-399 -74 -197 -71 -291 -98 -363 -105 -75 -7 -93 4 -93 56 0 62 -45 83 -76 36
-9 -14 -23 -25 -30 -25 -8 0 -31 -15 -51 -34 -21 -18 -58 -43 -81 -55 -115
-58 -170 -148 -222 -366 -18 -71 -40 -147 -50 -168 -36 -73 -96 -139 -232
-253 -228 -192 -294 -279 -319 -422 -13 -70 -4 -140 41 -332 16 -69 43 -222
60 -340 64 -445 128 -612 294 -767 126 -118 251 -165 384 -144 37 6 133 33
215 61 268 90 377 110 497 90 92 -15 242 -64 295 -95 79 -45 165 -156 200
-255 22 -63 71 -277 95 -421 36 -214 64 -280 167 -402 34 -41 67 -86 73 -101
28 -73 2 -206 -79 -416 -63 -159 -91 -264 -91 -334 0 -112 59 -263 192 -492
98 -168 152 -278 166 -336 7 -26 21 -109 32 -184 33 -220 66 -321 128 -387 67
-71 116 -79 393 -62 286 18 336 35 488 164 75 64 153 160 190 235 17 35 40
107 51 161 28 135 40 157 115 204 96 60 100 71 100 281 0 249 20 296 213 505
117 126 179 214 213 300 19 50 23 78 23 170 -1 98 -5 124 -38 235 -60 197 -59
296 3 426 35 74 321 555 403 677 96 143 182 243 334 392 183 179 221 251 179
338 -39 80 -106 92 -264 48 -62 -17 -135 -31 -164 -31 l-52 1 56 23 c31 13 87
42 125 64 38 22 114 62 169 90 130 65 211 126 276 206 28 36 92 97 141 137 49
39 107 92 128 117 49 55 75 132 66 193 -8 56 -30 89 -87 133 -51 38 -79 87
-79 136 l0 32 31 -27 c43 -35 112 -70 184 -90 91 -27 179 -17 294 34 52 22
107 41 123 41 41 0 69 -35 113 -142 27 -67 51 -106 82 -137 l43 -44 74 6 c65
5 77 3 92 -14 10 -11 30 -19 51 -19 l33 0 0 -62 c1 -178 31 -252 139 -345 110
-94 114 -102 118 -251 8 -247 44 -362 136 -428 29 -21 59 -37 67 -36 30 2 215
83 227 99 8 11 9 22 3 34 -7 12 -6 20 1 25 8 4 8 8 0 13 -7 4 -2 25 15 61 37
80 40 131 14 225 -12 43 -23 101 -24 128 -1 55 8 66 124 141 92 59 239 233
291 344 50 106 66 115 147 78 71 -31 114 -33 181 -6 l50 19 20 -62 c11 -37 22
-111 26 -177 3 -63 13 -134 21 -157 18 -50 60 -88 116 -105 36 -11 45 -10 77
9 45 26 123 38 151 23 18 -9 20 -20 20 -94 0 -170 32 -253 141 -371 l71 -75
67 0 67 0 -17 68 c-22 84 -25 170 -5 178 27 10 73 -24 96 -71 23 -47 59 -79
102 -90 35 -9 56 -33 60 -70 l3 -30 91 -3 c84 -2 94 -1 120 21 16 13 57 34 92
46 112 42 154 119 133 244 -21 126 -80 238 -201 379 -96 112 -140 189 -140
247 0 55 34 91 85 91 41 0 41 2 -20 -84 -19 -26 -35 -58 -35 -70 0 -28 43 -70
92 -90 45 -19 151 -21 165 -3 20 25 34 84 40 169 4 53 10 88 17 88 90 1 244
23 280 38 97 43 297 266 369 411 l42 85 -1 120 c-1 194 -46 303 -199 492 -102
124 -135 190 -135 264 0 82 25 112 89 108 46 -3 46 -3 82 -72 20 -37 50 -81
68 -98 17 -16 31 -35 31 -42 0 -32 74 -157 115 -195 39 -36 50 -41 93 -41 69
0 109 30 149 110 18 36 38 87 45 114 12 46 12 50 -7 60 -40 22 -115 106 -141
158 -31 63 -51 87 -81 99 -32 12 -41 66 -15 92 17 16 41 22 134 29 72 7 124
16 143 27 49 28 65 94 76 321 5 107 13 227 17 265 l7 70 69 -130 c38 -71 75
-147 81 -170 13 -44 44 -62 88 -51 64 16 73 70 27 155 -22 40 -27 58 -20 71
15 28 12 87 -6 123 -9 18 -37 56 -63 86 -25 29 -75 92 -111 139 -75 99 -126
141 -207 172 -71 26 -101 21 -110 -21 l-6 -31 -18 30 c-24 36 -100 78 -159 86
-27 4 -66 1 -97 -7 l-52 -14 -39 41 c-92 96 -116 170 -69 214 53 50 121 53
333 17 198 -34 216 -33 260 10 33 33 38 35 105 35 180 0 226 53 159 186 -16
32 -27 60 -25 62 2 2 25 -12 51 -32 55 -42 81 -51 129 -42 41 8 65 38 65 83 0
79 60 33 92 -70 22 -73 21 -144 -2 -172 -7 -8 -25 -15 -39 -15 -39 0 -59 -19
-72 -70 -27 -103 18 -169 182 -270 112 -69 138 -98 174 -194 52 -139 103 -212
142 -204 40 7 48 52 46 244 -1 100 -7 193 -12 207 -9 23 -7 31 14 51 53 53 15
170 -93 289 -34 37 -62 72 -62 77 0 5 30 6 71 3 62 -5 73 -3 100 16 25 19 35
21 58 13 36 -13 80 7 176 77 39 28 87 56 108 62 49 13 49 38 -3 117 -45 70
-64 106 -75 141 l-7 24 88 -5 c73 -4 101 -11 154 -37 94 -45 170 -41 170 10 0
28 -83 103 -157 141 -89 47 -192 79 -399 123 -93 20 -218 49 -279 65 -187 50
-276 62 -495 67 -112 2 -206 6 -209 8 -11 12 -120 3 -242 -20 -191 -35 -241
-33 -395 15 -100 32 -152 43 -243 50 -119 9 -180 24 -263 66 -26 13 -81 35
-123 49 -65 22 -91 25 -193 24 -110 -1 -127 -4 -282 -51 -91 -28 -176 -57
-190 -65 -23 -13 -39 -11 -187 26 -186 47 -213 50 -220 21 -3 -11 -12 -20 -20
-20 -8 0 -61 24 -117 54 -55 30 -125 61 -155 70 -68 20 -186 20 -311 1 -141
-22 -218 -19 -329 11 -84 23 -107 26 -188 20 -51 -3 -100 -9 -109 -13 -36 -14
-1 18 45 42 27 13 51 31 54 40 10 25 -9 60 -50 94 -89 73 -242 102 -538 99
-110 -1 -240 -4 -288 -7z m627 -86 c67 -14 156 -50 156 -63 0 -4 -22 -22 -49
-40 -74 -51 -123 -105 -119 -133 3 -23 6 -24 88 -23 47 0 128 4 180 8 87 8
103 6 185 -18 106 -31 194 -33 352 -10 63 9 144 14 194 12 91 -4 104 -9 250
-91 85 -48 141 -59 203 -39 46 15 47 15 74 -11 38 -37 103 -58 198 -64 88 -6
137 9 149 46 13 42 335 116 469 109 59 -3 91 -13 186 -55 155 -68 168 -72 305
-83 93 -7 145 -17 230 -45 153 -50 239 -55 415 -23 131 24 144 25 405 18 285
-8 350 -17 545 -70 58 -15 182 -44 275 -64 94 -20 197 -45 230 -55 l60 -19
-95 -1 c-108 -1 -120 -7 -120 -60 0 -55 16 -101 59 -172 34 -55 38 -65 24 -74
-8 -5 -51 -35 -94 -67 l-80 -56 -39 15 c-36 14 -41 14 -65 -1 -14 -9 -25 -21
-25 -27 0 -7 -27 -9 -83 -4 -102 9 -117 -1 -117 -73 0 -55 23 -97 85 -158 74
-71 107 -160 65 -171 -25 -7 -34 -41 -26 -91 21 -121 24 -155 24 -232 1 -70
-1 -81 -10 -60 -89 200 -102 217 -231 294 -118 70 -157 108 -157 151 0 29 5
36 43 54 48 23 81 72 90 135 13 81 -32 213 -92 274 -26 26 -40 32 -75 32 -53
0 -84 -26 -92 -80 -8 -50 -23 -51 -81 -2 -57 45 -109 50 -160 14 -41 -29 -41
-47 -3 -99 35 -47 62 -108 53 -117 -4 -3 -46 -6 -94 -6 -98 0 -131 -9 -171
-47 -31 -29 -46 -29 -236 7 -175 34 -266 24 -352 -35 -106 -74 -87 -183 60
-338 l77 -82 49 23 c49 22 74 26 127 24 43 -3 95 -59 103 -111 8 -49 35 -66
97 -58 28 4 37 2 37 -10 0 -8 13 -27 29 -42 53 -50 65 -86 65 -201 0 -160 -14
-439 -26 -498 -12 -64 -26 -72 -131 -72 -95 0 -144 -15 -184 -55 -29 -29 -33
-40 -33 -83 0 -70 13 -97 60 -127 22 -14 40 -31 40 -39 0 -21 73 -127 115
-168 l38 -37 -17 -46 c-27 -70 -61 -105 -102 -105 -28 0 -39 7 -64 42 -16 22
-44 78 -61 124 -23 59 -38 85 -55 93 -15 6 -36 36 -54 75 -37 77 -74 107 -139
114 -56 5 -120 -19 -128 -48 -3 -11 -9 -20 -14 -20 -5 0 -18 -9 -29 -20 -42
-42 -15 -187 55 -295 18 -27 67 -92 108 -143 120 -149 168 -273 170 -437 1
-79 -21 -140 -91 -242 -57 -84 -218 -251 -265 -275 -29 -14 -73 -23 -146 -29
-210 -16 -211 -17 -212 -127 0 -42 -3 -95 -7 -117 -7 -38 -9 -40 -44 -39 -21
1 -49 9 -63 18 l-25 17 39 52 c52 70 64 95 57 121 -7 30 -46 46 -112 46 -104
0 -163 -48 -172 -141 -8 -87 37 -178 165 -326 121 -140 183 -266 183 -371 0
-63 -25 -95 -90 -117 -27 -9 -65 -27 -85 -41 -23 -15 -50 -24 -74 -24 -33 0
-43 6 -66 36 -16 21 -49 46 -77 58 -40 18 -55 32 -76 71 -43 79 -145 125 -198
90 -41 -27 -57 -78 -50 -160 l6 -70 -55 59 c-84 91 -98 128 -105 276 -6 144
-17 171 -76 190 -49 17 -166 8 -200 -15 -21 -13 -32 -15 -50 -6 -45 20 -56 53
-64 194 -8 145 -37 259 -72 290 -26 22 -72 21 -127 -3 -55 -25 -61 -25 -140 6
-56 23 -69 25 -101 15 -59 -18 -87 -47 -129 -134 -58 -120 -175 -256 -286
-332 -49 -33 -97 -73 -109 -88 -31 -42 -34 -147 -7 -236 12 -38 21 -82 21 -98
0 -40 -41 -129 -65 -139 -13 -6 -23 -24 -28 -52 -7 -36 -14 -45 -44 -57 -50
-21 -76 -19 -107 10 -54 50 -77 153 -80 355 -2 161 -18 196 -132 292 -103 87
-112 107 -123 291 -4 79 -11 149 -15 155 -10 17 -51 15 -66 -3 -20 -24 -35
-18 -45 17 -13 42 -32 45 -100 17 l-55 -23 -28 20 c-15 11 -38 44 -52 74 -99
214 -126 245 -215 237 -28 -2 -93 -22 -147 -45 -114 -49 -182 -55 -276 -22
-66 23 -98 46 -216 152 -100 88 -147 107 -229 88 -65 -14 -88 0 -179 107 -88
104 -148 153 -188 153 -75 0 -116 -56 -107 -145 6 -61 60 -195 93 -234 21 -24
25 -25 54 -14 23 9 38 9 52 2 26 -14 48 -68 48 -117 0 -50 14 -62 74 -62 65 0
118 25 207 95 97 75 105 74 111 -19 6 -90 37 -150 103 -199 65 -48 80 -93 51
-160 -13 -31 -108 -127 -195 -197 -23 -19 -67 -65 -97 -102 -69 -85 -133 -134
-265 -202 -57 -29 -152 -78 -211 -109 -92 -49 -116 -57 -162 -57 -90 0 -113
29 -140 178 -19 105 -54 171 -161 300 -100 122 -115 145 -195 321 -35 78 -92
179 -134 240 -103 149 -254 394 -267 431 -14 39 -7 97 31 261 55 235 31 368
-54 304 -29 -22 -44 -19 -101 20 -75 52 -127 56 -240 16 -49 -17 -100 -31
-113 -31 -68 0 -150 82 -178 178 -20 67 -12 114 23 142 24 19 35 20 104 14
l77 -6 84 45 c136 74 152 76 299 28 152 -49 293 -70 358 -51 59 16 111 67 111
109 0 18 -7 47 -14 66 -11 26 -12 35 -3 35 29 0 364 -51 418 -64 58 -13 62
-13 81 6 22 22 19 52 -14 131 -24 56 -19 95 17 143 18 23 25 45 25 76 0 55
-17 87 -60 116 -67 45 -105 142 -75 189 38 58 162 71 268 27 131 -53 209 -36
276 62 33 49 33 50 26 129 -10 107 -10 197 0 395 9 200 5 219 -77 340 -55 82
-61 95 -62 146 l-1 55 106 102 c135 130 171 197 138 259 -16 31 -38 127 -39
169 0 47 16 60 89 66 59 6 61 5 71 -22 6 -16 8 -36 4 -44 -4 -9 -8 -91 -11
-182 -3 -159 -3 -166 19 -200 62 -92 215 -92 263 0 22 43 19 108 -9 166 -29
62 -56 87 -128 119 -52 23 -57 28 -49 48 6 18 18 24 55 29 52 6 69 22 61 57
-7 28 1 28 105 -3 112 -34 164 -33 187 1 14 23 15 32 4 71 -6 25 -10 47 -9 48
2 1 59 23 128 50 114 44 135 49 242 56 142 9 184 26 207 81 13 31 21 38 46 39
17 1 82 5 145 9 154 11 399 3 484 -15z m-3999 -504 c80 -18 187 -34 277 -41
165 -12 222 -26 291 -70 61 -38 61 -66 3 -94 -36 -17 -38 -21 -22 -30 10 -6
35 -26 55 -44 25 -23 42 -31 56 -26 130 39 185 43 203 13 19 -30 61 -20 142
35 62 41 211 131 257 155 17 9 41 7 108 -9 173 -40 257 -20 259 63 1 20 3 37
6 37 3 0 37 -9 75 -20 46 -13 100 -20 156 -20 47 0 107 -3 133 -6 45 -7 46 -7
46 -44 0 -35 -8 -45 -109 -139 -121 -113 -143 -149 -142 -241 0 -62 11 -96 70
-223 66 -144 68 -153 67 -439 -1 -236 -3 -258 -20 -277 -25 -27 -91 -28 -221
-1 -119 25 -149 25 -201 1 -73 -33 -154 -157 -154 -236 0 -60 42 -137 103
-187 29 -23 53 -43 55 -44 2 -1 -6 -17 -18 -35 -31 -51 -41 -100 -30 -139 5
-18 8 -35 6 -38 -2 -2 -60 8 -128 21 -162 33 -226 40 -267 27 -44 -12 -119 6
-249 62 -113 48 -155 48 -206 -1 -18 -17 -37 -31 -44 -31 -7 0 -40 29 -75 64
-68 70 -121 93 -186 81 -79 -15 -101 -46 -111 -155 -8 -92 -28 -125 -113 -189
-43 -33 -68 -43 -150 -60 -117 -23 -167 -47 -185 -84 -20 -42 1 -92 70 -163
50 -53 58 -66 52 -88 -8 -32 -28 -33 -116 -6 -76 23 -176 85 -202 125 -15 23
-17 40 -13 91 4 35 12 72 19 83 10 16 10 23 0 33 -6 6 -12 21 -12 32 0 12 -13
35 -30 51 -16 17 -43 46 -59 66 -16 19 -54 48 -83 64 -29 15 -78 49 -108 75
-67 57 -140 107 -175 120 -41 16 -98 -4 -129 -44 -24 -32 -28 -34 -88 -32 -73
1 -88 -7 -147 -82 l-42 -53 -84 2 c-90 1 -105 -3 -105 -29 0 -34 -31 -61 -102
-88 -101 -37 -144 -83 -187 -199 -36 -93 -79 -151 -155 -207 -50 -36 -86 -36
-138 2 -59 43 -124 42 -228 -5 -43 -19 -85 -35 -94 -35 -24 0 -21 71 13 261
16 90 33 186 37 213 l7 48 76 -7 c42 -4 133 -18 202 -31 188 -36 209 -21 212
159 2 90 -1 106 -20 137 -26 42 -48 56 -99 66 -37 6 -74 29 -74 44 0 4 33 11
73 16 72 9 72 9 75 42 l3 32 43 -31 c58 -41 87 -37 104 16 17 52 34 70 108
111 77 43 141 99 190 165 32 44 51 58 130 94 111 52 115 60 84 164 -27 86 -21
146 16 191 41 49 55 40 48 -29 -6 -54 -4 -61 18 -84 13 -13 31 -26 39 -29 11
-5 9 -10 -10 -23 -29 -22 -54 -80 -46 -106 7 -20 42 -42 87 -53 20 -4 44 3 95
30 66 34 70 35 128 25 40 -7 90 -7 150 -1 50 5 133 14 185 20 124 13 165 25
190 57 25 33 25 35 -6 72 -23 27 -25 38 -21 88 4 55 30 154 55 216 7 16 12 34
12 42 0 8 5 17 10 20 17 11 11 22 -12 21 -26 -1 -65 51 -74 99 -5 27 1 44 32
92 88 137 104 206 57 243 -23 18 -36 21 -77 16 -58 -7 -96 -37 -132 -109 -19
-36 -37 -54 -79 -78 -101 -57 -115 -95 -90 -238 15 -86 15 -97 0 -149 -26 -87
-79 -185 -124 -225 -34 -31 -48 -37 -85 -37 -61 0 -78 19 -69 73 5 23 8 75 8
114 0 69 -2 74 -32 105 -29 29 -39 32 -85 31 -29 -1 -80 -11 -113 -23 -129
-45 -246 -34 -261 26 -9 36 20 125 49 152 17 16 50 27 113 38 129 22 200 58
263 133 28 34 69 89 91 122 23 32 58 70 78 84 70 46 90 115 39 131 -21 7 -20
8 9 20 38 16 291 81 389 100 102 20 253 11 410 -25z m2403 -57 c36 -23 62 -74
62 -121 0 -56 -21 -77 -69 -68 -68 13 -86 47 -76 148 7 68 7 69 34 62 14 -3
36 -13 49 -21z m-2763 -281 c-3 -15 -31 -68 -61 -118 -30 -50 -54 -101 -54
-113 0 -33 35 -119 65 -157 21 -28 24 -39 15 -54 -5 -11 -10 -27 -10 -36 0 -9
-12 -32 -27 -52 -23 -30 -27 -47 -31 -117 -3 -53 0 -91 8 -105 6 -13 9 -25 6
-28 -5 -5 -130 -20 -326 -39 l-65 -6 45 29 c75 50 115 105 167 233 43 103 48
150 29 253 -20 104 -15 117 52 151 55 28 78 51 112 114 14 26 36 52 50 59 33
17 33 17 25 -14z m-665 -523 c4 -14 2 -60 -4 -102 -10 -82 -13 -85 -64 -72
-21 6 -22 9 -16 85 5 55 3 83 -5 93 -14 17 5 25 53 23 23 -2 31 -8 36 -27z
m8558 -459 c43 -23 78 -59 156 -161 31 -41 79 -103 106 -138 55 -69 60 -86 31
-102 -22 -11 -30 -1 -92 120 -41 79 -165 208 -209 217 -17 3 -30 9 -30 13 0 4
-3 22 -6 39 -8 36 -5 37 44 12z m-7104 -700 c46 -42 86 -70 106 -74 36 -8 86
11 114 42 26 29 42 27 149 -18 50 -22 106 -42 123 -46 27 -5 35 -15 58 -68 14
-34 26 -67 26 -74 0 -16 -55 -33 -107 -33 -66 0 -184 27 -261 60 -38 16 -87
32 -109 36 -56 9 -155 -19 -235 -66 -65 -39 -104 -48 -155 -34 -20 6 -18 10
31 58 67 65 87 104 93 180 7 105 8 106 53 106 36 0 48 -8 114 -69z m-1590
-685 c36 -15 38 -18 32 -48 -3 -18 -8 -63 -12 -99 -16 -155 52 -212 286 -240
101 -12 123 -20 213 -81 186 -126 296 -117 322 25 18 96 116 89 255 -18 130
-100 185 -110 355 -64 204 55 268 49 302 -29 8 -20 24 -57 35 -81 26 -60 17
-95 -33 -127 -46 -28 -50 -54 -19 -122 20 -44 38 -70 130 -187 30 -39 89 -132
130 -209 66 -122 90 -154 196 -270 132 -145 159 -181 224 -301 97 -178 175
-265 284 -316 100 -47 175 -49 312 -10 137 39 166 39 193 5 19 -24 19 -29 6
-61 -22 -52 -64 -101 -181 -209 -114 -106 -227 -239 -325 -385 -81 -120 -351
-574 -399 -669 -82 -162 -87 -274 -25 -490 83 -288 58 -383 -157 -622 -226
-250 -265 -338 -252 -564 10 -177 7 -184 -75 -238 -83 -53 -113 -106 -136
-236 -23 -131 -70 -217 -175 -320 -100 -98 -170 -143 -255 -164 -72 -18 -430
-37 -480 -26 -106 24 -140 93 -185 380 -39 248 -47 269 -184 508 -198 343
-234 462 -187 622 10 36 44 132 76 214 88 232 105 368 56 464 -12 23 -46 69
-76 103 -69 78 -109 160 -130 269 -100 529 -125 603 -241 729 -70 76 -138 116
-259 155 -121 38 -171 47 -270 47 -114 1 -190 -16 -422 -92 -159 -52 -200 -62
-263 -63 -67 -1 -84 3 -145 33 -88 43 -197 150 -249 242 -71 128 -104 258
-151 589 -14 102 -41 253 -60 335 -44 199 -49 242 -35 312 23 113 76 179 277
344 72 60 152 133 178 161 63 73 107 170 143 318 50 204 80 255 185 314 34 19
71 44 81 55 23 25 44 27 53 6 18 -49 150 -61 283 -26 41 10 147 45 235 76 178
64 292 86 420 81 44 -2 97 -11 119 -20z m3052 -659 c27 -29 71 -79 97 -110 68
-80 112 -101 202 -94 107 8 118 -1 53 -46 -29 -20 -72 -50 -96 -68 -51 -36
-101 -54 -106 -36 -33 116 -84 177 -147 177 -38 0 -41 2 -60 48 -28 64 -49
149 -42 167 11 30 50 16 99 -38z m-1125 -209 c34 -57 89 -140 121 -185 35 -48
88 -144 130 -235 75 -164 110 -221 184 -308 86 -100 134 -171 149 -223 8 -28
13 -52 11 -54 -2 -3 -21 27 -41 66 -56 107 -111 180 -222 299 -109 117 -144
167 -218 311 -27 51 -86 140 -132 198 -46 57 -90 118 -99 134 -15 29 -14 31
18 63 18 18 34 34 35 35 0 0 29 -45 64 -101z"/>
<path d="M20704 3962 c-51 -34 -90 -245 -81 -438 l6 -122 -40 -10 c-35 -9 -41
-8 -50 10 -15 27 -85 58 -135 58 -42 0 -61 14 -97 72 -12 19 -13 29 -6 34 24
14 49 90 49 147 0 70 -20 110 -66 132 -66 31 -279 46 -356 25 -64 -18 -96 -55
-158 -185 -81 -169 -106 -184 -129 -79 -18 80 -34 109 -71 124 -41 17 -79 0
-129 -56 -37 -43 -72 -107 -150 -276 -34 -76 -46 -91 -88 -118 -26 -17 -100
-47 -163 -66 -257 -79 -292 -104 -420 -309 -30 -49 -46 -62 -114 -98 -68 -35
-84 -49 -117 -100 -53 -82 -63 -141 -53 -312 10 -178 10 -173 -5 -344 -7 -80
-19 -163 -28 -185 -8 -23 -16 -54 -17 -71 l-1 -30 91 0 c84 0 95 3 165 37 41
21 112 65 159 99 116 83 170 109 345 164 83 26 165 54 182 63 32 16 33 16 61
-11 21 -20 62 -38 140 -61 150 -45 179 -66 257 -187 71 -109 109 -141 165
-137 33 3 38 -1 75 -57 52 -76 112 -117 228 -154 137 -43 215 -53 373 -49 134
3 143 4 182 31 44 29 96 102 173 242 35 63 66 101 149 180 177 169 215 209
254 265 46 70 86 193 93 291 7 97 -11 155 -82 258 -60 87 -76 117 -152 285
-84 186 -110 262 -169 500 -60 244 -95 330 -151 374 -19 15 -47 37 -61 50 -26
23 -40 27 -58 14z m69 -122 c42 -33 71 -112 122 -325 26 -109 60 -235 75 -280
53 -152 184 -427 252 -528 97 -143 103 -194 46 -367 -34 -105 -81 -164 -272
-335 -102 -93 -154 -158 -216 -275 -25 -47 -65 -106 -90 -131 -41 -43 -51 -48
-104 -54 -117 -15 -267 6 -424 57 -113 36 -147 64 -196 158 -40 75 -56 84
-101 54 -33 -22 -42 -14 -121 108 -42 64 -79 109 -111 132 -45 34 -154 76
-234 91 -22 4 -49 20 -68 41 -27 28 -40 34 -74 34 -26 0 -51 -8 -67 -20 -14
-11 -30 -20 -37 -20 -21 0 -316 -102 -358 -123 -22 -11 -94 -56 -160 -100
-117 -79 -194 -117 -236 -117 -16 0 -19 4 -14 18 6 16 16 98 32 282 5 47 4
141 0 210 -16 257 8 328 133 390 78 38 109 69 158 153 26 45 62 97 81 116 42
41 124 79 251 116 219 63 268 106 354 309 60 140 108 218 138 224 13 3 19 -10
29 -58 27 -138 108 -179 190 -98 18 18 57 83 86 145 74 156 75 157 243 150
140 -5 185 -17 196 -49 9 -28 -15 -114 -37 -134 -26 -23 -24 -65 6 -123 40
-79 121 -132 181 -117 31 8 54 -8 54 -39 0 -44 20 -47 125 -21 54 14 103 30
108 35 7 7 6 33 -3 79 -22 118 0 432 30 432 4 0 19 -9 33 -20z"/>
<path d="M13633 3838 c-5 -7 -16 -33 -23 -57 -8 -25 -31 -70 -51 -100 -74
-112 -126 -152 -239 -182 -152 -40 -188 -106 -177 -324 3 -60 19 -193 36 -295
18 -102 35 -231 38 -288 7 -126 20 -149 76 -138 74 14 200 158 248 285 30 80
116 469 140 635 11 78 29 180 40 228 10 48 19 105 19 126 0 44 -18 103 -34
114 -18 12 -63 9 -73 -4z m11 -213 c-7 -33 -23 -125 -35 -205 -21 -150 -98
-517 -126 -605 -27 -87 -82 -179 -138 -235 l-55 -54 0 82 c0 47 -15 171 -36
294 -44 260 -49 405 -18 458 17 30 30 38 94 58 41 13 92 31 113 39 42 18 154
132 189 192 12 22 24 39 25 38 1 -1 -5 -29 -13 -62z"/>
<path d="M5988 494 c-71 -38 -60 -127 22 -169 62 -32 123 -9 165 61 21 35 22
41 9 66 -8 15 -28 34 -44 43 -37 19 -117 19 -152 -1z"/>
</g>
</svg>
