<?xml version="1.0" encoding="utf-8"?>
<!-- Generator: Adobe Illustrator 16.0.0, SVG Export Plug-In . SVG Version: 6.00 Build 0)  -->
<!DOCTYPE svg PUBLIC "-//W3C//DTD SVG 1.1//EN" "http://www.w3.org/Graphics/SVG/1.1/DTD/svg11.dtd">
<svg version="1.1" id="Layer_1" xmlns="http://www.w3.org/2000/svg" xmlns:xlink="http://www.w3.org/1999/xlink" x="0px" y="0px"
	 width="864px" height="864px" viewBox="0 0 864 864" enable-background="new 0 0 864 864" xml:space="preserve">
<g>
	<path d="M162.212,219.12c4.398,4.135,10.751,5.392,20.744,12.611c-6.393-8.082-12.17-14.174-22.432-20.654
		C151.314,205.258,157.812,214.984,162.212,219.12z"/>
	<path d="M766.813,502.546c-4.432-74.66-21.143-89.469-43.064-127.652c13.1,11.268,29.699,26.122,29.699,26.122
		c2.367-27.757-41.318-90.767-44.352-96.363c6.586,4.904,32.998,33.051,32.998,33.051c-10.691-66.308-68.803-107.438-92.928-123.538
		c0.568,0.117,33.289,8.972,33.289,8.972s-41.961-57.772-114.045-80.934l20.537-1.501c0,0-73.58-41.325-134.807-37.687
		c3.545-3.033,24.537-7.611,24.537-7.611c-53.646-8.591-102.727,4.964-137.039,18.207c2.975-2.759,6.396-6.037,8.968-8.814
		l3.789-4.095l-5.565,0.413c-33.715,2.482-64.9,17.213-87.685,27.955c-4.589,2.165-8.817,4.158-12.562,5.802
		c2.017-4.761,11.352-10.32,11.352-10.32l-6.04-0.549c-23.57,0.755-36.407,15.438-45.066,24.606
		c-3.281,3.476-6.558,8.438-9.442,10.542l-1.508,0.838c0,0,0,0.002-0.002,0.002l-3.328,1.852
		c-55.076,11.008-101.961,36.001-124.711,66.072c-22.751,30.073-31.394,70.758-24.948,91.682
		c7.556,24.522,14.51,35.138,21.756,39.294c3.985-1.724-2.518-25.958-0.276-38.275c1.022-5.623,3.088-14.601,9.067-22.532
		c13.688,12.495,81.506,13.732,118.413,9.437c11.218,7.569,28.243,18.782,46.94,31.633c32.633,22.429,68.438,51.693,72.969,89.51
		c-7.677,20.401-23.898,41.748-52.652,69.65c-127.038,123.253-95.066,184.057-95.066,184.057s3.615-41.698,55.752-83.294
		c10.843,12.68-14.153,61.473-14.153,61.473c41.884-27.777,74.664-82.586,92.002-107.683l9.012-8.812
		c-13.455,52.962-37.095,91.123-37.095,91.123c28.174-8.769,80.462-60.388,94.449-74.016c-4.895,12.187-29.021,88.204-29.021,88.204
		c22.012-8.885,76.778-62.682,85.577-76.283c0.035,8.334-18.186,45.738-18.186,45.738c7.871,1.649,45.822-37.974,50.959-41.535
		c-5.201,12.961-51.955,75.16-51.955,75.16s67.777-31.947,109.643-92.27c-3.891,14.667-37.02,103.622-37.02,103.622l115.461-94.938
		l-69.197,121.704c31.904-23.74,112.285-66.921,140.443-102.419c-3.539,19.582-36.107,88.088-36.107,88.088
		s64.883-14.443,86.898-116.406c7.736,18.109,20.842,137.874,20.842,137.874s52.709-88.581,3.154-227.096
		C739.214,472.7,766.813,502.546,766.813,502.546z M239.233,134.074c-4.621,6.494-8.068,14.863-7.797,17.311l0.279,2.507l2.147-1.32
		c10.913-6.701,31.783-17.118,44.639-23.031c-15.278,13.491-26.679,30.884-28.261,40.601l-0.777,4.774l3.469-3.37
		c4.237-4.111,20.604-9.019,34.274-11.396c-28.209,9.602-45.864,26.205-47.18,45.264l-0.256,3.698l2.866-2.354
		c5.645-4.633,17.812-10.611,29.701-13.451c-11.303,4.464-24.748,11.646-30.24,20.635c-6.663-4.903-34.16-26.349-33.636-45.89
		C210.045,165.132,222.658,142.59,239.233,134.074z M65.826,299.488c-3.243,4.826-5.137,9.842-5.562,14.214
		c-1.214,12.463-2.463,13.707-5.608-7.507c-3.116-21.011,1.791-46.374,25.413-75.767c12.632-15.718,44.405-34.882,60.268-41.709
		c17.166-7.25,36.749-13.202,58.253-17.55c9.085,19.279,25.954,45.418,49.021,53.044c1.104,0.365,2.888,1.096,5.011,2.014
		c0.696,0.629,1.72,1.227,3.126,1.784c9.129,3.618,12.141,4.462,20.096,11.49c7.956,7.027,21.175,24.068,21.229,30.675
		c0.027,3.515,2.384,8.313,5.871,11.725h-0.001c4.628,7.534,18.349,19.393,45.066,23.604c0.46,0.331,0.878,0.653,1.287,0.972
		c-11.663,4.634-25.577-0.99-37.792-6.994c-1.9-0.932-3.752-1.84-5.54-2.681c-14.195-6.657-35.83-13.582-50.821-14.676
		c-3.622-5.026-12.385-11.361-23.546-14.738c4.778,4.167,9.546,6.34,12.208,11.633c-7.227-2.854-22.986-7.19-35.598-6.122
		c5.045,1.085,10.197,2.861,14.689,4.792c-0.702,0.037-1.408,0.071-2.078,0.18c-4.223,0.683-9.67,0.482-16.057-0.153
		c-3.262-0.517-10.859-1.301-15.612-1.967c-10.731-1.501-22.698,0.498-34.211,3.552c-11.267-0.378-24.32-6.126-33.312-8.662
		c-0.578-0.344-1.79-0.575-2.196-0.731c-14.92-5.701-38.015,1.459-44.929,6.464C68.507,280.711,66.308,286.807,65.826,299.488z
		 M73.171,291.134c0.539-4.531,2.064-8.791,6.556-12.041c6.914-5.008,33.383-8.812,47.992-2.36l-0.002-0.001
		c5.286,2.213,11.395,4.386,17.952,5.304c-0.41,0.185-0.649,0.366-0.731,0.534c-8.484,0.946-19.139-1.988-28.575-2.366
		C97.459,276.787,82.782,282.603,73.171,291.134z M187.335,301c-21.504-6.304-61.344-0.009-95.833-7.357
		c3.422-4.069,12.441-9.565,23.031-11.446c11.677,1.934,29.255,6.702,42.402,1.145c7.462-0.277,18.405-0.587,25.467-0.626
		c10.742-0.062,24.803,0.023,32.201-0.44c4.206-0.264,12.023-0.567,19.635-0.133c5.539,1.665,13.766,3.937,18.6,4.346l0.007,0.065
		c14.479,0.34,37.578,5.389,52.186,12.237c1.776,0.833,3.615,1.737,5.503,2.665c9.656,4.743,20.01,10.822,30.064,10.822h0.549
		c3.614,0,8.574-0.618,12.018-2.226c5.105,5.899,1.045,9.014,0.725,10.52c-10.042,5.376-20.656,3.059-38.957,0.325
		c-18.701-2.793-41.426-23.423-50.797-23.44c-9.37-0.016-27.812,0.2-39.365-5.965C224.77,291.491,201.981,297.447,187.335,301z
		 M215.737,306.065c4.555-0.819,11.33-1.522,19.641-1.522c9.688,0,31.657,1.113,48.536,10.235
		c-18.299-5.628-40.863-5.699-40.863-5.699s23.698,18.071,32.577,23.358c-10.013-2.96-17.615-4.041-17.615-4.041
		c15.438,17.666,40.048,32.366,68.227,41.191c-15.641-0.06-27.836-4.258-27.836-4.258c14.999,13.036,27.836,34.188,29.789,46.184
		C282.287,347.274,229.993,313.726,215.737,306.065z M228.39,631.599c8.825-18.793,5.761-41.085,0.084-47.034l-0.269-0.281
		l-0.389,0.039c-17.718,1.728-38.563,27.694-46.572,38.58c13.306-35.542,38.392-64.252,52.172-80.024
		c0.938-1.074,1.825-2.09,2.654-3.044c1.862,7.377,1.426,22.178,1.421,22.334l-0.062,2.001l39.712-39.247l-37.038,68.734
		l2.283-1.162c1.017-0.519,21.829-11.153,32.01-19.218C260.989,595.937,248.985,611.146,228.39,631.599z M741.843,636.3
		c-1.27-53.028-30.391-124.623-30.391-124.623s-16.203,102.291-53.434,125.263c17.945-37.819,30.684-107.254,30.684-107.254
		c-18.434,49.167-114.584,112.846-133.992,122.74c17.623-21.361,56.971-100.943,61.055-118.639c0,0-100.771,81.288-110.637,88.649
		c2.354-7.213,40.229-121.141,40.229-121.141c-6.527,9.31-75.416,94.351-99.008,109.545c3.234-5.776,45.52-75.147,42.945-82.609
		c0,0-56.592,55.794-58.939,57.019c2.012-7.466,7.598-51.981,7.598-51.981c-9.771,17.653-64.566,78.07-82.105,89.971
		c8.83-12.432,29.095-91.694,31.723-102.641c0,0-63.577,71.449-86.769,81.046c8.629-10.884,29.989-105.162,29.989-105.162
		c-2.802,3.733-52.15,68.106-70.443,77.315c4.281-10.582,63.688-97.727,65.188-114.302c-4.213,11.085-49.402,55.123-77.323,81.648
		c-0.982-2.238-1.404-4.974-0.812-8.301l26.704-36.559c22.597-25.359,43.079-50.703,48.98-72.985
		c1.56,8.49,3.097,16.891-5.068,27.846c14.56-10.077,19.31-27.387,17.795-44.89c0,0,12.927,22.026,3.595,41.569
		c15.055-17.099,9.934-40.904,0.228-54.027c19.878,18.858,26.576,32.608,8.479,78.258c17.146-18.383,27.476-60.424,2.88-81.439
		c25.581,15.421,30.288,25.062,33.385,37.71c3.895-12.101-5.48-37.919-26.609-48.586c0,0,9.093-1.396,33.743,7.83
		c-8.828-16.046-59.018-19.697-102.203-44.345c0,0,30.376,10.324,45.632,11.485c-19.401-7.689-55.375-24.682-65.441-38.041
		c11.657,7.351,47.399,20.861,57.481,22.473c-1.985-0.656-9.475-4.417-16.347-13.192c23.901,6.477,40.855,0.666,43.568-4.694
		c0.553,0.337,1.884,0.499,4.606,0.537c13.925,0.188,27.802-2.593,34.266,4.196c-8.332-13.515-12.383-6.371-25.434-9.529
		c-15.11-3.654,3.391-2.015-14.439-14.897c-22.195-4.548-30.941-11.271-35.922-17.761c-4.361-4.844-5.9-7.002-9.973-13.956
		c-5.324-9.093-7.461-11.998-9.479-19.754c-1.894-7.283-3.16-10.104,1.813-11.547c2.771-0.803,2.643,1.884,8.108,9.86
		c5.465,7.977,17.266,21.393,23.646,25.971c6.788,4.871,7.23-1.359-0.298-7.688c-7.527-6.332-15.695-15.831-16.488-20.763
		c-0.712-4.405-2.873-7.748-1.346-12.774c3.004,3.872,11.584,9.761,11.92,11.859c2.395,14.979,18.218,26.131,35.287,24.656
		c17.069-1.474,29.874-14.588,28.604-29.291c-0.419-4.856-2.339-9.085-5.306-12.599c1.99,0.96,3.558,2.102,4.517,3.476
		c6.289,9.008,7.779,9.246,9.234,17.569c0.996,5.687-5.315,12.177-8.005,15.714c-2.302,1.657-3.43,8.435-5.532,10.44
		c-2.545,2.423,0,0-7.716-3.191c-7.714-3.19,2.543,3.913-2.44,6.823c-4.983,2.911-12.368,3.55-29.5-1.133
		c0.325,11.991,12.954,10.553,8.864,7.851c-4.092-2.702,4.532-1.743,15.686-0.229c11.151,1.519,17.454,4.278,27.027,3.452
		c-7.123-2.693-11.329-6.738-4.932-9.247c6.397-2.505,10,4.124,21.088,14.461c0.23-6.907-22.986-24.729-20.605-25.862
		c1.595-0.763,2.474-1.626,1.832-2.459c2.611-2.137,5.294-5.944,9.605-9.737c6.484-5.704,7.611-3.054,14.207-3.257
		c6.598-0.203,26.266,7.89,35.064,12.226c7.746,3.817,22.859-0.519,32.828,1.493c6.828,1.376,26.047,8.113,35.619,4.099
		c-11.385,0.002-31.371-9.659-39.549-10.788c-8.18-1.13-16.77-0.779-25.807-3.294c-9.031-2.515-18.064-7.139-28.273-13.784
		c-9.607-6.256-9.367-11.846-20.807-16.737c-11.447-4.889-28.252-15.357-41.27-16.271c-1.723-0.121-3.345-0.152-4.888-0.123
		c-11.794-3.177-32.948-2.543-42.568-3.353c-9.62-0.812-23.659-0.869-31.252,0.522c-9.423-0.871-23.388,7.322-34.949,8.916
		c8.74-10.224,28.563-23.07,59.616-24.436c-17.139-10.21-53.548-1.983-61.88,4.613c8.25-18.347,56.302-42.027,91.828-34.812
		c-24.003-15.779-62.737-5.911-74.914-2.285c8.315-18.288,23.768-29.919,39.14-37.746c0.198-0.027,10.87-4.987,10.87-4.987
		c2.976-1.229,5.879-2.339,8.653-3.343c-2.799,3.245-20.413,25.41-20.413,25.41c1.821-0.429,8.361-2.966,17.717-6.471l5.042-1.878
		c29.327-10.864,79.016-28.044,104.881-25.002c-9.846,3.753-12.34,10.063-12.34,10.063c0.816-0.042,85.957-8.504,134.09,22.397
		l-15.074,2.037c0,0,88.324,36.507,113.895,67.946c-3.338-0.816-37.33-2.561-37.33-2.561c-10.59-2.96,88.348,53.759,107.369,103.144
		c-4.783-5.995-31.473-24.397-32.521-23.457c-1.992,1.791,30.74,60.256,38.891,78.014c-0.408-0.803-1.059,3.674-37.469-25.417
		c19.391,42.414,55.686,96.916,61.193,134.136l-36.666-28.088C721.458,462.009,760.058,598.359,741.843,636.3z M342.218,222.054
		c5.427,0.708,23.996,0.492,36.143,3.784c3.352,3.293,5.532,7.723,6.014,13.282c1.271,14.704-10.149,27.697-25.508,29.023
		c-15.355,1.328-28.836-9.512-30.107-24.215C327.864,233.561,333.463,226.055,342.218,222.054z"/>
	<path d="M160.147,200.463h0.002c0.372,0.383,0.913,0.819,1.667,1.316c8.475,5.604,21.812,18.597,28.518,19.671
		c6.706,1.073,11.777,2.475,6.212-4.67c-7.646-9.812-17.774-14.354-21.816-16.483c-1.588-0.837-5.227-1.649-8.549-1.992
		c-3.086-3.292,1.873-3.732,8.68-4.449C158.431,188.662,154.568,196.315,160.147,200.463z"/>
	<circle cx="355.057" cy="240.001" r="12.445"/>
	<path d="M516.745,291.491c5.344-1.931,18.668,2.271,24.197,1.492c-34.695-18.883-66.166-0.421-116.146-30.327
		c1.57,5.347,21.053,16.29,21.053,16.29s-5.84,2.39-11.344,2.499c24.143,3.055,72.336,46.283,115.125,48.28
		c-15.307-6.272-46.885-19.36-63.082-34.286c5.473-0.475,31.799,12.374,46.299,22.877c0,0-9.785-12.171-33.119-26.825
		c5.074-0.806,48.068,25.534,62.092,39.016C558.892,317.902,543.341,310.135,516.745,291.491z"/>
</g>
</svg>
