<svg width="640" height="480" xmlns="http://www.w3.org/2000/svg" xmlns:svg="http://www.w3.org/2000/svg">
 <!-- Created with SVG-edit - http://svg-edit.googlecode.com/ -->
 <g>
  <title>Layer 1</title>
  <path id="svg_13" d="m7.5755,32.87053l22.83074,0c0,0 -11.79413,-25.91599 5.75911,-26.32736c16.24445,-0.38066 14.39777,26.53308 9.25571,26.53308c-5.14206,0 -4.93637,-26.3274 8.43297,-26.3274c13.36936,0 15.42618,26.32733 8.02161,26.32733c-7.40455,0 -4.52501,-26.32733 8.63867,-26.32733c13.16367,0 15.83754,26.3274 7.61025,26.3274c-8.2273,0 -3.70229,-26.3274 9.25569,-26.3274c12.958,0 11.31253,26.32733 6.9932,26.32733c-4.31932,0 22.00802,-0.20568 22.00802,-0.20568m-111.40147,-1.36615l2.59104,0l0,2.59105l-2.59104,0l0,-2.59105zm111.40895,0.1152l2.59104,0l0,2.59106l-2.59104,0l0,-2.59106z" stroke-linecap="null" stroke-linejoin="null" stroke-dasharray="null" stroke-width="5" stroke="#000000" fill="#ffffff"/>
  <path id="svg_14" d="m71.54656,50.57734l7.5756,0l0,40.90371l-7.5756,0l0,-40.90371zm8.14715,20.79986l30.90395,0m-99.22781,-0.69648l29.85168,0l0,-22.68727l30.44874,23.28431l-30.44832,23.48319l0,-23.98155m-32.22139,-1.36713l2.37701,0l0,2.37702l-2.37701,0l0,-2.37702zm101.623,0.71153l2.37701,0l0,2.37703l-2.37701,0l0,-2.37703z" stroke-linecap="null" stroke-linejoin="null" stroke-dasharray="null" stroke-width="5" stroke="#000000" fill="#ffffff"/>
 </g>
</svg>