<?xml version="1.0" encoding="utf-8"?>
<!-- Generator: Adobe Illustrator 19.1.0, SVG Export Plug-In . SVG Version: 6.00 Build 0)  -->
<svg version="1.1" id="Layer_1" xmlns="http://www.w3.org/2000/svg" xmlns:xlink="http://www.w3.org/1999/xlink" x="0px" y="0px"
	 viewBox="0 0 2400 2400" style="enable-background:new 0 0 2400 2400;" xml:space="preserve">
<style type="text/css">
	.st0{fill:none;stroke:#000000;stroke-width:27.3133;stroke-linecap:round;stroke-linejoin:round;stroke-miterlimit:10;}
	.st1{fill:#FFFFFF;stroke:#000000;stroke-width:27.3133;stroke-linecap:round;stroke-linejoin:round;stroke-miterlimit:10;}
</style>
<g>
	<g>
		<path class="st0" d="M1243.9,1533.8c563.3-202.6,833.4-885.5,833.4-885.5S1434.1,293.9,870.8,496.5S37.4,1382,37.4,1382
			S680.6,1736.4,1243.9,1533.8z"/>
		<path class="st1" d="M1470,539c0,0,195.9-296.3,264-263.9c68.1,32.4-1.1,232.8,78,228.9s250.1-59.2,139.4,231.9"/>
		<path class="st1" d="M138.5,1099.4c30.4-69.3,89.2-54.5,97.9-106.5c8.7-52.1-73.7-151.2-24.1-190.8s249.3,81,275.9,32.9
			c26.6-48.1-114.9-71.4,28.1-212.2c52.6-51.8-33-144,38.7-162.1c71.7-18.1,163,66.9,163,66.9l226.7,306.6l-528.3,499.7
			C416.4,1333.9,108.1,1168.6,138.5,1099.4z"/>
		<path class="st0" d="M238.1,1123.4c0,0,94.3,83.6,268.5,73"/>
		<g>
			<g>
				<path class="st1" d="M758.8,834.6l-16.7-100.3c-16.4-80.9,135.1-179.8,338.3-221s381.2-9,397.6,71.8l16.7,100.3"/>
				
					<ellipse transform="matrix(0.1987 0.9801 -0.9801 0.1987 1647.8127 -495.2904)" class="st1" cx="1126.8" cy="760" rx="149.4" ry="375.4"/>
			</g>
		</g>
		<g>
			<path class="st1" d="M127.3,1403.4l14.2-91.9c7.3-47.2,152-64.1,323.2-37.6s304.1,86.3,296.8,133.5l-14.2,91.9"/>
			
				<ellipse transform="matrix(-0.153 0.9882 -0.9882 -0.153 1938.469 1241.2455)" class="st1" cx="437.3" cy="1451.4" rx="86.6" ry="313.7"/>
		</g>
		<path class="st1" d="M1515.4,1442.9c-1.5-29.4-36.7-52.3-45.3-79c-8.9-27.7,6.1-66.7-9.4-90.6c-15.7-24.2-57.6-26.5-78.8-45.7
			c-21.2-19.2-27.7-60.7-53.3-73.8c-25.3-13-62.6,5.8-91.1-0.2c-27.5-5.9-53.7-38.6-83.2-37.1c-29.4,1.5-52.3,36.7-79,45.3
			c-27.7,8.9-66.7-6.1-90.6,9.4c-24.2,15.7-26.5,57.6-45.7,78.8c-19.2,21.2-60.7,27.7-73.8,53.3c-13,25.3,5.8,62.6-0.2,91.1
			c-5.9,27.5-38.6,53.7-37.1,83.2c1.5,29.4,36.7,52.3,45.3,79c8.9,27.7-6.1,66.7,9.4,90.6c15.7,24.2,57.6,26.5,78.8,45.7
			c21.2,19.2,27.7,60.7,53.3,73.8c25.3,13,62.6-5.8,91.1,0.2c27.5,5.9,53.7,38.6,83.2,37.1c29.4-1.5,52.3-36.7,79-45.3
			c27.7-8.9,66.7,6.1,90.6-9.4c24.2-15.7,26.5-57.6,45.7-78.8c19.2-21.2,60.7-27.7,73.8-53.3c13-25.3-5.8-62.6,0.2-91.1
			C1484.1,1498.6,1516.8,1472.3,1515.4,1442.9z"/>
		<path class="st1" d="M1137.3,1085.9c-1.5-29.4-36.7-52.3-45.3-79c-8.9-27.7,6.1-66.7-9.4-90.6c-15.7-24.2-57.6-26.5-78.8-45.7
			c-21.2-19.2-27.7-60.7-53.3-73.8c-25.3-13-62.6,5.8-91.1-0.2c-27.5-5.9-53.7-38.6-83.2-37.1c-29.4,1.5-52.3,36.7-79,45.3
			c-27.7,8.9-66.7-6.1-90.6,9.4c-24.2,15.7-26.5,57.6-45.7,78.8c-19.2,21.2-60.7,27.7-73.8,53.3c-13,25.3,5.8,62.6-0.2,91.1
			c-5.9,27.5-38.6,53.7-37.1,83.2c1.5,29.4,36.7,52.3,45.3,79c8.9,27.7-6.1,66.7,9.4,90.6c15.7,24.2,57.6,26.5,78.8,45.7
			c21.2,19.2,27.7,60.7,53.3,73.8c25.3,13,62.6-5.8,91.1,0.2c27.5,5.9,53.7,38.6,83.2,37.1c29.4-1.5,52.3-36.7,79-45.3
			c27.7-8.9,66.7,6.1,90.6-9.4c24.2-15.7,26.5-57.6,45.7-78.8c19.2-21.2,60.7-27.7,73.8-53.3c13-25.3-5.8-62.6,0.2-91.1
			C1106,1141.6,1138.8,1115.3,1137.3,1085.9z"/>
		<path class="st0" d="M589.5,1059.3c-3.9,18.3-25.7,35.8-24.7,55.3c1,19.6,24.4,34.8,30.1,52.6c5.9,18.4-4.1,44.4,6.2,60.3
			c10.4,16.1,38.3,17.6,52.4,30.4"/>
		<path class="st0" d="M669.2,910.8c-16.1,10.4-17.6,38.3-30.4,52.4"/>
		<g>
			<path class="st1" d="M1173.1,1491.3l-111.1,5.6c-57.2,2.9-111.9-162.7-122.3-369.8s27.5-377.3,84.7-380.2l111.1-5.6"/>
			
				<ellipse transform="matrix(0.9987 -5.007756e-02 5.007756e-02 0.9987 -54.454 59.2055)" class="st1" cx="1154.3" cy="1116.3" rx="103.6" ry="375.4"/>
		</g>
		<path class="st1" d="M304.7,905.5c0,0,74.3,116.1,172.7,138.7"/>
		<path class="st1" d="M589.1,540.1c0,0,57.9,40.3,68.5,252.4"/>
		<path class="st1" d="M528.1,726c60.3,53.8,43,151,43,151"/>
		<path class="st1" d="M1788.7,885.1c-1.5-29.4-36.7-52.3-45.3-79c-8.9-27.7,6.1-66.7-9.4-90.6c-15.7-24.2-57.6-26.5-78.8-45.7
			c-21.2-19.2-27.7-60.7-53.3-73.8c-25.3-13-62.6,5.8-91.1-0.2c-27.5-5.9-53.7-38.6-83.2-37.1c-29.4,1.5-52.3,36.7-79,45.3
			c-27.7,8.9-66.7-6.1-90.6,9.4c-24.2,15.7-26.5,57.6-45.7,78.8c-19.2,21.2-60.7,27.7-73.8,53.3c-13,25.3,5.8,62.6-0.2,91.1
			c-5.9,27.5-38.6,53.7-37.1,83.2c1.5,29.4,36.7,52.3,45.3,79c8.9,27.7-6.1,66.7,9.4,90.6c15.7,24.2,57.6,26.5,78.8,45.7
			c21.2,19.2,27.7,60.7,53.3,73.8c25.3,13,62.6-5.8,91.1,0.2c27.5,5.9,53.7,38.6,83.2,37.1c29.4-1.5,52.3-36.7,79-45.3
			c27.7-8.9,66.7,6.1,90.6-9.4c24.2-15.7,26.5-57.6,45.7-78.8s60.7-27.7,73.8-53.3c13-25.3-5.8-62.6,0.2-91.1
			C1757.5,940.8,1790.2,914.5,1788.7,885.1z"/>
		<path class="st0" d="M1400.5,1108.9c18.5,4,36.2,26,56,25"/>
		<path class="st0" d="M1238.5,796.6c-8.7,17,3.9,42.2-0.2,61.4c-4,18.5-26,36.2-25,56c1,19.8,24.7,35.2,30.5,53.2
			c6,18.7-4.1,45,6.3,61c10.6,16.3,38.8,17.8,53.1,30.8"/>
		<path class="st1" d="M2201.1,1025c-1.5-29.4-36.7-52.3-45.3-79c-8.9-27.7,6.1-66.7-9.4-90.6c-15.7-24.2-57.6-26.5-78.8-45.7
			c-21.2-19.2-27.7-60.7-53.3-73.8c-25.3-13-62.6,5.8-91.1-0.2c-27.5-5.9-53.7-38.6-83.2-37.1c-29.4,1.5-52.3,36.7-79,45.3
			c-27.7,8.9-66.7-6.1-90.6,9.4c-24.2,15.7-26.5,57.6-45.7,78.8c-19.2,21.2-60.7,27.7-73.8,53.3c-13,25.3,5.8,62.6-0.2,91.1
			c-5.9,27.5-38.6,53.7-37.1,83.2c1.5,29.4,36.7,52.3,45.3,79c8.9,27.7-6.1,66.7,9.4,90.6c15.7,24.2,57.6,26.5,78.8,45.7
			c21.2,19.2,27.7,60.7,53.3,73.8c25.3,13,62.6-5.8,91.1,0.2c27.5,5.9,53.7,38.6,83.2,37.1c29.4-1.5,52.3-36.7,79-45.3
			c27.7-8.9,66.7,6.1,90.6-9.4c24.2-15.7,26.5-57.6,45.7-78.8c19.2-21.2,60.7-27.7,73.8-53.3c13-25.3-5.8-62.6,0.2-91.1
			C2169.9,1080.7,2202.6,1054.4,2201.1,1025z"/>
		<path class="st0" d="M1742.6,864.8c-14.9,9.6-16.2,35.3-28,48.4c-11.8,13-37.2,17-45.3,32.7c-8,15.5,3.6,38.4-0.2,55.9
			c-3.6,16.9-23.7,33-22.8,51c0.9,18,22.5,32.1,27.8,48.5c5.5,17-3.7,41,5.7,55.6c9.6,14.9,35.3,16.2,48.4,28"/>
		<path class="st1" d="M2077.3,648.3c0,0-270.1,682.9-833.4,885.5S37.4,1382,37.4,1382s560.2,1223.8,1863.7,535.3
			C2746.3,1470.9,2077.3,648.3,2077.3,648.3z"/>
		<line class="st1" x1="186.2" y1="1354.4" x2="198.1" y2="1277.8"/>
		<line class="st1" x1="241.5" y1="1348.2" x2="253.4" y2="1271.6"/>
		<line class="st1" x1="541.3" y1="1382.7" x2="546.3" y2="1321.8"/>
		<path class="st0" d="M1631,1425.7c234.9-184.5,389.4-437,467-586.5"/>
		<path class="st0" d="M1323.9,1598.8c75.8-27.2,146.2-63.2,211.4-105"/>
		<path class="st1" d="M1294,1832.8c0,0,209.2-13.8,597.2,89.7s620.2-494.4,362.9-967.4"/>
		<path class="st1" d="M1687.1,410.4c0,0-9,75.5-51.1,205.1"/>
		<path class="st1" d="M1736.1,703.7c0,0,112.5-31.8,137.2-100.1"/>
		<g>
			
				<ellipse transform="matrix(0.9987 -5.007756e-02 5.007756e-02 0.9987 -65.5177 60.0385)" cx="1165.4" cy="1337.5" rx="19.6" ry="28.6"/>
			
				<ellipse transform="matrix(0.9987 -5.007756e-02 5.007756e-02 0.9987 -57.2557 57.8423)" cx="1125.7" cy="1171.5" rx="19.6" ry="28.6"/>
			
				<ellipse transform="matrix(0.9987 -5.007756e-02 5.007756e-02 0.9987 -59.6699 61.5766)" cx="1199" cy="1221.6" rx="19.6" ry="28.6"/>
			
				<ellipse transform="matrix(0.9987 -5.007756e-02 5.007756e-02 0.9987 -48.8554 57.5949)" cx="1125" cy="1003.8" rx="19.6" ry="28.6"/>
		</g>
		<g>
			<ellipse transform="matrix(-0.3324 0.9431 -0.9431 -0.3324 1700.5712 1623.9308)" cx="275.6" cy="1413.8" rx="19.6" ry="28.6"/>
			<ellipse transform="matrix(-0.3324 0.9431 -0.9431 -0.3324 1949.9879 1499.816)" cx="444.2" cy="1440" rx="19.6" ry="28.6"/>
			<ellipse transform="matrix(-0.3324 0.9431 -0.9431 -0.3324 1897.3181 1634.8156)" cx="370.1" cy="1488.9" rx="19.6" ry="28.6"/>
			<ellipse transform="matrix(-0.3324 0.9431 -0.9431 -0.3324 2216.5605 1437.0154)" cx="599.7" cy="1503" rx="19.6" ry="28.6"/>
		</g>
		<path class="st0" d="M1251.1,1361.9c0,0,127.4,29.9,131.4,109.7"/>
		<path class="st0" d="M1612.2,1954.3c54.7-16,112.7-35.6,168.6-59.2"/>
	</g>
	<line class="st0" x1="974.7" y1="823.8" x2="1073.9" y2="821.5"/>
	<line class="st0" x1="962.9" y1="881.2" x2="1062" y2="878.9"/>
	<line class="st0" x1="957.5" y1="928.1" x2="1049.1" y2="926.2"/>
	<line class="st0" x1="1025.7" y1="1450.7" x2="1117.2" y2="1448.8"/>
	<line class="st0" x1="1003.5" y1="1397.1" x2="1095" y2="1395.2"/>
	<line class="st0" x1="807.6" y1="728" x2="794.6" y2="650.3"/>
	<line class="st0" x1="860.4" y1="689.1" x2="847.4" y2="611.3"/>
	<line class="st0" x1="1301.6" y1="583.4" x2="1288.7" y2="505.6"/>
	<line class="st0" x1="1363.3" y1="580.3" x2="1350.3" y2="502.5"/>
</g>
</svg>
