<?xml version="1.0" encoding="UTF-8" standalone="no"?>
<!-- Created with Inkscape (http://www.inkscape.org/) -->

<svg
   xmlns:dc="http://purl.org/dc/elements/1.1/"
   xmlns:cc="http://creativecommons.org/ns#"
   xmlns:rdf="http://www.w3.org/1999/02/22-rdf-syntax-ns#"
   xmlns:svg="http://www.w3.org/2000/svg"
   xmlns="http://www.w3.org/2000/svg"
   xmlns:xlink="http://www.w3.org/1999/xlink"
   xmlns:sodipodi="http://sodipodi.sourceforge.net/DTD/sodipodi-0.dtd"
   xmlns:inkscape="http://www.inkscape.org/namespaces/inkscape"
   width="700"
   height="700"
   id="svg3787"
   version="1.1"
   inkscape:version="0.48.1 "
   sodipodi:docname="Red_Flower_1_black_white_line_art_coloring_book_colouring.svg">
  <defs
     id="defs3789">
    <linearGradient
       inkscape:collect="always"
       id="linearGradient4405">
      <stop
         style="stop-color:#ff0000;stop-opacity:1;"
         offset="0"
         id="stop4407" />
      <stop
         style="stop-color:#ff0000;stop-opacity:0;"
         offset="1"
         id="stop4409" />
    </linearGradient>
    <linearGradient
       inkscape:collect="always"
       xlink:href="#linearGradient4405"
       id="linearGradient4411"
       x1="225.33507"
       y1="455.28732"
       x2="384.24982"
       y2="455.28732"
       gradientUnits="userSpaceOnUse"
       gradientTransform="matrix(0.6534525,0.34301152,-0.34301152,0.6534525,368.52909,-207.28294)" />
    <linearGradient
       inkscape:collect="always"
       xlink:href="#linearGradient4405"
       id="linearGradient4415"
       gradientUnits="userSpaceOnUse"
       x1="225.33507"
       y1="455.28732"
       x2="384.24982"
       y2="455.28732"
       gradientTransform="matrix(0.73315607,0.08449411,-0.08449411,0.73315607,157.8693,-173.93704)" />
    <linearGradient
       inkscape:collect="always"
       xlink:href="#linearGradient4405"
       id="linearGradient4419"
       gradientUnits="userSpaceOnUse"
       x1="225.33507"
       y1="455.28732"
       x2="384.24982"
       y2="455.28732"
       gradientTransform="matrix(0.7268662,-0.12775996,0.12775996,0.7268662,9.8144318,-95.7863)" />
    <linearGradient
       inkscape:collect="always"
       xlink:href="#linearGradient4405"
       id="linearGradient4423"
       gradientUnits="userSpaceOnUse"
       x1="225.33507"
       y1="455.28732"
       x2="384.24982"
       y2="455.28732"
       gradientTransform="matrix(0.62405113,-0.39397621,0.39397621,0.62405113,-142.92088,69.424126)" />
    <linearGradient
       inkscape:collect="always"
       xlink:href="#linearGradient4405"
       id="linearGradient4427"
       gradientUnits="userSpaceOnUse"
       x1="225.33507"
       y1="455.28732"
       x2="384.24982"
       y2="455.28732"
       gradientTransform="matrix(0.44376457,-0.58968642,0.58968642,0.44376457,-218.85066,264.98981)" />
    <linearGradient
       inkscape:collect="always"
       xlink:href="#linearGradient4405"
       id="linearGradient4431"
       gradientUnits="userSpaceOnUse"
       x1="225.33507"
       y1="455.28732"
       x2="384.24982"
       y2="455.28732"
       gradientTransform="matrix(0.1801002,-0.71569616,0.71569616,0.1801002,-216.49432,495.37114)" />
    <linearGradient
       inkscape:collect="always"
       xlink:href="#linearGradient4405"
       id="linearGradient4435"
       gradientUnits="userSpaceOnUse"
       x1="225.33507"
       y1="455.28732"
       x2="384.24982"
       y2="455.28732"
       gradientTransform="matrix(-0.15073435,-0.72245155,0.72245155,-0.15073435,-106.40396,731.88981)" />
    <linearGradient
       inkscape:collect="always"
       xlink:href="#linearGradient4405"
       id="linearGradient4439"
       gradientUnits="userSpaceOnUse"
       x1="225.33507"
       y1="455.28732"
       x2="384.24982"
       y2="455.28732"
       gradientTransform="matrix(-0.43870517,-0.59346006,0.59346006,-0.43870517,84.888388,890.93461)" />
    <linearGradient
       inkscape:collect="always"
       xlink:href="#linearGradient4405"
       id="linearGradient4443"
       gradientUnits="userSpaceOnUse"
       x1="225.33507"
       y1="455.28732"
       x2="384.24982"
       y2="455.28732"
       gradientTransform="matrix(-0.64467414,-0.35923854,0.35923854,-0.64467414,322.19265,955.39864)" />
    <linearGradient
       inkscape:collect="always"
       xlink:href="#linearGradient4405"
       id="linearGradient4447"
       gradientUnits="userSpaceOnUse"
       x1="225.33507"
       y1="455.28732"
       x2="384.24982"
       y2="455.28732"
       gradientTransform="matrix(-0.73571983,-0.05808094,0.05808094,-0.73571983,566.97245,915.27544)" />
    <linearGradient
       inkscape:collect="always"
       xlink:href="#linearGradient4405"
       id="linearGradient4451"
       gradientUnits="userSpaceOnUse"
       x1="225.33507"
       y1="455.28732"
       x2="384.24982"
       y2="455.28732"
       gradientTransform="matrix(-0.69481806,0.24876685,-0.24876685,-0.69481806,769.96527,779.78084)" />
    <linearGradient
       inkscape:collect="always"
       xlink:href="#linearGradient4405"
       id="linearGradient4455"
       gradientUnits="userSpaceOnUse"
       x1="225.33507"
       y1="455.28732"
       x2="384.24982"
       y2="455.28732"
       gradientTransform="matrix(-0.53248534,0.51099554,-0.51099554,-0.53248534,899.21243,573.82683)" />
    <linearGradient
       inkscape:collect="always"
       xlink:href="#linearGradient4405"
       id="linearGradient4459"
       gradientUnits="userSpaceOnUse"
       x1="225.33507"
       y1="455.28732"
       x2="384.24982"
       y2="455.28732"
       gradientTransform="matrix(-0.27198181,0.68606338,-0.68606338,-0.27198181,932.67814,328.64896)" />
    <linearGradient
       inkscape:collect="always"
       xlink:href="#linearGradient4405"
       id="linearGradient4463"
       gradientUnits="userSpaceOnUse"
       x1="225.33507"
       y1="455.28732"
       x2="384.24982"
       y2="455.28732"
       gradientTransform="matrix(0.02624303,0.73754211,-0.73754211,0.02624303,865.56682,99.683426)" />
    <linearGradient
       inkscape:collect="always"
       xlink:href="#linearGradient4405"
       id="linearGradient4467"
       gradientUnits="userSpaceOnUse"
       x1="225.33507"
       y1="455.28732"
       x2="384.24982"
       y2="455.28732"
       gradientTransform="matrix(0.31227337,0.66868708,-0.66868708,0.31227337,717.51436,-78.868365)" />
    <linearGradient
       inkscape:collect="always"
       xlink:href="#linearGradient4405"
       id="linearGradient4471"
       gradientUnits="userSpaceOnUse"
       x1="225.33507"
       y1="455.28732"
       x2="384.24982"
       y2="455.28732"
       gradientTransform="matrix(0.51644721,0.52719953,-0.52719953,0.51644721,546.47286,-174.26067)" />
    <linearGradient
       inkscape:collect="always"
       xlink:href="#linearGradient4405"
       id="linearGradient4475"
       gradientUnits="userSpaceOnUse"
       x1="225.33507"
       y1="455.28732"
       x2="384.24982"
       y2="455.28732"
       gradientTransform="matrix(0.6534525,0.34301152,-0.34301152,0.6534525,368.52909,-207.28294)" />
  </defs>
  <sodipodi:namedview
     id="base"
     pagecolor="#ffffff"
     bordercolor="#666666"
     borderopacity="1.0"
     inkscape:pageopacity="0.0"
     inkscape:pageshadow="2"
     inkscape:zoom="0.48466277"
     inkscape:cx="356.16274"
     inkscape:cy="215.07972"
     inkscape:document-units="px"
     inkscape:current-layer="layer1"
     showgrid="false"
     inkscape:window-width="889"
     inkscape:window-height="715"
     inkscape:window-x="290"
     inkscape:window-y="164"
     inkscape:window-maximized="0" />
  <metadata
     id="metadata3792">
    <rdf:RDF>
      <cc:Work
         rdf:about="">
        <dc:format>image/svg+xml</dc:format>
        <dc:type
           rdf:resource="http://purl.org/dc/dcmitype/StillImage" />
        <dc:title />
      </cc:Work>
    </rdf:RDF>
  </metadata>
  <g
     inkscape:label="Layer 1"
     inkscape:groupmode="layer"
     id="layer1"
     transform="translate(0,-352.36217)">
    <g
       id="g4477"
       transform="matrix(0.94,0,0,0.94,25.152267,360.82027)"
       style="fill:#ffffff;stroke:#000000">
      <path
         style="fill:#ffffff;fill-opacity:1;stroke:#000000;stroke-width:6.49447823;stroke-linecap:butt;stroke-linejoin:miter;stroke-miterlimit:4;stroke-opacity:1;stroke-dasharray:none"
         d="m 353.81613,352.77724 c 0,0 -69.64283,-203.1395 -57.62783,-242.27835 12.015,-39.138852 36.44684,-94.857164 44.99263,-90.870543 8.54578,3.986621 66.09729,103.673323 63.07976,116.833423 -3.01754,13.16007 -37.35549,115.76464 -33.36358,146.24215 3.99192,30.47749 -17.08098,70.07332 -17.08098,70.07332 z"
         id="path4413"
         inkscape:connector-curvature="0"
         inkscape:transform-center-x="3.0427314"
         inkscape:transform-center-y="-188.24593" />
      <path
         style="fill:#ffffff;fill-opacity:1;stroke:#000000;stroke-width:6.49447823;stroke-linecap:butt;stroke-linejoin:miter;stroke-miterlimit:4;stroke-opacity:1;stroke-dasharray:none"
         d="m 347.62512,353.33176 c 0,0 -124.60131,-174.90081 -124.22793,-215.84066 0.37338,-40.939832 7.92883,-101.308368 17.256,-99.92007 9.32718,1.388299 92.88086,80.56152 93.73539,94.03606 0.85454,13.47453 -2.84673,121.60913 9.658,149.6884 12.50475,28.07926 3.57854,72.03627 3.57854,72.03627 z"
         id="path4417"
         inkscape:connector-curvature="0"
         inkscape:transform-center-x="65.57358"
         inkscape:transform-center-y="-178.9078" />
      <path
         style="fill:#ffffff;fill-opacity:1;stroke:#000000;stroke-width:6.49447823;stroke-linecap:butt;stroke-linejoin:miter;stroke-miterlimit:4;stroke-opacity:1;stroke-dasharray:none"
         d="m 340.02593,356.80099 c 0,0 -181.64175,-114.55155 -196.82858,-152.5722 -15.18684,-38.02066 -31.09969,-96.74225 -21.94314,-98.9964 9.15654,-2.25418 116.50116,39.29999 122.40396,51.44291 5.90279,12.14291 43.50379,113.59711 65.7267,134.83284 22.22292,21.23571 30.64106,65.29285 30.64106,65.29285 z"
         id="path4421"
         inkscape:connector-curvature="0"
         inkscape:transform-center-x="123.33422"
         inkscape:transform-center-y="-143.37489" />
      <path
         style="fill:#ffffff;fill-opacity:1;stroke:#000000;stroke-width:6.49447823;stroke-linecap:butt;stroke-linejoin:miter;stroke-miterlimit:4;stroke-opacity:1;stroke-dasharray:none"
         d="m 334.62224,362.41075 c 0,0 -210.46051,-42.6867 -238.144169,-72.85 -27.683655,-30.16332 -63.387686,-79.42452 -55.625753,-84.77953 7.761931,-5.35499 122.866242,-4.57146 132.691822,4.68875 9.82557,9.2602 80.96308,90.78471 109.27271,102.7588 28.30963,11.97405 51.80539,50.18198 51.80539,50.18198 z"
         id="path4425"
         inkscape:connector-curvature="0"
         inkscape:transform-center-x="165.43028"
         inkscape:transform-center-y="-92.416638" />
      <path
         style="fill:#ffffff;fill-opacity:1;stroke:#000000;stroke-width:6.49447823;stroke-linecap:butt;stroke-linejoin:miter;stroke-miterlimit:4;stroke-opacity:1;stroke-dasharray:none"
         d="m 331.40081,370.33505 c 0,0 -210.52935,42.34587 -247.750034,25.2921 C 46.430098,378.57338 -5.594665,347.03185 -0.51967847,339.08401 4.5553266,331.13618 110.94007,287.1828 123.58954,291.90345 c 12.64947,4.72064 109.85225,52.24337 140.59004,52.2909 30.73777,0.0475 67.22123,26.1407 67.22123,26.1407 z"
         id="path4429"
         inkscape:connector-curvature="0"
         inkscape:transform-center-x="187.3597"
         inkscape:transform-center-y="-28.734947" />
      <path
         style="fill:#ffffff;fill-opacity:1;stroke:#000000;stroke-width:6.49447823;stroke-linecap:butt;stroke-linejoin:miter;stroke-miterlimit:4;stroke-opacity:1;stroke-dasharray:none"
         d="m 331.78127,380.01374 c 0,0 -170.8636,130.08232 -211.79471,131.00675 -40.931103,0.92442 -101.508773,-4.7138 -100.416811,-14.0803 1.091972,-9.36648 77.577112,-95.38764 91.017791,-96.66883 13.44069,-1.2812 121.63827,-1.0092 149.30708,-14.39765 27.6688,-13.38845 71.88665,-5.85997 71.88665,-5.85997 z"
         id="path4433"
         inkscape:connector-curvature="0"
         inkscape:transform-center-x="176.9596"
         inkscape:transform-center-y="70.164321" />
      <path
         style="fill:#ffffff;fill-opacity:1;stroke:#000000;stroke-width:6.49447823;stroke-linecap:butt;stroke-linejoin:miter;stroke-miterlimit:4;stroke-opacity:1;stroke-dasharray:none"
         d="m 336.05336,388.20287 c 0,0 -100.91441,189.55753 -137.7182,207.4933 -36.8038,17.93569 -94.19945,38.11446 -97.11943,29.14803 -2.919965,-8.96644 30.64555,-119.07084 42.32261,-125.84873 11.67705,-6.77789 110.09872,-51.72194 129.64654,-75.44315 19.54782,-23.72122 62.86848,-35.34945 62.86848,-35.34945 z"
         id="path4437"
         inkscape:connector-curvature="0"
         inkscape:transform-center-x="134.08288"
         inkscape:transform-center-y="133.27622" />
      <path
         style="fill:#ffffff;fill-opacity:1;stroke:#000000;stroke-width:6.49447823;stroke-linecap:butt;stroke-linejoin:miter;stroke-miterlimit:4;stroke-opacity:1;stroke-dasharray:none"
         d="m 343.25701,393.8121 c 0,0 -13.5991,214.3148 -39.70713,245.85184 -26.10802,31.53696 -70.04236,73.62279 -76.40545,66.6633 -6.36309,-6.9595 -21.27743,-121.09619 -13.44304,-132.09236 7.83437,-10.99617 78.90073,-92.58273 86.90396,-122.26036 8.00323,-29.67763 42.65166,-58.16242 42.65166,-58.16242 z"
         id="path4441"
         inkscape:connector-curvature="0"
         inkscape:transform-center-x="75.259221"
         inkscape:transform-center-y="176.10396" />
      <path
         style="fill:#ffffff;fill-opacity:1;stroke:#000000;stroke-width:6.49447823;stroke-linecap:butt;stroke-linejoin:miter;stroke-miterlimit:4;stroke-opacity:1;stroke-dasharray:none"
         d="m 352.21578,395.94641 c 0,0 76.90111,200.50437 66.301,240.04991 -10.60009,39.54547 -33.01295,96.10617 -41.69654,92.42934 -8.68359,-3.67684 -69.78184,-101.22995 -67.23939,-114.49004 2.54244,-13.26003 33.16935,-117.0328 28.08429,-147.34709 -5.08508,-30.31428 14.55064,-70.64212 14.55064,-70.64212 z"
         id="path4445"
         inkscape:connector-curvature="0"
         inkscape:transform-center-x="-11.884005"
         inkscape:transform-center-y="187.9239" />
      <path
         style="fill:#ffffff;fill-opacity:1;stroke:#000000;stroke-width:6.49447823;stroke-linecap:butt;stroke-linejoin:miter;stroke-miterlimit:4;stroke-opacity:1;stroke-dasharray:none"
         d="m 361.11034,394.21531 c 0,0 152.3682,151.32651 158.91927,191.74053 6.55107,40.41405 9.30695,101.19106 -0.12069,101.39911 -9.42762,0.20797 -105.16014,-63.70522 -108.27967,-76.84156 -3.1195,-13.13625 -17.74688,-120.34087 -34.81729,-145.90284 -17.07043,-25.56196 -15.70162,-70.39524 -15.70162,-70.39524 z"
         id="path4449"
         inkscape:connector-curvature="0"
         inkscape:transform-center-x="-90.915"
         inkscape:transform-center-y="166.43795" />
      <path
         style="fill:#ffffff;fill-opacity:1;stroke:#000000;stroke-width:6.49447823;stroke-linecap:butt;stroke-linejoin:miter;stroke-miterlimit:4;stroke-opacity:1;stroke-dasharray:none"
         d="m 368.48905,389.01396 c 0,0 200.90623,75.84502 223.40123,110.053 22.49498,34.20797 49.84789,88.5519 41.32847,92.59452 -8.51943,4.04266 -122.01219,-15.167 -130.22771,-25.88142 -8.21551,-10.71441 -65.37682,-102.5805 -91.40307,-118.93433 -26.02627,-16.35382 -43.09892,-57.83177 -43.09892,-57.83177 z"
         id="path4453"
         inkscape:connector-curvature="0"
         inkscape:transform-center-x="-149.02292"
         inkscape:transform-center-y="116.26535" />
      <path
         style="fill:#ffffff;fill-opacity:1;stroke:#000000;stroke-width:6.49447823;stroke-linecap:butt;stroke-linejoin:miter;stroke-miterlimit:4;stroke-opacity:1;stroke-dasharray:none"
         d="m 373.14947,381.09634 c 0,0 214.2556,-14.50236 248.93172,7.26407 34.67611,21.76642 82.13851,59.82906 76.06948,67.04643 -6.06903,7.21737 -117.28095,36.90786 -129.20599,30.57644 -11.92502,-6.33144 -102.0928,-66.13582 -132.56139,-70.19526 -30.46857,-4.05944 -63.23382,-34.69168 -63.23382,-34.69168 z"
         id="path4457"
         inkscape:connector-curvature="0"
         inkscape:transform-center-x="-183.28665"
         inkscape:transform-center-y="57.265504" />
      <path
         style="fill:#ffffff;fill-opacity:1;stroke:#000000;stroke-width:6.49447823;stroke-linecap:butt;stroke-linejoin:miter;stroke-miterlimit:4;stroke-opacity:1;stroke-dasharray:none"
         d="m 374.13276,372.29238 c 0,0 190.42064,-99.27619 230.91735,-93.25741 40.49673,6.0188 99.24528,21.83178 96.58328,30.87817 -2.66201,9.04641 -92.60686,80.87634 -106.07042,79.86346 -13.46355,-1.0129 -120.0531,-19.59945 -149.58922,-11.08877 -29.5361,8.51068 -71.84099,-6.39545 -71.84099,-6.39545 z"
         id="path4461"
         inkscape:connector-curvature="0"
         inkscape:transform-center-x="-185.29894"
         inkscape:transform-center-y="-40.067854" />
      <path
         style="fill:#ffffff;fill-opacity:1;stroke:#000000;stroke-width:6.49447823;stroke-linecap:butt;stroke-linejoin:miter;stroke-miterlimit:4;stroke-opacity:1;stroke-dasharray:none"
         d="m 371.62124,364.05491 c 0,0 136.50871,-165.77439 176.13885,-176.05359 39.63015,-10.2792 99.88792,-18.67239 100.97133,-9.3049 1.08342,9.36748 -53.65476,110.62629 -66.44423,114.95333 -12.78944,4.32703 -118.17034,28.85576 -142.03495,48.22827 -23.86459,19.37252 -68.631,22.17689 -68.631,22.17689 z"
         id="path4465"
         inkscape:connector-curvature="0"
         inkscape:transform-center-x="-157.55644"
         inkscape:transform-center-y="-105.00432" />
      <path
         style="fill:#ffffff;fill-opacity:1;stroke:#000000;stroke-width:6.49447823;stroke-linecap:butt;stroke-linejoin:miter;stroke-miterlimit:4;stroke-opacity:1;stroke-dasharray:none"
         d="m 367.13038,358.33614 c 0,0 73.77388,-201.67596 107.7486,-224.52172 33.9747,-22.84577 88.03433,-50.756375 92.1644,-42.278988 4.13008,8.477378 -13.91084,122.161778 -24.54015,130.487098 -10.62931,8.32533 -101.9024,66.42881 -117.98758,92.62195 -16.08517,26.19315 -57.38527,43.69166 -57.38527,43.69166 z"
         id="path4469"
         inkscape:connector-curvature="0"
         inkscape:transform-center-x="-114.7608"
         inkscape:transform-center-y="-150.18881" />
      <path
         style="fill:#ffffff;fill-opacity:1;stroke:#000000;stroke-width:6.49447823;stroke-linecap:butt;stroke-linejoin:miter;stroke-miterlimit:4;stroke-opacity:1;stroke-dasharray:none"
         d="m 361.50916,354.6546 c 0,0 8.23767,-214.58779 33.54921,-246.76753 25.31154,-32.179746 68.18016,-75.350637 74.71522,-68.552374 6.53506,6.798272 24.29779,120.526464 16.74072,131.715044 -7.55706,11.18856 -76.5618,94.52606 -83.8207,124.39448 -7.25889,29.8684 -41.18445,59.21038 -41.18445,59.21038 z"
         id="path4473"
         inkscape:connector-curvature="0"
         inkscape:transform-center-x="-72.30313"
         inkscape:transform-center-y="-177.70987" />
      <path
         inkscape:transform-center-y="-177.70987"
         inkscape:transform-center-x="-72.30313"
         inkscape:connector-curvature="0"
         id="path4403"
         d="m 361.50916,354.6546 c 0,0 8.23767,-214.58779 33.54921,-246.76753 25.31154,-32.179746 68.18016,-75.350637 74.71522,-68.552374 6.53506,6.798272 24.29779,120.526464 16.74072,131.715044 -7.55706,11.18856 -76.5618,94.52606 -83.8207,124.39448 -7.25889,29.8684 -41.18445,59.21038 -41.18445,59.21038 z"
         style="fill:#ffffff;fill-opacity:1;stroke:#000000;stroke-width:6.49447823;stroke-linecap:butt;stroke-linejoin:miter;stroke-miterlimit:4;stroke-opacity:1;stroke-dasharray:none" />
    </g>
  </g>
</svg>
