<svg width="640" height="480" xmlns="http://www.w3.org/2000/svg" xmlns:svg="http://www.w3.org/2000/svg">
 <!-- Created with SVG-edit - http://svg-edit.googlecode.com/ -->
 <g>
  <title>Layer 1</title>
  <path id="svg_31" d="m161.97344,80.98338c0,-12.61487 -10.22758,-22.84245 -22.84245,-22.84245l0,0c4.13184,-4.13694 6.69256,-9.84501 6.69256,-16.15499c0,-12.61997 -10.22758,-22.84756 -22.84756,-22.84756c-6.30488,0 -12.01805,2.55562 -16.15499,6.69256c0,-12.61487 -10.22758,-22.84245 -22.84245,-22.84245c-12.61997,0 -22.84756,10.22758 -22.84756,22.84245c-4.13694,-4.13184 -9.84501,-6.69256 -16.15499,-6.69256c-12.61997,0 -22.84756,10.22758 -22.84756,22.84756c0,6.30488 2.55562,12.01805 6.69256,16.14989c-12.61997,0 -22.84756,10.22758 -22.84756,22.84756c0,12.61997 10.22758,22.84756 22.84756,22.84756c-4.13694,4.13184 -6.69256,9.84501 -6.69256,16.15499c0,12.61487 10.22758,22.84245 22.84756,22.84245c6.30488,0 12.01805,-2.55562 16.15499,-6.69256c0,12.61487 10.22758,22.84756 22.84756,22.84756c12.61487,0 22.84245,-10.23269 22.84245,-22.84756l0,0c4.13694,4.13694 9.85011,6.69256 16.15499,6.69256c12.61997,0 22.84245,-10.22758 22.84245,-22.84245c0,-6.30999 -2.55562,-12.02315 -6.69256,-16.16009c0.0051,0 0.0051,0 0.0051,0c12.61997,0 22.84245,-10.22248 22.84245,-22.84245zm-39.23209,26.63763c0.08162,0 0.15813,-0.0051 0.23975,-0.0051c6.83029,0 12.36492,5.53463 12.36492,12.37002c0,6.82519 -5.53463,12.36492 -12.36492,12.36492s-12.36492,-5.53973 -12.36492,-12.36492c0,-0.08672 0.0051,-0.15813 0.0051,-0.23975l-18.06278,-18.06788l0,25.55111c2.33118,2.24446 3.79007,5.4071 3.79007,8.90641c0,6.83029 -5.53973,12.36492 -12.36492,12.36492c-6.83029,0 -12.37002,-5.53463 -12.37002,-12.36492c0,-3.50441 1.4589,-6.66196 3.79007,-8.90641l0,-25.55111l-18.06278,18.06788c0,0.08162 0.0051,0.15813 0.0051,0.23975c0,6.82519 -5.53463,12.36492 -12.36492,12.36492s-12.36492,-5.53973 -12.36492,-12.36492c0,-6.83539 5.53463,-12.37002 12.36492,-12.37002c0.07652,0 0.15813,0.0051 0.23465,0.0051l18.06788,-18.06278l-25.54601,0c-2.24446,2.33628 -5.4071,3.79007 -8.90641,3.79007c-6.83029,0 -12.36492,-5.53463 -12.36492,-12.36492s5.53463,-12.36492 12.36492,-12.36492c3.49931,0 6.65686,1.4538 8.90641,3.79517l25.54601,0l-18.06788,-18.06788c-0.07652,0 -0.15813,0.0051 -0.23465,0.0051c-6.83029,0 -12.36492,-5.53463 -12.36492,-12.36492s5.53973,-12.36492 12.37002,-12.36492s12.36492,5.53463 12.36492,12.36492c0,0.07652 -0.0051,0.15813 -0.0051,0.23465l18.06278,18.06788l0,-25.54601c-2.33118,-2.24956 -3.79007,-5.4071 -3.79007,-8.90641c0,-6.83029 5.53973,-12.37002 12.37002,-12.37002c6.82519,0 12.36492,5.53463 12.36492,12.37002c0,3.49931 -1.4589,6.65686 -3.79007,8.90641l0,25.54601l18.06278,-18.06788c0,-0.07652 -0.0051,-0.15813 -0.0051,-0.23465c0,-6.83029 5.53463,-12.36492 12.36492,-12.36492s12.36492,5.53463 12.36492,12.36492c0,6.83029 -5.53463,12.36492 -12.36492,12.36492c-0.08162,0 -0.15813,-0.0051 -0.23975,-0.0051l-18.06278,18.06788l25.54601,0c2.24956,-2.33628 5.4122,-3.79517 8.91152,-3.79517c6.82519,0 12.35982,5.53463 12.35982,12.36492s-5.53463,12.36492 -12.35982,12.36492c-3.50441,0 -6.66196,-1.4538 -8.91152,-3.79007l-25.54601,0l18.05768,18.06278z" stroke-linecap="null" stroke-linejoin="null" stroke-dasharray="null" stroke-width="5" stroke="#000000" fill="#ffffff"/>
 </g>
</svg>