<?xml version="1.0"?>
<svg width="640" height="480" xmlns="http://www.w3.org/2000/svg" xmlns:svg="http://www.w3.org/2000/svg" xmlns:xlink="http://www.w3.org/1999/xlink">
 <!-- Created with SVG-edit - http://svg-edit.googlecode.com/ -->
 <defs>
  <symbol id="svg_2" viewBox="0 0 502 421" xmlns="http://www.w3.org/2000/svg" xmlns:xlink="http://www.w3.org/1999/xlink">
   <g id="svg_1">
    <path id="svg_5" fill="#000000" d="m435.993,177.481c-0.002,-0.018 0,-0.035 -0.005,-0.056c-3.973,-24.838 -7.948,-49.677 -11.921,-74.515c-0.008,-0.094 -0.023,-0.181 -0.048,-0.26c-0.076,-0.341 -0.266,-0.554 -0.505,-0.66c-14.863,-14.863 -29.727,-29.724 -44.589,-44.587c-0.241,-0.242 -0.518,-0.336 -0.779,-0.327c-0.005,0 -0.009,-0.001 -0.014,-0.001l-67.232,0c-0.286,0 -0.512,0.088 -0.686,0.229c-0.044,0.031 -0.086,0.072 -0.124,0.112c-19.405,15.967 -38.81,31.931 -58.216,47.896c-18.411,-14.974 -36.823,-29.947 -55.234,-44.922c-0.022,-0.018 -0.048,-0.03 -0.072,-0.047c-0.188,-0.177 -0.43,-0.292 -0.72,-0.281c-26.544,0.993 -53.09,1.984 -79.635,2.978c-0.106,-0.02 -0.215,-0.02 -0.323,-0.003c-0.315,-0.01 -0.572,0.122 -0.753,0.331c-0.003,0.004 -0.01,0.007 -0.014,0.011c-14.893,16.878 -29.785,33.756 -44.678,50.636c-0.083,0.067 -0.154,0.146 -0.212,0.238c-0.07,0.078 -0.13,0.166 -0.174,0.27c-0.097,0.187 -0.135,0.402 -0.087,0.63l0,74.247c-0.127,0.347 -0.028,0.672 0.195,0.913c0.039,0.057 0.081,0.105 0.13,0.15c0.001,0.002 0.001,0.005 0.003,0.006c15.342,18.064 30.684,36.13 46.028,54.195c0.013,0.026 0.034,0.052 0.049,0.075c0.016,0.027 0.032,0.051 0.049,0.075c0.006,0.008 0.011,0.017 0.019,0.025c0.045,0.057 0.097,0.109 0.154,0.158c0.052,0.055 0.103,0.113 0.165,0.15c0.007,0.008 0.016,0.011 0.022,0.017c24.893,23.633 49.785,47.269 74.676,70.901c19.376,18.396 38.752,36.793 58.128,55.189c0.152,0.169 0.328,0.264 0.511,0.307c0.349,0.14 0.751,0.088 1.074,-0.307c23.853,-21.978 47.701,-43.954 71.547,-65.931c26.706,-24.61 53.41,-49.221 80.117,-73.834c0.142,-0.131 0.284,-0.263 0.429,-0.395c0.158,-0.069 0.298,-0.194 0.412,-0.383c0.129,-0.129 0.215,-0.271 0.25,-0.421c10.648,-17.335 21.297,-34.67 31.944,-52.003c0.165,-0.262 0.186,-0.545 0.119,-0.806m-124.277,-118.04c19.174,2.84 38.347,5.681 57.52,8.521c-23.912,27.575 -47.824,55.15 -71.733,82.725c-5.438,6.274 -10.881,12.546 -16.32,18.82c9.41,-33.921 18.82,-67.84 28.23,-101.761c0.768,-2.768 1.535,-5.538 2.303,-8.305m-83.051,273.127c-0.054,0.021 -0.11,0.042 -0.164,0.062c-0.597,0.23 -1.192,0.458 -1.788,0.688c-0.018,-0.017 -0.031,-0.03 -0.053,-0.049c-0.168,-0.151 -0.337,-0.301 -0.507,-0.453c-0.004,-0.004 -0.008,-0.007 -0.012,-0.012c-1.917,-1.707 -3.833,-3.414 -5.75,-5.123c-0.62,-0.551 -1.237,-1.103 -1.855,-1.652c-10.002,-8.91 -20.004,-17.821 -30.006,-26.732c35.729,2.022 71.459,4.045 107.192,6.067c1.066,0.061 2.136,0.121 3.207,0.182c-23.275,8.951 -46.555,17.904 -69.829,26.854c-0.146,0.058 -0.291,0.114 -0.435,0.168m76.203,-30.146c-6.98,-35.916 -13.958,-71.835 -20.938,-107.754c-1.072,-5.526 -2.146,-11.052 -3.221,-16.58c21.854,26.503 43.708,53.01 65.562,79.515c0.407,0.493 0.814,0.986 1.223,1.48c-14.209,14.446 -28.417,28.894 -42.626,43.339m-2.063,1.102c-36.318,-2.056 -72.64,-4.111 -108.958,-6.167c-2.104,-0.119 -4.207,-0.238 -6.311,-0.358c21.581,-28.659 43.161,-57.317 64.742,-85.979c8.628,-11.454 17.254,-22.907 25.879,-34.36c6.955,35.793 13.91,71.588 20.862,107.382c1.262,6.493 2.523,12.987 3.786,19.482m-20.118,-126.545c32.428,14.651 64.856,29.3 97.283,43.954c6.768,3.057 13.536,6.115 20.302,9.173c-12.63,6.843 -25.263,13.684 -37.895,20.526c-4.368,2.365 -8.737,4.732 -13.104,7.099c-22.196,-26.919 -44.391,-53.838 -66.586,-80.752m-70.803,83.987c-8.637,11.471 -17.276,22.94 -25.913,34.412c-7.506,-34.798 -15.012,-69.599 -22.518,-104.399c-3.157,-14.633 -6.312,-29.268 -9.469,-43.902c35.808,8.052 71.616,16.103 107.426,24.155c5.146,1.156 10.293,2.313 15.436,3.471c-21.658,28.752 -43.31,57.508 -64.962,86.263m-37.426,-8.346c3.062,14.191 6.122,28.383 9.183,42.576c-21.638,-17.121 -43.274,-34.24 -64.912,-51.359c11.175,-31.387 22.351,-62.773 33.527,-94.16c7.4,34.313 14.801,68.63 22.202,102.943m167.165,23.022c-0.161,0.427 -0.278,0.665 -0.339,0.78c-0.329,0.239 -0.659,0.479 -0.99,0.718c-1.628,1.183 -3.258,2.363 -4.885,3.545c-4.751,3.447 -9.503,6.895 -14.252,10.34c-2.255,1.635 -4.51,3.271 -6.763,4.906c10.569,-10.745 21.14,-21.49 31.708,-32.237c-1.492,3.984 -2.986,7.965 -4.479,11.948m-40.031,-92.569c-5.484,-2.478 -10.972,-4.957 -16.455,-7.436c34.881,2.908 69.761,5.814 104.641,8.722c10.231,0.853 20.464,1.705 30.694,2.557c-0.168,0.468 -0.32,0.931 -0.481,1.294c-1.231,2.797 -2.464,5.593 -3.695,8.388c-4.693,10.648 -9.382,21.295 -14.073,31.942c-33.545,-15.157 -67.091,-30.314 -100.631,-45.467m-20.53,-10.016c23.875,-27.532 47.748,-55.064 71.623,-82.598c6.135,-7.073 12.269,-14.148 18.403,-21.224c14.431,33.738 28.856,67.476 43.286,101.214c2.028,4.741 4.056,9.483 6.084,14.224c-36.416,-3.034 -72.835,-6.069 -109.251,-9.104c-10.049,-0.837 -20.097,-1.673 -30.145,-2.512m140.462,-35.622c-0.129,14.39 -0.258,28.781 -0.387,43.171c-13.965,-32.651 -27.927,-65.304 -41.892,-97.954c-1.762,-4.119 -3.524,-8.239 -5.285,-12.357c15.952,11.098 31.906,22.195 47.86,33.293c0.003,0.119 0.007,0.27 0.004,0.462c-0.004,0.494 -0.007,0.988 -0.011,1.482c-0.097,10.635 -0.192,21.268 -0.289,31.903m-251.639,10.922c-4.52,-1.016 -9.039,-2.032 -13.558,-3.048c31.488,-12.312 62.978,-24.623 94.466,-36.934c0.153,-0.062 0.308,-0.122 0.461,-0.181c8.569,21.412 17.136,42.823 25.7,64.236c-35.692,-8.024 -71.381,-16.049 -107.069,-24.073m-16.054,-4.467c2.373,-21.352 4.745,-42.704 7.118,-64.057c29.181,9.017 58.363,18.03 87.544,27.047c-31.555,12.337 -63.108,24.675 -94.662,37.01m4.951,-64.737l-6.918,62.268c-11.301,-25.137 -22.602,-50.277 -33.902,-75.413c13.607,4.381 27.215,8.763 40.82,13.145m-84.972,38.032c24.827,9.339 49.653,18.677 74.479,28.017c-17.083,2.96 -34.164,5.921 -51.247,8.883c-7.744,-12.3 -15.488,-24.6 -23.232,-36.9m77.016,29.841c-11.065,31.077 -22.131,62.154 -33.196,93.234c-6.593,-28.019 -13.185,-56.034 -19.778,-84.052c17.659,-3.061 35.317,-6.122 52.974,-9.182m48.732,165.093c8.189,7.298 16.379,14.593 24.568,21.891c0.678,0.602 1.342,1.307 1.993,2.073c4.892,7.338 9.783,14.674 14.674,22.012c-10.59,-11.81 -21.184,-23.617 -31.774,-35.428c-3.154,-3.516 -6.307,-7.031 -9.461,-10.548m68.34,35.184c-5.806,7.094 -11.614,14.188 -17.421,21.283c-7.431,-11.147 -14.863,-22.295 -22.294,-33.441c24.151,-9.29 48.311,-18.581 72.465,-27.87c-6.493,7.934 -12.985,15.868 -19.476,23.804c-4.426,5.406 -8.85,10.815 -13.274,16.224m16.951,-17.2c5.963,-7.288 11.928,-14.574 17.89,-21.863c1.462,-1.783 3.052,-3.213 4.794,-4.574l6.148,-4.462c0.021,-0.013 0.04,-0.026 0.059,-0.04c4.617,-3.352 9.234,-6.701 13.85,-10.051c1.485,-1.076 2.969,-2.153 4.452,-3.229c-21.782,22.137 -43.564,44.273 -65.348,66.41c6.051,-7.397 12.104,-14.794 18.155,-22.191m142.836,-149.039c-1.305,0.844 -2.91,1.642 -4.334,2.571c0.154,-17.095 0.307,-34.19 0.463,-51.284c0.031,-3.562 0.063,-7.123 0.097,-10.684c0.015,-1.78 0.031,-3.562 0.047,-5.343c3.245,20.284 6.491,40.568 9.736,60.851c-2.002,1.298 -4.005,2.593 -6.009,3.889m-54.691,-114.162c1.754,-2.336 3.504,-4.67 5.256,-7.007c11.675,11.676 23.353,23.353 35.028,35.029c-13.427,-9.34 -26.855,-18.682 -40.284,-28.022m-2.078,-0.94c-14.953,-2.215 -29.909,-4.43 -44.862,-6.646l49.848,0c-1.661,2.216 -3.325,4.431 -4.986,6.646m-90.654,98.476c-0.56,2.021 -1.122,4.042 -1.681,6.062c-8.456,-21.133 -16.91,-42.267 -25.368,-63.402c18.556,-15.264 37.108,-30.526 55.658,-45.79c-9.536,34.376 -19.071,68.752 -28.609,103.13m-117.192,-86.292c0.136,-0.075 0.27,-0.146 0.394,-0.205c2.939,-1.409 5.878,-2.817 8.815,-4.224c1.176,-0.564 2.351,-1.127 3.525,-1.69c6.631,-3.177 13.262,-6.354 19.892,-9.531c17.003,13.83 34.005,27.658 51.008,41.488c-27.878,-8.615 -55.756,-17.227 -83.634,-25.838m12.271,-8.374c-5.142,2.464 -10.285,4.929 -15.427,7.393c-12.538,-4.037 -25.073,-8.074 -37.608,-12.111c22.735,-0.851 45.469,-1.701 68.203,-2.55c-5.056,2.422 -10.112,4.845 -15.168,7.268m-59.732,-3.562c11.599,25.8 23.197,51.602 34.795,77.402c-25.8,-9.706 -51.602,-19.411 -77.402,-29.116c14.202,-16.095 28.404,-32.19 42.607,-48.286m-20.47,89.057c-0.734,0.993 -1.467,1.985 -2.201,2.977c-2.929,3.963 -5.859,7.926 -8.787,11.889c-3.979,5.384 -7.96,10.768 -11.94,16.152l0,-67.432c7.644,12.138 15.286,24.276 22.928,36.414m0.815,2.648c6.434,27.346 12.869,54.689 19.303,82.036c-14.247,-16.774 -28.494,-33.552 -42.742,-50.325c7.812,-10.57 15.625,-21.141 23.439,-31.711m248.748,115.869c1.164,-3.101 2.326,-6.199 3.489,-9.299c0.325,-0.87 0.653,-1.74 0.979,-2.611c0.236,-0.631 0.473,-1.264 0.709,-1.896c0.006,-0.016 0.01,-0.022 0.016,-0.037c4.733,-2.563 9.467,-5.128 14.201,-7.691c9.107,-4.935 18.218,-9.867 27.326,-14.804c-10.944,8.515 -21.891,17.028 -32.838,25.542c-3.539,2.751 -7.075,5.503 -10.615,8.256c-1.086,0.846 -2.177,1.693 -3.267,2.54m72.989,-74.83c1.799,-4.083 3.599,-8.166 5.396,-12.25c2.763,-1.787 5.521,-3.571 8.28,-5.356c-6.98,11.363 -13.961,22.724 -20.939,34.089l7.263,-16.483zm-241.361,99.654c-13.397,-12.719 -26.794,-25.438 -40.191,-38.158c7.235,5.725 14.469,11.448 21.702,17.172c7.664,6.062 15.328,12.126 22.992,18.189c2.536,2.008 4.515,3.815 6.668,6.216c14.475,16.14 28.952,32.278 43.427,48.418c-18.199,-17.279 -36.4,-34.558 -54.598,-51.837m107.011,39.963c15.38,-15.631 30.762,-31.263 46.146,-46.895c4.275,-4.347 8.554,-8.695 12.833,-13.043c0.312,-0.318 0.636,-0.627 0.967,-0.931c2.717,-2.112 5.433,-4.227 8.148,-6.339c0.003,-0.002 0.004,-0.002 0.006,-0.004c10.321,-8.025 20.64,-16.053 30.96,-24.078c-17.316,15.958 -34.633,31.916 -51.95,47.875c-15.702,14.471 -31.407,28.945 -47.11,43.415"/>
   </g>
  </symbol>
 </defs>
 <g>
  <title>Layer 1</title>
  <use id="svg_3" xlink:href="#svg_2" transform="matrix(0.3187251091003418,0,0,0.3187251091003418,0,0) " y="-59.6125" x="-103.5375"/>
  <g id="svg_4"/>
 </g>
</svg>