<svg width="640" height="480" xmlns="http://www.w3.org/2000/svg" xmlns:svg="http://www.w3.org/2000/svg">
 <!-- Created with SVG-edit - http://svg-edit.googlecode.com/ -->
 <g>
  <title>Layer 1</title>
  <path id="svg_16" d="m35.03275,183.46616c-11.77271,-1.87142 -18.12923,-19.36509 -6.36588,-25.77332c12.263,-6.31859 19.55631,16.17536 6.16125,18.37399c-7.33474,2.74783 9.52298,7.34941 12.66496,2.72897c9.81758,-4.75194 8.301,-17.11984 5.93894,-25.83019c-0.81973,-6.67299 -1.84485,-13.817 -10.26416,-10.02453c-20.31228,1.63427 -36.3935,-18.97243 -34.77822,-38.24992c0.54839,-18.18296 15.44227,-30.63677 26.47081,-43.26352c-3.6207,-16.51895 -4.71393,-35.60286 5.78212,-49.99786c9.66809,-11.70155 14.57538,9.71134 16.21078,16.9773c3.63264,16.98418 -3.61054,34.83186 -15.66306,46.80427c1.15083,5.67899 2.28316,11.36178 3.45597,17.03628c12.73647,-2.45904 24.89403,8.30318 25.58871,20.90909c1.96799,11.38333 -5.33321,22.13345 -15.30592,27.02568c-0.16398,9.775 5.23724,19.91461 3.29651,30.00871c-1.86379,10.4364 -13.56802,15.55412 -23.19281,13.27505l-0.00001,0zm13.29645,-44.53493c3.60845,-6.77357 -2.93677,-18.73618 -3.29613,-27.43089c0.14133,-15.16172 -15.94115,2.93698 -11.15857,10.38254c1.4177,4.40572 13.72311,12.48513 2.41962,7.50224c-11.80114,-7.06305 -11.26062,-25.2359 -0.47777,-32.90903c9.04643,-2.00384 3.52121,-14.07574 1.81664,-18.04093c-11.11094,10.12601 -23.70472,22.87668 -21.78852,39.2657c1.44341,15.36136 18.18939,24.68006 32.48472,21.23037l0,-0.00001zm7.47592,-2.93211c10.59721,-6.80312 10.24943,-24.65743 -1.34469,-30.195c-12.37099,-6.53685 -3.89765,10.5886 -3.67098,17.10715c1.71684,2.49538 0.74432,17.0357 5.01567,13.08785zm-13.06049,-81.84034c6.51863,-7.88574 13.97012,-19.27032 9.39213,-29.69631c-9.8587,-6.50776 -15.33725,11.08688 -15.57971,18.79119c-0.08969,4.99565 -0.82589,22.21479 6.18759,10.90512l0,0l-0.00001,0z" stroke-linecap="null" stroke-linejoin="null" stroke-dasharray="null" stroke-width="5" stroke="#000000" fill="#ffffff"/>
 </g>
</svg>