<?xml version="1.0" encoding="utf-8"?>
<!-- Generator: Adobe Illustrator 16.0.0, SVG Export Plug-In . SVG Version: 6.00 Build 0)  -->
<!DOCTYPE svg PUBLIC "-//W3C//DTD SVG 1.1//EN" "http://www.w3.org/Graphics/SVG/1.1/DTD/svg11.dtd">
<svg version="1.1" id="Layer_1" xmlns="http://www.w3.org/2000/svg" xmlns:xlink="http://www.w3.org/1999/xlink" x="0px" y="0px"
	 width="864px" height="864px" viewBox="0 0 864 864" enable-background="new 0 0 864 864" xml:space="preserve">
<path fill-rule="evenodd" clip-rule="evenodd" d="M762.771,379.887c1.935-1.742,5.225-2.56,7.955-2.739
	c13.268-0.87,26.568-1.235,39.84-2.049c16.438-1.007,32.86-2.28,49.753-3.47c-0.503-5.923-1.118-10.891-1.289-15.875
	c-0.169-4.856-2.784-5.752-6.989-5.497c-21.238,1.291-42.473,2.73-63.732,3.495c-10.488,0.377-22.61,2.706-31.291-1.468
	c-73.56-35.375-124.395-90.628-144.206-171.446c-1.163-4.746-0.464-10.648,1.294-15.283c5.542-14.611,12.005-28.874,18.108-43.272
	c9.037-21.321,18.07-42.642,27.252-64.307c-6.692-3.308-12.703-6.278-19.406-9.59c-1.968,4.068-3.745,7.39-5.218,10.841
	c-12.847,30.126-26.043,60.115-38.179,90.526c-3.222,8.073-8.171,10.589-15.646,11.228c-16.757,1.432-33.49,3.864-50.265,4.176
	c-30.021,0.557-59.603-2.837-87.222-15.882c-21.945-10.364-40.109-24.168-48.318-48.759c-5.305-15.896-13.027-30.986-19.728-46.411
	c-1.006-2.317-2.347-4.488-3.705-7.049c-6.77,3.225-12.794,6.096-19.324,9.207c1.347,3.47,2.306,6.194,3.448,8.84
	c8.415,19.505,16.977,38.948,25.198,58.534c1.408,3.355,3.015,7.957,1.816,10.865c-8.959,21.751-17.719,43.665-28.308,64.637
	c-8.434,16.706-23.665,25.696-42.117,29.437c-33.261,6.744-66.911,7.585-100.583,6.237c-9.975-0.399-20.182-3.631-29.605-7.301
	c-18.579-7.236-36.684-15.687-55.368-23.8c-3.026,7.225-5.705,13.622-8.648,20.651c22.264,9.694,43.633,18.886,64.877,28.358
	c3.66,1.631,7.831,3.729,9.979,6.843c8.354,12.108,16.924,24.229,23.643,37.258c7.84,15.204,10.684,31.869,7.669,49.062
	c-5.676,32.375-25.471,55.182-50.798,74.063c-2.453,1.828-5.919,2.675-9.042,3.168c-39.324,6.211-78.675,12.259-118.013,18.382
	c-14.196,2.208-28.378,4.505-42.921,6.816c0.726,5.35,1.554,8.845,1.604,12.351c0.105,7.282,3.203,9.688,10.517,8.495
	c43.364-7.074,86.745-14.055,130.183-20.648c12.16-1.848,25.093-5.143,36.708-2.859c40.41,7.938,75.113,27.809,104.31,56.817
	c44.342,44.056,69.338,97.881,78.195,159.309c2.372,16.45,4.906,33.053-3.802,49.353c-7.333,13.727-12.309,28.715-18.277,43.166
	c-4.124,9.983-8.16,20.004-12.419,30.461c7.076,2.97,13.229,5.552,20.07,8.423c1.504-3.322,2.752-5.896,3.849-8.532
	c10.31-24.788,20.534-49.612,30.963-74.35c1.334-3.164,3.147-6.533,5.677-8.723c39.701-34.351,81.679-65.355,129.715-87.359
	c60.182-27.567,122.778-39.235,188.837-29.541c13.211,1.938,24.582,5.973,34.526,15.595c13.112,12.687,27.556,23.998,41.966,36.364
	c4.856-5.8,9.336-11.149,14.749-17.614c-2.226-1.635-4.21-2.906-5.981-4.424c-15.05-12.888-30.144-25.728-45.011-38.822
	c-2.744-2.418-5.663-5.615-6.58-8.978c-10.609-38.87-18.492-78.094-14.53-118.799C731.585,420.913,742.556,398.091,762.771,379.887z
	 M596.516,206.877c22.259,65.699,63.439,113.135,119.237,149.382c-68.589,15.637-123.331-13.81-139.524-86.219
	c-1.776-7.947-0.598-14.831,2.789-22.097C584.931,235.254,590.048,222.192,596.516,206.877z M612.135,457.201
	c-13.423-11.479-24.974-21.25-36.371-31.195c-2.155-1.881-4.225-4.209-5.443-6.755c-6.325-13.207,0.159-28.532,14.689-30.957
	c15.207-2.537,30.867-2.356,48.636-3.514C620.755,408.134,610.904,429.702,612.135,457.201z M364.104,332.299
	c4.088,1.201,6.526,1.653,8.746,2.611c15.95,6.888,32.124,13.343,47.631,21.121c5.578,2.798,9.519,8.859,14.207,13.431
	c-4.702,4.119-8.797,10.43-14.224,11.932c-14.375,3.98-29.319,5.914-44.051,8.584c-3.703,0.672-7.458,1.053-13.132,1.835
	C371.968,371.689,372.788,352.769,364.104,332.299z M560.114,385.239l-6.796,23.06l-28.73-22.252L560.114,385.239z M560.172,295.937
	c10.061,27.269,25.594,49.31,48.738,65.785c-14.555,6.976-31.255,3.446-42.547-10.476
	C550.115,331.213,545.625,316.975,560.172,295.937z M512,399c4.438,3.868,9.71,10.494,14.521,14.685
	c-7.045,1.018-18.288,5.53-24.521,6.431C503.949,415.397,509.841,404.228,512,399z M507.698,359.55
	c-3.403-7.637-5.945-13.343-8.954-20.096c6.257,0,11.235,0,17.593,0C513.345,346.417,510.963,351.957,507.698,359.55z
	 M528.578,368.803c2.945-7.399,8.594-20.198,11.422-27.303l24.5,24.5C557.432,366.731,536.48,367.985,528.578,368.803z
	 M525.267,310.272c-12.426,11.541-29.595,8.523-39.604-6.476c-8.319-12.468-13.79-26.837-20.522-40.364
	c0.779-0.758,1.56-1.516,2.339-2.273c22.049,14.291,45.446,23.509,75.435,18.662C536.282,291.718,532.849,303.229,525.267,310.272z
	 M469,335.5l19.231,31.717L455.5,344L469,335.5z M444,382l5.857-15.078l27.394,12.003L444,382z M487.52,395.494
	c-3.184,7.642-6.663,21.148-9.52,28.006c-5.295-5.681-15.361-18.449-21-24.5C465.211,397.64,478.733,396.949,487.52,395.494z
	 M439.538,336.135c-6.62-0.905-13.245-2.789-19.488-5.207c-10.691-4.142-21.101-9.018-31.588-13.676
	c-2.191-0.973-4.208-2.336-7.735-4.325c28.24-9.2,47.033-26.333,58.64-53.691c3.119,6.873,5.557,12.092,7.869,17.367
	c4.605,10.509,9.324,20.974,13.666,31.592C467.681,324.77,457.249,338.558,439.538,336.135z M443.134,410.636
	c23.604,9.831,31.673,27.686,21.822,51.106c-5.712,13.581-11.491,27.134-17.293,40.676c-0.768,1.79-1.855,3.442-3.585,6.602
	c-10.809-40.918-32.528-72.516-66.994-95.516C399.37,410.253,420.61,401.255,443.134,410.636z M474.868,495.74
	c4.534-10.889,9.095-21.768,13.68-32.635c7.807-18.502,22.114-27.778,42.234-26.691c15.304,0.828,29.554,4.434,41.123,15.826
	c8.543,8.415,18.083,15.816,27.179,23.669c-0.331,0.716-0.663,1.431-0.994,2.146c-46.649-0.869-90.056,9.812-130.362,35.196
	C470.104,507.413,472.445,501.559,474.868,495.74z M581.13,183.623c-0.967,3.177-1.482,5.585-2.416,7.82
	c-7.375,17.658-14.559,35.404-22.357,52.876c-5.018,11.239-16.131,14.043-26.559,13.958c-10.6-0.087-22.613-1.127-31.452-6.202
	c-18.281-10.495-34.871-23.938-52.129-36.208c-0.683-0.486-1.245-1.301-1.588-2.083c-6.79-15.522-13.538-31.062-21.417-49.175
	C474.775,190.67,527.014,190.15,581.13,183.623z M308.883,252.169c39.159-4.775,62.16-29.495,77.438-63.497
	c3.583-7.976,7.014-16.021,11.079-25.326c1.686,3.008,2.896,4.807,3.754,6.76c5.098,11.604,9.049,23.869,15.402,34.73
	c10.075,17.223,7.785,33.65,0.132,50.447c-8.045,17.661-21.528,29.493-39.95,35.116c-19.012,5.803-37.701,7.078-56.613-2.508
	c-18.887-9.573-38.784-17.15-58.224-25.634c-2.346-1.024-4.602-2.255-8.594-4.227C273.315,255.94,291.134,254.334,308.883,252.169z
	 M214.532,414.116c16.472-20.089,28.508-41.2,32.079-66.666c3.605-25.715-3.643-48.9-15.033-72.937
	c3.466,1.114,5.614,1.613,7.605,2.475c25.992,11.248,52.04,22.372,77.916,33.88c28.708,12.767,39.721,53.671,20.891,78.42
	c-3.044,4-8.496,7.711-13.353,8.546c-35.157,6.051-70.445,11.336-105.7,16.813C217.909,414.807,216.793,414.408,214.532,414.116z
	 M389.663,642.221c-0.642,1.544-1.597,2.956-3.664,6.724c-8.9-47.151-25.581-88.781-52.173-126.155
	c-26.724-37.558-60.76-66.438-102.664-87.338c14.118-2.293,28.229-4.635,42.355-6.869c17.463-2.761,34.888-5.869,52.436-7.911
	c6.087-0.709,13.143-0.137,18.653,2.321c53.478,23.858,79.045,66.573,82.115,123.944c0.183,3.403-0.607,7.121-1.906,10.3
	C413.228,585.617,401.433,613.914,389.663,642.221z M408.3,655.882c3.182-7.725,6.362-15.451,9.545-23.176
	c5.504-13.356,12.13-26.373,16.288-40.135c9.416-31.159,32.115-50.177,58.248-66.067c34.689-21.094,72.928-26.97,113.009-26.196
	c17.731,0.342,31.377,6.036,43.942,18.289c14.472,14.114,30.483,26.648,45.826,39.869
	C585.467,551.376,493.479,592.107,408.3,655.882z M713.862,543.627c-3.22-2.209-5.178-3.309-6.854-4.741
	c-17.053-14.572-33.705-29.638-51.17-43.696c-21.482-17.292-26.614-39.439-18.355-64.166c5.062-15.161,13.908-29.096,21.535-43.324
	c1.263-2.355,4.916-4.646,7.607-4.826c21.133-1.406,42.301-2.29,64.913-3.406C695.962,431.382,705.089,486.786,713.862,543.627z"/>
</svg>
